<?xml version="1.0" encoding="utf-8"?>
<!-- Generator: Adobe Illustrator 22.0.0, SVG Export Plug-In . SVG Version: 6.00 Build 0)  -->
<svg version="1.1" id="Warstwa_1" xmlns="http://www.w3.org/2000/svg" xmlns:xlink="http://www.w3.org/1999/xlink" x="0px" y="0px"
	 viewBox="0 0 120 120" style="enable-background:new 0 0 120 120;" xml:space="preserve">
<style type="text/css">
	.st0{fill:none;}
	.st1{fill:#F5F2E8;}
	.st2{fill:#A0A6C0;}
	.st3{fill:#41464F;}
	.st4{fill:#B0B5CE;}
	.st5{fill:#464B54;}
	.st6{fill:#DADEF0;}
	.st7{fill:url(#SVGID_1_);}
	.st8{fill:url(#SVGID_2_);}
	.st9{fill:url(#SVGID_3_);}
	.st10{fill:#D9DBE6;}
	.st11{fill:url(#SVGID_4_);}
	.st12{fill:url(#SVGID_5_);}
	.st13{fill:#F6F6F8;}
	.st14{fill:#757EA9;}
	.st15{fill:#373C45;}
	.st16{fill:#C4C8D8;}
	.st17{fill:#5C6068;}
	.st18{fill:#545961;}
</style>
<rect y="0" class="st0" width="120" height="120"/>
<g>
	<path class="st1" d="M46.9,42.6c2-1.1,4.3-2,6.7-2.5c-0.6,0.3-1.1,0.6-1.7,0.9L28,53.5L46.9,42.6z"/>
	<g>
		<path class="st2" d="M86.7,80.1l-4.1-1.5c0,0,0.1-2,2-2.2C86.7,76.2,88.8,78.4,86.7,80.1z"/>
		<path class="st3" d="M17,61.1c0,0-2-0.1-2.7-2.8c-0.7-2.7-0.7-6.6,1.8-8.8c2.5-2.2,32.1-19.3,32.1-19.3s8.6-5.4,14.1-6.1
			c5.6-0.7,12-0.5,15.4,0.8c3.4,1.4,14.2,7.8,14.2,7.8L83.7,40c0,0-3.1-2.8-9.1-3.5c-6-0.7-9.8-1.9-19.5,2.4S17,61.1,17,61.1z"/>
		<polygon class="st4" points="83.1,33.2 83.1,51.6 91.3,45.2 86.7,33.6 		"/>
		<path class="st5" d="M84.3,35c0,0-0.6,1.7-0.7,3.4s0.8,3.1-0.1,7.1S62.8,60.7,55.9,61.2s-7.5,1.9-9.7,1.5s-5.7-2.2-7.5-1.1
			C36.8,62.9,55,71,61.9,68.5s26.8-18.4,27.2-20.1S88.2,37.3,84.3,35z"/>
		<path class="st6" d="M107.3,66.9V43.4l-10.7,3.3C96.6,46.7,95.8,67.4,107.3,66.9z"/>
		<g>
			<linearGradient id="SVGID_1_" gradientUnits="userSpaceOnUse" x1="83.7924" y1="77.9085" x2="83.9749" y2="77.9085">
				<stop  offset="9.114580e-02" style="stop-color:#41464F"/>
				<stop  offset="0.2508" style="stop-color:#41464F"/>
				<stop  offset="0.2512" style="stop-color:#424750"/>
				<stop  offset="0.2631" style="stop-color:#4D515B"/>
				<stop  offset="0.2797" style="stop-color:#545761"/>
				<stop  offset="0.326" style="stop-color:#565963"/>
				<stop  offset="0.3584" style="stop-color:#545761"/>
				<stop  offset="0.37" style="stop-color:#4D515B"/>
				<stop  offset="0.3758" style="stop-color:#464B54"/>
				<stop  offset="0.8151" style="stop-color:#464B54"/>
				<stop  offset="0.9712" style="stop-color:#464B54"/>
				<stop  offset="1" style="stop-color:#5E626A"/>
			</linearGradient>
			<polygon class="st7" points="83.8,78 84,77.9 84,77.9 			"/>
			<linearGradient id="SVGID_2_" gradientUnits="userSpaceOnUse" x1="32.0147" y1="77.603" x2="107.3277" y2="77.603">
				<stop  offset="1.384730e-02" style="stop-color:#A0A6C0"/>
				<stop  offset="0.2316" style="stop-color:#A0A6C0"/>
				<stop  offset="0.2494" style="stop-color:#B9BFD5"/>
				<stop  offset="0.2679" style="stop-color:#CCD0E4"/>
				<stop  offset="0.2873" style="stop-color:#D6DBED"/>
				<stop  offset="0.309" style="stop-color:#DADEF0"/>
				<stop  offset="0.6262" style="stop-color:#DADEF0"/>
				<stop  offset="0.6536" style="stop-color:#DADEF0"/>
				<stop  offset="1" style="stop-color:#DADEF0"/>
			</linearGradient>
			<path class="st8" d="M107.1,65.5c-0.4-1.3-1.5,1.1-3.1,0.1l-11.9-6.9c-0.9-0.5-2.5-0.5-3.4,0l-2.5,1.5c-0.7,0.4-0.9,1-0.5,1.5
				c4.2,6.4,1.9,10.4-7,15.6l-5.3,3.1c-8.9,5.1-24.3,5.2-35.4,2.7c-0.9-0.2-1.9-0.1-2.6,0.3l-2.1,1.2l-0.1,0l-0.4,0.2
				c-0.9,0.5-0.9,1.4,0,2L47,95c4.5,2.6,11.9,2.6,16.4,0l11.1-6.4l3.4-2c2.3-1.3,3.9-3.6,4.3-6.2l0-0.1c0.2-1,0.8-1.8,1.6-2.3
				l0.2-0.1l0.1,0c0.6-0.4,1.4,0,1.5,0.7c0.3,1.6,2.1,2.4,3.5,1.6l0,0l0,0c0,0,0,0,0,0l4.4-2.5l0,0l10.5-6.1
				c2.2-1.3,3.3-2.9,3.4-4.6c0-0.1,0-0.1,0-0.2C107.3,66.3,107.3,65.9,107.1,65.5z"/>
			<linearGradient id="SVGID_3_" gradientUnits="userSpaceOnUse" x1="32.0192" y1="70.5175" x2="107.3277" y2="70.5175">
				<stop  offset="9.114580e-02" style="stop-color:#41464F"/>
				<stop  offset="0.2508" style="stop-color:#41464F"/>
				<stop  offset="0.2512" style="stop-color:#424750"/>
				<stop  offset="0.2631" style="stop-color:#4D515B"/>
				<stop  offset="0.2797" style="stop-color:#545761"/>
				<stop  offset="0.326" style="stop-color:#565963"/>
				<stop  offset="0.3584" style="stop-color:#545761"/>
				<stop  offset="0.37" style="stop-color:#4D515B"/>
				<stop  offset="0.3758" style="stop-color:#464B54"/>
				<stop  offset="0.8151" style="stop-color:#464B54"/>
				<stop  offset="0.9712" style="stop-color:#464B54"/>
				<stop  offset="1" style="stop-color:#5E626A"/>
			</linearGradient>
			<path class="st9" d="M87.2,51c-0.2,0.1-0.5,0.1-0.7,0.2c-0.1,0-0.1,0.1-0.2,0.1l-2.5,1.5c-0.7,0.4-0.9,1-0.5,1.5
				c0,0.1,0.1,0.1,0.1,0.2l-4.5,4.1l-23.3,6.6L32,62.6v20.6v0.2v0.6l1.1,0.6l13.4,7.7h0l0.4,0.2c4.5,2.6,11.9,2.6,16.4,0l14.3-8.2
				c1.6-0.9,2.6-2.4,2.9-4.2c0.3-1.6,1.3-3.1,2.7-3.9l0.5-0.3c1.4-0.8,3.1,0,3.4,1.5c0.1,0.6,0.8,0.9,1.3,0.6l4.3-2.5l0,0l11.1-6.4
				c0.6-0.4,1.2-0.8,1.7-1.2c0.8-0.7,1.3-1.5,1.5-2.3c0.1-0.4,0.2-0.8,0.2-1.3V46.6L87.2,51z"/>
		</g>
		<polygon class="st2" points="32,85.8 32,62.3 37.6,63.7 35.9,86.8 		"/>
		<polygon class="st2" points="35,66.4 35,86 41.2,89.5 41.2,69.9 		"/>
		<polygon class="st10" points="39.2,85 38.1,84.7 32.7,81.5 32.7,81.3 		"/>
		<linearGradient id="SVGID_4_" gradientUnits="userSpaceOnUse" x1="31.6543" y1="58.1477" x2="108.5973" y2="58.1477">
			<stop  offset="1.384730e-02" style="stop-color:#A0A6C0"/>
			<stop  offset="0.2316" style="stop-color:#A0A6C0"/>
			<stop  offset="0.2494" style="stop-color:#B9BFD5"/>
			<stop  offset="0.2679" style="stop-color:#CCD0E4"/>
			<stop  offset="0.2873" style="stop-color:#D6DBED"/>
			<stop  offset="0.309" style="stop-color:#DADEF0"/>
			<stop  offset="0.6262" style="stop-color:#DADEF0"/>
			<stop  offset="0.6536" style="stop-color:#DADEF0"/>
			<stop  offset="1" style="stop-color:#DADEF0"/>
		</linearGradient>
		<path class="st11" d="M104,41.8l-3.9-2.2c-2.2,1.9-4.4,3.8-6.5,5.9c-3.5,3.5-6.6,7.2-11.1,9.4c-0.1,0-0.1,0.1-0.2,0.1
			c-0.8,0.8-1.8,1.5-2.9,2.1L74,60.2c-8.9,5.1-25.1,5-36.2,2.6c-0.9-0.2-1.9-0.1-2.6,0.3l-2.5,1.5c-0.9,0.5-0.9,1.4,0,2L47,74.8
			c4.5,2.6,11.9,2.6,16.4,0l40.6-23.4C108.4,48.7,108.5,44.4,104,41.8z"/>
		<linearGradient id="SVGID_5_" gradientUnits="userSpaceOnUse" x1="45.3324" y1="101.3094" x2="66.4574" y2="59.8094">
			<stop  offset="0" style="stop-color:#C4C7D8"/>
			<stop  offset="0.1901" style="stop-color:#B1B5CB"/>
			<stop  offset="0.5391" style="stop-color:#D9DBE6"/>
			<stop  offset="1" style="stop-color:#E5E6EE"/>
		</linearGradient>
		<path class="st12" d="M35.3,60.2c0.7-0.4,1.7-0.6,2.6-0.3c17,6.6,30,0.5,36.1-2.9l5.3-3.1c3.9-2.8,14.2-12.8,4-20.3
			c-0.5-0.4-0.1-1.1,0.5-1.5l2.5-1.5c0.9-0.5,2.5-0.5,3.4,0l14.2,8.2c4.5,2.6,4.5,6.8-0.1,9.4L63.3,71.8c-4.5,2.6-11.9,2.6-16.4,0
			l-14.2-8.2c-0.9-0.5-0.9-1.4,0-2L35.3,60.2z"/>
		<path class="st13" d="M55.1,72.9c-3,0-5.8-0.7-7.9-1.9L33,62.8c-0.3-0.2-0.4-0.4-0.4-0.5c0-0.2,0.2-0.4,0.5-0.6l2.5-1.5
			c0.4-0.2,1-0.4,1.5-0.4c0.3,0,0.5,0,0.7,0.1c5.1,2,10.2,2.9,15.3,2.9c10.6,0,18.6-4.4,21.2-5.9l5.3-3.1c3-2.1,8.6-7.5,8.6-13.1
			c0-3-1.5-5.7-4.6-8c-0.1-0.1,0.1-0.4,0.5-0.6l2.5-1.5c0.4-0.2,0.9-0.3,1.5-0.3c0.5,0,1.1,0.1,1.4,0.3l14.2,8.2
			c2,1.2,3.1,2.7,3.1,4.3c0,1.6-1.1,3.1-3.2,4.3L63.1,71C60.9,72.2,58.1,72.9,55.1,72.9z"/>
		<polygon class="st10" points="39.2,69.6 38.1,70.8 32.7,67.7 33.8,66.5 		"/>
		<polygon class="st2" points="32.7,67.7 32.7,83.8 38.1,86.9 38.1,70.8 		"/>
		<polygon class="st14" points="33.2,68.6 33.2,83.5 37.2,85.8 37.2,71 		"/>
		<polygon class="st15" points="34,69.2 34,83.1 37,84.9 37,71 		"/>
		<polygon class="st16" points="38.1,70.8 38.1,86.9 39.2,87.3 39.2,69.6 		"/>
		<g>
			<path class="st3" d="M83.1,38.7v1.6l-0.6-0.4c-7.8-4.5-20.5-4.5-28.3-0.1L22.9,57.9l-1.4,0.8l-1.1,0.6
				c-7.8,4.5-7.7,11.8,0.1,16.3l7.7,4.4c1.6,0.9,3.8,1.5,6.1,1.7l-0.2,1.1c-2.8-0.2-5.3-0.9-7.3-2l-7.7-4.4c-8.6-5-8.6-13-0.1-17.9
				l1.1-0.6l1.4-0.8l31.3-18.1C61.1,34.3,74.5,34.2,83.1,38.7z"/>
		</g>
		<path class="st3" d="M12.7,55.2v12.7c0,0,1.8,4.3,3.3,5.6c1.5,1.3,12.6,7.7,12.6,7.7l5.6,1.7V70.6l-4.2-1.1l-13.5-7.6L14.4,58
			L12.7,55.2z"/>
		<polygon class="st3" points="34.3,69.5 35.5,70.2 35.5,82.9 34.1,82.9 32.2,82.6 33.6,70.3 		"/>
		<path class="st17" d="M22.9,64.7L21.5,64l-1-0.6c-7.8-4.5-7.9-11.8-0.1-16.3l33.7-19.5c7.8-4.5,20.5-4.5,28.3,0.1l4.8,2.8
			c0.8-0.2,1.8-0.1,2.5,0.3l4.7,2.7c-0.3-0.4-0.6-0.8-1.1-1.1l-9.6-5.5c-8.6-5-22.5-5-31-0.1L19,46.3c-8.5,4.9-8.5,13,0.1,17.9
			l1,0.6l1.4,0.8l5.3,3.1c2,1.1,4.6,1.8,7.3,2l0.2-1.1c-2.3-0.1-4.5-0.7-6.1-1.7L22.9,64.7z"/>
		<path class="st17" d="M34.1,70.6c0,0,1.2,0,1.4-0.4l-1.2-0.7l-0.7,0.6L34.1,70.6z"/>
		<path class="st18" d="M35.5,70.6v12.6c0,0,0,0,0,0v0l0,0c0,0.1,0.1,0.3,0.3,0.4c0.3,0.2,0.8,0.2,1.2,0.1V71L35.5,70.6z"/>
		<path class="st17" d="M35.6,70.3c-0.2,0.2-0.2,0.5,0.1,0.7c0.3,0.2,0.8,0.2,1.2,0.1L35.6,70.3z"/>
	</g>
</g>
</svg>
