<?xml version="1.0" encoding="utf-8"?>
<!-- Generator: Adobe Illustrator 22.0.0, SVG Export Plug-In . SVG Version: 6.00 Build 0)  -->
<svg version="1.1" id="Warstwa_1" xmlns="http://www.w3.org/2000/svg" xmlns:xlink="http://www.w3.org/1999/xlink" x="0px" y="0px"
	 viewBox="0 0 120 120" style="enable-background:new 0 0 120 120;" xml:space="preserve">
<style type="text/css">
	.st0{fill:none;}
	.st1{fill:#F5F2E8;}
	.st2{fill:url(#SVGID_1_);}
	.st3{fill:url(#SVGID_2_);}
	.st4{fill:#E8E7EC;}
	.st5{fill:#F6F6F8;}
	.st6{fill:#CFCFDA;}
	.st7{fill:#A0A6C0;}
	.st8{fill:#3D424C;}
	.st9{fill:#464B54;}
	.st10{fill:#41464F;}
	.st11{fill:url(#SVGID_3_);}
	.st12{fill:url(#SVGID_4_);}
	.st13{fill:#81D1EF;}
	.st14{fill:#EFEEF2;}
	.st15{fill:#F9F9FA;}
	.st16{fill:url(#SVGID_5_);}
	.st17{fill:url(#SVGID_6_);}
	.st18{fill:#393842;}
</style>
<rect y="0" class="st0" width="120" height="120"/>
<g>
	<g>
		<path class="st1" d="M61.1,38.4c-0.2,0-0.3,0-0.5,0c0.1,0,0.3,0,0.4,0C61.1,38.4,61.1,38.4,61.1,38.4z"/>
	</g>
	<g>
		<linearGradient id="SVGID_1_" gradientUnits="userSpaceOnUse" x1="30.784" y1="37.0914" x2="108.219" y2="37.0914">
			<stop  offset="0.2045" style="stop-color:#CFCFDA"/>
			<stop  offset="0.2811" style="stop-color:#C8C9D6"/>
			<stop  offset="0.3935" style="stop-color:#B4B8CB"/>
			<stop  offset="0.4814" style="stop-color:#A0A6C0"/>
			<stop  offset="0.5912" style="stop-color:#8990B0"/>
		</linearGradient>
		<path class="st2" d="M108.2,48.3C108.2,48.3,108.2,48.3,108.2,48.3C108.2,48.3,108.2,48.3,108.2,48.3v-5.2c0,0-2.2-7.2-9.9-10.6
			C90.5,29,86.1,23.4,67,23.9c-19.1,0.5-33.5,12.9-33.5,12.9l3.5-2.1v6.7c-3.8,2.3-6,4-6.2,4.1l1.5,0.7c0,0,4.4-3.4,11.1-6.8
			c6.2-3.1,14.3-6.2,24.7-6.8c8.1-0.4,15.7,1.3,22.5,5l8.8,4.8c3.9,2.4,6.6,5,7.8,7.7c0.1-0.2,0.2-0.4,0.3-0.6
			c0.4,0.6,0.6,0.9,0.6,0.9V48.3z"/>
		<linearGradient id="SVGID_2_" gradientUnits="userSpaceOnUse" x1="84.543" y1="61.287" x2="109.9914" y2="61.287">
			<stop  offset="0.1453" style="stop-color:#A0A6C0"/>
			<stop  offset="0.3516" style="stop-color:#B4B8CB"/>
			<stop  offset="0.6156" style="stop-color:#C8C9D6"/>
			<stop  offset="0.7955" style="stop-color:#CFCFDA"/>
		</linearGradient>
		<path class="st3" d="M110,54.2c0-0.2,0-0.4,0-0.5v-8l-4.1,8.8L91.9,65.2l-0.5,0.7v6.7c-3.8,2.1-6.8,3.4-6.8,3.4l1.1,0.9
			c0.2-0.1,6-2.6,12.1-6.5c5.6-3.7,11.2-8.6,12.1-14.9c0.1-0.3,0.1-0.7,0.1-1c0,0,0,0,0,0V54.2z"/>
		<polygon class="st4" points="32.3,44.5 36.2,41.5 36.2,33.2 32.3,34.7 32.3,34.7 29.7,36.5 29.7,45.7 32.3,44.5 		"/>
		<g>
			<path class="st4" d="M109.9,47.2c-0.9,6.3-6.5,11.3-12.1,14.9c-2.3,1.5-4.5,2.7-6.4,3.8L90,65.1c1.9-1,4.1-2.3,6.3-3.7
				c5.4-3.6,10.7-8.3,11.6-14.3c0.7-4.7-2.2-9-8.6-13l-8.8-4.8c-6.8-3.7-14.4-5.4-22.5-5c-10.4,0.5-18.5,3.6-24.7,6.8
				c-2.5,1.3-4.7,2.6-6.5,3.7l-1.4-0.8c1.8-1.1,4-2.4,6.5-3.7c6.4-3.3,14.9-6.5,25.8-7c8.7-0.4,16.7,1.3,24,5.3l0,0l8.8,4.9
				C107.6,37.5,110.6,42.2,109.9,47.2z"/>
		</g>
		<polygon class="st5" points="36.2,33.2 37.8,34.4 35.1,36.9 32.5,38.7 29.7,36.5 32.3,34.7 		"/>
		<polygon class="st6" points="35.1,46.7 37.8,42.7 37.8,34.4 35.1,36.9 35.1,36.9 32.5,38.7 32.5,47.9 35.1,46.7 		"/>
		<polygon class="st7" points="86,75.5 89.9,72.5 89.9,64.2 86,65.7 86,65.7 83.4,67.5 83.4,76.7 86,75.5 		"/>
		<polygon class="st5" points="89.9,64.2 91.9,65.7 88.8,67.9 86.2,69.7 83.4,67.5 86,65.7 		"/>
		<polygon class="st4" points="88.8,77.7 91.9,74 91.9,65.7 88.8,67.9 88.8,67.9 86.2,69.7 86.2,78.9 88.8,77.7 		"/>
		
			<ellipse transform="matrix(0.5047 -0.8633 0.8633 0.5047 -32.4012 93.896)" class="st8" cx="65.6" cy="75.2" rx="17.8" ry="10.3"/>
		<polygon class="st8" points="76.9,61.1 74.6,59.8 56.4,90.4 61.9,93.4 79,62.2 		"/>
		
			<ellipse transform="matrix(0.5047 -0.8633 0.8633 0.5047 -32.3668 98.4503)" class="st9" cx="69.6" cy="77.4" rx="17.8" ry="10.3"/>
		
			<ellipse transform="matrix(0.5047 -0.8633 0.8633 0.5047 -32.3247 99.1677)" class="st10" cx="70.3" cy="77.8" rx="17.8" ry="10.3"/>
		<linearGradient id="SVGID_3_" gradientUnits="userSpaceOnUse" x1="61.9832" y1="93.178" x2="79.4265" y2="62.9653">
			<stop  offset="0.4088" style="stop-color:#8990B0"/>
			<stop  offset="0.5186" style="stop-color:#A0A6C0"/>
			<stop  offset="0.6065" style="stop-color:#B4B8CB"/>
			<stop  offset="0.7189" style="stop-color:#C8C9D6"/>
			<stop  offset="0.7955" style="stop-color:#CFCFDA"/>
		</linearGradient>
		<path class="st11" d="M83,65.1l-3-1.6l0,0c-2.3-1.7-5.6-1.7-9.4,0.5c-6.8,3.9-12.4,13.5-12.4,21.3c0,4.3,1.7,7.2,4.3,8.3l0,0
			l3,1.7l0.8-1.3c1.3-0.2,2.8-0.7,4.3-1.6C77.5,88.3,83,78.8,83,71c0-1.8-0.3-3.3-0.8-4.5L83,65.1z"/>
		<linearGradient id="SVGID_4_" gradientUnits="userSpaceOnUse" x1="65.4198" y1="95.095" x2="82.8286" y2="64.9422">
			<stop  offset="0" style="stop-color:#C4C7D8"/>
			<stop  offset="6.340717e-02" style="stop-color:#C2C5D6"/>
			<stop  offset="9.639005e-02" style="stop-color:#BABED1"/>
			<stop  offset="0.1223" style="stop-color:#ADB1C8"/>
			<stop  offset="0.138" style="stop-color:#A0A6C0"/>
			<stop  offset="0.228" style="stop-color:#B8BDD0"/>
			<stop  offset="0.3244" style="stop-color:#CBCEDC"/>
			<stop  offset="0.4258" style="stop-color:#D5D8E4"/>
			<stop  offset="0.5391" style="stop-color:#D9DBE6"/>
			<stop  offset="0.5541" style="stop-color:#DCDEE8"/>
			<stop  offset="0.5665" style="stop-color:#E7E8EF"/>
			<stop  offset="0.5728" style="stop-color:#EFF0F5"/>
			<stop  offset="0.9719" style="stop-color:#EFF0F5"/>
			<stop  offset="0.9727" style="stop-color:#EEEFF4"/>
			<stop  offset="0.9799" style="stop-color:#E7E8EF"/>
			<stop  offset="1" style="stop-color:#E5E6EE"/>
		</linearGradient>
		<path class="st12" d="M88.5,72.3l-3.3-5c-0.2-0.3-0.3-0.5-0.5-0.7l-0.1-0.2c0,0,0,0,0,0c-2.2-2.7-6-3.1-10.4-0.6
			c-6.8,3.9-12.4,13.5-12.4,21.3c0,4.4,1.7,7.3,4.5,8.3v0l0,0c0.4,0.2,0.9,0.3,1.3,0.3l4,1l1.3-1.9c0.4-0.2,0.8-0.4,1.3-0.7
			c6.1-3.5,11.1-11.4,12.1-18.7L88.5,72.3z"/>
		
			<ellipse transform="matrix(0.5047 -0.8633 0.8633 0.5047 -32.6482 108.0666)" class="st4" cx="77.9" cy="82.5" rx="15.8" ry="9.1"/>
		
			<ellipse transform="matrix(0.5047 -0.8633 0.8633 0.5047 -32.6481 108.0665)" class="st13" cx="77.9" cy="82.5" rx="13.2" ry="7.6"/>
		<path class="st4" d="M69.5,87.3c0,5.3,3.7,7.4,8.4,4.8c4.6-2.7,8.4-9.1,8.4-14.4c0-5.3-3.7-7.4-8.4-4.8
			C73.2,75.6,69.5,82,69.5,87.3z"/>
		<path class="st14" d="M72.5,78.1c-0.5,0.7-0.9,1.5-1.3,2.3l6.6,2.3l4.3,5.5c0.8-1,1.5-2.1,2.1-3.3l-6.4-2.5L72.5,78.1z"/>
		<path class="st15" d="M81.2,71.8l-3.3,10.7l-7.3,8.9c0.8,1.2,2.1,1.9,3.6,1.9l3.7-10.5l7.4-9.1C84.3,72.3,82.9,71.6,81.2,71.8z"/>
		<path class="st6" d="M86.2,77.2c0-0.9-0.2-1.7-0.4-2.4l-7.9,7.6l-8.4,4.8c0,0,0,0,0,0c0,0.8,0.1,1.5,0.3,2.2l8.1-6.9L86.2,77.2z"
			/>
		<g>
			<linearGradient id="SVGID_5_" gradientUnits="userSpaceOnUse" x1="12.7329" y1="64.459" x2="29.8535" y2="34.8052">
				<stop  offset="0" style="stop-color:#C4C7D8"/>
				<stop  offset="6.340717e-02" style="stop-color:#C2C5D6"/>
				<stop  offset="9.639005e-02" style="stop-color:#BABED1"/>
				<stop  offset="0.1223" style="stop-color:#ADB1C8"/>
				<stop  offset="0.138" style="stop-color:#A0A6C0"/>
				<stop  offset="0.228" style="stop-color:#B8BDD0"/>
				<stop  offset="0.3244" style="stop-color:#CBCEDC"/>
				<stop  offset="0.4258" style="stop-color:#D5D8E4"/>
				<stop  offset="0.5391" style="stop-color:#D9DBE6"/>
				<stop  offset="0.5541" style="stop-color:#DCDEE8"/>
				<stop  offset="0.5665" style="stop-color:#E7E8EF"/>
				<stop  offset="0.5728" style="stop-color:#EFF0F5"/>
				<stop  offset="0.9719" style="stop-color:#EFF0F5"/>
				<stop  offset="0.9727" style="stop-color:#EEEFF4"/>
				<stop  offset="0.9799" style="stop-color:#E7E8EF"/>
				<stop  offset="1" style="stop-color:#E5E6EE"/>
			</linearGradient>
			<path class="st16" d="M31,37.8l1-1.8l-4.9-0.6l0,0c-1.7-0.2-3.7,0.2-5.8,1.5C15,40.5,10,49.1,10,56.3c0,2.5,0.6,4.5,1.8,5.9l0,0
				l0.1,0.1c0,0,0.1,0.1,0.1,0.1l3,3.4l0.9-1.6c1.6,0.1,3.4-0.4,5.3-1.5c6.2-3.6,11.2-12.2,11.2-19.3C32.4,41,31.9,39.2,31,37.8z"/>
			<linearGradient id="SVGID_6_" gradientUnits="userSpaceOnUse" x1="16.2051" y1="67.2043" x2="34.003" y2="36.3774">
				<stop  offset="0.4088" style="stop-color:#8990B0"/>
				<stop  offset="0.5186" style="stop-color:#A0A6C0"/>
				<stop  offset="0.6065" style="stop-color:#B4B8CB"/>
				<stop  offset="0.7189" style="stop-color:#C8C9D6"/>
				<stop  offset="0.7955" style="stop-color:#CFCFDA"/>
			</linearGradient>
			<path class="st17" d="M38.2,38.8l-4.7-2.2l0,0c-2.2-1.1-5.1-0.8-8.4,1.1c-6.8,3.9-12.4,13.5-12.4,21.3c0,3.8,1.3,6.5,3.4,7.8l0,0
				l3.7,2.6l1.1-1.8c1.3-0.2,2.7-0.7,4.2-1.6c6.8-3.9,12.4-13.5,12.4-21.3c0-1.4-0.2-2.7-0.5-3.8L38.2,38.8z"/>
			
				<ellipse transform="matrix(0.5047 -0.8633 0.8633 0.5047 -32.2181 51.2439)" class="st6" cx="28.5" cy="53.7" rx="17.4" ry="10.1"/>
			<ellipse transform="matrix(0.5047 -0.8633 0.8633 0.5047 -32.2871 51.7614)" class="st8" cx="29" cy="54" rx="17.8" ry="10.3"/>
			<polygon class="st8" points="41.9,41 38.2,38.8 19.6,69.1 23.3,71.3 			"/>
			
				<ellipse transform="matrix(0.5047 -0.8633 0.8633 0.5047 -32.2971 55.4582)" class="st10" cx="32.2" cy="55.9" rx="17.8" ry="10.3"/>
			
				<ellipse transform="matrix(0.5047 -0.8633 0.8633 0.5047 -32.4026 55.8719)" class="st8" cx="32.5" cy="56.2" rx="12.8" ry="7.4"/>
			
				<ellipse transform="matrix(0.5047 -0.8633 0.8633 0.5047 -32.2971 55.458)" class="st18" cx="32.2" cy="55.9" rx="11.4" ry="6.6"/>
			
				<ellipse transform="matrix(0.5047 -0.8633 0.8633 0.5047 -32.2986 54.5734)" class="st8" cx="31.4" cy="55.4" rx="9.9" ry="5.7"/>
		</g>
	</g>
</g>
</svg>
