<?xml version="1.0" encoding="utf-8"?>
<!-- Generator: Adobe Illustrator 22.0.0, SVG Export Plug-In . SVG Version: 6.00 Build 0)  -->
<svg version="1.1" id="Warstwa_1" xmlns="http://www.w3.org/2000/svg" xmlns:xlink="http://www.w3.org/1999/xlink" x="0px" y="0px"
	 viewBox="0 0 120 120" style="enable-background:new 0 0 120 120;" xml:space="preserve">
<style type="text/css">
	.st0{fill:none;}
	.st1{fill:url(#SVGID_1_);}
	.st2{fill:#494855;}
	.st3{fill:#7C78F0;}
	.st4{fill:#FFE568;}
	.st5{fill:#FFEC8B;}
	.st6{fill:#C4C8D8;}
	.st7{fill:#EFF0F5;}
	.st8{fill:#FC797E;}
	.st9{fill:url(#SVGID_2_);}
	.st10{fill:#E1E3EB;}
	.st11{fill:#D9DBE6;}
	.st12{fill:#C5C9D8;}
	.st13{fill:#393842;}
	.st14{fill:#57565E;}
</style>
<rect y="0" class="st0" width="120" height="120"/>
<g>
	<g>
		<g>
			<linearGradient id="SVGID_1_" gradientUnits="userSpaceOnUse" x1="31.3562" y1="81.4875" x2="57.9776" y2="12.7437">
				<stop  offset="1.384730e-02" style="stop-color:#A0A6C0"/>
				<stop  offset="0.3825" style="stop-color:#A0A6C0"/>
				<stop  offset="0.386" style="stop-color:#ADB2C9"/>
				<stop  offset="0.3943" style="stop-color:#C6C9DA"/>
				<stop  offset="0.4029" style="stop-color:#D9DAE6"/>
				<stop  offset="0.4119" style="stop-color:#E3E4EE"/>
				<stop  offset="0.422" style="stop-color:#E7E7F0"/>
			</linearGradient>
			<path class="st1" d="M76.9,54.6L65.9,12.8c-0.2-0.8-0.6-1.3-1.1-1.6l0-0.2l-0.9-0.1l0,0c-0.3,0-0.6,0.1-0.9,0.3L12.1,40.6
				c-1.2,0.7-1.8,2.5-1.4,4l11.1,41.8c0.2,0.9,0.8,1.3,1.5,1.3l0,0l0,0l0,0l0.8,0.1L24,87.5l51.8-29.9
				C76.7,57.1,77.2,55.8,76.9,54.6z"/>
			<path class="st2" d="M63.8,11.2L12.9,40.6c-1.2,0.7-1.8,2.5-1.4,4l11.1,41.8c0.3,1.1,1.3,1.7,2.2,1.1l52-30
				c0.9-0.5,1.4-1.9,1.1-3L66.7,12.7C66.3,11.2,65,10.6,63.8,11.2L63.8,11.2z"/>
			<polygon class="st3" points="65.2,12.4 12.4,42.9 23.2,83.7 76,53.2 			"/>
			<g>
				<path class="st4" d="M23.2,53.1l-1.8,1c-0.1,0.1-0.3,0-0.3-0.1L21,54c-0.1-0.1-0.2-0.1-0.3-0.1L19,54.9
					c-0.1,0.1-0.2,0.2-0.2,0.4l0,0.3c0,0,0,0.1,0,0.1l0.8,3.1c0,0.1,0.2,0.2,0.3,0.1l4.3-2.5c0.1-0.1,0.2-0.2,0.2-0.4l-0.7-2.8
					C23.5,53.1,23.3,53,23.2,53.1z"/>
				<path class="st5" d="M23.3,53.4l-4.3,2.5c-0.1,0.1-0.2,0.2-0.2,0.4l0.6,2.6c0,0.1,0.2,0.2,0.3,0.1l4.3-2.5
					c0.1-0.1,0.2-0.2,0.2-0.4l-0.6-2.6C23.6,53.3,23.4,53.3,23.3,53.4z"/>
			</g>
			<g>
				<path class="st4" d="M21,45.8l-1.8,1c-0.1,0.1-0.3,0-0.3-0.1l-0.1-0.1c-0.1-0.1-0.2-0.1-0.3-0.1l-1.6,0.9
					c-0.1,0.1-0.2,0.2-0.2,0.4l0,0.3c0,0,0,0.1,0,0.1l0.8,3.1c0,0.1,0.2,0.2,0.3,0.1l4.3-2.5c0.1-0.1,0.2-0.2,0.2-0.4L21.3,46
					C21.3,45.8,21.1,45.7,21,45.8z"/>
				<path class="st5" d="M21.1,46.1l-4.3,2.5c-0.1,0.1-0.2,0.2-0.2,0.4l0.6,2.6c0,0.1,0.2,0.2,0.3,0.1l4.3-2.5
					c0.1-0.1,0.2-0.2,0.2-0.4l-0.6-2.6C21.4,46,21.2,46,21.1,46.1z"/>
			</g>
			<g>
				<path class="st4" d="M64.1,19.3l-1.8,1c-0.1,0.1-0.3,0-0.3-0.1l-0.1-0.1c-0.1-0.1-0.2-0.1-0.3-0.1l-1.6,0.9
					c-0.1,0.1-0.2,0.2-0.2,0.4l0,0.3c0,0,0,0.1,0,0.1l0.8,3.1c0,0.1,0.2,0.2,0.3,0.1l4.3-2.5c0.1-0.1,0.2-0.2,0.2-0.4l-0.7-2.8
					C64.4,19.3,64.3,19.2,64.1,19.3z"/>
				<path class="st5" d="M64.2,19.6L60,22c-0.1,0.1-0.2,0.2-0.2,0.4l0.6,2.6c0,0.1,0.2,0.2,0.3,0.1l4.3-2.5c0.1-0.1,0.2-0.2,0.2-0.4
					l-0.6-2.6C64.5,19.5,64.4,19.5,64.2,19.6z"/>
			</g>
			<polygon class="st6" points="75.5,51.4 22.7,81.9 23.2,83.7 76,53.2 			"/>
			<g>
				<polygon class="st7" points="64.9,53.2 33.1,71.6 26.2,45.7 25.2,41.8 57.1,23.4 58.1,27.3 				"/>
				<polygon class="st6" points="58.1,27.3 26.2,45.7 25.2,41.8 57.1,23.4 				"/>
				<polygon class="st8" points="27,44.2 29.1,43 28.7,41.4 26.6,42.6 27,44.2 				"/>
			</g>
		</g>
		<g>
			<g>
				<linearGradient id="SVGID_2_" gradientUnits="userSpaceOnUse" x1="24.5549" y1="83.3502" x2="113.4129" y2="83.3502">
					<stop  offset="1.384730e-02" style="stop-color:#A0A6C0"/>
					<stop  offset="0.3825" style="stop-color:#A0A6C0"/>
					<stop  offset="0.3848" style="stop-color:#A3A9C2"/>
					<stop  offset="0.3997" style="stop-color:#B6BACE"/>
					<stop  offset="0.4155" style="stop-color:#C0C5D6"/>
					<stop  offset="0.4331" style="stop-color:#C4C8D8"/>
					<stop  offset="0.9356" style="stop-color:#C4C8D8"/>
					<stop  offset="0.979" style="stop-color:#C4C8D8"/>
					<stop  offset="1" style="stop-color:#C4C8D8"/>
				</linearGradient>
				<path class="st9" d="M113.4,78.1C113.4,78.1,113.4,78.1,113.4,78.1v-2l-1.6,0.2L80.2,58c-1-0.6-2.6-0.6-3.6,0L27.9,86.3
					l-3.3,0.4v2.1l0,0c0,0.4,0.2,0.8,0.8,1.1l32.2,18.6c1.4,0.8,3.6,0.8,5,0l49.9-29C113.1,79.1,113.4,78.6,113.4,78.1L113.4,78.1
					L113.4,78.1z"/>
				<path class="st7" d="M112.4,74.7L80.2,56.1c-1-0.6-2.6-0.6-3.6,0L25.3,85.9c-1,0.6-1,1.5,0,2.1l32.2,18.6c1.4,0.8,3.6,0.8,5,0
					l49.9-29C113.8,76.8,113.8,75.5,112.4,74.7L112.4,74.7z"/>
				<path class="st10" d="M99,68.4l-19-11c-0.7-0.4-1.7-0.4-2.4,0L27.5,86.5c-0.7,0.4-0.7,1,0,1.4l19,11c0.7,0.4,1.7,0.4,2.4,0
					L99,69.8C99.7,69.4,99.7,68.7,99,68.4z"/>
				<path class="st11" d="M96.6,84.2l-9.4-5.5c-0.6-0.3-1.4-0.3-2,0L64.4,90.8c-0.5,0.3-0.5,0.8,0,1.2l9.4,5.5c0.6,0.3,1.4,0.3,2,0
					l20.8-12.1C97.2,85,97.2,84.5,96.6,84.2L96.6,84.2z"/>
				<path class="st12" d="M64.4,91.1L85.2,79c0.5-0.3,1.4-0.3,2,0l9.4,5.5c0.2,0.1,0.3,0.3,0.4,0.4c0.1-0.3,0-0.5-0.4-0.7l-9.4-5.5
					c-0.6-0.3-1.4-0.3-2,0L64.4,90.8c-0.3,0.2-0.5,0.5-0.4,0.7C64.1,91.4,64.2,91.2,64.4,91.1z"/>
			</g>
			<g>
				<path class="st13" d="M36.1,88.3V88l-0.2,0l-2.3-1.3c-0.2-0.1-0.6-0.1-0.8,0L30.4,88l-0.2,0v0.3v0v0h0c0,0.1,0.1,0.2,0.2,0.2
					l2.3,1.3c0.2,0.1,0.6,0.1,0.8,0l2.3-1.3C36,88.5,36.1,88.4,36.1,88.3z"/>
				<path class="st13" d="M50.7,96.8v-0.3l-0.2,0l-2.3-1.3c-0.2-0.1-0.6-0.1-0.8,0l-2.3,1.3l-0.2,0v0.3v0v0h0c0,0.1,0.1,0.2,0.2,0.2
					l2.3,1.3c0.2,0.1,0.6,0.1,0.8,0l2.3-1.3C50.7,96.9,50.7,96.9,50.7,96.8z"/>
				<path class="st13" d="M54.3,94.7v-0.3l-0.2,0l-2.3-1.3c-0.2-0.1-0.6-0.1-0.8,0l-2.3,1.3l-0.2,0v0.3v0v0h0c0,0.1,0.1,0.2,0.2,0.2
					l2.3,1.3c0.2,0.1,0.6,0.1,0.8,0l2.3-1.3C54.3,94.8,54.3,94.8,54.3,94.7z"/>
				<path class="st13" d="M58,92.6v-0.3l-0.2,0L55.5,91c-0.2-0.1-0.6-0.1-0.8,0l-2.3,1.3l-0.2,0v0.3v0v0h0c0,0.1,0.1,0.2,0.2,0.2
					l2.3,1.3c0.2,0.1,0.6,0.1,0.8,0l2.3-1.3C57.9,92.7,58,92.6,58,92.6z"/>
				<path class="st13" d="M61.6,90.5v-0.3l-0.2,0l-2.3-1.3c-0.2-0.1-0.6-0.1-0.8,0L56,90.2l-0.2,0v0.3v0v0h0c0,0.1,0.1,0.2,0.2,0.2
					l2.3,1.3c0.2,0.1,0.6,0.1,0.8,0l2.3-1.3C61.5,90.6,61.6,90.5,61.6,90.5z"/>
				<path class="st13" d="M39.7,86.2v-0.3l-0.2,0l-2.3-1.3c-0.2-0.1-0.6-0.1-0.8,0L34,85.9l-0.2,0v0.3v0v0h0c0,0.1,0.1,0.2,0.2,0.2
					l2.3,1.3c0.2,0.1,0.6,0.1,0.8,0l2.3-1.3C39.6,86.4,39.7,86.3,39.7,86.2z"/>
				<path class="st13" d="M45.4,87.1v-0.3l-0.2,0l-2.3-1.3c-0.2-0.1-0.6-0.1-0.8,0l-2.3,1.3l-0.2,0v0.3v0v0h0c0,0.1,0.1,0.2,0.2,0.2
					l2.3,1.3c0.2,0.1,0.6,0.1,0.8,0l2.3-1.3C45.3,87.3,45.4,87.2,45.4,87.1z"/>
				<path class="st13" d="M49,85v-0.3l-0.2,0l-2.3-1.3c-0.2-0.1-0.6-0.1-0.8,0l-2.3,1.3l-0.2,0V85v0v0h0c0,0.1,0.1,0.2,0.2,0.2
					l2.3,1.3c0.2,0.1,0.6,0.1,0.8,0l2.3-1.3C48.9,85.2,49,85.1,49,85z"/>
				<path class="st13" d="M50.9,88.2v-0.3l-0.2,0l-2.3-1.3c-0.2-0.1-0.6-0.1-0.8,0l-2.3,1.3l-0.2,0v0.3v0v0h0c0,0.1,0.1,0.2,0.2,0.2
					l2.3,1.3c0.2,0.1,0.6,0.1,0.8,0l2.3-1.3C50.8,88.4,50.9,88.3,50.9,88.2z"/>
				<path class="st13" d="M54.6,90.3V90l-0.2,0l-2.3-1.3c-0.2-0.1-0.6-0.1-0.8,0l-2.3,1.3l-0.2,0v0.3v0v0h0c0,0.1,0.1,0.2,0.2,0.2
					l2.3,1.3c0.2,0.1,0.6,0.1,0.8,0l2.3-1.3C54.5,90.5,54.6,90.4,54.6,90.3z"/>
				<path class="st13" d="M58.2,88.2v-0.3l-0.2,0l-2.3-1.3c-0.2-0.1-0.6-0.1-0.8,0L52.5,88l-0.2,0v0.3v0v0h0c0,0.1,0.1,0.2,0.2,0.2
					l2.3,1.3c0.2,0.1,0.6,0.1,0.8,0l2.3-1.3C58.1,88.4,58.2,88.3,58.2,88.2z"/>
				<path class="st13" d="M61.8,86.1v-0.3l-0.2,0l-2.3-1.3c-0.2-0.1-0.6-0.1-0.8,0l-2.3,1.3l-0.2,0v0.3v0v0h0c0,0.1,0.1,0.2,0.2,0.2
					l2.3,1.3c0.2,0.1,0.6,0.1,0.8,0l2.3-1.3C61.7,86.3,61.8,86.2,61.8,86.1z"/>
				<path class="st13" d="M65.4,84v-0.3l-0.2,0l-2.3-1.3c-0.2-0.1-0.6-0.1-0.8,0l-2.3,1.3l-0.2,0V84v0v0h0c0,0.1,0.1,0.2,0.2,0.2
					l2.3,1.3c0.2,0.1,0.6,0.1,0.8,0l2.3-1.3C65.4,84.2,65.4,84.1,65.4,84z"/>
				<path class="st13" d="M69,81.9v-0.3l-0.2,0l-2.3-1.3c-0.2-0.1-0.6-0.1-0.8,0l-2.3,1.3l-0.2,0v0.3v0v0l0,0c0,0.1,0.1,0.2,0.2,0.2
					l2.3,1.3c0.2,0.1,0.6,0.1,0.8,0l2.3-1.3C69,82.1,69,82,69,81.9z"/>
				<path class="st13" d="M72.7,79.8v-0.3l-0.2,0l-2.3-1.3c-0.2-0.1-0.6-0.1-0.8,0L67,79.5l-0.2,0v0.3v0v0l0,0
					c0,0.1,0.1,0.2,0.2,0.2l2.3,1.3c0.2,0.1,0.6,0.1,0.8,0l2.3-1.3C72.6,80,72.7,79.9,72.7,79.8z"/>
				<path class="st13" d="M76.3,77.7v-0.3l-0.2,0l-2.3-1.3c-0.2-0.1-0.6-0.1-0.8,0l-2.3,1.3l-0.2,0v0.3v0v0l0,0
					c0,0.1,0.1,0.2,0.2,0.2l2.3,1.3c0.2,0.1,0.6,0.1,0.8,0l2.3-1.3C76.2,77.9,76.3,77.8,76.3,77.7z"/>
				<path class="st13" d="M79.9,75.6v-0.3l-0.2,0L77.4,74c-0.2-0.1-0.6-0.1-0.8,0l-2.3,1.3l-0.2,0v0.3v0v0h0c0,0.1,0.1,0.2,0.2,0.2
					l2.3,1.3c0.2,0.1,0.6,0.1,0.8,0l2.3-1.3C79.8,75.8,79.9,75.7,79.9,75.6z"/>
				<path class="st13" d="M83.5,73.5v-0.3l-0.2,0L81,71.9c-0.2-0.1-0.6-0.1-0.8,0l-2.3,1.3l-0.2,0v0.3v0v0h0c0,0.1,0.1,0.2,0.2,0.2
					l2.3,1.3c0.2,0.1,0.6,0.1,0.8,0l2.3-1.3C83.5,73.7,83.5,73.6,83.5,73.5z"/>
				<path class="st13" d="M87.4,75.5v-0.3l-0.2,0l-2.3-1.3c-0.2-0.1-0.6-0.1-0.8,0l-2.3,1.3l-0.2,0v0.3v0v0h0c0,0.1,0.1,0.2,0.2,0.2
					l2.3,1.3c0.2,0.1,0.6,0.1,0.8,0l2.3-1.3C87.3,75.6,87.4,75.5,87.4,75.5z"/>
				<path class="st13" d="M91,73.4v-0.3l-0.2,0l-2.3-1.3c-0.2-0.1-0.6-0.1-0.8,0l-2.3,1.3l-0.2,0v0.3v0v0h0c0,0.1,0.1,0.2,0.2,0.2
					l2.3,1.3c0.2,0.1,0.6,0.1,0.8,0l2.3-1.3C91,73.5,91,73.4,91,73.4z"/>
				<path class="st13" d="M98.3,69.1v-0.3l-0.2,0l-2.3-1.3c-0.2-0.1-0.6-0.1-0.8,0l-2.3,1.3l-0.2,0v0.3v0v0h0c0,0.1,0.1,0.2,0.2,0.2
					l2.3,1.3c0.2,0.1,0.6,0.1,0.8,0l2.3-1.3C98.3,69.3,98.3,69.2,98.3,69.1z"/>
				<path class="st13" d="M94.5,66.7l-2.3-1.3c-0.2-0.1-0.6-0.1-0.8,0L91,65.6h0l-2,1.1l-0.2,0v0.1l-0.1,0.1l-0.2,0v0.3v0v0h0
					c0,0.1,0.1,0.2,0.2,0.2l2.3,1.3c0.2,0.1,0.6,0.1,0.8,0l2.6-1.5c0.1-0.1,0.2-0.2,0.2-0.2v-0.3L94.5,66.7z"/>
				<path class="st13" d="M87.1,71.4v-0.3l-0.2,0l-2.3-1.3c-0.2-0.1-0.6-0.1-0.8,0l-2.3,1.3l-0.2,0v0.3v0v0h0c0,0.1,0.1,0.2,0.2,0.2
					l2.3,1.3c0.2,0.1,0.6,0.1,0.8,0l2.3-1.3C87.1,71.6,87.1,71.5,87.1,71.4z"/>
				<path class="st13" d="M90.7,69.3V69l-0.2,0l-2.3-1.3c-0.2-0.1-0.6-0.1-0.8,0L85.1,69l-0.2,0v0.3v0v0h0c0,0.1,0.1,0.2,0.2,0.2
					l2.3,1.3c0.2,0.1,0.6,0.1,0.8,0l2.3-1.3C90.7,69.5,90.7,69.4,90.7,69.3z"/>
				<path class="st13" d="M54.5,86.1v-0.3l-0.2,0L52,84.5c-0.2-0.1-0.6-0.1-0.8,0l-2.3,1.3l-0.2,0v0.3v0v0h0c0,0.1,0.1,0.2,0.2,0.2
					l2.3,1.3c0.2,0.1,0.6,0.1,0.8,0l2.3-1.3C54.4,86.3,54.5,86.2,54.5,86.1z"/>
				<path class="st13" d="M58.1,84v-0.3l-0.2,0l-2.3-1.3c-0.2-0.1-0.6-0.1-0.8,0l-2.3,1.3l-0.2,0V84v0v0h0c0,0.1,0.1,0.2,0.2,0.2
					l2.3,1.3c0.2,0.1,0.6,0.1,0.8,0l2.3-1.3C58,84.2,58.1,84.1,58.1,84z"/>
				<path class="st13" d="M61.7,81.9v-0.3l-0.2,0l-2.3-1.3c-0.2-0.1-0.6-0.1-0.8,0l-2.3,1.3l-0.2,0v0.3v0v0h0c0,0.1,0.1,0.2,0.2,0.2
					l2.3,1.3c0.2,0.1,0.6,0.1,0.8,0l2.3-1.3C61.7,82.1,61.7,82,61.7,81.9z"/>
				<path class="st13" d="M65.3,79.8v-0.3l-0.2,0l-2.3-1.3c-0.2-0.1-0.6-0.1-0.8,0l-2.3,1.3l-0.2,0v0.3v0v0h0c0,0.1,0.1,0.2,0.2,0.2
					l2.3,1.3c0.2,0.1,0.6,0.1,0.8,0l2.3-1.3C65.3,80,65.3,79.9,65.3,79.8z"/>
				<path class="st13" d="M69,77.7v-0.3l-0.2,0l-2.3-1.3c-0.2-0.1-0.6-0.1-0.8,0l-2.3,1.3l-0.2,0v0.3v0v0h0c0,0.1,0.1,0.2,0.2,0.2
					l2.3,1.3c0.2,0.1,0.6,0.1,0.8,0l2.3-1.3C68.9,77.8,69,77.8,69,77.7z"/>
				<path class="st13" d="M72.6,75.6v-0.3l-0.2,0L70.1,74c-0.2-0.1-0.6-0.1-0.8,0L67,75.3l-0.2,0v0.3v0v0h0c0,0.1,0.1,0.2,0.2,0.2
					l2.3,1.3c0.2,0.1,0.6,0.1,0.8,0l2.3-1.3C72.5,75.7,72.6,75.7,72.6,75.6z"/>
				<path class="st13" d="M76.2,73.5v-0.3l-0.2,0l-2.3-1.3c-0.2-0.1-0.6-0.1-0.8,0l-2.3,1.3l-0.2,0v0.3v0v0h0c0,0.1,0.1,0.2,0.2,0.2
					l2.3,1.3c0.2,0.1,0.6,0.1,0.8,0l2.3-1.3C76.1,73.6,76.2,73.6,76.2,73.5z"/>
				<path class="st13" d="M79.8,71.4v-0.3l-0.2,0l-2.3-1.3c-0.2-0.1-0.6-0.1-0.8,0l-2.3,1.3l-0.2,0v0.3v0v0h0c0,0.1,0.1,0.2,0.2,0.2
					l2.3,1.3c0.2,0.1,0.6,0.1,0.8,0l2.3-1.3C79.8,71.5,79.8,71.4,79.8,71.4z"/>
				<path class="st13" d="M83.4,69.3V69l-0.2,0l-2.3-1.3c-0.2-0.1-0.6-0.1-0.8,0L77.8,69l-0.2,0v0.3v0v0h0c0,0.1,0.1,0.2,0.2,0.2
					l2.3,1.3c0.2,0.1,0.6,0.1,0.8,0l2.3-1.3C83.4,69.4,83.4,69.3,83.4,69.3z"/>
				<path class="st13" d="M52.6,82.9v-0.3l-0.2,0l-2.3-1.3c-0.2-0.1-0.6-0.1-0.8,0L47,82.6l-0.2,0v0.3v0v0h0c0,0.1,0.1,0.2,0.2,0.2
					l2.3,1.3c0.2,0.1,0.6,0.1,0.8,0l2.3-1.3C52.5,83.1,52.6,83,52.6,82.9z"/>
				<path class="st13" d="M56.2,80.8v-0.3l-0.2,0l-2.3-1.3c-0.2-0.1-0.6-0.1-0.8,0l-2.3,1.3l-0.2,0v0.3v0v0h0c0,0.1,0.1,0.2,0.2,0.2
					l2.3,1.3c0.2,0.1,0.6,0.1,0.8,0L56,81C56.2,81,56.2,80.9,56.2,80.8z"/>
				<path class="st13" d="M59.8,78.7v-0.3l-0.2,0l-2.3-1.3c-0.2-0.1-0.6-0.1-0.8,0l-2.3,1.3l-0.2,0v0.3v0v0h0c0,0.1,0.1,0.2,0.2,0.2
					l2.3,1.3c0.2,0.1,0.6,0.1,0.8,0l2.3-1.3C59.8,78.9,59.8,78.8,59.8,78.7z"/>
				<path class="st13" d="M63.5,76.6v-0.3l-0.2,0L61,75c-0.2-0.1-0.6-0.1-0.8,0l-2.3,1.3l-0.2,0v0.3v0v0h0c0,0.1,0.1,0.2,0.2,0.2
					l2.3,1.3c0.2,0.1,0.6,0.1,0.8,0l2.3-1.3C63.4,76.8,63.5,76.7,63.5,76.6z"/>
				<path class="st13" d="M67.1,74.5v-0.3l-0.2,0l-2.3-1.3c-0.2-0.1-0.6-0.1-0.8,0l-2.3,1.3l-0.2,0v0.3v0v0h0c0,0.1,0.1,0.2,0.2,0.2
					l2.3,1.3c0.2,0.1,0.6,0.1,0.8,0l2.3-1.3C67,74.7,67.1,74.6,67.1,74.5z"/>
				<path class="st13" d="M70.7,72.4v-0.3l-0.2,0l-2.3-1.3c-0.2-0.1-0.6-0.1-0.8,0l-2.3,1.3l-0.2,0v0.3v0v0h0c0,0.1,0.1,0.2,0.2,0.2
					l2.3,1.3c0.2,0.1,0.6,0.1,0.8,0l2.3-1.3C70.6,72.6,70.7,72.5,70.7,72.4z"/>
				<path class="st13" d="M74.3,70.3V70l-0.2,0l-2.3-1.3c-0.2-0.1-0.6-0.1-0.8,0L68.7,70l-0.2,0v0.3v0v0h0c0,0.1,0.1,0.2,0.2,0.2
					l2.3,1.3c0.2,0.1,0.6,0.1,0.8,0l2.3-1.3C74.3,70.5,74.3,70.4,74.3,70.3z"/>
				<path class="st13" d="M77.9,68.2v-0.3l-0.2,0l-2.3-1.3c-0.2-0.1-0.6-0.1-0.8,0l-2.3,1.3l-0.2,0v0.3v0v0h0c0,0.1,0.1,0.2,0.2,0.2
					l2.3,1.3c0.2,0.1,0.6,0.1,0.8,0l2.3-1.3C77.9,68.4,77.9,68.3,77.9,68.2z"/>
				<path class="st13" d="M81.6,66.1v-0.3l-0.2,0l-2.3-1.3c-0.2-0.1-0.6-0.1-0.8,0l-2.3,1.3l-0.2,0v0.3v0v0l0,0
					c0,0.1,0.1,0.2,0.2,0.2l2.3,1.3c0.2,0.1,0.6,0.1,0.8,0l2.3-1.3C81.5,66.3,81.6,66.2,81.6,66.1z"/>
				<path class="st13" d="M43.3,84.1v-0.3l-0.2,0l-2.3-1.3c-0.2-0.1-0.6-0.1-0.8,0l-2.3,1.3l-0.2,0v0.3v0v0h0c0,0.1,0.1,0.2,0.2,0.2
					l2.3,1.3c0.2,0.1,0.6,0.1,0.8,0l2.3-1.3C43.2,84.3,43.3,84.2,43.3,84.1z"/>
				<path class="st13" d="M46.9,82v-0.3l-0.2,0l-2.3-1.3c-0.2-0.1-0.6-0.1-0.8,0l-2.3,1.3l-0.2,0V82v0v0h0c0,0.1,0.1,0.2,0.2,0.2
					l2.3,1.3c0.2,0.1,0.6,0.1,0.8,0l2.3-1.3C46.9,82.2,46.9,82.1,46.9,82z"/>
				<path class="st13" d="M50.5,79.9v-0.3l-0.2,0L48,78.3c-0.2-0.1-0.6-0.1-0.8,0l-2.3,1.3l-0.2,0v0.3v0v0h0c0,0.1,0.1,0.2,0.2,0.2
					l2.3,1.3c0.2,0.1,0.6,0.1,0.8,0l2.3-1.3C50.5,80.1,50.5,80,50.5,79.9z"/>
				<path class="st13" d="M54.2,77.8v-0.3l-0.2,0l-2.3-1.3c-0.2-0.1-0.6-0.1-0.8,0l-2.3,1.3l-0.2,0v0.3v0v0h0c0,0.1,0.1,0.2,0.2,0.2
					l2.3,1.3c0.2,0.1,0.6,0.1,0.8,0L54,78C54.1,78,54.2,77.9,54.2,77.8z"/>
				<path class="st13" d="M57.8,75.7v-0.3l-0.2,0l-2.3-1.3c-0.2-0.1-0.6-0.1-0.8,0l-2.3,1.3l-0.2,0v0.3v0v0h0c0,0.1,0.1,0.2,0.2,0.2
					l2.3,1.3c0.2,0.1,0.6,0.1,0.8,0l2.3-1.3C57.7,75.9,57.8,75.8,57.8,75.7z"/>
				<path class="st13" d="M61.4,73.6v-0.3l-0.2,0L58.9,72c-0.2-0.1-0.6-0.1-0.8,0l-2.3,1.3l-0.2,0v0.3v0v0h0c0,0.1,0.1,0.2,0.2,0.2
					l2.3,1.3c0.2,0.1,0.6,0.1,0.8,0l2.3-1.3C61.3,73.8,61.4,73.7,61.4,73.6z"/>
				<path class="st13" d="M65,71.5v-0.3l-0.2,0l-2.3-1.3c-0.2-0.1-0.6-0.1-0.8,0l-2.3,1.3l-0.2,0v0.3v0v0h0c0,0.1,0.1,0.2,0.2,0.2
					l2.3,1.3c0.2,0.1,0.6,0.1,0.8,0l2.3-1.3C65,71.6,65,71.6,65,71.5z"/>
				<path class="st13" d="M68.6,69.4v-0.3l-0.2,0l-2.3-1.3c-0.2-0.1-0.6-0.1-0.8,0L63,69.1l-0.2,0v0.3v0v0h0c0,0.1,0.1,0.2,0.2,0.2
					l2.3,1.3c0.2,0.1,0.6,0.1,0.8,0l2.3-1.3C68.6,69.5,68.6,69.5,68.6,69.4z"/>
				<path class="st13" d="M72.2,67.3V67L72,67l-2.3-1.3c-0.2-0.1-0.6-0.1-0.8,0L66.6,67l-0.2,0v0.3v0v0h0c0,0.1,0.1,0.2,0.2,0.2
					l2.3,1.3c0.2,0.1,0.6,0.1,0.8,0l2.3-1.3C72.2,67.4,72.2,67.4,72.2,67.3z"/>
				<path class="st13" d="M75.9,65.2v-0.3l-0.2,0l-2.3-1.3c-0.2-0.1-0.6-0.1-0.8,0l-2.3,1.3l-0.2,0v0.3v0v0h0c0,0.1,0.1,0.2,0.2,0.2
					l2.3,1.3c0.2,0.1,0.6,0.1,0.8,0l2.3-1.3C75.8,65.3,75.9,65.2,75.9,65.2z"/>
				<path class="st13" d="M79.5,63.1v-0.3l-0.2,0L77,61.5c-0.2-0.1-0.6-0.1-0.8,0l-2.3,1.3l-0.2,0v0.3v0v0h0c0,0.1,0.1,0.2,0.2,0.2
					l2.3,1.3c0.2,0.1,0.6,0.1,0.8,0l2.3-1.3C79.4,63.2,79.5,63.1,79.5,63.1z"/>
				<path class="st13" d="M83.7,60.3l-0.2,0L81.2,59c-0.2-0.1-0.6-0.1-0.8,0l-2.8,1.6l-0.2,0l0,0.2c0,0,0,0,0,0l0,0l0,0
					c0,0.1,0.1,0.2,0.2,0.2l2.3,1.3c0.2,0.1,0.6,0.1,0.8,0l2.9-1.7c0.1-0.1,0.2-0.2,0.2-0.3l0,0V60.3z"/>
				<path class="st13" d="M83.8,77.6v-0.3l-0.2,0L81.3,76c-0.2-0.1-0.4-0.1-0.6-0.1c-0.1,0-0.1,0-0.2,0.1l-2.3,1.3l-0.2,0v0.1
					l-16.1,9.3l0,0l-2.3,1.3l-0.2,0v0.3v0v0h0c0,0,0,0,0,0c0,0,0,0,0,0.1c0,0,0,0,0,0c0,0,0,0,0,0c0,0,0,0,0,0c0,0,0,0,0,0
					c0,0,0,0,0.1,0.1l0,0l2.3,1.3c0.1,0,0.1,0.1,0.2,0.1c0.1,0,0.1,0,0.2,0c0.2,0,0.3,0,0.4-0.1l2.3-1.3l0,0l18.6-10.8
					C83.7,77.7,83.8,77.6,83.8,77.6z"/>
				<path class="st13" d="M36.6,83.8C36.6,83.8,36.6,83.8,36.6,83.8v-0.3l-0.1,0c0,0,0,0,0,0l-0.6-0.4c-0.2-0.1-0.6-0.1-0.8,0
					l-2.1,1.2l-0.3,0.1l0,0.3c0,0.1,0.1,0.2,0.2,0.2l0.6,0.4c0.2,0.1,0.6,0.1,0.8,0l2.3-1.3C36.5,83.9,36.6,83.9,36.6,83.8
					L36.6,83.8L36.6,83.8z"/>
				<path class="st13" d="M40.2,81.7C40.2,81.7,40.2,81.7,40.2,81.7v-0.3l-0.1,0c0,0,0,0,0,0l-0.6-0.4c-0.2-0.1-0.6-0.1-0.8,0
					l-2.1,1.2l-0.3,0.1l0,0.3c0,0.1,0.1,0.2,0.2,0.2l0.6,0.4c0.2,0.1,0.6,0.1,0.8,0l2.3-1.3C40.1,81.8,40.2,81.8,40.2,81.7
					L40.2,81.7L40.2,81.7z"/>
				<path class="st13" d="M43.8,79.6C43.8,79.6,43.8,79.6,43.8,79.6v-0.3l-0.1,0c0,0,0,0,0,0L43,79c-0.2-0.1-0.6-0.1-0.8,0L40,80.2
					l-0.3,0.1l0,0.3c0,0.1,0.1,0.2,0.2,0.2l0.6,0.4c0.2,0.1,0.6,0.1,0.8,0l2.3-1.3C43.8,79.7,43.8,79.7,43.8,79.6L43.8,79.6
					L43.8,79.6z"/>
				<path class="st13" d="M47.4,77.5C47.4,77.5,47.4,77.5,47.4,77.5v-0.3l-0.1,0c0,0,0,0,0,0l-0.6-0.4c-0.2-0.1-0.6-0.1-0.8,0
					l-2.1,1.2l-0.3,0.1l0,0.3c0,0.1,0.1,0.2,0.2,0.2l0.6,0.4c0.2,0.1,0.6,0.1,0.8,0l2.3-1.3C47.4,77.6,47.4,77.5,47.4,77.5
					L47.4,77.5L47.4,77.5z"/>
				<path class="st13" d="M51.1,75.4C51.1,75.4,51.1,75.4,51.1,75.4v-0.3l-0.1,0c0,0,0,0,0,0l-0.6-0.4c-0.2-0.1-0.6-0.1-0.8,0
					L47.3,76l-0.3,0.1l0,0.3c0,0.1,0.1,0.2,0.2,0.2l0.6,0.4c0.2,0.1,0.6,0.1,0.8,0l2.3-1.3C51,75.5,51.1,75.4,51.1,75.4L51.1,75.4
					L51.1,75.4z"/>
				<path class="st13" d="M54.7,73.3C54.7,73.3,54.7,73.2,54.7,73.3V73l-0.1,0c0,0,0,0,0,0l-0.6-0.4c-0.2-0.1-0.6-0.1-0.8,0
					l-2.1,1.2L50.6,74l0,0.3c0,0.1,0.1,0.2,0.2,0.2l0.6,0.4c0.2,0.1,0.6,0.1,0.8,0l2.3-1.3C54.6,73.4,54.7,73.3,54.7,73.3L54.7,73.3
					L54.7,73.3z"/>
				<path class="st13" d="M58.3,71.2C58.3,71.1,58.3,71.1,58.3,71.2v-0.3l-0.1,0c0,0,0,0,0,0l-0.6-0.4c-0.2-0.1-0.6-0.1-0.8,0
					l-2.1,1.2l-0.3,0.1l0,0.3c0,0.1,0.1,0.2,0.2,0.2l0.6,0.4c0.2,0.1,0.6,0.1,0.8,0l2.3-1.3C58.2,71.3,58.3,71.2,58.3,71.2
					L58.3,71.2L58.3,71.2z"/>
				<path class="st13" d="M61.9,69C61.9,69,61.9,69,61.9,69v-0.3l-0.1,0c0,0,0,0,0,0l-0.6-0.4c-0.2-0.1-0.6-0.1-0.8,0l-2.1,1.2
					l-0.3,0.1l0,0.3c0,0.1,0.1,0.2,0.2,0.2l0.6,0.4c0.2,0.1,0.6,0.1,0.8,0l2.3-1.3C61.9,69.2,61.9,69.1,61.9,69L61.9,69L61.9,69z"/>
				<path class="st13" d="M65.5,66.9C65.5,66.9,65.5,66.9,65.5,66.9v-0.3l-0.1,0c0,0,0,0,0,0l-0.6-0.4c-0.2-0.1-0.6-0.1-0.8,0
					l-2.1,1.2l-0.3,0.1l0,0.3c0,0.1,0.1,0.2,0.2,0.2l0.6,0.4c0.2,0.1,0.6,0.1,0.8,0l2.3-1.3C65.5,67.1,65.5,67,65.5,66.9L65.5,66.9
					L65.5,66.9z"/>
				<path class="st13" d="M69.2,64.8C69.2,64.8,69.2,64.8,69.2,64.8v-0.3l-0.1,0c0,0,0,0,0,0l-0.6-0.4c-0.2-0.1-0.6-0.1-0.8,0
					l-2.1,1.2L65,65.6l0,0.3c0,0.1,0.1,0.2,0.2,0.2l0.6,0.4c0.2,0.1,0.6,0.1,0.8,0l2.3-1.3C69.1,65,69.2,64.9,69.2,64.8L69.2,64.8
					L69.2,64.8z"/>
				<path class="st13" d="M72.8,62.7C72.8,62.7,72.8,62.7,72.8,62.7v-0.3l-0.1,0c0,0,0,0,0,0L72,62.1c-0.2-0.1-0.6-0.1-0.8,0
					L69,63.4l-0.3,0.1l0,0.3c0,0.1,0.1,0.2,0.2,0.2l0.6,0.4c0.2,0.1,0.6,0.1,0.8,0l2.3-1.3C72.7,62.9,72.8,62.8,72.8,62.7L72.8,62.7
					L72.8,62.7z"/>
				<path class="st13" d="M76.4,60.6C76.4,60.6,76.4,60.6,76.4,60.6v-0.3l-0.1,0c0,0,0,0,0,0L75.6,60c-0.2-0.1-0.6-0.1-0.8,0
					l-2.1,1.2l-0.3,0.1l0,0.3c0,0.1,0.1,0.2,0.2,0.2l0.6,0.4c0.2,0.1,0.6,0.1,0.8,0l2.3-1.3C76.3,60.8,76.4,60.7,76.4,60.6
					L76.4,60.6L76.4,60.6z"/>
				<path class="st13" d="M80,58.5C80,58.5,80,58.5,80,58.5v-0.3l-0.1,0c0,0,0,0,0,0l-0.6-0.4c-0.2-0.1-0.6-0.1-0.8,0l-2.1,1.2
					l-0.3,0.1l0,0.3c0,0.1,0.1,0.2,0.2,0.2l0.6,0.4c0.2,0.1,0.6,0.1,0.8,0l2.3-1.3C80,58.7,80,58.6,80,58.5L80,58.5L80,58.5z"/>
				<path class="st13" d="M41.8,89l-0.2,0c0,0,0,0,0,0l-2.3-1.3c-0.2-0.1-0.6-0.1-0.8,0l-4.3,2.5l-0.2,0v0.2c0,0,0,0,0,0v0l0,0
					c0,0.1,0.1,0.2,0.2,0.2l2.3,1.3c0.2,0.1,0.6,0.1,0.8,0l4.4-2.5c0.1-0.1,0.2-0.2,0.2-0.2l0,0V89z"/>
				<path class="st13" d="M47.2,90l-0.2,0c0,0,0,0,0,0l-2.3-1.3c-0.2-0.1-0.6-0.1-0.8,0l-6,3.5l-0.3,0.1v0.3l0,0
					c0,0.1,0.1,0.2,0.2,0.2l2.3,1.3c0.2,0.1,0.6,0.1,0.8,0l6.2-3.6c0.1-0.1,0.2-0.2,0.2-0.2l0,0V90z"/>
				<path class="st13" d="M50.9,92.2l-0.2,0c0,0,0,0,0,0l-2.3-1.3c-0.2-0.1-0.6-0.1-0.8,0l-6,3.5l-0.3,0.1v0.3l0,0
					c0,0.1,0.1,0.2,0.2,0.2l2.3,1.3c0.2,0.1,0.6,0.1,0.8,0l6.2-3.6c0.1-0.1,0.2-0.2,0.2-0.2l0,0V92.2z"/>
				<path class="st13" d="M87.3,62.5l-0.2,0c0,0,0,0,0,0l-2.3-1.3c-0.2-0.1-0.6-0.1-0.8,0l-4.4,2.5l-0.2,0V64c0,0,0,0,0,0v0l0,0
					c0,0.1,0.1,0.2,0.2,0.2l2.3,1.3c0.2,0.1,0.6,0.1,0.8,0l4.4-2.6c0.1-0.1,0.2-0.2,0.2-0.2l0,0V62.5z"/>
				<path class="st13" d="M90.8,64.6l-2.3-1.3c-0.2-0.1-0.6-0.1-0.8,0l-6.3,3.6c-0.2,0.1-0.2,0.4,0,0.5l2.3,1.3
					c0.2,0.1,0.6,0.1,0.8,0l6.3-3.6C91.1,65,91.1,64.8,90.8,64.6L90.8,64.6z"/>
				<path class="st13" d="M92.9,70.3C92.9,70.3,92.9,70.3,92.9,70.3V70l-0.1,0c0,0,0,0,0,0l-0.6-0.4c-0.2-0.1-0.6-0.1-0.8,0
					l-2.1,1.2L88.8,71l0,0.3c0,0.1,0.1,0.2,0.2,0.2l0.6,0.4c0.2,0.1,0.6,0.1,0.8,0l2.3-1.3C92.9,70.5,92.9,70.4,92.9,70.3L92.9,70.3
					L92.9,70.3z"/>
				<path class="st13" d="M94.6,71.3C94.6,71.3,94.6,71.3,94.6,71.3V71l-0.1,0c0,0,0,0,0,0l-0.6-0.4c-0.2-0.1-0.6-0.1-0.8,0
					l-2.1,1.2L90.5,72l0,0.3c0,0.1,0.1,0.2,0.2,0.2l0.6,0.4c0.2,0.1,0.6,0.1,0.8,0l2.3-1.3C94.6,71.4,94.6,71.3,94.6,71.3L94.6,71.3
					L94.6,71.3z"/>
				<path class="st13" d="M54.4,90.1l-2.3-1.3c-0.2-0.1-0.6-0.1-0.8,0l-2.3,1.3c-0.2,0.1-0.2,0.4,0,0.5l2.3,1.3
					c0.2,0.1,0.6,0.1,0.8,0l2.3-1.3C54.6,90.4,54.6,90.2,54.4,90.1L54.4,90.1z"/>
			</g>
			<path class="st13" d="M33,85.9L33,85.9l0-0.3l-0.2,0c0,0,0,0,0,0l-0.6-0.4c-0.2-0.1-0.6-0.1-0.8,0l-2.7,1.5l-0.4,0.1v0.3l0,0
				c0,0.1,0.1,0.2,0.2,0.2l0.6,0.4c0.2,0.1,0.6,0.1,0.8,0l2.9-1.7C32.9,86,33,86,33,85.9z"/>
			<g>
				<path class="st14" d="M35.9,87.8l-2.3-1.3c-0.2-0.1-0.6-0.1-0.8,0l-2.3,1.3c-0.2,0.1-0.2,0.4,0,0.5l2.3,1.3
					c0.2,0.1,0.6,0.1,0.8,0l2.3-1.3C36.1,88.2,36.1,87.9,35.9,87.8L35.9,87.8z"/>
				<path class="st14" d="M39.5,85.7l-2.3-1.3c-0.2-0.1-0.6-0.1-0.8,0L34,85.7c-0.2,0.1-0.2,0.4,0,0.5l2.3,1.3
					c0.2,0.1,0.6,0.1,0.8,0l2.3-1.3C39.7,86,39.7,85.8,39.5,85.7L39.5,85.7z"/>
				<path class="st14" d="M43.1,83.6l-2.3-1.3c-0.2-0.1-0.6-0.1-0.8,0l-2.3,1.3c-0.2,0.1-0.2,0.4,0,0.5l2.3,1.3
					c0.2,0.1,0.6,0.1,0.8,0l2.3-1.3C43.4,83.9,43.4,83.7,43.1,83.6L43.1,83.6z"/>
				<path class="st14" d="M46.7,81.5l-2.3-1.3c-0.2-0.1-0.6-0.1-0.8,0l-2.3,1.3c-0.2,0.1-0.2,0.4,0,0.5l2.3,1.3
					c0.2,0.1,0.6,0.1,0.8,0l2.3-1.3C47,81.8,47,81.6,46.7,81.5L46.7,81.5z"/>
				<path class="st14" d="M50.4,79.4L48,78c-0.2-0.1-0.6-0.1-0.8,0l-2.3,1.3c-0.2,0.1-0.2,0.4,0,0.5l2.3,1.3c0.2,0.1,0.6,0.1,0.8,0
					l2.3-1.3C50.6,79.7,50.6,79.5,50.4,79.4L50.4,79.4z"/>
				<path class="st14" d="M54,77.3l-2.3-1.3c-0.2-0.1-0.6-0.1-0.8,0l-2.3,1.3c-0.2,0.1-0.2,0.4,0,0.5l2.3,1.3c0.2,0.1,0.6,0.1,0.8,0
					l2.3-1.3C54.2,77.6,54.2,77.4,54,77.3L54,77.3z"/>
				<path class="st14" d="M57.6,75.2l-2.3-1.3c-0.2-0.1-0.6-0.1-0.8,0l-2.3,1.3c-0.2,0.1-0.2,0.4,0,0.5l2.3,1.3
					c0.2,0.1,0.6,0.1,0.8,0l2.3-1.3C57.8,75.5,57.8,75.3,57.6,75.2L57.6,75.2z"/>
				<path class="st14" d="M61.2,73.1l-2.3-1.3c-0.2-0.1-0.6-0.1-0.8,0l-2.3,1.3c-0.2,0.1-0.2,0.4,0,0.5l2.3,1.3
					c0.2,0.1,0.6,0.1,0.8,0l2.3-1.3C61.4,73.4,61.4,73.2,61.2,73.1L61.2,73.1z"/>
				<path class="st14" d="M64.8,71l-2.3-1.3c-0.2-0.1-0.6-0.1-0.8,0L59.4,71c-0.2,0.1-0.2,0.4,0,0.5l2.3,1.3c0.2,0.1,0.6,0.1,0.8,0
					l2.3-1.3C65.1,71.3,65.1,71.1,64.8,71L64.8,71z"/>
				<path class="st14" d="M68.5,68.9l-2.3-1.3c-0.2-0.1-0.6-0.1-0.8,0L63,68.9c-0.2,0.1-0.2,0.4,0,0.5l2.3,1.3
					c0.2,0.1,0.6,0.1,0.8,0l2.3-1.3C68.7,69.2,68.7,69,68.5,68.9L68.5,68.9z"/>
				<path class="st14" d="M72.1,66.8l-2.3-1.3c-0.2-0.1-0.6-0.1-0.8,0l-2.3,1.3c-0.2,0.1-0.2,0.4,0,0.5l2.3,1.3
					c0.2,0.1,0.6,0.1,0.8,0l2.3-1.3C72.3,67.1,72.3,66.9,72.1,66.8L72.1,66.8z"/>
				<path class="st14" d="M48.8,84.5l-2.3-1.3c-0.2-0.1-0.6-0.1-0.8,0l-2.3,1.3c-0.2,0.1-0.2,0.4,0,0.5l2.3,1.3
					c0.2,0.1,0.6,0.1,0.8,0l2.3-1.3C49,84.9,49,84.6,48.8,84.5L48.8,84.5z"/>
				<path class="st14" d="M52.4,82.4l-2.3-1.3c-0.2-0.1-0.6-0.1-0.8,0l-2.3,1.3c-0.2,0.1-0.2,0.4,0,0.5l2.3,1.3
					c0.2,0.1,0.6,0.1,0.8,0l2.3-1.3C52.7,82.8,52.7,82.5,52.4,82.4L52.4,82.4z"/>
				<path class="st14" d="M56,80.3L53.7,79c-0.2-0.1-0.6-0.1-0.8,0l-2.3,1.3c-0.2,0.1-0.2,0.4,0,0.5l2.3,1.3c0.2,0.1,0.6,0.1,0.8,0
					l2.3-1.3C56.3,80.7,56.3,80.4,56,80.3L56,80.3z"/>
				<path class="st14" d="M59.7,78.2l-2.3-1.3c-0.2-0.1-0.6-0.1-0.8,0l-2.3,1.3c-0.2,0.1-0.2,0.4,0,0.5l2.3,1.3
					c0.2,0.1,0.6,0.1,0.8,0l2.3-1.3C59.9,78.5,59.9,78.3,59.7,78.2L59.7,78.2z"/>
				<path class="st14" d="M63.3,76.1L61,74.7c-0.2-0.1-0.6-0.1-0.8,0l-2.3,1.3c-0.2,0.1-0.2,0.4,0,0.5l2.3,1.3
					c0.2,0.1,0.6,0.1,0.8,0l2.3-1.3C63.5,76.4,63.5,76.2,63.3,76.1L63.3,76.1z"/>
				<path class="st14" d="M66.9,74l-2.3-1.3c-0.2-0.1-0.6-0.1-0.8,0L61.4,74c-0.2,0.1-0.2,0.4,0,0.5l2.3,1.3c0.2,0.1,0.6,0.1,0.8,0
					l2.3-1.3C67.1,74.3,67.1,74.1,66.9,74L66.9,74z"/>
				<path class="st14" d="M70.5,71.9l-2.3-1.3c-0.2-0.1-0.6-0.1-0.8,0L65,71.9c-0.2,0.1-0.2,0.4,0,0.5l2.3,1.3
					c0.2,0.1,0.6,0.1,0.8,0l2.3-1.3C70.8,72.2,70.8,72,70.5,71.9L70.5,71.9z"/>
				<path class="st14" d="M74.1,69.8l-2.3-1.3c-0.2-0.1-0.6-0.1-0.8,0l-2.3,1.3c-0.2,0.1-0.2,0.4,0,0.5l2.3,1.3
					c0.2,0.1,0.6,0.1,0.8,0l2.3-1.3C74.4,70.1,74.4,69.9,74.1,69.8L74.1,69.8z"/>
				<path class="st14" d="M77.8,67.7l-2.3-1.3c-0.2-0.1-0.6-0.1-0.8,0l-2.3,1.3c-0.2,0.1-0.2,0.4,0,0.5l2.3,1.3
					c0.2,0.1,0.6,0.1,0.8,0l2.3-1.3C78,68,78,67.8,77.8,67.7L77.8,67.7z"/>
				<path class="st14" d="M81.4,65.6l-2.3-1.3c-0.2-0.1-0.6-0.1-0.8,0l-2.3,1.3c-0.2,0.1-0.2,0.4,0,0.5l2.3,1.3
					c0.2,0.1,0.6,0.1,0.8,0l2.3-1.3C81.6,65.9,81.6,65.7,81.4,65.6L81.4,65.6z"/>
				<path class="st14" d="M75.7,64.7l-2.3-1.3c-0.2-0.1-0.6-0.1-0.8,0l-2.3,1.3c-0.2,0.1-0.2,0.4,0,0.5l2.3,1.3
					c0.2,0.1,0.6,0.1,0.8,0l2.3-1.3C75.9,65,75.9,64.8,75.7,64.7L75.7,64.7z"/>
				<path class="st14" d="M79.3,62.6L77,61.2c-0.2-0.1-0.6-0.1-0.8,0l-2.3,1.3c-0.2,0.1-0.2,0.4,0,0.5l2.3,1.3
					c0.2,0.1,0.6,0.1,0.8,0l2.3-1.3C79.5,62.9,79.5,62.7,79.3,62.6L79.3,62.6z"/>
				<path class="st14" d="M50.5,96.3l-2.3-1.3c-0.2-0.1-0.6-0.1-0.8,0l-2.3,1.3c-0.2,0.1-0.2,0.4,0,0.5l2.3,1.3
					c0.2,0.1,0.6,0.1,0.8,0l2.3-1.3C50.8,96.6,50.8,96.4,50.5,96.3L50.5,96.3z"/>
				<path class="st14" d="M54.2,94.2l-2.3-1.3c-0.2-0.1-0.6-0.1-0.8,0l-2.3,1.3c-0.2,0.1-0.2,0.4,0,0.5L51,96c0.2,0.1,0.6,0.1,0.8,0
					l2.3-1.3C54.4,94.5,54.4,94.3,54.2,94.2L54.2,94.2z"/>
				<path class="st14" d="M57.8,92.1l-2.3-1.3c-0.2-0.1-0.6-0.1-0.8,0l-2.3,1.3c-0.2,0.1-0.2,0.4,0,0.5l2.3,1.3
					c0.2,0.1,0.6,0.1,0.8,0l2.3-1.3C58,92.4,58,92.2,57.8,92.1L57.8,92.1z"/>
				<path class="st14" d="M61.4,90l-2.3-1.3c-0.2-0.1-0.6-0.1-0.8,0L55.9,90c-0.2,0.1-0.2,0.4,0,0.5l2.3,1.3c0.2,0.1,0.6,0.1,0.8,0
					l2.3-1.3C61.6,90.3,61.6,90.1,61.4,90L61.4,90z"/>
				<path class="st14" d="M45.2,86.6l-2.3-1.3c-0.2-0.1-0.6-0.1-0.8,0l-2.3,1.3c-0.2,0.1-0.2,0.4,0,0.5l2.3,1.3
					c0.2,0.1,0.6,0.1,0.8,0l2.3-1.3C45.4,87,45.4,86.7,45.2,86.6L45.2,86.6z"/>
				<path class="st14" d="M83.5,60.1l-2.3-1.3c-0.2-0.1-0.6-0.1-0.8,0l-2.9,1.7c-0.2,0.1-0.2,0.4,0,0.5l2.3,1.3
					c0.2,0.1,0.6,0.1,0.8,0l2.9-1.7C83.7,60.5,83.7,60.3,83.5,60.1L83.5,60.1z"/>
				<path class="st14" d="M83.6,77.1l-2.3-1.3c-0.2-0.1-0.6-0.1-0.8,0L59.5,87.9c-0.2,0.1-0.2,0.4,0,0.5l2.3,1.3
					c0.2,0.1,0.6,0.1,0.8,0l20.9-12.1C83.8,77.4,83.8,77.2,83.6,77.1L83.6,77.1z"/>
				<path class="st14" d="M36.4,83.3l-0.6-0.4c-0.2-0.1-0.6-0.1-0.8,0l-2.3,1.3c-0.2,0.1-0.2,0.4,0,0.5l0.6,0.4
					c0.2,0.1,0.6,0.1,0.8,0l2.3-1.3C36.6,83.6,36.6,83.4,36.4,83.3L36.4,83.3z"/>
				<path class="st14" d="M40,81.2l-0.6-0.4c-0.2-0.1-0.6-0.1-0.8,0l-2.3,1.3c-0.2,0.1-0.2,0.4,0,0.5l0.6,0.4c0.2,0.1,0.6,0.1,0.8,0
					l2.3-1.3C40.3,81.5,40.3,81.3,40,81.2L40,81.2z"/>
				<path class="st14" d="M43.7,79.1L43,78.7c-0.2-0.1-0.6-0.1-0.8,0L39.9,80c-0.2,0.1-0.2,0.4,0,0.5l0.6,0.4c0.2,0.1,0.6,0.1,0.8,0
					l2.3-1.3C43.9,79.4,43.9,79.2,43.7,79.1L43.7,79.1z"/>
				<path class="st14" d="M47.3,77l-0.6-0.4c-0.2-0.1-0.6-0.1-0.8,0l-2.3,1.3c-0.2,0.1-0.2,0.4,0,0.5l0.6,0.4c0.2,0.1,0.6,0.1,0.8,0
					l2.3-1.3C47.5,77.3,47.5,77.1,47.3,77L47.3,77z"/>
				<path class="st14" d="M50.9,74.9l-0.6-0.4c-0.2-0.1-0.6-0.1-0.8,0l-2.3,1.3c-0.2,0.1-0.2,0.4,0,0.5l0.6,0.4
					c0.2,0.1,0.6,0.1,0.8,0l2.3-1.3C51.1,75.2,51.1,75,50.9,74.9L50.9,74.9z"/>
				<path class="st14" d="M54.5,72.7l-0.6-0.4c-0.2-0.1-0.6-0.1-0.8,0l-2.3,1.3c-0.2,0.1-0.2,0.4,0,0.5l0.6,0.4
					c0.2,0.1,0.6,0.1,0.8,0l2.3-1.3C54.7,73.1,54.7,72.9,54.5,72.7L54.5,72.7z"/>
				<path class="st14" d="M58.1,70.6l-0.6-0.4c-0.2-0.1-0.6-0.1-0.8,0l-2.3,1.3c-0.2,0.1-0.2,0.4,0,0.5l0.6,0.4
					c0.2,0.1,0.6,0.1,0.8,0l2.3-1.3C58.4,71,58.4,70.8,58.1,70.6L58.1,70.6z"/>
				<path class="st14" d="M61.7,68.5l-0.6-0.4c-0.2-0.1-0.6-0.1-0.8,0L58,69.5c-0.2,0.1-0.2,0.4,0,0.5l0.6,0.4
					c0.2,0.1,0.6,0.1,0.8,0l2.3-1.3C62,68.9,62,68.7,61.7,68.5L61.7,68.5z"/>
				<path class="st14" d="M65.4,66.4l-0.6-0.4c-0.2-0.1-0.6-0.1-0.8,0l-2.3,1.3c-0.2,0.1-0.2,0.4,0,0.5l0.6,0.4
					c0.2,0.1,0.6,0.1,0.8,0l2.3-1.3C65.6,66.8,65.6,66.6,65.4,66.4L65.4,66.4z"/>
				<path class="st14" d="M69,64.3L68.4,64c-0.2-0.1-0.6-0.1-0.8,0l-2.3,1.3c-0.2,0.1-0.2,0.4,0,0.5l0.6,0.4c0.2,0.1,0.6,0.1,0.8,0
					l2.3-1.3C69.2,64.7,69.2,64.5,69,64.3L69,64.3z"/>
				<path class="st14" d="M72.6,62.2L72,61.9c-0.2-0.1-0.6-0.1-0.8,0l-2.3,1.3c-0.2,0.1-0.2,0.4,0,0.5l0.6,0.4
					c0.2,0.1,0.6,0.1,0.8,0l2.3-1.3C72.8,62.6,72.8,62.4,72.6,62.2L72.6,62.2z"/>
				<path class="st14" d="M76.2,60.1l-0.6-0.4c-0.2-0.1-0.6-0.1-0.8,0l-2.3,1.3c-0.2,0.1-0.2,0.4,0,0.5l0.6,0.4
					c0.2,0.1,0.6,0.1,0.8,0l2.3-1.3C76.5,60.5,76.5,60.3,76.2,60.1L76.2,60.1z"/>
				<path class="st14" d="M79.8,58l-0.6-0.4c-0.2-0.1-0.6-0.1-0.8,0L76.1,59c-0.2,0.1-0.2,0.4,0,0.5l0.6,0.4c0.2,0.1,0.6,0.1,0.8,0
					l2.3-1.3C80.1,58.4,80.1,58.2,79.8,58L79.8,58z"/>
				<path class="st14" d="M32.8,85.4L32.2,85c-0.2-0.1-0.6-0.1-0.8,0l-2.9,1.7c-0.2,0.1-0.2,0.4,0,0.5l0.6,0.4
					c0.2,0.1,0.6,0.1,0.8,0l2.9-1.7C33,85.7,33,85.5,32.8,85.4L32.8,85.4z"/>
				<path class="st14" d="M41.6,88.7l-2.3-1.3c-0.2-0.1-0.6-0.1-0.8,0l-4.4,2.5c-0.2,0.1-0.2,0.4,0,0.5l2.3,1.3
					c0.2,0.1,0.6,0.1,0.8,0l4.4-2.5C41.8,89.1,41.8,88.9,41.6,88.7L41.6,88.7z"/>
				<path class="st14" d="M47.1,89.8l-2.3-1.3c-0.2-0.1-0.6-0.1-0.8,0L37.7,92c-0.2,0.1-0.2,0.4,0,0.5l2.3,1.3
					c0.2,0.1,0.6,0.1,0.8,0l6.2-3.6C47.3,90.1,47.3,89.9,47.1,89.8L47.1,89.8z"/>
				<path class="st14" d="M50.8,91.9l-2.3-1.3c-0.2-0.1-0.6-0.1-0.8,0l-6.2,3.6c-0.2,0.1-0.2,0.4,0,0.5l2.3,1.3
					c0.2,0.1,0.6,0.1,0.8,0l6.2-3.6C51,92.3,51,92.1,50.8,91.9L50.8,91.9z"/>
				<path class="st14" d="M87.2,62.2l-2.3-1.3c-0.2-0.1-0.6-0.1-0.8,0l-4.4,2.6c-0.2,0.1-0.2,0.4,0,0.5l2.3,1.3
					c0.2,0.1,0.6,0.1,0.8,0l4.4-2.6C87.4,62.6,87.4,62.4,87.2,62.2L87.2,62.2z"/>
				<path class="st14" d="M90.8,64.4L88.5,63c-0.2-0.1-0.6-0.1-0.8,0l-6.3,3.6c-0.2,0.1-0.2,0.4,0,0.5l2.3,1.3
					c0.2,0.1,0.6,0.1,0.8,0l6.3-3.6C91.1,64.7,91.1,64.5,90.8,64.4L90.8,64.4z"/>
				<path class="st14" d="M92.8,69.8l-0.6-0.4c-0.2-0.1-0.6-0.1-0.8,0L89,70.8c-0.2,0.1-0.2,0.4,0,0.5l0.6,0.4
					c0.2,0.1,0.6,0.1,0.8,0l2.3-1.3C93,70.1,93,69.9,92.8,69.8L92.8,69.8z"/>
				<path class="st14" d="M94.4,70.8l-0.6-0.4c-0.2-0.1-0.6-0.1-0.8,0l-2.3,1.3c-0.2,0.1-0.2,0.4,0,0.5l0.6,0.4
					c0.2,0.1,0.6,0.1,0.8,0l2.3-1.3C94.7,71.1,94.7,70.9,94.4,70.8L94.4,70.8z"/>
				<path class="st14" d="M79.6,70.9l-2.3-1.3c-0.2-0.1-0.6-0.1-0.8,0l-2.3,1.3c-0.2,0.1-0.2,0.4,0,0.5l2.3,1.3
					c0.2,0.1,0.6,0.1,0.8,0l2.3-1.3C79.9,71.2,79.9,71,79.6,70.9L79.6,70.9z"/>
				<path class="st14" d="M83.3,68.8l-2.3-1.3c-0.2-0.1-0.6-0.1-0.8,0l-2.3,1.3c-0.2,0.1-0.2,0.4,0,0.5l2.3,1.3
					c0.2,0.1,0.6,0.1,0.8,0l2.3-1.3C83.5,69.1,83.5,68.9,83.3,68.8L83.3,68.8z"/>
				<path class="st14" d="M83.3,73L81,71.7c-0.2-0.1-0.6-0.1-0.8,0L77.9,73c-0.2,0.1-0.2,0.4,0,0.5l2.3,1.3c0.2,0.1,0.6,0.1,0.8,0
					l2.3-1.3C83.6,73.3,83.6,73.1,83.3,73L83.3,73z"/>
				<path class="st14" d="M87,70.9l-2.3-1.3c-0.2-0.1-0.6-0.1-0.8,0l-2.3,1.3c-0.2,0.1-0.2,0.4,0,0.5l2.3,1.3c0.2,0.1,0.6,0.1,0.8,0
					l2.3-1.3C87.2,71.2,87.2,71,87,70.9L87,70.9z"/>
				<path class="st14" d="M90.6,68.8l-2.3-1.3c-0.2-0.1-0.6-0.1-0.8,0l-2.3,1.3c-0.2,0.1-0.2,0.4,0,0.5l2.3,1.3
					c0.2,0.1,0.6,0.1,0.8,0l2.3-1.3C90.8,69.1,90.8,68.9,90.6,68.8L90.6,68.8z"/>
				<path class="st14" d="M94.5,66.5l-2.3-1.3c-0.2-0.1-0.6-0.1-0.8,0l-2.6,1.5c-0.2,0.1-0.2,0.4,0,0.5l2.3,1.3
					c0.2,0.1,0.6,0.1,0.8,0l2.6-1.5C94.8,66.8,94.7,66.6,94.5,66.5L94.5,66.5z"/>
				<path class="st14" d="M72.4,75.1l-2.3-1.3c-0.2-0.1-0.6-0.1-0.8,0l-2.3,1.3c-0.2,0.1-0.2,0.4,0,0.5l2.3,1.3
					c0.2,0.1,0.6,0.1,0.8,0l2.3-1.3C72.6,75.4,72.6,75.2,72.4,75.1L72.4,75.1z"/>
				<path class="st14" d="M76,73l-2.3-1.3c-0.2-0.1-0.6-0.1-0.8,0L70.5,73c-0.2,0.1-0.2,0.4,0,0.5l2.3,1.3c0.2,0.1,0.6,0.1,0.8,0
					l2.3-1.3C76.3,73.3,76.3,73.1,76,73L76,73z"/>
				<path class="st14" d="M76.1,77.2l-2.3-1.3c-0.2-0.1-0.6-0.1-0.8,0l-2.3,1.3c-0.2,0.1-0.2,0.4,0,0.5l2.3,1.3
					c0.2,0.1,0.6,0.1,0.8,0l2.3-1.3C76.3,77.6,76.3,77.3,76.1,77.2L76.1,77.2z"/>
				<path class="st14" d="M79.7,75.1l-2.3-1.3c-0.2-0.1-0.6-0.1-0.8,0l-2.3,1.3c-0.2,0.1-0.2,0.4,0,0.5l2.3,1.3
					c0.2,0.1,0.6,0.1,0.8,0l2.3-1.3C79.9,75.4,79.9,75.2,79.7,75.1L79.7,75.1z"/>
				<path class="st14" d="M65.2,79.3l-2.3-1.3c-0.2-0.1-0.6-0.1-0.8,0l-2.3,1.3c-0.2,0.1-0.2,0.4,0,0.5l2.3,1.3
					c0.2,0.1,0.6,0.1,0.8,0l2.3-1.3C65.4,79.6,65.4,79.4,65.2,79.3L65.2,79.3z"/>
				<path class="st14" d="M68.8,77.2l-2.3-1.3c-0.2-0.1-0.6-0.1-0.8,0l-2.3,1.3c-0.2,0.1-0.2,0.4,0,0.5l2.3,1.3
					c0.2,0.1,0.6,0.1,0.8,0l2.3-1.3C69,77.5,69,77.3,68.8,77.2L68.8,77.2z"/>
				<path class="st14" d="M68.9,81.4l-2.3-1.3c-0.2-0.1-0.6-0.1-0.8,0l-2.3,1.3c-0.2,0.1-0.2,0.4,0,0.5l2.3,1.3
					c0.2,0.1,0.6,0.1,0.8,0l2.3-1.3C69.1,81.8,69.1,81.5,68.9,81.4L68.9,81.4z"/>
				<path class="st14" d="M72.5,79.3L70.2,78c-0.2-0.1-0.6-0.1-0.8,0L67,79.3c-0.2,0.1-0.2,0.4,0,0.5l2.3,1.3c0.2,0.1,0.6,0.1,0.8,0
					l2.3-1.3C72.7,79.7,72.7,79.4,72.5,79.3L72.5,79.3z"/>
				<path class="st14" d="M57.9,83.5l-2.3-1.3c-0.2-0.1-0.6-0.1-0.8,0l-2.3,1.3c-0.2,0.1-0.2,0.4,0,0.5l2.3,1.3
					c0.2,0.1,0.6,0.1,0.8,0l2.3-1.3C58.2,83.8,58.2,83.6,57.9,83.5L57.9,83.5z"/>
				<path class="st14" d="M61.5,81.4L59.2,80c-0.2-0.1-0.6-0.1-0.8,0l-2.3,1.3c-0.2,0.1-0.2,0.4,0,0.5l2.3,1.3
					c0.2,0.1,0.6,0.1,0.8,0l2.3-1.3C61.8,81.7,61.8,81.5,61.5,81.4L61.5,81.4z"/>
				<path class="st14" d="M61.6,85.6l-2.3-1.3c-0.2-0.1-0.6-0.1-0.8,0l-2.3,1.3c-0.2,0.1-0.2,0.4,0,0.5l2.3,1.3
					c0.2,0.1,0.6,0.1,0.8,0l2.3-1.3C61.9,86,61.9,85.7,61.6,85.6L61.6,85.6z"/>
				<path class="st14" d="M65.2,83.5l-2.3-1.3c-0.2-0.1-0.6-0.1-0.8,0l-2.3,1.3c-0.2,0.1-0.2,0.4,0,0.5l2.3,1.3
					c0.2,0.1,0.6,0.1,0.8,0l2.3-1.3C65.5,83.9,65.5,83.6,65.2,83.5L65.2,83.5z"/>
				<path class="st14" d="M50.7,87.7l-2.3-1.3c-0.2-0.1-0.6-0.1-0.8,0l-2.3,1.3c-0.2,0.1-0.2,0.4,0,0.5l2.3,1.3
					c0.2,0.1,0.6,0.1,0.8,0l2.3-1.3C50.9,88,50.9,87.8,50.7,87.7L50.7,87.7z"/>
				<path class="st14" d="M54.3,85.6L52,84.2c-0.2-0.1-0.6-0.1-0.8,0l-2.3,1.3c-0.2,0.1-0.2,0.4,0,0.5l2.3,1.3
					c0.2,0.1,0.6,0.1,0.8,0l2.3-1.3C54.5,85.9,54.5,85.7,54.3,85.6L54.3,85.6z"/>
				<path class="st14" d="M54.4,89.8l-2.3-1.3c-0.2-0.1-0.6-0.1-0.8,0l-2.3,1.3c-0.2,0.1-0.2,0.4,0,0.5l2.3,1.3
					c0.2,0.1,0.6,0.1,0.8,0l2.3-1.3C54.6,90.2,54.6,90,54.4,89.8L54.4,89.8z"/>
				<path class="st14" d="M58,87.7l-2.3-1.3c-0.2-0.1-0.6-0.1-0.8,0l-2.3,1.3c-0.2,0.1-0.2,0.4,0,0.5l2.3,1.3c0.2,0.1,0.6,0.1,0.8,0
					l2.3-1.3C58.2,88.1,58.2,87.9,58,87.7L58,87.7z"/>
				<path class="st14" d="M87.2,75l-2.3-1.3c-0.2-0.1-0.6-0.1-0.8,0L81.7,75c-0.2,0.1-0.2,0.4,0,0.5l2.3,1.3c0.2,0.1,0.6,0.1,0.8,0
					l2.3-1.3C87.4,75.3,87.4,75.1,87.2,75L87.2,75z"/>
				<path class="st14" d="M90.8,72.9l-2.3-1.3c-0.2-0.1-0.6-0.1-0.8,0l-2.3,1.3c-0.2,0.1-0.2,0.4,0,0.5l2.3,1.3
					c0.2,0.1,0.6,0.1,0.8,0l2.3-1.3C91.1,73.2,91.1,73,90.8,72.9L90.8,72.9z"/>
				<path class="st14" d="M98.2,68.6l-2.3-1.3c-0.2-0.1-0.6-0.1-0.8,0l-2.3,1.3c-0.2,0.1-0.2,0.4,0,0.5l2.3,1.3
					c0.2,0.1,0.6,0.1,0.8,0l2.3-1.3C98.4,69,98.4,68.7,98.2,68.6L98.2,68.6z"/>
			</g>
		</g>
	</g>
</g>
</svg>
