<?xml version="1.0" encoding="utf-8"?>
<!-- Generator: Adobe Illustrator 22.0.0, SVG Export Plug-In . SVG Version: 6.00 Build 0)  -->
<svg version="1.1" id="Warstwa_1" xmlns="http://www.w3.org/2000/svg" xmlns:xlink="http://www.w3.org/1999/xlink" x="0px" y="0px"
	 viewBox="0 0 120 120" style="enable-background:new 0 0 120 120;" xml:space="preserve">
<style type="text/css">
	.st0{fill:url(#SVGID_1_);}
	.st1{fill:url(#SVGID_2_);}
	.st2{fill:url(#SVGID_3_);}
	.st3{fill:url(#SVGID_4_);}
	.st4{fill:url(#SVGID_5_);}
	.st5{fill:url(#SVGID_6_);}
	.st6{fill:url(#SVGID_7_);}
</style>
<g>
	
		<linearGradient id="SVGID_1_" gradientUnits="userSpaceOnUse" x1="370.7195" y1="-192.6584" x2="370.7195" y2="-286.4065" gradientTransform="matrix(0.7071 0.7071 -0.7071 0.7071 -363.3582 -45.1846)">
		<stop  offset="0" style="stop-color:#7C78F0"/>
		<stop  offset="1" style="stop-color:#7C78F0"/>
	</linearGradient>
	<path class="st0" d="M79.6,105.4c-12.7,10.7-29.2-7.8-17.5-19.5l18.3-18.3c4.4-4.4,6.6-10.2,6.6-16c0-5.8-2.2-11.6-6.6-16
		c-8.9-8.9-23.2-8.9-32.1,0L29.8,54C18.1,65.7-0.5,49.2,10.1,36.4c1.8-2.2,4.1-3.8,7.1-4.6l26.6-7.1l19.6-5.3
		c8.5-2.3,16.7-0.3,22.9,4.3c0.8,0.6,1.6,1.2,2.3,1.9l0.1,0.1c0.2,0.2,0.5,0.4,0.7,0.7l0,0c0.2,0.2,0.5,0.5,0.7,0.7l0,0
		c0.7,0.8,1.3,1.5,2,2.4c4.6,6.2,6.6,14.4,4.3,22.9l-5.3,19.6l-7,26.1C83.4,101.2,81.8,103.5,79.6,105.4z"/>
	
		<linearGradient id="SVGID_2_" gradientUnits="userSpaceOnUse" x1="336.9524" y1="-240.402" x2="404.4399" y2="-240.402" gradientTransform="matrix(0.7071 0.7071 -0.7071 0.7071 -363.3582 -45.1846)">
		<stop  offset="0" style="stop-color:#000000;stop-opacity:0.2"/>
		<stop  offset="1" style="stop-color:#FFFFFF;stop-opacity:0.5"/>
	</linearGradient>
	<path class="st1" d="M89.5,73.9c-6.9,6.9-16.2,10.2-25.3,9.8l16.1-16.1c4.4-4.4,6.6-10.2,6.6-16c0-5.8-2.2-11.6-6.6-16
		c-8.9-8.9-23.2-8.9-32.1,0L32.2,51.6C31.8,42.6,35,33.3,42,26.4c0.6-0.6,1.2-1.2,1.8-1.7l19.6-5.3c8.5-2.3,16.7-0.3,22.9,4.3
		c0.8,0.6,1.6,1.2,2.3,1.9l0.1,0.1c0.2,0.2,0.5,0.4,0.7,0.7l0,0c0.2,0.2,0.5,0.5,0.7,0.7l0,0c0.7,0.8,1.3,1.5,2,2.4
		c4.6,6.2,6.6,14.4,4.3,22.9l-5.3,19.6C90.7,72.7,90.1,73.3,89.5,73.9z"/>
	
		<linearGradient id="SVGID_3_" gradientUnits="userSpaceOnUse" x1="371.6349" y1="-242.0485" x2="416.9815" y2="-242.0485" gradientTransform="matrix(0.7071 0.7071 -0.7071 0.7071 -373.0493 -68.6937)">
		<stop  offset="3.018500e-04" style="stop-color:#7C78F0"/>
		<stop  offset="0.999" style="stop-color:#7C78F0"/>
	</linearGradient>
	<path class="st2" d="M89.5,58.4l-9.2,9.2c4.4-4.4,6.6-10.2,6.6-16c0-5.8-2.2-11.6-6.6-16c-8.9-8.9-23.2-8.9-32.1,0l9.2-9.2
		c7.9-7.9,20.1-8.7,28.9-2.6c1.1,0.8,2.2,1.6,3.2,2.6c1,1,1.9,2,2.6,3.2C98.3,38.3,97.4,50.6,89.5,58.4z"/>
</g>
<g>
	
		<linearGradient id="SVGID_4_" gradientUnits="userSpaceOnUse" x1="370.7235" y1="-247.3646" x2="370.7235" y2="-195.4406" gradientTransform="matrix(0.7071 0.7071 -0.7071 0.7071 -363.3582 -45.1846)">
		<stop  offset="3.018500e-04" style="stop-color:#7C78F0"/>
		<stop  offset="0.999" style="stop-color:#7C78F0"/>
	</linearGradient>
	<path class="st3" d="M74.1,61.4L56.3,79.3c-1.5,1.5-3.2,2.6-5,3.2c-5,1.8-10.8,0.8-14.8-3.2c-2.7-2.7-4.1-6.3-4.1-9.9
		c0-3.6,1.4-7.2,4.1-9.9l17.9-17.9c5.5-5.5,14.4-5.5,19.8,0c0.2,0.2,0.5,0.5,0.7,0.7C79.6,47.8,79.4,56.2,74.1,61.4z"/>
	
		<linearGradient id="SVGID_5_" gradientUnits="userSpaceOnUse" x1="380.3656" y1="-201.5949" x2="369.7826" y2="-245.4037" gradientTransform="matrix(0.7071 0.7071 -0.7071 0.7071 -363.3582 -45.1846)">
		<stop  offset="0" style="stop-color:#000000;stop-opacity:0.35"/>
		<stop  offset="1" style="stop-color:#FFFFFF;stop-opacity:0.5"/>
	</linearGradient>
	<path class="st4" d="M74.1,61.4L56.3,79.3c-1.5,1.5-3.2,2.6-5,3.2c-7.2-10-6.3-24,2.7-32.9c5.7-5.7,13.4-8.1,20.9-7.3
		C79.6,47.8,79.4,56.2,74.1,61.4z"/>
</g>
<g>
	<g>
		
			<linearGradient id="SVGID_6_" gradientUnits="userSpaceOnUse" x1="379.4727" y1="-282.749" x2="364.9338" y2="-261.6014" gradientTransform="matrix(0.7071 0.7071 -0.7071 0.7071 -363.3582 -45.1846)">
			<stop  offset="3.018500e-04" style="stop-color:#7C78F0"/>
			<stop  offset="0.999" style="stop-color:#7C78F0"/>
		</linearGradient>
		<path class="st5" d="M100.7,37.6c0.3-5.8-1.8-11.7-6.3-16.2c-1.1-1.1-2.3-2.1-3.6-2.9c-3.8-2.4-8.2-3.5-12.5-3.3l16-3.5
			c4.9-1.1,9.4,2.4,10.1,7c0.1,0.9,0.1,1.9-0.1,2.9L100.7,37.6z"/>
	</g>
	
		<linearGradient id="SVGID_7_" gradientUnits="userSpaceOnUse" x1="385.0491" y1="-270.1624" x2="370.1043" y2="-281.5718" gradientTransform="matrix(0.7071 0.7071 -0.7071 0.7071 -363.3582 -45.1846)">
		<stop  offset="0" style="stop-color:#000000;stop-opacity:0.3"/>
		<stop  offset="1" style="stop-color:#FFFFFF;stop-opacity:0.5"/>
	</linearGradient>
	<path class="st6" d="M100.7,37.6c0.3-5.8-1.8-11.7-6.3-16.2c-1.1-1.1-2.3-2.1-3.6-2.9c4.2-2.1,9.3-2.1,13.5,0.2
		c0.1,0.9,0.1,1.9-0.1,2.9L100.7,37.6z"/>
</g>
</svg>
