<?xml version="1.0" encoding="utf-8"?>
<!-- Generator: Adobe Illustrator 22.0.0, SVG Export Plug-In . SVG Version: 6.00 Build 0)  -->
<svg version="1.1" id="Warstwa_1" xmlns="http://www.w3.org/2000/svg" xmlns:xlink="http://www.w3.org/1999/xlink" x="0px" y="0px"
	 viewBox="0 0 120 120" style="enable-background:new 0 0 120 120;" xml:space="preserve">
<style type="text/css">
	.st0{fill:none;}
	.st1{fill:#7C78F0;}
</style>
<rect class="st0" width="120" height="120"/>
<g>
	<g>
		<path class="st1" d="M77.7,97.3c-10.4,8.8-24-6.4-14.4-16.1l15-15c3.6-3.6,5.5-8.4,5.5-13.2s-1.8-9.5-5.5-13.2
			c-7.3-7.3-19.1-7.3-26.4,0L36.7,55c-9.7,9.7-25-3.9-16.2-14.5c1.5-1.8,3.4-3.1,5.9-3.8l21.9-5.9l16.2-4.3c7-1.9,13.7-0.2,18.8,3.5
			c0.7,0.5,1.3,1,1.9,1.6l0,0c0.2,0.2,0.4,0.4,0.6,0.6l0,0c0.2,0.2,0.4,0.4,0.6,0.6l0,0c0.6,0.6,1.1,1.3,1.6,1.9
			c3.8,5.1,5.4,11.9,3.5,18.8l-4.3,16.2l-5.7,21.4C80.8,93.9,79.5,95.8,77.7,97.3z"/>
		<path class="st1" d="M85.8,71.4c-5.7,5.7-13.3,8.4-20.8,8.1l13.2-13.2c3.6-3.6,5.5-8.4,5.5-13.2s-1.8-9.5-5.5-13.2
			c-7.3-7.3-19.1-7.3-26.4,0L38.7,53.1c-0.3-7.5,2.4-15.1,8.1-20.8c0.5-0.5,1-1,1.5-1.4l16.2-4.3c7-1.9,13.7-0.2,18.8,3.5
			c0.7,0.5,1.3,1,1.9,1.6l0,0c0.2,0.2,0.4,0.4,0.6,0.6l0,0c0.2,0.2,0.4,0.4,0.6,0.6l0,0c0.6,0.6,1.1,1.3,1.6,1.9
			c3.8,5.1,5.4,11.9,3.5,18.8l-4.3,16.2C86.8,70.4,86.3,71,85.8,71.4z"/>
		<path class="st1" d="M85.8,58.7l-7.6,7.6c3.6-3.6,5.5-8.4,5.5-13.2s-1.8-9.5-5.5-13.2c-7.3-7.3-19.1-7.3-26.4,0l7.6-7.6
			c6.5-6.5,16.5-7.2,23.8-2.2c0.9,0.6,1.8,1.4,2.6,2.2c0.8,0.8,1.5,1.7,2.2,2.6C93,42.2,92.3,52.2,85.8,58.7z"/>
	</g>
	<g>
		<path class="st1" d="M73.2,61.2L58.5,75.9c-1.2,1.2-2.6,2.1-4.1,2.7c-4.1,1.5-8.9,0.6-12.2-2.7c-2.3-2.3-3.4-5.2-3.4-8.2
			s1.1-5.9,3.4-8.2l14.7-14.7c4.5-4.5,11.8-4.5,16.3,0c0.2,0.2,0.4,0.4,0.5,0.6C77.7,50,77.5,56.9,73.2,61.2z"/>
		<path class="st1" d="M73.2,61.2L58.5,75.9c-1.2,1.2-2.6,2.1-4.1,2.7c-5.9-8.2-5.2-19.7,2.2-27.1c4.7-4.7,11.1-6.7,17.2-6
			C77.7,50,77.5,56.9,73.2,61.2z"/>
	</g>
	<g>
		<g>
			<path class="st1" d="M95.1,41.5c0.2-4.8-1.5-9.6-5.1-13.3c-0.9-0.9-1.9-1.7-3-2.4c-3.1-2-6.7-2.9-10.3-2.7l13.2-2.9
				c4.1-0.9,7.8,2,8.3,5.8c0.1,0.8,0.1,1.6-0.1,2.4L95.1,41.5z"/>
		</g>
		<path class="st1" d="M95.1,41.5c0.2-4.8-1.5-9.6-5.1-13.3c-0.9-0.9-1.9-1.7-3-2.4c3.5-1.8,7.7-1.7,11.1,0.1
			c0.1,0.8,0.1,1.6-0.1,2.4L95.1,41.5z"/>
	</g>
</g>
</svg>
