<?xml version="1.0" encoding="utf-8"?>
<!-- Generator: Adobe Illustrator 22.0.0, SVG Export Plug-In . SVG Version: 6.00 Build 0)  -->
<svg version="1.1" id="Warstwa_1" xmlns="http://www.w3.org/2000/svg" xmlns:xlink="http://www.w3.org/1999/xlink" x="0px" y="0px"
	 viewBox="0 0 120 120" style="enable-background:new 0 0 120 120;" xml:space="preserve">
<style type="text/css">
	.st0{fill:none;}
	.st1{fill:url(#SVGID_1_);}
	.st2{fill:url(#SVGID_2_);}
	.st3{fill:url(#SVGID_3_);}
	.st4{fill:#EFF0F5;}
	.st5{fill:#81D1EF;}
	.st6{fill:#7F8394;}
	.st7{fill:#6D6B75;}
</style>
<rect y="0" class="st0" width="120" height="120"/>
<g>
	<g>
		<linearGradient id="SVGID_1_" gradientUnits="userSpaceOnUse" x1="38.1645" y1="66.5992" x2="81.7636" y2="66.5992">
			<stop  offset="9.114580e-02" style="stop-color:#8D92A9"/>
			<stop  offset="0.4453" style="stop-color:#8D92A9"/>
			<stop  offset="0.5391" style="stop-color:#C3C5CF"/>
			<stop  offset="0.6016" style="stop-color:#D8D9DE"/>
			<stop  offset="0.9557" style="stop-color:#D8D9DE"/>
			<stop  offset="1" style="stop-color:#CFD0D7"/>
		</linearGradient>
		<path class="st1" d="M81.9,86.7l-0.2-52.6L62.1,34l-4,0l-20.1-0.1l0.2,52.8c0,0.4,0.2,0.8,0.4,1.2c0.3,0.4,0.7,0.7,1.2,1l0,0l0,0
			l0,0l16.5,9.5c0.6,0.3,1.3,0.6,2,0.7c1.3,0.3,2.7,0.2,4-0.1c0.6-0.2,1.2-0.4,1.7-0.7l4.1-2.4l12.3-7.1v0
			C81.4,88.3,81.9,87.5,81.9,86.7z"/>
		<linearGradient id="SVGID_2_" gradientUnits="userSpaceOnUse" x1="38.1645" y1="65.9055" x2="81.7636" y2="65.9055">
			<stop  offset="0" style="stop-color:#C4C7D8"/>
			<stop  offset="1.179005e-02" style="stop-color:#C2C5D6"/>
			<stop  offset="1.792296e-02" style="stop-color:#BABED1"/>
			<stop  offset="2.273800e-02" style="stop-color:#ADB1C8"/>
			<stop  offset="2.566390e-02" style="stop-color:#A0A6C0"/>
			<stop  offset="0.4453" style="stop-color:#A0A6C0"/>
			<stop  offset="0.4664" style="stop-color:#B8BDD0"/>
			<stop  offset="0.4889" style="stop-color:#CBCEDC"/>
			<stop  offset="0.5126" style="stop-color:#D5D8E4"/>
			<stop  offset="0.5391" style="stop-color:#D9DBE6"/>
			<stop  offset="0.5541" style="stop-color:#DCDEE8"/>
			<stop  offset="0.5665" style="stop-color:#E7E8EF"/>
			<stop  offset="0.5728" style="stop-color:#EFF0F5"/>
			<stop  offset="0.9719" style="stop-color:#EFF0F5"/>
			<stop  offset="0.9727" style="stop-color:#EEEFF4"/>
			<stop  offset="0.9799" style="stop-color:#E7E8EF"/>
			<stop  offset="1" style="stop-color:#E5E6EE"/>
		</linearGradient>
		<path class="st2" d="M81.9,86l-0.2-52.6l-19.6-0.1l-4,0l-20.1-0.1L38.3,86c0,0.4,0.2,0.8,0.4,1.2c0.3,0.4,0.7,0.7,1.2,1l0,0l0,0
			c0,0,0,0,0,0l16.5,9.5c0.6,0.3,1.3,0.6,2,0.7c1.3,0.3,2.7,0.2,4-0.1c0.6-0.1,1.2-0.4,1.7-0.7l4.1-2.4l12.3-7.1v0
			C81.4,87.6,81.9,86.8,81.9,86z"/>
		<g>
			<linearGradient id="SVGID_3_" gradientUnits="userSpaceOnUse" x1="43.6046" y1="49.6671" x2="71.0795" y2="22.1921">
				<stop  offset="0" style="stop-color:#C4C7D8"/>
				<stop  offset="0.1901" style="stop-color:#B1B5CB"/>
				<stop  offset="0.5391" style="stop-color:#D9DBE6"/>
				<stop  offset="1" style="stop-color:#E5E6EE"/>
			</linearGradient>
			<path class="st3" d="M80.1,31.2l-16.5-9.5c-2.1-1.2-5.5-1.2-7.6,0l-16.4,9.5c-2.1,1.2-2.1,3.2,0,4.4L56.2,45
				c2.1,1.2,5.5,1.2,7.6,0l16.4-9.5C82.3,34.4,82.2,32.4,80.1,31.2z"/>
			<path class="st4" d="M60,44.8c-1.3,0-2.6-0.3-3.6-0.8l-16.5-9.5c-0.9-0.5-1.3-1.1-1.3-1.8c0-0.6,0.5-1.2,1.3-1.7l16.4-9.5
				c0.9-0.5,2.2-0.8,3.5-0.8c1.3,0,2.6,0.3,3.6,0.8l16.5,9.5c0.8,0.5,1.3,1.1,1.3,1.8c0,0.6-0.5,1.2-1.3,1.7L63.5,44
				C62.6,44.5,61.3,44.8,60,44.8L60,44.8z"/>
			<g>
				<path class="st5" d="M56.7,43.6l-15.5-9c-1.8-1-1.8-2.7,0-3.7L56.6,22c1.8-1,4.7-1,6.4,0l15.5,9c1.8,1,1.8,2.7,0,3.7l-15.4,8.9
					C61.4,44.6,58.5,44.6,56.7,43.6z M62.2,22.5c-1.3-0.8-3.4-0.8-4.8,0L42,31.4c-1.3,0.8-1.3,2,0,2.7l15.5,9c1.3,0.8,3.4,0.8,4.8,0
					l15.4-8.9c1.3-0.8,1.3-2,0-2.7L62.2,22.5z"/>
			</g>
		</g>
		<g>
			<path class="st6" d="M60.3,25c-0.3,0.1-0.7,0.1-0.9,0c-0.3-0.1-0.3-0.4,0-0.5c0.3-0.1,0.7-0.1,0.9,0C60.5,24.6,60.5,24.8,60.3,25
				z"/>
			<path class="st6" d="M61.9,25.9c-0.3,0.1-0.7,0.1-0.9,0c-0.3-0.1-0.3-0.4,0-0.5c0.3-0.1,0.7-0.1,0.9,0
				C62.2,25.5,62.2,25.8,61.9,25.9z"/>
			<path class="st6" d="M63.5,26.8c-0.3,0.1-0.7,0.1-0.9,0c-0.3-0.1-0.3-0.4,0-0.5c0.3-0.1,0.7-0.1,0.9,0
				C63.8,26.5,63.8,26.7,63.5,26.8z"/>
			<path class="st6" d="M65.2,27.8c-0.3,0.1-0.7,0.1-0.9,0c-0.3-0.1-0.3-0.4,0-0.5s0.7-0.1,0.9,0C65.4,27.4,65.4,27.6,65.2,27.8z"/>
			<path class="st6" d="M66.8,28.7c-0.3,0.1-0.7,0.1-0.9,0c-0.3-0.1-0.3-0.4,0-0.5c0.3-0.1,0.7-0.1,0.9,0C67,28.3,67,28.6,66.8,28.7
				z"/>
			<path class="st6" d="M68.4,29.7c-0.3,0.1-0.7,0.1-0.9,0c-0.3-0.1-0.3-0.4,0-0.5c0.3-0.1,0.7-0.1,0.9,0
				C68.7,29.3,68.7,29.5,68.4,29.7z"/>
			<path class="st6" d="M70,30.6c-0.3,0.1-0.7,0.1-0.9,0c-0.3-0.1-0.3-0.4,0-0.5c0.3-0.1,0.7-0.1,0.9,0C70.3,30.2,70.3,30.4,70,30.6
				z"/>
			<path class="st6" d="M71.7,31.5c-0.3,0.1-0.7,0.1-0.9,0c-0.3-0.1-0.3-0.4,0-0.5c0.3-0.1,0.7-0.1,0.9,0
				C71.9,31.2,71.9,31.4,71.7,31.5z"/>
			<path class="st6" d="M73.3,32.5c-0.3,0.1-0.7,0.1-0.9,0c-0.3-0.1-0.3-0.4,0-0.5c0.3-0.1,0.7-0.1,0.9,0
				C73.5,32.1,73.5,32.3,73.3,32.5z"/>
			<path class="st6" d="M74.9,33.4c-0.3,0.1-0.7,0.1-0.9,0c-0.3-0.1-0.3-0.4,0-0.5c0.3-0.1,0.7-0.1,0.9,0
				C75.2,33,75.2,33.3,74.9,33.4z"/>
		</g>
		<g>
			<path class="st6" d="M59.9,26.1c-0.3,0.1-0.7,0.1-0.9,0c-0.3-0.1-0.3-0.4,0-0.5c0.3-0.1,0.7-0.1,0.9,0
				C60.2,25.7,60.2,26,59.9,26.1z"/>
			<path class="st6" d="M61.6,27c-0.3,0.1-0.7,0.1-0.9,0c-0.3-0.1-0.3-0.4,0-0.5c0.3-0.1,0.7-0.1,0.9,0C61.8,26.7,61.8,26.9,61.6,27
				z"/>
			<path class="st6" d="M63.2,28c-0.3,0.1-0.7,0.1-0.9,0c-0.3-0.1-0.3-0.4,0-0.5c0.3-0.1,0.7-0.1,0.9,0C63.4,27.6,63.4,27.8,63.2,28
				z"/>
			<path class="st6" d="M64.8,28.9c-0.3,0.1-0.7,0.1-0.9,0c-0.3-0.1-0.3-0.4,0-0.5c0.3-0.1,0.7-0.1,0.9,0
				C65.1,28.5,65.1,28.8,64.8,28.9z"/>
			<path class="st6" d="M66.4,29.9c-0.3,0.1-0.7,0.1-0.9,0c-0.3-0.1-0.3-0.4,0-0.5c0.3-0.1,0.7-0.1,0.9,0
				C66.7,29.5,66.7,29.7,66.4,29.9z"/>
			<path class="st6" d="M68.1,30.8c-0.3,0.1-0.7,0.1-0.9,0c-0.3-0.1-0.3-0.4,0-0.5c0.3-0.1,0.7-0.1,0.9,0
				C68.3,30.4,68.3,30.7,68.1,30.8z"/>
			<path class="st6" d="M69.7,31.7c-0.3,0.1-0.7,0.1-0.9,0c-0.3-0.1-0.3-0.4,0-0.5c0.3-0.1,0.7-0.1,0.9,0
				C69.9,31.4,69.9,31.6,69.7,31.7z"/>
			<path class="st6" d="M71.3,32.7c-0.3,0.1-0.7,0.1-0.9,0c-0.3-0.1-0.3-0.4,0-0.5c0.3-0.1,0.7-0.1,0.9,0S71.6,32.5,71.3,32.7z"/>
			<path class="st6" d="M72.9,33.6c-0.3,0.1-0.7,0.1-0.9,0c-0.3-0.1-0.3-0.4,0-0.5c0.3-0.1,0.7-0.1,0.9,0S73.2,33.5,72.9,33.6z"/>
		</g>
		<g>
			<path class="st6" d="M57.9,26.3c-0.3,0.1-0.7,0.1-0.9,0c-0.3-0.1-0.3-0.4,0-0.5c0.3-0.1,0.7-0.1,0.9,0
				C58.2,25.9,58.2,26.2,57.9,26.3z"/>
			<path class="st6" d="M59.6,27.2c-0.3,0.1-0.7,0.1-0.9,0c-0.3-0.1-0.3-0.4,0-0.5c0.3-0.1,0.7-0.1,0.9,0
				C59.8,26.9,59.8,27.1,59.6,27.2z"/>
			<path class="st6" d="M61.2,28.2c-0.3,0.1-0.7,0.1-0.9,0c-0.3-0.1-0.3-0.4,0-0.5c0.3-0.1,0.7-0.1,0.9,0
				C61.4,27.8,61.4,28,61.2,28.2z"/>
			<path class="st6" d="M62.8,29.1c-0.3,0.1-0.7,0.1-0.9,0c-0.3-0.1-0.3-0.4,0-0.5c0.3-0.1,0.7-0.1,0.9,0
				C63.1,28.7,63.1,29,62.8,29.1z"/>
			<path class="st6" d="M64.4,30.1c-0.3,0.1-0.7,0.1-0.9,0c-0.3-0.1-0.3-0.4,0-0.5c0.3-0.1,0.7-0.1,0.9,0
				C64.7,29.7,64.7,29.9,64.4,30.1z"/>
			<path class="st6" d="M66.1,31c-0.3,0.1-0.7,0.1-0.9,0c-0.3-0.1-0.3-0.4,0-0.5c0.3-0.1,0.7-0.1,0.9,0C66.3,30.6,66.3,30.9,66.1,31
				z"/>
			<path class="st6" d="M67.7,31.9c-0.3,0.1-0.7,0.1-0.9,0c-0.3-0.1-0.3-0.4,0-0.5c0.3-0.1,0.7-0.1,0.9,0
				C67.9,31.6,67.9,31.8,67.7,31.9z"/>
			<path class="st6" d="M69.3,32.9c-0.3,0.1-0.7,0.1-0.9,0s-0.3-0.4,0-0.5c0.3-0.1,0.7-0.1,0.9,0C69.6,32.5,69.6,32.7,69.3,32.9z"/>
			<path class="st6" d="M70.9,33.8c-0.3,0.1-0.7,0.1-0.9,0c-0.3-0.1-0.3-0.4,0-0.5c0.3-0.1,0.7-0.1,0.9,0
				C71.2,33.4,71.2,33.7,70.9,33.8z"/>
			<path class="st6" d="M72.6,34.8c-0.3,0.1-0.7,0.1-0.9,0c-0.3-0.1-0.3-0.4,0-0.5c0.3-0.1,0.7-0.1,0.9,0S72.8,34.6,72.6,34.8z"/>
		</g>
		<g>
			<path class="st6" d="M57.6,27.5c-0.3,0.1-0.7,0.1-0.9,0c-0.3-0.1-0.3-0.4,0-0.5c0.3-0.1,0.7-0.1,0.9,0
				C57.8,27.1,57.8,27.3,57.6,27.5z"/>
			<path class="st6" d="M59.2,28.4c-0.3,0.1-0.7,0.1-0.9,0c-0.3-0.1-0.3-0.4,0-0.5c0.3-0.1,0.7-0.1,0.9,0
				C59.5,28,59.5,28.2,59.2,28.4z"/>
			<path class="st6" d="M60.8,29.3c-0.3,0.1-0.7,0.1-0.9,0c-0.3-0.1-0.3-0.4,0-0.5c0.3-0.1,0.7-0.1,0.9,0
				C61.1,29,61.1,29.2,60.8,29.3z"/>
			<path class="st6" d="M62.5,30.3c-0.3,0.1-0.7,0.1-0.9,0c-0.3-0.1-0.3-0.4,0-0.5c0.3-0.1,0.7-0.1,0.9,0
				C62.7,29.9,62.7,30.1,62.5,30.3z"/>
			<path class="st6" d="M64.1,31.2c-0.3,0.1-0.7,0.1-0.9,0c-0.3-0.1-0.3-0.4,0-0.5c0.3-0.1,0.7-0.1,0.9,0
				C64.3,30.8,64.3,31.1,64.1,31.2z"/>
			<path class="st6" d="M65.7,32.1c-0.3,0.1-0.7,0.1-0.9,0c-0.3-0.1-0.3-0.4,0-0.5c0.3-0.1,0.7-0.1,0.9,0C66,31.8,66,32,65.7,32.1z"
				/>
			<path class="st6" d="M67.3,33.1c-0.3,0.1-0.7,0.1-0.9,0c-0.3-0.1-0.3-0.4,0-0.5s0.7-0.1,0.9,0C67.6,32.7,67.6,32.9,67.3,33.1z"/>
			<path class="st6" d="M69,34c-0.3,0.1-0.7,0.1-0.9,0s-0.3-0.4,0-0.5c0.3-0.1,0.7-0.1,0.9,0S69.2,33.9,69,34z"/>
			<path class="st6" d="M70.6,35c-0.3,0.1-0.7,0.1-0.9,0s-0.3-0.4,0-0.5c0.3-0.1,0.7-0.1,0.9,0S70.8,34.8,70.6,35z"/>
		</g>
		<g>
			<path class="st6" d="M55.6,27.7c-0.3,0.1-0.7,0.1-0.9,0c-0.3-0.1-0.3-0.4,0-0.5c0.3-0.1,0.7-0.1,0.9,0
				C55.9,27.3,55.9,27.5,55.6,27.7z"/>
			<path class="st6" d="M57.2,28.6c-0.3,0.1-0.7,0.1-0.9,0c-0.3-0.1-0.3-0.4,0-0.5c0.3-0.1,0.7-0.1,0.9,0
				C57.5,28.2,57.5,28.5,57.2,28.6z"/>
			<path class="st6" d="M58.9,29.5c-0.3,0.1-0.7,0.1-0.9,0c-0.3-0.1-0.3-0.4,0-0.5c0.3-0.1,0.7-0.1,0.9,0
				C59.1,29.2,59.1,29.4,58.9,29.5z"/>
			<path class="st6" d="M60.5,30.5c-0.3,0.1-0.7,0.1-0.9,0c-0.3-0.1-0.3-0.4,0-0.5c0.3-0.1,0.7-0.1,0.9,0
				C60.7,30.1,60.7,30.3,60.5,30.5z"/>
			<path class="st6" d="M62.1,31.4c-0.3,0.1-0.7,0.1-0.9,0c-0.3-0.1-0.3-0.4,0-0.5c0.3-0.1,0.7-0.1,0.9,0
				C62.4,31,62.4,31.3,62.1,31.4z"/>
			<path class="st6" d="M63.7,32.4c-0.3,0.1-0.7,0.1-0.9,0c-0.3-0.1-0.3-0.4,0-0.5c0.3-0.1,0.7-0.1,0.9,0C64,32,64,32.2,63.7,32.4z"
				/>
			<path class="st6" d="M65.4,33.3c-0.3,0.1-0.7,0.1-0.9,0c-0.3-0.1-0.3-0.4,0-0.5c0.3-0.1,0.7-0.1,0.9,0
				C65.6,32.9,65.6,33.1,65.4,33.3z"/>
			<path class="st6" d="M67,34.2c-0.3,0.1-0.7,0.1-0.9,0c-0.3-0.1-0.3-0.4,0-0.5c0.3-0.1,0.7-0.1,0.9,0C67.2,33.9,67.2,34.1,67,34.2
				z"/>
			<path class="st6" d="M68.6,35.2c-0.3,0.1-0.7,0.1-0.9,0c-0.3-0.1-0.3-0.4,0-0.5c0.3-0.1,0.7-0.1,0.9,0
				C68.9,34.8,68.9,35,68.6,35.2z"/>
			<path class="st6" d="M70.2,36.1c-0.3,0.1-0.7,0.1-0.9,0c-0.3-0.1-0.3-0.4,0-0.5c0.3-0.1,0.7-0.1,0.9,0S70.5,36,70.2,36.1z"/>
		</g>
		<g>
			<path class="st6" d="M55.2,28.8c-0.3,0.1-0.7,0.1-0.9,0c-0.3-0.1-0.3-0.4,0-0.5c0.3-0.1,0.7-0.1,0.9,0
				C55.5,28.4,55.5,28.7,55.2,28.8z"/>
			<path class="st6" d="M56.9,29.7c-0.3,0.1-0.7,0.1-0.9,0c-0.3-0.1-0.3-0.4,0-0.5c0.3-0.1,0.7-0.1,0.9,0
				C57.1,29.4,57.1,29.6,56.9,29.7z"/>
			<path class="st6" d="M58.5,30.7c-0.3,0.1-0.7,0.1-0.9,0c-0.3-0.1-0.3-0.4,0-0.5c0.3-0.1,0.7-0.1,0.9,0
				C58.7,30.3,58.7,30.5,58.5,30.7z"/>
			<path class="st6" d="M60.1,31.6c-0.3,0.1-0.7,0.1-0.9,0c-0.3-0.1-0.3-0.4,0-0.5c0.3-0.1,0.7-0.1,0.9,0
				C60.4,31.2,60.4,31.5,60.1,31.6z"/>
			<path class="st6" d="M61.7,32.6c-0.3,0.1-0.7,0.1-0.9,0c-0.3-0.1-0.3-0.4,0-0.5c0.3-0.1,0.7-0.1,0.9,0S62,32.4,61.7,32.6z"/>
			<path class="st6" d="M63.4,33.5c-0.3,0.1-0.7,0.1-0.9,0c-0.3-0.1-0.3-0.4,0-0.5c0.3-0.1,0.7-0.1,0.9,0
				C63.6,33.1,63.6,33.4,63.4,33.5z"/>
			<path class="st6" d="M65,34.4c-0.3,0.1-0.7,0.1-0.9,0c-0.3-0.1-0.3-0.4,0-0.5c0.3-0.1,0.7-0.1,0.9,0C65.2,34.1,65.3,34.3,65,34.4
				z"/>
			<path class="st6" d="M66.6,35.4c-0.3,0.1-0.7,0.1-0.9,0c-0.3-0.1-0.3-0.4,0-0.5c0.3-0.1,0.7-0.1,0.9,0
				C66.9,35,66.9,35.2,66.6,35.4z"/>
			<path class="st6" d="M68.3,36.3c-0.3,0.1-0.7,0.1-0.9,0c-0.3-0.1-0.3-0.4,0-0.5c0.3-0.1,0.7-0.1,0.9,0
				C68.5,35.9,68.5,36.2,68.3,36.3z"/>
		</g>
		<g>
			<path class="st6" d="M53.3,29c-0.3,0.1-0.7,0.1-0.9,0c-0.3-0.1-0.3-0.4,0-0.5c0.3-0.1,0.7-0.1,0.9,0C53.5,28.6,53.5,28.9,53.3,29
				z"/>
			<path class="st6" d="M54.9,30c-0.3,0.1-0.7,0.1-0.9,0c-0.3-0.1-0.3-0.4,0-0.5c0.3-0.1,0.7-0.1,0.9,0C55.1,29.6,55.1,29.8,54.9,30
				z"/>
			<path class="st6" d="M56.5,30.9c-0.3,0.1-0.7,0.1-0.9,0c-0.3-0.1-0.3-0.4,0-0.5c0.3-0.1,0.7-0.1,0.9,0
				C56.8,30.5,56.8,30.7,56.5,30.9z"/>
			<path class="st6" d="M58.1,31.8c-0.3,0.1-0.7,0.1-0.9,0c-0.3-0.1-0.3-0.4,0-0.5c0.3-0.1,0.7-0.1,0.9,0
				C58.4,31.4,58.4,31.7,58.1,31.8z"/>
			<path class="st6" d="M59.8,32.8c-0.3,0.1-0.7,0.1-0.9,0c-0.3-0.1-0.3-0.4,0-0.5c0.3-0.1,0.7-0.1,0.9,0C60,32.4,60,32.6,59.8,32.8
				z"/>
			<path class="st6" d="M61.4,33.7c-0.3,0.1-0.7,0.1-0.9,0c-0.3-0.1-0.3-0.4,0-0.5c0.3-0.1,0.7-0.1,0.9,0S61.6,33.6,61.4,33.7z"/>
			<path class="st6" d="M63,34.6c-0.3,0.1-0.7,0.1-0.9,0c-0.3-0.1-0.3-0.4,0-0.5c0.3-0.1,0.7-0.1,0.9,0C63.3,34.3,63.3,34.5,63,34.6
				z"/>
			<path class="st6" d="M64.6,35.6c-0.3,0.1-0.7,0.1-0.9,0c-0.3-0.1-0.3-0.4,0-0.5c0.3-0.1,0.7-0.1,0.9,0
				C64.9,35.2,64.9,35.4,64.6,35.6z"/>
			<path class="st6" d="M66.3,36.5c-0.3,0.1-0.7,0.1-0.9,0c-0.3-0.1-0.3-0.4,0-0.5s0.7-0.1,0.9,0C66.5,36.1,66.5,36.4,66.3,36.5z"/>
			<path class="st6" d="M67.9,37.5c-0.3,0.1-0.7,0.1-0.9,0c-0.3-0.1-0.3-0.4,0-0.5c0.3-0.1,0.7-0.1,0.9,0S68.1,37.3,67.9,37.5z"/>
		</g>
		<g>
			<path class="st6" d="M52.9,30.2c-0.3,0.1-0.7,0.1-0.9,0c-0.3-0.1-0.3-0.4,0-0.5c0.3-0.1,0.7-0.1,0.9,0
				C53.2,29.8,53.2,30,52.9,30.2z"/>
			<path class="st6" d="M54.5,31.1c-0.3,0.1-0.7,0.1-0.9,0c-0.3-0.1-0.3-0.4,0-0.5c0.3-0.1,0.7-0.1,0.9,0
				C54.8,30.7,54.8,31,54.5,31.1z"/>
			<path class="st6" d="M56.2,32c-0.3,0.1-0.7,0.1-0.9,0c-0.3-0.1-0.3-0.4,0-0.5c0.3-0.1,0.7-0.1,0.9,0C56.4,31.7,56.4,31.9,56.2,32
				z"/>
			<path class="st6" d="M57.8,33c-0.3,0.1-0.7,0.1-0.9,0s-0.3-0.4,0-0.5c0.3-0.1,0.7-0.1,0.9,0C58,32.6,58,32.8,57.8,33z"/>
			<path class="st6" d="M59.4,33.9c-0.3,0.1-0.7,0.1-0.9,0c-0.3-0.1-0.3-0.4,0-0.5c0.3-0.1,0.7-0.1,0.9,0
				C59.7,33.5,59.7,33.8,59.4,33.9z"/>
			<path class="st6" d="M61,34.8c-0.3,0.1-0.7,0.1-0.9,0c-0.3-0.1-0.3-0.4,0-0.5c0.3-0.1,0.7-0.1,0.9,0C61.3,34.5,61.3,34.7,61,34.8
				z"/>
			<path class="st6" d="M62.7,35.8c-0.3,0.1-0.7,0.1-0.9,0c-0.3-0.1-0.3-0.4,0-0.5c0.3-0.1,0.7-0.1,0.9,0
				C62.9,35.4,62.9,35.6,62.7,35.8z"/>
			<path class="st6" d="M64.3,36.7c-0.3,0.1-0.7,0.1-0.9,0s-0.3-0.4,0-0.5c0.3-0.1,0.7-0.1,0.9,0C64.5,36.3,64.5,36.6,64.3,36.7z"/>
			<path class="st6" d="M65.9,37.7c-0.3,0.1-0.7,0.1-0.9,0c-0.3-0.1-0.3-0.4,0-0.5c0.3-0.1,0.7-0.1,0.9,0
				C66.2,37.3,66.2,37.5,65.9,37.7z"/>
		</g>
		<g>
			<path class="st6" d="M50.9,30.4c-0.3,0.1-0.7,0.1-0.9,0c-0.3-0.1-0.3-0.4,0-0.5c0.3-0.1,0.7-0.1,0.9,0
				C51.2,30,51.2,30.2,50.9,30.4z"/>
			<path class="st6" d="M52.6,31.3c-0.3,0.1-0.7,0.1-0.9,0c-0.3-0.1-0.3-0.4,0-0.5c0.3-0.1,0.7-0.1,0.9,0
				C52.8,30.9,52.8,31.2,52.6,31.3z"/>
			<path class="st6" d="M54.2,32.2c-0.3,0.1-0.7,0.1-0.9,0c-0.3-0.1-0.3-0.4,0-0.5c0.3-0.1,0.7-0.1,0.9,0
				C54.4,31.9,54.4,32.1,54.2,32.2z"/>
			<path class="st6" d="M55.8,33.2c-0.3,0.1-0.7,0.1-0.9,0c-0.3-0.1-0.3-0.4,0-0.5c0.3-0.1,0.7-0.1,0.9,0
				C56.1,32.8,56.1,33,55.8,33.2z"/>
			<path class="st6" d="M57.4,34.1c-0.3,0.1-0.7,0.1-0.9,0c-0.3-0.1-0.3-0.4,0-0.5c0.3-0.1,0.7-0.1,0.9,0
				C57.7,33.7,57.7,34,57.4,34.1z"/>
			<path class="st6" d="M59.1,35.1c-0.3,0.1-0.7,0.1-0.9,0c-0.3-0.1-0.3-0.4,0-0.5c0.3-0.1,0.7-0.1,0.9,0S59.3,34.9,59.1,35.1z"/>
			<path class="st6" d="M60.7,36c-0.3,0.1-0.7,0.1-0.9,0c-0.3-0.1-0.3-0.4,0-0.5c0.3-0.1,0.7-0.1,0.9,0S60.9,35.8,60.7,36z"/>
			<path class="st6" d="M62.3,36.9c-0.3,0.1-0.7,0.1-0.9,0c-0.3-0.1-0.3-0.4,0-0.5c0.3-0.1,0.7-0.1,0.9,0
				C62.6,36.6,62.6,36.8,62.3,36.9z"/>
			<path class="st6" d="M63.9,37.9c-0.3,0.1-0.7,0.1-0.9,0s-0.3-0.4,0-0.5c0.3-0.1,0.7-0.1,0.9,0C64.2,37.5,64.2,37.7,63.9,37.9z"/>
			<path class="st6" d="M65.6,38.8c-0.3,0.1-0.7,0.1-0.9,0c-0.3-0.1-0.3-0.4,0-0.5c0.3-0.1,0.7-0.1,0.9,0
				C65.8,38.4,65.8,38.7,65.6,38.8z"/>
		</g>
		<g>
			<path class="st6" d="M50.6,31.5c-0.3,0.1-0.7,0.1-0.9,0c-0.3-0.1-0.3-0.4,0-0.5c0.3-0.1,0.7-0.1,0.9,0
				C50.8,31.1,50.8,31.4,50.6,31.5z"/>
			<path class="st6" d="M52.2,32.4c-0.3,0.1-0.7,0.1-0.9,0c-0.3-0.1-0.3-0.4,0-0.5c0.3-0.1,0.7-0.1,0.9,0
				C52.4,32.1,52.4,32.3,52.2,32.4z"/>
			<path class="st6" d="M53.8,33.4c-0.3,0.1-0.7,0.1-0.9,0s-0.3-0.4,0-0.5c0.3-0.1,0.7-0.1,0.9,0C54.1,33,54.1,33.2,53.8,33.4z"/>
			<path class="st6" d="M55.4,34.3c-0.3,0.1-0.7,0.1-0.9,0s-0.3-0.4,0-0.5c0.3-0.1,0.7-0.1,0.9,0C55.7,33.9,55.7,34.2,55.4,34.3z"/>
			<path class="st6" d="M57.1,35.3c-0.3,0.1-0.7,0.1-0.9,0c-0.3-0.1-0.3-0.4,0-0.5c0.3-0.1,0.7-0.1,0.9,0
				C57.3,34.9,57.3,35.1,57.1,35.3z"/>
			<path class="st6" d="M58.7,36.2c-0.3,0.1-0.7,0.1-0.9,0c-0.3-0.1-0.3-0.4,0-0.5c0.3-0.1,0.7-0.1,0.9,0S58.9,36.1,58.7,36.2z"/>
			<path class="st6" d="M60.3,37.1c-0.3,0.1-0.7,0.1-0.9,0c-0.3-0.1-0.3-0.4,0-0.5c0.3-0.1,0.7-0.1,0.9,0
				C60.6,36.8,60.6,37,60.3,37.1z"/>
			<path class="st6" d="M61.9,38.1c-0.3,0.1-0.7,0.1-0.9,0c-0.3-0.1-0.3-0.4,0-0.5c0.3-0.1,0.7-0.1,0.9,0
				C62.2,37.7,62.2,37.9,61.9,38.1z"/>
			<path class="st6" d="M63.6,39c-0.3,0.1-0.7,0.1-0.9,0c-0.3-0.1-0.3-0.4,0-0.5c0.3-0.1,0.7-0.1,0.9,0C63.8,38.6,63.8,38.9,63.6,39
				z"/>
		</g>
		<g>
			<path class="st6" d="M48.6,31.7c-0.3,0.1-0.7,0.1-0.9,0c-0.3-0.1-0.3-0.4,0-0.5c0.3-0.1,0.7-0.1,0.9,0
				C48.8,31.3,48.8,31.6,48.6,31.7z"/>
			<path class="st6" d="M50.2,32.7c-0.3,0.1-0.7,0.1-0.9,0c-0.3-0.1-0.3-0.4,0-0.5c0.3-0.1,0.7-0.1,0.9,0
				C50.5,32.3,50.5,32.5,50.2,32.7z"/>
			<path class="st6" d="M51.8,33.6c-0.3,0.1-0.7,0.1-0.9,0c-0.3-0.1-0.3-0.4,0-0.5c0.3-0.1,0.7-0.1,0.9,0
				C52.1,33.2,52.1,33.4,51.8,33.6z"/>
			<path class="st6" d="M53.5,34.5c-0.3,0.1-0.7,0.1-0.9,0c-0.3-0.1-0.3-0.4,0-0.5c0.3-0.1,0.7-0.1,0.9,0
				C53.7,34.1,53.7,34.4,53.5,34.5z"/>
			<path class="st6" d="M55.1,35.5c-0.3,0.1-0.7,0.1-0.9,0s-0.3-0.4,0-0.5c0.3-0.1,0.7-0.1,0.9,0C55.3,35.1,55.3,35.3,55.1,35.5z"/>
			<path class="st6" d="M56.7,36.4c-0.3,0.1-0.7,0.1-0.9,0c-0.3-0.1-0.3-0.4,0-0.5c0.3-0.1,0.7-0.1,0.9,0S57,36.3,56.7,36.4z"/>
			<path class="st6" d="M58.3,37.3c-0.3,0.1-0.7,0.1-0.9,0c-0.3-0.1-0.3-0.4,0-0.5c0.3-0.1,0.7-0.1,0.9,0
				C58.6,37,58.6,37.2,58.3,37.3z"/>
			<path class="st6" d="M60,38.3c-0.3,0.1-0.7,0.1-0.9,0c-0.3-0.1-0.3-0.4,0-0.5c0.3-0.1,0.7-0.1,0.9,0C60.2,37.9,60.2,38.1,60,38.3
				z"/>
			<path class="st6" d="M61.6,39.2c-0.3,0.1-0.7,0.1-0.9,0c-0.3-0.1-0.3-0.4,0-0.5c0.3-0.1,0.7-0.1,0.9,0
				C61.8,38.8,61.8,39.1,61.6,39.2z"/>
			<path class="st6" d="M63.2,40.2c-0.3,0.1-0.7,0.1-0.9,0c-0.3-0.1-0.3-0.4,0-0.5c0.3-0.1,0.7-0.1,0.9,0
				C63.5,39.8,63.5,40,63.2,40.2z"/>
		</g>
		<g>
			<path class="st6" d="M48.2,32.9c-0.3,0.1-0.7,0.1-0.9,0c-0.3-0.1-0.3-0.4,0-0.5c0.3-0.1,0.7-0.1,0.9,0
				C48.5,32.5,48.5,32.7,48.2,32.9z"/>
			<path class="st6" d="M58.3,25.2c-0.3,0.1-0.7,0.1-0.9,0c-0.3-0.1-0.3-0.4,0-0.5c0.3-0.1,0.7-0.1,0.9,0S58.6,25,58.3,25.2z"/>
			<path class="st6" d="M56,26.5c-0.3,0.1-0.7,0.1-0.9,0c-0.3-0.1-0.3-0.4,0-0.5c0.3-0.1,0.7-0.1,0.9,0C56.2,26.2,56.3,26.4,56,26.5
				z"/>
			<path class="st6" d="M53.7,27.9c-0.3,0.1-0.7,0.1-0.9,0c-0.3-0.1-0.3-0.4,0-0.5c0.3-0.1,0.7-0.1,0.9,0
				C53.9,27.5,53.9,27.7,53.7,27.9z"/>
			<path class="st6" d="M51.3,29.2c-0.3,0.1-0.7,0.1-0.9,0c-0.3-0.1-0.3-0.4,0-0.5c0.3-0.1,0.7-0.1,0.9,0
				C51.6,28.9,51.6,29.1,51.3,29.2z"/>
			<path class="st6" d="M49,30.6c-0.3,0.1-0.7,0.1-0.9,0c-0.3-0.1-0.3-0.4,0-0.5c0.3-0.1,0.7-0.1,0.9,0C49.2,30.2,49.2,30.4,49,30.6
				z"/>
			<path class="st6" d="M46.6,31.9c-0.3,0.1-0.7,0.1-0.9,0c-0.3-0.1-0.3-0.4,0-0.5c0.3-0.1,0.7-0.1,0.9,0
				C46.9,31.6,46.9,31.8,46.6,31.9z"/>
			<path class="st6" d="M74.5,34.5c-0.3,0.1-0.7,0.1-0.9,0c-0.3-0.1-0.3-0.4,0-0.5c0.3-0.1,0.7-0.1,0.9,0
				C74.7,34.1,74.7,34.4,74.5,34.5z"/>
			<path class="st6" d="M72.1,35.9c-0.3,0.1-0.7,0.1-0.9,0c-0.3-0.1-0.3-0.4,0-0.5c0.3-0.1,0.7-0.1,0.9,0
				C72.4,35.5,72.4,35.7,72.1,35.9z"/>
			<path class="st6" d="M69.8,37.2c-0.3,0.1-0.7,0.1-0.9,0c-0.3-0.1-0.3-0.4,0-0.5c0.3-0.1,0.7-0.1,0.9,0C70,36.8,70,37.1,69.8,37.2
				z"/>
			<path class="st6" d="M67.5,38.6c-0.3,0.1-0.7,0.1-0.9,0c-0.3-0.1-0.3-0.4,0-0.5c0.3-0.1,0.7-0.1,0.9,0
				C67.7,38.2,67.7,38.4,67.5,38.6z"/>
			<path class="st6" d="M65.1,39.9c-0.3,0.1-0.7,0.1-0.9,0c-0.3-0.1-0.3-0.4,0-0.5c0.3-0.1,0.7-0.1,0.9,0
				C65.4,39.5,65.4,39.8,65.1,39.9z"/>
			<path class="st6" d="M62.8,41.3c-0.3,0.1-0.7,0.1-0.9,0s-0.3-0.4,0-0.5c0.3-0.1,0.7-0.1,0.9,0C63,40.9,63,41.1,62.8,41.3z"/>
			<path class="st6" d="M49.9,33.8c-0.3,0.1-0.7,0.1-0.9,0c-0.3-0.1-0.3-0.4,0-0.5c0.3-0.1,0.7-0.1,0.9,0
				C50.1,33.4,50.1,33.7,49.9,33.8z"/>
			<path class="st6" d="M51.5,34.7c-0.3,0.1-0.7,0.1-0.9,0s-0.3-0.4,0-0.5c0.3-0.1,0.7-0.1,0.9,0C51.7,34.4,51.7,34.6,51.5,34.7z"/>
			<path class="st6" d="M53.1,35.7c-0.3,0.1-0.7,0.1-0.9,0s-0.3-0.4,0-0.5c0.3-0.1,0.7-0.1,0.9,0C53.4,35.3,53.4,35.5,53.1,35.7z"/>
			<path class="st6" d="M54.7,36.6c-0.3,0.1-0.7,0.1-0.9,0c-0.3-0.1-0.3-0.4,0-0.5c0.3-0.1,0.7-0.1,0.9,0C55,36.2,55,36.5,54.7,36.6
				z"/>
			<path class="st6" d="M56.4,37.6c-0.3,0.1-0.7,0.1-0.9,0c-0.3-0.1-0.3-0.4,0-0.5c0.3-0.1,0.7-0.1,0.9,0S56.6,37.4,56.4,37.6z"/>
			<path class="st6" d="M58,38.5c-0.3,0.1-0.7,0.1-0.9,0c-0.3-0.1-0.3-0.4,0-0.5c0.3-0.1,0.7-0.1,0.9,0S58.2,38.3,58,38.5z"/>
			<path class="st6" d="M59.6,39.4c-0.3,0.1-0.7,0.1-0.9,0c-0.3-0.1-0.3-0.4,0-0.5c0.3-0.1,0.7-0.1,0.9,0
				C59.9,39,59.9,39.3,59.6,39.4z"/>
			<path class="st6" d="M61.2,40.4c-0.3,0.1-0.7,0.1-0.9,0c-0.3-0.1-0.3-0.4,0-0.5c0.3-0.1,0.7-0.1,0.9,0
				C61.5,40,61.5,40.2,61.2,40.4z"/>
		</g>
		<g>
			<path class="st6" d="M45.9,34.2c-0.3,0.1-0.7,0.1-0.9,0c-0.3-0.1-0.3-0.4,0-0.5c0.3-0.1,0.7-0.1,0.9,0S46.1,34.1,45.9,34.2z"/>
			<path class="st6" d="M47.5,35.1c-0.3,0.1-0.7,0.1-0.9,0c-0.3-0.1-0.3-0.4,0-0.5c0.3-0.1,0.7-0.1,0.9,0
				C47.8,34.8,47.8,35,47.5,35.1z"/>
			<path class="st6" d="M49.1,36.1c-0.3,0.1-0.7,0.1-0.9,0c-0.3-0.1-0.3-0.4,0-0.5c0.3-0.1,0.7-0.1,0.9,0
				C49.4,35.7,49.4,35.9,49.1,36.1z"/>
			<path class="st6" d="M50.8,37c-0.3,0.1-0.7,0.1-0.9,0c-0.3-0.1-0.3-0.4,0-0.5c0.3-0.1,0.7-0.1,0.9,0C51,36.6,51,36.9,50.8,37z"/>
			<path class="st6" d="M52.4,38c-0.3,0.1-0.7,0.1-0.9,0c-0.3-0.1-0.3-0.4,0-0.5c0.3-0.1,0.7-0.1,0.9,0C52.6,37.6,52.6,37.8,52.4,38
				z"/>
			<path class="st6" d="M54,38.9c-0.3,0.1-0.7,0.1-0.9,0c-0.3-0.1-0.3-0.4,0-0.5c0.3-0.1,0.7-0.1,0.9,0S54.3,38.8,54,38.9z"/>
			<path class="st6" d="M55.6,39.8c-0.3,0.1-0.7,0.1-0.9,0c-0.3-0.1-0.3-0.4,0-0.5c0.3-0.1,0.7-0.1,0.9,0
				C55.9,39.5,55.9,39.7,55.6,39.8z"/>
			<path class="st6" d="M57.3,40.8c-0.3,0.1-0.7,0.1-0.9,0c-0.3-0.1-0.3-0.4,0-0.5c0.3-0.1,0.7-0.1,0.9,0
				C57.5,40.4,57.5,40.6,57.3,40.8z"/>
			<path class="st6" d="M58.9,41.7c-0.3,0.1-0.7,0.1-0.9,0c-0.3-0.1-0.3-0.4,0-0.5c0.3-0.1,0.7-0.1,0.9,0
				C59.1,41.3,59.1,41.6,58.9,41.7z"/>
		</g>
		<g>
			<path class="st6" d="M46.2,33.1c-0.3,0.1-0.7,0.1-0.9,0c-0.3-0.1-0.3-0.4,0-0.5c0.3-0.1,0.7-0.1,0.9,0
				C46.5,32.7,46.5,32.9,46.2,33.1z"/>
			<path class="st6" d="M47.9,34c-0.3,0.1-0.7,0.1-0.9,0c-0.3-0.1-0.3-0.4,0-0.5c0.3-0.1,0.7-0.1,0.9,0S48.1,33.9,47.9,34z"/>
			<path class="st6" d="M49.5,34.9c-0.3,0.1-0.7,0.1-0.9,0c-0.3-0.1-0.3-0.4,0-0.5c0.3-0.1,0.7-0.1,0.9,0
				C49.7,34.6,49.7,34.8,49.5,34.9z"/>
			<path class="st6" d="M51.1,35.9c-0.3,0.1-0.7,0.1-0.9,0c-0.3-0.1-0.3-0.4,0-0.5c0.3-0.1,0.7-0.1,0.9,0
				C51.4,35.5,51.4,35.7,51.1,35.9z"/>
			<path class="st6" d="M52.7,36.8c-0.3,0.1-0.7,0.1-0.9,0s-0.3-0.4,0-0.5c0.3-0.1,0.7-0.1,0.9,0C53,36.4,53,36.7,52.7,36.8z"/>
			<path class="st6" d="M54.4,37.8c-0.3,0.1-0.7,0.1-0.9,0s-0.3-0.4,0-0.5c0.3-0.1,0.7-0.1,0.9,0C54.6,37.4,54.6,37.6,54.4,37.8z"/>
			<path class="st6" d="M56,38.7c-0.3,0.1-0.7,0.1-0.9,0c-0.3-0.1-0.3-0.4,0-0.5c0.3-0.1,0.7-0.1,0.9,0C56.2,38.3,56.3,38.6,56,38.7
				z"/>
			<path class="st6" d="M57.6,39.6c-0.3,0.1-0.7,0.1-0.9,0c-0.3-0.1-0.3-0.4,0-0.5c0.3-0.1,0.7-0.1,0.9,0
				C57.9,39.3,57.9,39.5,57.6,39.6z"/>
			<path class="st6" d="M59.3,40.6c-0.3,0.1-0.7,0.1-0.9,0c-0.3-0.1-0.3-0.4,0-0.5c0.3-0.1,0.7-0.1,0.9,0
				C59.5,40.2,59.5,40.4,59.3,40.6z"/>
			<path class="st6" d="M60.9,41.5c-0.3,0.1-0.7,0.1-0.9,0c-0.3-0.1-0.3-0.4,0-0.5c0.3-0.1,0.7-0.1,0.9,0
				C61.1,41.1,61.1,41.4,60.9,41.5z"/>
		</g>
		<g>
			<path class="st6" d="M62.3,24.8c-0.3,0.1-0.7,0.1-0.9,0c-0.3-0.1-0.3-0.4,0-0.5c0.3-0.1,0.7-0.1,0.9,0
				C62.5,24.4,62.5,24.6,62.3,24.8z"/>
			<path class="st6" d="M63.9,25.7c-0.3,0.1-0.7,0.1-0.9,0c-0.3-0.1-0.3-0.4,0-0.5c0.3-0.1,0.7-0.1,0.9,0
				C64.1,25.3,64.1,25.5,63.9,25.7z"/>
			<path class="st6" d="M65.5,26.6c-0.3,0.1-0.7,0.1-0.9,0c-0.3-0.1-0.3-0.4,0-0.5c0.3-0.1,0.7-0.1,0.9,0
				C65.8,26.3,65.8,26.5,65.5,26.6z"/>
			<path class="st6" d="M67.1,27.6c-0.3,0.1-0.7,0.1-0.9,0c-0.3-0.1-0.3-0.4,0-0.5c0.3-0.1,0.7-0.1,0.9,0
				C67.4,27.2,67.4,27.4,67.1,27.6z"/>
			<path class="st6" d="M68.8,28.5c-0.3,0.1-0.7,0.1-0.9,0c-0.3-0.1-0.3-0.4,0-0.5c0.3-0.1,0.7-0.1,0.9,0C69,28.1,69,28.4,68.8,28.5
				z"/>
			<path class="st6" d="M70.4,29.4c-0.3,0.1-0.7,0.1-0.9,0c-0.3-0.1-0.3-0.4,0-0.5c0.3-0.1,0.7-0.1,0.9,0
				C70.6,29.1,70.6,29.3,70.4,29.4z"/>
			<path class="st6" d="M72,30.4c-0.3,0.1-0.7,0.1-0.9,0c-0.3-0.1-0.3-0.4,0-0.5c0.3-0.1,0.7-0.1,0.9,0C72.3,30,72.3,30.2,72,30.4z"
				/>
			<path class="st6" d="M73.6,31.3c-0.3,0.1-0.7,0.1-0.9,0c-0.3-0.1-0.3-0.4,0-0.5c0.3-0.1,0.7-0.1,0.9,0
				C73.9,30.9,73.9,31.2,73.6,31.3z"/>
			<path class="st6" d="M75.3,32.3c-0.3,0.1-0.7,0.1-0.9,0c-0.3-0.1-0.3-0.4,0-0.5c0.3-0.1,0.7-0.1,0.9,0
				C75.5,31.9,75.5,32.1,75.3,32.3z"/>
		</g>
		<g>
			<g>
				<path class="st6" d="M79.6,70c0,0.3,0.2,0.4,0.5,0.3c0.3-0.2,0.5-0.5,0.5-0.9c0-0.3-0.2-0.4-0.5-0.3
					C79.9,69.3,79.6,69.7,79.6,70z"/>
				<path class="st6" d="M77.8,71c0,0.3,0.2,0.4,0.5,0.3c0.3-0.2,0.5-0.5,0.5-0.9c0-0.3-0.2-0.4-0.5-0.3
					C78.1,70.3,77.8,70.7,77.8,71z"/>
				<path class="st6" d="M76.1,72.1c0,0.3,0.2,0.4,0.5,0.3c0.3-0.2,0.5-0.5,0.5-0.9c0-0.3-0.2-0.4-0.5-0.3
					C76.3,71.4,76.1,71.8,76.1,72.1z"/>
				<path class="st6" d="M74.3,73.1c0,0.3,0.2,0.4,0.5,0.3c0.3-0.2,0.5-0.5,0.5-0.9c0-0.3-0.2-0.4-0.5-0.3
					C74.5,72.4,74.3,72.8,74.3,73.1z"/>
				<path class="st6" d="M72.5,74.1c0,0.3,0.2,0.4,0.5,0.3c0.3-0.2,0.5-0.5,0.5-0.9c0-0.3-0.2-0.4-0.5-0.3
					C72.7,73.4,72.5,73.8,72.5,74.1z"/>
				<path class="st6" d="M70.7,75.2c0,0.3,0.2,0.4,0.5,0.3c0.3-0.2,0.5-0.5,0.5-0.9c0-0.3-0.2-0.4-0.5-0.3
					C70.9,74.5,70.7,74.9,70.7,75.2z"/>
				<path class="st6" d="M68.9,76.2c0,0.3,0.2,0.4,0.5,0.3c0.3-0.2,0.5-0.5,0.5-0.9c0-0.3-0.2-0.4-0.5-0.3
					C69.1,75.5,68.9,75.9,68.9,76.2z"/>
				<path class="st6" d="M67.1,77.2c0,0.3,0.2,0.4,0.5,0.3c0.3-0.2,0.5-0.5,0.5-0.9s-0.2-0.4-0.5-0.3C67.3,76.5,67.1,76.9,67.1,77.2
					z"/>
				<path class="st6" d="M65.3,78.3c0,0.3,0.2,0.4,0.5,0.3c0.3-0.2,0.5-0.5,0.5-0.9c0-0.3-0.2-0.4-0.5-0.3
					C65.5,77.6,65.3,78,65.3,78.3z"/>
				<path class="st6" d="M63.5,79.3c0,0.3,0.2,0.4,0.5,0.3c0.3-0.2,0.5-0.5,0.5-0.9c0-0.3-0.2-0.4-0.5-0.3
					C63.7,78.6,63.5,79,63.5,79.3z"/>
			</g>
			<g>
				<path class="st6" d="M78.7,72c0,0.3,0.2,0.4,0.5,0.3c0.3-0.2,0.5-0.5,0.5-0.9s-0.2-0.4-0.5-0.3C79,71.3,78.7,71.7,78.7,72z"/>
				<path class="st6" d="M77,73c0,0.3,0.2,0.4,0.5,0.3c0.3-0.2,0.5-0.5,0.5-0.9c0-0.3-0.2-0.4-0.5-0.3C77.2,72.3,77,72.7,77,73z"/>
				<path class="st6" d="M75.2,74.1c0,0.3,0.2,0.4,0.5,0.3c0.3-0.2,0.5-0.5,0.5-0.9s-0.2-0.4-0.5-0.3C75.4,73.4,75.2,73.8,75.2,74.1
					z"/>
				<path class="st6" d="M73.4,75.1c0,0.3,0.2,0.4,0.5,0.3c0.3-0.2,0.5-0.5,0.5-0.9c0-0.3-0.2-0.4-0.5-0.3
					C73.6,74.4,73.4,74.8,73.4,75.1z"/>
				<path class="st6" d="M71.6,76.1c0,0.3,0.2,0.4,0.5,0.3c0.3-0.2,0.5-0.5,0.5-0.9c0-0.3-0.2-0.4-0.5-0.3
					C71.8,75.4,71.6,75.8,71.6,76.1z"/>
				<path class="st6" d="M69.8,77.2c0,0.3,0.2,0.4,0.5,0.3c0.3-0.2,0.5-0.5,0.5-0.9c0-0.3-0.2-0.4-0.5-0.3
					C70,76.5,69.8,76.9,69.8,77.2z"/>
				<path class="st6" d="M68,78.2c0,0.3,0.2,0.4,0.5,0.3c0.3-0.2,0.5-0.5,0.5-0.9c0-0.3-0.2-0.4-0.5-0.3C68.2,77.5,68,77.9,68,78.2z
					"/>
				<path class="st6" d="M66.2,79.3c0,0.3,0.2,0.4,0.5,0.3c0.3-0.2,0.5-0.5,0.5-0.9c0-0.3-0.2-0.4-0.5-0.3
					C66.4,78.5,66.2,78.9,66.2,79.3z"/>
				<path class="st6" d="M64.4,80.3c0,0.3,0.2,0.4,0.5,0.3c0.3-0.2,0.5-0.5,0.5-0.9c0-0.3-0.2-0.4-0.5-0.3S64.4,80,64.4,80.3z"/>
			</g>
			<g>
				<path class="st6" d="M79.6,73c0,0.3,0.2,0.4,0.5,0.3c0.3-0.2,0.5-0.5,0.5-0.9c0-0.3-0.2-0.4-0.5-0.3
					C79.9,72.3,79.6,72.7,79.6,73z"/>
				<path class="st6" d="M77.8,74c0,0.3,0.2,0.4,0.5,0.3c0.3-0.2,0.5-0.5,0.5-0.9c0-0.3-0.2-0.4-0.5-0.3
					C78.1,73.3,77.8,73.7,77.8,74z"/>
				<path class="st6" d="M76.1,75c0,0.3,0.2,0.4,0.5,0.3c0.3-0.2,0.5-0.5,0.5-0.9c0-0.3-0.2-0.4-0.5-0.3
					C76.3,74.3,76.1,74.7,76.1,75z"/>
				<path class="st6" d="M74.3,76.1c0,0.3,0.2,0.4,0.5,0.3c0.3-0.2,0.5-0.5,0.5-0.9s-0.2-0.4-0.5-0.3C74.5,75.4,74.3,75.8,74.3,76.1
					z"/>
				<path class="st6" d="M72.5,77.1c0,0.3,0.2,0.4,0.5,0.3c0.3-0.2,0.5-0.5,0.5-0.9c0-0.3-0.2-0.4-0.5-0.3
					C72.7,76.4,72.5,76.8,72.5,77.1z"/>
				<path class="st6" d="M70.7,78.2c0,0.3,0.2,0.4,0.5,0.3c0.3-0.2,0.5-0.5,0.5-0.9c0-0.3-0.2-0.4-0.5-0.3
					C70.9,77.4,70.7,77.8,70.7,78.2z"/>
				<path class="st6" d="M68.9,79.2c0,0.3,0.2,0.4,0.5,0.3c0.3-0.2,0.5-0.5,0.5-0.9c0-0.3-0.2-0.4-0.5-0.3
					C69.1,78.5,68.9,78.9,68.9,79.2z"/>
				<path class="st6" d="M67.1,80.2c0,0.3,0.2,0.4,0.5,0.3c0.3-0.2,0.5-0.5,0.5-0.9s-0.2-0.4-0.5-0.3C67.3,79.5,67.1,79.9,67.1,80.2
					z"/>
				<path class="st6" d="M65.3,81.3c0,0.3,0.2,0.4,0.5,0.3c0.3-0.2,0.5-0.5,0.5-0.9c0-0.3-0.2-0.4-0.5-0.3
					C65.5,80.6,65.3,80.9,65.3,81.3z"/>
				<path class="st6" d="M63.5,82.3c0,0.3,0.2,0.4,0.5,0.3c0.3-0.2,0.5-0.5,0.5-0.9c0-0.3-0.2-0.4-0.5-0.3
					C63.7,81.6,63.5,82,63.5,82.3z"/>
			</g>
			<g>
				<path class="st6" d="M78.7,75c0,0.3,0.2,0.4,0.5,0.3c0.3-0.2,0.5-0.5,0.5-0.9c0-0.3-0.2-0.4-0.5-0.3C79,74.3,78.7,74.7,78.7,75z
					"/>
				<path class="st6" d="M77,76c0,0.3,0.2,0.4,0.5,0.3c0.3-0.2,0.5-0.5,0.5-0.9c0-0.3-0.2-0.4-0.5-0.3C77.2,75.3,77,75.7,77,76z"/>
				<path class="st6" d="M75.2,77.1c0,0.3,0.2,0.4,0.5,0.3c0.3-0.2,0.5-0.5,0.5-0.9c0-0.3-0.2-0.4-0.5-0.3
					C75.4,76.3,75.2,76.7,75.2,77.1z"/>
				<path class="st6" d="M73.4,78.1c0,0.3,0.2,0.4,0.5,0.3c0.3-0.2,0.5-0.5,0.5-0.9s-0.2-0.4-0.5-0.3C73.6,77.4,73.4,77.8,73.4,78.1
					z"/>
				<path class="st6" d="M71.6,79.1c0,0.3,0.2,0.4,0.5,0.3c0.3-0.2,0.5-0.5,0.5-0.9c0-0.3-0.2-0.4-0.5-0.3
					C71.8,78.4,71.6,78.8,71.6,79.1z"/>
				<path class="st6" d="M69.8,80.2c0,0.3,0.2,0.4,0.5,0.3c0.3-0.2,0.5-0.5,0.5-0.9s-0.2-0.4-0.5-0.3C70,79.5,69.8,79.8,69.8,80.2z"
					/>
				<path class="st6" d="M68,81.2c0,0.3,0.2,0.4,0.5,0.3c0.3-0.2,0.5-0.5,0.5-0.9c0-0.3-0.2-0.4-0.5-0.3C68.2,80.5,68,80.9,68,81.2z
					"/>
				<path class="st6" d="M66.2,82.2c0,0.3,0.2,0.4,0.5,0.3c0.3-0.2,0.5-0.5,0.5-0.9c0-0.3-0.2-0.4-0.5-0.3
					C66.4,81.5,66.2,81.9,66.2,82.2z"/>
				<path class="st6" d="M64.4,83.3c0,0.3,0.2,0.4,0.5,0.3c0.3-0.2,0.5-0.5,0.5-0.9c0-0.3-0.2-0.4-0.5-0.3
					C64.6,82.6,64.4,82.9,64.4,83.3z"/>
			</g>
			<g>
				<path class="st6" d="M79.6,76c0,0.3,0.2,0.4,0.5,0.3c0.3-0.2,0.5-0.5,0.5-0.9c0-0.3-0.2-0.4-0.5-0.3
					C79.9,75.3,79.6,75.6,79.6,76z"/>
				<path class="st6" d="M77.8,77c0,0.3,0.2,0.4,0.5,0.3c0.3-0.2,0.5-0.5,0.5-0.9c0-0.3-0.2-0.4-0.5-0.3
					C78.1,76.3,77.8,76.7,77.8,77z"/>
				<path class="st6" d="M76.1,78c0,0.3,0.2,0.4,0.5,0.3c0.3-0.2,0.5-0.5,0.5-0.9c0-0.3-0.2-0.4-0.5-0.3
					C76.3,77.3,76.1,77.7,76.1,78z"/>
				<path class="st6" d="M74.3,79.1c0,0.3,0.2,0.4,0.5,0.3c0.3-0.2,0.5-0.5,0.5-0.9c0-0.3-0.2-0.4-0.5-0.3
					C74.5,78.4,74.3,78.7,74.3,79.1z"/>
				<path class="st6" d="M72.5,80.1c0,0.3,0.2,0.4,0.5,0.3c0.3-0.2,0.5-0.5,0.5-0.9c0-0.3-0.2-0.4-0.5-0.3
					C72.7,79.4,72.5,79.8,72.5,80.1z"/>
				<path class="st6" d="M70.7,81.1c0,0.3,0.2,0.4,0.5,0.3c0.3-0.2,0.5-0.5,0.5-0.9c0-0.3-0.2-0.4-0.5-0.3
					C70.9,80.4,70.7,80.8,70.7,81.1z"/>
				<path class="st6" d="M68.9,82.2c0,0.3,0.2,0.4,0.5,0.3c0.3-0.2,0.5-0.5,0.5-0.9c0-0.3-0.2-0.4-0.5-0.3
					C69.1,81.5,68.9,81.8,68.9,82.2z"/>
				<path class="st6" d="M67.1,83.2c0,0.3,0.2,0.4,0.5,0.3c0.3-0.2,0.5-0.5,0.5-0.9c0-0.3-0.2-0.4-0.5-0.3
					C67.3,82.5,67.1,82.9,67.1,83.2z"/>
				<path class="st6" d="M65.3,84.2c0,0.3,0.2,0.4,0.5,0.3c0.3-0.2,0.5-0.5,0.5-0.9c0-0.3-0.2-0.4-0.5-0.3
					C65.5,83.5,65.3,83.9,65.3,84.2z"/>
				<path class="st6" d="M63.5,85.3c0,0.3,0.2,0.4,0.5,0.3c0.3-0.2,0.5-0.5,0.5-0.9c0-0.3-0.2-0.4-0.5-0.3
					C63.7,84.6,63.5,84.9,63.5,85.3z"/>
			</g>
			<g>
				<path class="st6" d="M78.7,78c0,0.3,0.2,0.4,0.5,0.3c0.3-0.2,0.5-0.5,0.5-0.9c0-0.3-0.2-0.4-0.5-0.3C79,77.3,78.7,77.6,78.7,78z
					"/>
				<path class="st6" d="M77,79c0,0.3,0.2,0.4,0.5,0.3c0.3-0.2,0.5-0.5,0.5-0.9s-0.2-0.4-0.5-0.3C77.2,78.3,77,78.7,77,79z"/>
				<path class="st6" d="M75.2,80c0,0.3,0.2,0.4,0.5,0.3c0.3-0.2,0.5-0.5,0.5-0.9c0-0.3-0.2-0.4-0.5-0.3
					C75.4,79.3,75.2,79.7,75.2,80z"/>
				<path class="st6" d="M73.4,81.1c0,0.3,0.2,0.4,0.5,0.3c0.3-0.2,0.5-0.5,0.5-0.9c0-0.3-0.2-0.4-0.5-0.3
					C73.6,80.4,73.4,80.7,73.4,81.1z"/>
				<path class="st6" d="M71.6,82.1c0,0.3,0.2,0.4,0.5,0.3c0.3-0.2,0.5-0.5,0.5-0.9c0-0.3-0.2-0.4-0.5-0.3
					C71.8,81.4,71.6,81.8,71.6,82.1z"/>
				<path class="st6" d="M69.8,83.1c0,0.3,0.2,0.4,0.5,0.3c0.3-0.2,0.5-0.5,0.5-0.9s-0.2-0.4-0.5-0.3C70,82.4,69.8,82.8,69.8,83.1z"
					/>
				<path class="st6" d="M68,84.2c0,0.3,0.2,0.4,0.5,0.3c0.3-0.2,0.5-0.5,0.5-0.9c0-0.3-0.2-0.4-0.5-0.3C68.2,83.5,68,83.9,68,84.2z
					"/>
				<path class="st6" d="M66.2,85.2c0,0.3,0.2,0.4,0.5,0.3c0.3-0.2,0.5-0.5,0.5-0.9c0-0.3-0.2-0.4-0.5-0.3
					C66.4,84.5,66.2,84.9,66.2,85.2z"/>
				<path class="st6" d="M64.4,86.2c0,0.3,0.2,0.4,0.5,0.3c0.3-0.2,0.5-0.5,0.5-0.9c0-0.3-0.2-0.4-0.5-0.3
					C64.6,85.5,64.4,85.9,64.4,86.2z"/>
			</g>
			<g>
				<path class="st6" d="M79.6,78.9c0,0.3,0.2,0.4,0.5,0.3c0.3-0.2,0.5-0.5,0.5-0.9c0-0.3-0.2-0.4-0.5-0.3
					C79.9,78.2,79.6,78.6,79.6,78.9z"/>
				<path class="st6" d="M77.8,80c0,0.3,0.2,0.4,0.5,0.3c0.3-0.2,0.5-0.5,0.5-0.9c0-0.3-0.2-0.4-0.5-0.3
					C78.1,79.3,77.8,79.7,77.8,80z"/>
				<path class="st6" d="M76.1,81c0,0.3,0.2,0.4,0.5,0.3c0.3-0.2,0.5-0.5,0.5-0.9s-0.2-0.4-0.5-0.3C76.3,80.3,76.1,80.7,76.1,81z"/>
				<path class="st6" d="M74.3,82c0,0.3,0.2,0.4,0.5,0.3c0.3-0.2,0.5-0.5,0.5-0.9c0-0.3-0.2-0.4-0.5-0.3
					C74.5,81.3,74.3,81.7,74.3,82z"/>
				<path class="st6" d="M72.5,83.1c0,0.3,0.2,0.4,0.5,0.3c0.3-0.2,0.5-0.5,0.5-0.9c0-0.3-0.2-0.4-0.5-0.3
					C72.7,82.4,72.5,82.8,72.5,83.1z"/>
				<path class="st6" d="M70.7,84.1c0,0.3,0.2,0.4,0.5,0.3c0.3-0.2,0.5-0.5,0.5-0.9c0-0.3-0.2-0.4-0.5-0.3
					C70.9,83.4,70.7,83.8,70.7,84.1z"/>
				<path class="st6" d="M68.9,85.1c0,0.3,0.2,0.4,0.5,0.3c0.3-0.2,0.5-0.5,0.5-0.9s-0.2-0.4-0.5-0.3C69.1,84.4,68.9,84.8,68.9,85.1
					z"/>
				<path class="st6" d="M67.1,86.2c0,0.3,0.2,0.4,0.5,0.3c0.3-0.2,0.5-0.5,0.5-0.9c0-0.3-0.2-0.4-0.5-0.3
					C67.3,85.5,67.1,85.9,67.1,86.2z"/>
				<path class="st6" d="M65.3,87.2c0,0.3,0.2,0.4,0.5,0.3c0.3-0.2,0.5-0.5,0.5-0.9c0-0.3-0.2-0.4-0.5-0.3
					C65.5,86.5,65.3,86.9,65.3,87.2z"/>
				<path class="st6" d="M63.5,88.2c0,0.3,0.2,0.4,0.5,0.3c0.3-0.2,0.5-0.5,0.5-0.9c0-0.3-0.2-0.4-0.5-0.3
					C63.7,87.5,63.5,87.9,63.5,88.2z"/>
			</g>
			<g>
				<path class="st6" d="M78.7,80.9c0,0.3,0.2,0.4,0.5,0.3c0.3-0.2,0.5-0.5,0.5-0.9c0-0.3-0.2-0.4-0.5-0.3
					C79,80.2,78.7,80.6,78.7,80.9z"/>
				<path class="st6" d="M77,82c0,0.3,0.2,0.4,0.5,0.3c0.3-0.2,0.5-0.5,0.5-0.9c0-0.3-0.2-0.4-0.5-0.3C77.2,81.3,77,81.7,77,82z"/>
				<path class="st6" d="M75.2,83c0,0.3,0.2,0.4,0.5,0.3c0.3-0.2,0.5-0.5,0.5-0.9c0-0.3-0.2-0.4-0.5-0.3
					C75.4,82.3,75.2,82.7,75.2,83z"/>
				<path class="st6" d="M73.4,84c0,0.3,0.2,0.4,0.5,0.3c0.3-0.2,0.5-0.5,0.5-0.9c0-0.3-0.2-0.4-0.5-0.3
					C73.6,83.3,73.4,83.7,73.4,84z"/>
				<path class="st6" d="M71.6,85.1c0,0.3,0.2,0.4,0.5,0.3c0.3-0.2,0.5-0.5,0.5-0.9c0-0.3-0.2-0.4-0.5-0.3
					C71.8,84.4,71.6,84.8,71.6,85.1z"/>
				<path class="st6" d="M69.8,86.1c0,0.3,0.2,0.4,0.5,0.3c0.3-0.2,0.5-0.5,0.5-0.9c0-0.3-0.2-0.4-0.5-0.3
					C70,85.4,69.8,85.8,69.8,86.1z"/>
				<path class="st6" d="M68,87.1c0,0.3,0.2,0.4,0.5,0.3c0.3-0.2,0.5-0.5,0.5-0.9c0-0.3-0.2-0.4-0.5-0.3C68.2,86.4,68,86.8,68,87.1z
					"/>
				<path class="st6" d="M66.2,88.2c0,0.3,0.2,0.4,0.5,0.3c0.3-0.2,0.5-0.5,0.5-0.9c0-0.3-0.2-0.4-0.5-0.3
					C66.4,87.5,66.2,87.9,66.2,88.2z"/>
				<path class="st6" d="M64.4,89.2c0,0.3,0.2,0.4,0.5,0.3c0.3-0.2,0.5-0.5,0.5-0.9s-0.2-0.4-0.5-0.3C64.6,88.5,64.4,88.9,64.4,89.2
					z"/>
			</g>
			<g>
				<path class="st6" d="M79.6,81.9c0,0.3,0.2,0.4,0.5,0.3c0.3-0.2,0.5-0.5,0.5-0.9c0-0.3-0.2-0.4-0.5-0.3
					C79.9,81.2,79.6,81.6,79.6,81.9z"/>
				<path class="st6" d="M77.8,82.9c0,0.3,0.2,0.4,0.5,0.3c0.3-0.2,0.5-0.5,0.5-0.9c0-0.3-0.2-0.4-0.5-0.3
					C78.1,82.2,77.8,82.6,77.8,82.9z"/>
				<path class="st6" d="M76.1,84c0,0.3,0.2,0.4,0.5,0.3c0.3-0.2,0.5-0.5,0.5-0.9s-0.2-0.4-0.5-0.3C76.3,83.3,76.1,83.7,76.1,84z"/>
				<path class="st6" d="M74.3,85c0,0.3,0.2,0.4,0.5,0.3c0.3-0.2,0.5-0.5,0.5-0.9c0-0.3-0.2-0.4-0.5-0.3
					C74.5,84.3,74.3,84.7,74.3,85z"/>
				<path class="st6" d="M72.5,86.1c0,0.3,0.2,0.4,0.5,0.3c0.3-0.2,0.5-0.5,0.5-0.9c0-0.3-0.2-0.4-0.5-0.3
					C72.7,85.3,72.5,85.7,72.5,86.1z"/>
				<path class="st6" d="M70.7,87.1c0,0.3,0.2,0.4,0.5,0.3c0.3-0.2,0.5-0.5,0.5-0.9c0-0.3-0.2-0.4-0.5-0.3
					C70.9,86.4,70.7,86.8,70.7,87.1z"/>
				<path class="st6" d="M68.9,88.1c0,0.3,0.2,0.4,0.5,0.3c0.3-0.2,0.5-0.5,0.5-0.9c0-0.3-0.2-0.4-0.5-0.3
					C69.1,87.4,68.9,87.8,68.9,88.1z"/>
				<path class="st6" d="M67.1,89.2c0,0.3,0.2,0.4,0.5,0.3c0.3-0.2,0.5-0.5,0.5-0.9c0-0.3-0.2-0.4-0.5-0.3
					C67.3,88.4,67.1,88.8,67.1,89.2z"/>
				<path class="st6" d="M65.3,90.2c0,0.3,0.2,0.4,0.5,0.3c0.3-0.2,0.5-0.5,0.5-0.9c0-0.3-0.2-0.4-0.5-0.3
					C65.5,89.5,65.3,89.9,65.3,90.2z"/>
				<path class="st6" d="M63.5,91.2c0,0.3,0.2,0.4,0.5,0.3c0.3-0.2,0.5-0.5,0.5-0.9c0-0.3-0.2-0.4-0.5-0.3
					C63.7,90.5,63.5,90.9,63.5,91.2z"/>
			</g>
			<g>
				<path class="st6" d="M78.7,83.9c0,0.3,0.2,0.4,0.5,0.3c0.3-0.2,0.5-0.5,0.5-0.9s-0.2-0.4-0.5-0.3C79,83.2,78.7,83.6,78.7,83.9z"
					/>
				<path class="st6" d="M77,85c0,0.3,0.2,0.4,0.5,0.3c0.3-0.2,0.5-0.5,0.5-0.9c0-0.3-0.2-0.4-0.5-0.3C77.2,84.2,77,84.6,77,85z"/>
				<path class="st6" d="M75.2,86c0,0.3,0.2,0.4,0.5,0.3c0.3-0.2,0.5-0.5,0.5-0.9c0-0.3-0.2-0.4-0.5-0.3
					C75.4,85.3,75.2,85.7,75.2,86z"/>
				<path class="st6" d="M73.4,87c0,0.3,0.2,0.4,0.5,0.3c0.3-0.2,0.5-0.5,0.5-0.9c0-0.3-0.2-0.4-0.5-0.3
					C73.6,86.3,73.4,86.7,73.4,87z"/>
				<path class="st6" d="M71.6,88.1c0,0.3,0.2,0.4,0.5,0.3c0.3-0.2,0.5-0.5,0.5-0.9s-0.2-0.4-0.5-0.3C71.8,87.3,71.6,87.7,71.6,88.1
					z"/>
				<path class="st6" d="M69.8,89.1c0,0.3,0.2,0.4,0.5,0.3c0.3-0.2,0.5-0.5,0.5-0.9c0-0.3-0.2-0.4-0.5-0.3
					C70,88.4,69.8,88.8,69.8,89.1z"/>
				<path class="st6" d="M68,90.1c0,0.3,0.2,0.4,0.5,0.3c0.3-0.2,0.5-0.5,0.5-0.9c0-0.3-0.2-0.4-0.5-0.3C68.2,89.4,68,89.8,68,90.1z
					"/>
				<path class="st6" d="M66.2,91.2c0,0.3,0.2,0.4,0.5,0.3c0.3-0.2,0.5-0.5,0.5-0.9c0-0.3-0.2-0.4-0.5-0.3
					C66.4,90.5,66.2,90.8,66.2,91.2z"/>
				<path class="st6" d="M64.4,92.2c0,0.3,0.2,0.4,0.5,0.3s0.5-0.5,0.5-0.9s-0.2-0.4-0.5-0.3C64.6,91.5,64.4,91.9,64.4,92.2z"/>
			</g>
			<g>
				<path class="st6" d="M79.6,84.9c0,0.3,0.2,0.4,0.5,0.3c0.3-0.2,0.5-0.5,0.5-0.9c0-0.3-0.2-0.4-0.5-0.3
					C79.9,84.2,79.6,84.6,79.6,84.9z"/>
				<path class="st6" d="M77.8,85.9c0,0.3,0.2,0.4,0.5,0.3c0.3-0.2,0.5-0.5,0.5-0.9c0-0.3-0.2-0.4-0.5-0.3
					C78.1,85.2,77.8,85.6,77.8,85.9z"/>
				<path class="st6" d="M76.1,87c0,0.3,0.2,0.4,0.5,0.3c0.3-0.2,0.5-0.5,0.5-0.9c0-0.3-0.2-0.4-0.5-0.3
					C76.3,86.3,76.1,86.6,76.1,87z"/>
				<path class="st6" d="M74.3,88c0,0.3,0.2,0.4,0.5,0.3c0.3-0.2,0.5-0.5,0.5-0.9c0-0.3-0.2-0.4-0.5-0.3
					C74.5,87.3,74.3,87.7,74.3,88z"/>
				<path class="st6" d="M72.5,89c0,0.3,0.2,0.4,0.5,0.3c0.3-0.2,0.5-0.5,0.5-0.9c0-0.3-0.2-0.4-0.5-0.3
					C72.7,88.3,72.5,88.7,72.5,89z"/>
				<path class="st6" d="M70.7,90.1c0,0.3,0.2,0.4,0.5,0.3c0.3-0.2,0.5-0.5,0.5-0.9s-0.2-0.4-0.5-0.3C70.9,89.4,70.7,89.7,70.7,90.1
					z"/>
				<path class="st6" d="M68.9,91.1c0,0.3,0.2,0.4,0.5,0.3c0.3-0.2,0.5-0.5,0.5-0.9c0-0.3-0.2-0.4-0.5-0.3
					C69.1,90.4,68.9,90.8,68.9,91.1z"/>
				<path class="st6" d="M67.1,92.1c0,0.3,0.2,0.4,0.5,0.3c0.3-0.2,0.5-0.5,0.5-0.9c0-0.3-0.2-0.4-0.5-0.3
					C67.3,91.4,67.1,91.8,67.1,92.1z"/>
				<path class="st6" d="M65.3,93.2c0,0.3,0.2,0.4,0.5,0.3c0.3-0.2,0.5-0.5,0.5-0.9c0-0.3-0.2-0.4-0.5-0.3
					C65.5,92.5,65.3,92.8,65.3,93.2z"/>
				<path class="st6" d="M63.5,94.2c0,0.3,0.2,0.4,0.5,0.3c0.3-0.2,0.5-0.5,0.5-0.9s-0.2-0.4-0.5-0.3C63.7,93.5,63.5,93.9,63.5,94.2
					z"/>
			</g>
			<g>
				<path class="st6" d="M78.7,86.9c0,0.3,0.2,0.4,0.5,0.3c0.3-0.2,0.5-0.5,0.5-0.9c0-0.3-0.2-0.4-0.5-0.3
					C79,86.2,78.7,86.6,78.7,86.9z"/>
				<path class="st6" d="M80.5,71c0,0.3,0.2,0.4,0.5,0.3c0.3-0.2,0.5-0.5,0.5-0.9S81.3,70,81,70.1C80.7,70.3,80.5,70.7,80.5,71z"/>
				<path class="st6" d="M80.5,74c0,0.3,0.2,0.4,0.5,0.3c0.3-0.2,0.5-0.5,0.5-0.9c0-0.3-0.2-0.4-0.5-0.3
					C80.7,73.3,80.5,73.7,80.5,74z"/>
				<path class="st6" d="M80.5,77c0,0.3,0.2,0.4,0.5,0.3c0.3-0.2,0.5-0.5,0.5-0.9c0-0.3-0.2-0.4-0.5-0.3
					C80.7,76.2,80.5,76.6,80.5,77z"/>
				<path class="st6" d="M80.5,79.9c0,0.3,0.2,0.4,0.5,0.3c0.3-0.2,0.5-0.5,0.5-0.9c0-0.3-0.2-0.4-0.5-0.3
					C80.7,79.2,80.5,79.6,80.5,79.9z"/>
				<path class="st6" d="M80.5,82.9c0,0.3,0.2,0.4,0.5,0.3c0.3-0.2,0.5-0.5,0.5-0.9S81.3,81.9,81,82C80.7,82.2,80.5,82.6,80.5,82.9z
					"/>
				<path class="st6" d="M80.5,85.9c0,0.3,0.2,0.4,0.5,0.3c0.3-0.2,0.5-0.5,0.5-0.9c0-0.3-0.2-0.4-0.5-0.3
					C80.7,85.2,80.5,85.6,80.5,85.9z"/>
				<path class="st6" d="M62.7,81.3c0,0.3,0.2,0.4,0.5,0.3c0.3-0.2,0.5-0.5,0.5-0.9c0-0.3-0.2-0.4-0.5-0.3
					C62.9,80.6,62.7,80.9,62.7,81.3z"/>
				<path class="st6" d="M62.7,84.2c0,0.3,0.2,0.4,0.5,0.3c0.3-0.2,0.5-0.5,0.5-0.9c0-0.3-0.2-0.4-0.5-0.3
					C62.9,83.5,62.7,83.9,62.7,84.2z"/>
				<path class="st6" d="M62.7,87.2c0,0.3,0.2,0.4,0.5,0.3c0.3-0.2,0.5-0.5,0.5-0.9s-0.2-0.4-0.5-0.3C62.9,86.5,62.7,86.9,62.7,87.2
					z"/>
				<path class="st6" d="M62.7,90.2c0,0.3,0.2,0.4,0.5,0.3c0.3-0.2,0.5-0.5,0.5-0.9c0-0.3-0.2-0.4-0.5-0.3
					C62.9,89.5,62.7,89.9,62.7,90.2z"/>
				<path class="st6" d="M62.7,93.2c0,0.3,0.2,0.4,0.5,0.3c0.3-0.2,0.5-0.5,0.5-0.9c0-0.3-0.2-0.4-0.5-0.3
					C62.9,92.5,62.7,92.9,62.7,93.2z"/>
				<path class="st6" d="M62.7,96.2c0,0.3,0.2,0.4,0.5,0.3c0.3-0.2,0.5-0.5,0.5-0.9c0-0.3-0.2-0.4-0.5-0.3
					C62.9,95.4,62.7,95.8,62.7,96.2z"/>
				<path class="st6" d="M77,87.9c0,0.3,0.2,0.4,0.5,0.3c0.3-0.2,0.5-0.5,0.5-0.9c0-0.3-0.2-0.4-0.5-0.3C77.2,87.2,77,87.6,77,87.9z
					"/>
				<path class="st6" d="M75.2,89c0,0.3,0.2,0.4,0.5,0.3c0.3-0.2,0.5-0.5,0.5-0.9c0-0.3-0.2-0.4-0.5-0.3
					C75.4,88.3,75.2,88.6,75.2,89z"/>
				<path class="st6" d="M73.4,90c0,0.3,0.2,0.4,0.5,0.3c0.3-0.2,0.5-0.5,0.5-0.9c0-0.3-0.2-0.4-0.5-0.3
					C73.6,89.3,73.4,89.7,73.4,90z"/>
				<path class="st6" d="M71.6,91c0,0.3,0.2,0.4,0.5,0.3c0.3-0.2,0.5-0.5,0.5-0.9c0-0.3-0.2-0.4-0.5-0.3
					C71.8,90.3,71.6,90.7,71.6,91z"/>
				<path class="st6" d="M69.8,92.1c0,0.3,0.2,0.4,0.5,0.3c0.3-0.2,0.5-0.5,0.5-0.9c0-0.3-0.2-0.4-0.5-0.3
					C70,91.4,69.8,91.7,69.8,92.1z"/>
				<path class="st6" d="M68,93.1c0,0.3,0.2,0.4,0.5,0.3c0.3-0.2,0.5-0.5,0.5-0.9c0-0.3-0.2-0.4-0.5-0.3C68.2,92.4,68,92.8,68,93.1z
					"/>
				<path class="st6" d="M66.2,94.1c0,0.3,0.2,0.4,0.5,0.3c0.3-0.2,0.5-0.5,0.5-0.9c0-0.3-0.2-0.4-0.5-0.3
					C66.4,93.4,66.2,93.8,66.2,94.1z"/>
				<path class="st6" d="M64.4,95.2c0,0.3,0.2,0.4,0.5,0.3s0.5-0.5,0.5-0.9c0-0.3-0.2-0.4-0.5-0.3C64.6,94.5,64.4,94.9,64.4,95.2z"
					/>
			</g>
		</g>
		<g>
			<g>
				<path class="st7" d="M40.7,70c0,0.3-0.2,0.4-0.5,0.3c-0.3-0.2-0.5-0.5-0.5-0.9c0-0.3,0.2-0.4,0.5-0.3
					C40.4,69.3,40.7,69.7,40.7,70z"/>
				<path class="st7" d="M42.5,71c0,0.3-0.2,0.4-0.5,0.3c-0.3-0.2-0.5-0.5-0.5-0.9c0-0.3,0.2-0.4,0.5-0.3
					C42.2,70.3,42.5,70.7,42.5,71z"/>
				<path class="st7" d="M44.2,72.1c0,0.3-0.2,0.4-0.5,0.3c-0.3-0.2-0.5-0.5-0.5-0.9c0-0.3,0.2-0.4,0.5-0.3
					C44,71.4,44.2,71.8,44.2,72.1z"/>
				<path class="st7" d="M46,73.1c0,0.3-0.2,0.4-0.5,0.3c-0.3-0.2-0.5-0.5-0.5-0.9c0-0.3,0.2-0.4,0.5-0.3C45.8,72.4,46,72.8,46,73.1
					z"/>
				<path class="st7" d="M47.8,74.1c0,0.3-0.2,0.4-0.5,0.3c-0.3-0.2-0.5-0.5-0.5-0.9c0-0.3,0.2-0.4,0.5-0.3
					C47.6,73.4,47.8,73.8,47.8,74.1z"/>
				<path class="st7" d="M49.6,75.2c0,0.3-0.2,0.4-0.5,0.3c-0.3-0.2-0.5-0.5-0.5-0.9c0-0.3,0.2-0.4,0.5-0.3
					C49.4,74.5,49.6,74.9,49.6,75.2z"/>
				<path class="st7" d="M51.4,76.2c0,0.3-0.2,0.4-0.5,0.3c-0.3-0.2-0.5-0.5-0.5-0.9c0-0.3,0.2-0.4,0.5-0.3
					C51.2,75.5,51.4,75.9,51.4,76.2z"/>
				<path class="st7" d="M53.2,77.2c0,0.3-0.2,0.4-0.5,0.3c-0.3-0.2-0.5-0.5-0.5-0.9s0.2-0.4,0.5-0.3C53,76.5,53.2,76.9,53.2,77.2z"
					/>
				<path class="st7" d="M55,78.3c0,0.3-0.2,0.4-0.5,0.3C54.2,78.4,54,78,54,77.7c0-0.3,0.2-0.4,0.5-0.3C54.8,77.6,55,78,55,78.3z"
					/>
				<path class="st7" d="M56.8,79.3c0,0.3-0.2,0.4-0.5,0.3c-0.3-0.2-0.5-0.5-0.5-0.9c0-0.3,0.2-0.4,0.5-0.3
					C56.6,78.6,56.8,79,56.8,79.3z"/>
			</g>
			<g>
				<path class="st7" d="M41.6,72c0,0.3-0.2,0.4-0.5,0.3c-0.3-0.2-0.5-0.5-0.5-0.9s0.2-0.4,0.5-0.3C41.3,71.3,41.6,71.7,41.6,72z"/>
				<path class="st7" d="M43.4,73c0,0.3-0.2,0.4-0.5,0.3c-0.3-0.2-0.5-0.5-0.5-0.9c0-0.3,0.2-0.4,0.5-0.3
					C43.1,72.3,43.4,72.7,43.4,73z"/>
				<path class="st7" d="M45.1,74.1c0,0.3-0.2,0.4-0.5,0.3c-0.3-0.2-0.5-0.5-0.5-0.9s0.2-0.4,0.5-0.3C44.9,73.4,45.1,73.8,45.1,74.1
					z"/>
				<path class="st7" d="M46.9,75.1c0,0.3-0.2,0.4-0.5,0.3s-0.5-0.5-0.5-0.9c0-0.3,0.2-0.4,0.5-0.3C46.7,74.4,46.9,74.8,46.9,75.1z"
					/>
				<path class="st7" d="M48.7,76.1c0,0.3-0.2,0.4-0.5,0.3c-0.3-0.2-0.5-0.5-0.5-0.9c0-0.3,0.2-0.4,0.5-0.3
					C48.5,75.4,48.7,75.8,48.7,76.1z"/>
				<path class="st7" d="M50.5,77.2c0,0.3-0.2,0.4-0.5,0.3c-0.3-0.2-0.5-0.5-0.5-0.9c0-0.3,0.2-0.4,0.5-0.3
					C50.3,76.5,50.5,76.9,50.5,77.2z"/>
				<path class="st7" d="M52.3,78.2c0,0.3-0.2,0.4-0.5,0.3c-0.3-0.2-0.5-0.5-0.5-0.9c0-0.3,0.2-0.4,0.5-0.3
					C52.1,77.5,52.3,77.9,52.3,78.2z"/>
				<path class="st7" d="M54.1,79.3c0,0.3-0.2,0.4-0.5,0.3c-0.3-0.2-0.5-0.5-0.5-0.9c0-0.3,0.2-0.4,0.5-0.3
					C53.9,78.5,54.1,78.9,54.1,79.3z"/>
				<path class="st7" d="M55.9,80.3c0,0.3-0.2,0.4-0.5,0.3c-0.3-0.2-0.5-0.5-0.5-0.9c0-0.3,0.2-0.4,0.5-0.3
					C55.7,79.6,55.9,80,55.9,80.3z"/>
			</g>
			<g>
				<path class="st7" d="M40.7,73c0,0.3-0.2,0.4-0.5,0.3c-0.3-0.2-0.5-0.5-0.5-0.9c0-0.3,0.2-0.4,0.5-0.3
					C40.4,72.3,40.7,72.7,40.7,73z"/>
				<path class="st7" d="M42.5,74c0,0.3-0.2,0.4-0.5,0.3c-0.3-0.2-0.5-0.5-0.5-0.9c0-0.3,0.2-0.4,0.5-0.3
					C42.2,73.3,42.5,73.7,42.5,74z"/>
				<path class="st7" d="M44.2,75c0,0.3-0.2,0.4-0.5,0.3c-0.3-0.2-0.5-0.5-0.5-0.9c0-0.3,0.2-0.4,0.5-0.3C44,74.3,44.2,74.7,44.2,75
					z"/>
				<path class="st7" d="M46,76.1c0,0.3-0.2,0.4-0.5,0.3c-0.3-0.2-0.5-0.5-0.5-0.9s0.2-0.4,0.5-0.3C45.8,75.4,46,75.8,46,76.1z"/>
				<path class="st7" d="M47.8,77.1c0,0.3-0.2,0.4-0.5,0.3c-0.3-0.2-0.5-0.5-0.5-0.9c0-0.3,0.2-0.4,0.5-0.3
					C47.6,76.4,47.8,76.8,47.8,77.1z"/>
				<path class="st7" d="M49.6,78.2c0,0.3-0.2,0.4-0.5,0.3c-0.3-0.2-0.5-0.5-0.5-0.9c0-0.3,0.2-0.4,0.5-0.3
					C49.4,77.4,49.6,77.8,49.6,78.2z"/>
				<path class="st7" d="M51.4,79.2c0,0.3-0.2,0.4-0.5,0.3c-0.3-0.2-0.5-0.5-0.5-0.9c0-0.3,0.2-0.4,0.5-0.3
					C51.2,78.5,51.4,78.9,51.4,79.2z"/>
				<path class="st7" d="M53.2,80.2c0,0.3-0.2,0.4-0.5,0.3c-0.3-0.2-0.5-0.5-0.5-0.9s0.2-0.4,0.5-0.3C53,79.5,53.2,79.9,53.2,80.2z"
					/>
				<path class="st7" d="M55,81.3c0,0.3-0.2,0.4-0.5,0.3C54.2,81.4,54,81,54,80.7c0-0.3,0.2-0.4,0.5-0.3C54.8,80.6,55,80.9,55,81.3z
					"/>
				<path class="st7" d="M56.8,82.3c0,0.3-0.2,0.4-0.5,0.3c-0.3-0.2-0.5-0.5-0.5-0.9c0-0.3,0.2-0.4,0.5-0.3
					C56.6,81.6,56.8,82,56.8,82.3z"/>
			</g>
			<g>
				<path class="st7" d="M41.6,75c0,0.3-0.2,0.4-0.5,0.3c-0.3-0.2-0.5-0.5-0.5-0.9c0-0.3,0.2-0.4,0.5-0.3
					C41.3,74.3,41.6,74.7,41.6,75z"/>
				<path class="st7" d="M43.4,76c0,0.3-0.2,0.4-0.5,0.3c-0.3-0.2-0.5-0.5-0.5-0.9c0-0.3,0.2-0.4,0.5-0.3
					C43.1,75.3,43.4,75.7,43.4,76z"/>
				<path class="st7" d="M45.1,77.1c0,0.3-0.2,0.4-0.5,0.3c-0.3-0.2-0.5-0.5-0.5-0.9c0-0.3,0.2-0.4,0.5-0.3
					C44.9,76.3,45.1,76.7,45.1,77.1z"/>
				<path class="st7" d="M46.9,78.1c0,0.3-0.2,0.4-0.5,0.3c-0.3-0.2-0.5-0.5-0.5-0.9s0.2-0.4,0.5-0.3C46.7,77.4,46.9,77.8,46.9,78.1
					z"/>
				<path class="st7" d="M48.7,79.1c0,0.3-0.2,0.4-0.5,0.3c-0.3-0.2-0.5-0.5-0.5-0.9c0-0.3,0.2-0.4,0.5-0.3
					C48.5,78.4,48.7,78.8,48.7,79.1z"/>
				<path class="st7" d="M50.5,80.2c0,0.3-0.2,0.4-0.5,0.3c-0.3-0.2-0.5-0.5-0.5-0.9s0.2-0.4,0.5-0.3C50.3,79.5,50.5,79.8,50.5,80.2
					z"/>
				<path class="st7" d="M52.3,81.2c0,0.3-0.2,0.4-0.5,0.3c-0.3-0.2-0.5-0.5-0.5-0.9c0-0.3,0.2-0.4,0.5-0.3
					C52.1,80.5,52.3,80.9,52.3,81.2z"/>
				<path class="st7" d="M54.1,82.2c0,0.3-0.2,0.4-0.5,0.3c-0.3-0.2-0.5-0.5-0.5-0.9c0-0.3,0.2-0.4,0.5-0.3
					C53.9,81.5,54.1,81.9,54.1,82.2z"/>
				<path class="st7" d="M55.9,83.3c0,0.3-0.2,0.4-0.5,0.3c-0.3-0.2-0.5-0.5-0.5-0.9c0-0.3,0.2-0.4,0.5-0.3
					C55.7,82.6,55.9,82.9,55.9,83.3z"/>
			</g>
			<g>
				<path class="st7" d="M40.7,76c0,0.3-0.2,0.4-0.5,0.3c-0.3-0.2-0.5-0.5-0.5-0.9c0-0.3,0.2-0.4,0.5-0.3
					C40.4,75.3,40.7,75.6,40.7,76z"/>
				<path class="st7" d="M42.5,77c0,0.3-0.2,0.4-0.5,0.3c-0.3-0.2-0.5-0.5-0.5-0.9c0-0.3,0.2-0.4,0.5-0.3
					C42.2,76.3,42.5,76.7,42.5,77z"/>
				<path class="st7" d="M44.2,78c0,0.3-0.2,0.4-0.5,0.3c-0.3-0.2-0.5-0.5-0.5-0.9c0-0.3,0.2-0.4,0.5-0.3C44,77.3,44.2,77.7,44.2,78
					z"/>
				<path class="st7" d="M46,79.1c0,0.3-0.2,0.4-0.5,0.3c-0.3-0.2-0.5-0.5-0.5-0.9c0-0.3,0.2-0.4,0.5-0.3C45.8,78.4,46,78.7,46,79.1
					z"/>
				<path class="st7" d="M47.8,80.1c0,0.3-0.2,0.4-0.5,0.3c-0.3-0.2-0.5-0.5-0.5-0.9c0-0.3,0.2-0.4,0.5-0.3
					C47.6,79.4,47.8,79.8,47.8,80.1z"/>
				<path class="st7" d="M49.6,81.1c0,0.3-0.2,0.4-0.5,0.3c-0.3-0.2-0.5-0.5-0.5-0.9c0-0.3,0.2-0.4,0.5-0.3
					C49.4,80.4,49.6,80.8,49.6,81.1z"/>
				<path class="st7" d="M51.4,82.2c0,0.3-0.2,0.4-0.5,0.3c-0.3-0.2-0.5-0.5-0.5-0.9c0-0.3,0.2-0.4,0.5-0.3
					C51.2,81.5,51.4,81.8,51.4,82.2z"/>
				<path class="st7" d="M53.2,83.2c0,0.3-0.2,0.4-0.5,0.3c-0.3-0.2-0.5-0.5-0.5-0.9c0-0.3,0.2-0.4,0.5-0.3
					C53,82.5,53.2,82.9,53.2,83.2z"/>
				<path class="st7" d="M55,84.2c0,0.3-0.2,0.4-0.5,0.3C54.2,84.4,54,84,54,83.7c0-0.3,0.2-0.4,0.5-0.3C54.8,83.5,55,83.9,55,84.2z
					"/>
				<path class="st7" d="M56.8,85.3c0,0.3-0.2,0.4-0.5,0.3c-0.3-0.2-0.5-0.5-0.5-0.9c0-0.3,0.2-0.4,0.5-0.3
					C56.6,84.6,56.8,84.9,56.8,85.3z"/>
			</g>
			<g>
				<path class="st7" d="M41.6,78c0,0.3-0.2,0.4-0.5,0.3c-0.3-0.2-0.5-0.5-0.5-0.9c0-0.3,0.2-0.4,0.5-0.3
					C41.3,77.3,41.6,77.6,41.6,78z"/>
				<path class="st7" d="M43.4,79c0,0.3-0.2,0.4-0.5,0.3c-0.3-0.2-0.5-0.5-0.5-0.9s0.2-0.4,0.5-0.3C43.1,78.3,43.4,78.7,43.4,79z"/>
				<path class="st7" d="M45.1,80c0,0.3-0.2,0.4-0.5,0.3c-0.3-0.2-0.5-0.5-0.5-0.9c0-0.3,0.2-0.4,0.5-0.3
					C44.9,79.3,45.1,79.7,45.1,80z"/>
				<path class="st7" d="M46.9,81.1c0,0.3-0.2,0.4-0.5,0.3c-0.3-0.2-0.5-0.5-0.5-0.9c0-0.3,0.2-0.4,0.5-0.3S46.9,80.7,46.9,81.1z"/>
				<path class="st7" d="M48.7,82.1c0,0.3-0.2,0.4-0.5,0.3c-0.3-0.2-0.5-0.5-0.5-0.9c0-0.3,0.2-0.4,0.5-0.3
					C48.5,81.4,48.7,81.8,48.7,82.1z"/>
				<path class="st7" d="M50.5,83.1c0,0.3-0.2,0.4-0.5,0.3c-0.3-0.2-0.5-0.5-0.5-0.9s0.2-0.4,0.5-0.3C50.3,82.4,50.5,82.8,50.5,83.1
					z"/>
				<path class="st7" d="M52.3,84.2c0,0.3-0.2,0.4-0.5,0.3c-0.3-0.2-0.5-0.5-0.5-0.9c0-0.3,0.2-0.4,0.5-0.3
					C52.1,83.5,52.3,83.9,52.3,84.2z"/>
				<path class="st7" d="M54.1,85.2c0,0.3-0.2,0.4-0.5,0.3c-0.3-0.2-0.5-0.5-0.5-0.9c0-0.3,0.2-0.4,0.5-0.3
					C53.9,84.5,54.1,84.9,54.1,85.2z"/>
				<path class="st7" d="M55.9,86.2c0,0.3-0.2,0.4-0.5,0.3c-0.3-0.2-0.5-0.5-0.5-0.9c0-0.3,0.2-0.4,0.5-0.3
					C55.7,85.5,55.9,85.9,55.9,86.2z"/>
			</g>
			<g>
				<path class="st7" d="M40.7,78.9c0,0.3-0.2,0.4-0.5,0.3c-0.3-0.2-0.5-0.5-0.5-0.9c0-0.3,0.2-0.4,0.5-0.3
					C40.4,78.2,40.7,78.6,40.7,78.9z"/>
				<path class="st7" d="M42.5,80c0,0.3-0.2,0.4-0.5,0.3c-0.3-0.2-0.5-0.5-0.5-0.9c0-0.3,0.2-0.4,0.5-0.3
					C42.2,79.3,42.5,79.7,42.5,80z"/>
				<path class="st7" d="M44.2,81c0,0.3-0.2,0.4-0.5,0.3c-0.3-0.2-0.5-0.5-0.5-0.9s0.2-0.4,0.5-0.3C44,80.3,44.2,80.7,44.2,81z"/>
				<path class="st7" d="M46,82c0,0.3-0.2,0.4-0.5,0.3c-0.3-0.2-0.5-0.5-0.5-0.9c0-0.3,0.2-0.4,0.5-0.3C45.8,81.3,46,81.7,46,82z"/>
				<path class="st7" d="M47.8,83.1c0,0.3-0.2,0.4-0.5,0.3c-0.3-0.2-0.5-0.5-0.5-0.9c0-0.3,0.2-0.4,0.5-0.3
					C47.6,82.4,47.8,82.8,47.8,83.1z"/>
				<path class="st7" d="M49.6,84.1c0,0.3-0.2,0.4-0.5,0.3c-0.3-0.2-0.5-0.5-0.5-0.9c0-0.3,0.2-0.4,0.5-0.3
					C49.4,83.4,49.6,83.8,49.6,84.1z"/>
				<path class="st7" d="M51.4,85.1c0,0.3-0.2,0.4-0.5,0.3c-0.3-0.2-0.5-0.5-0.5-0.9s0.2-0.4,0.5-0.3C51.2,84.4,51.4,84.8,51.4,85.1
					z"/>
				<path class="st7" d="M53.2,86.2c0,0.3-0.2,0.4-0.5,0.3c-0.3-0.2-0.5-0.5-0.5-0.9c0-0.3,0.2-0.4,0.5-0.3
					C53,85.5,53.2,85.9,53.2,86.2z"/>
				<path class="st7" d="M55,87.2c0,0.3-0.2,0.4-0.5,0.3c-0.3-0.2-0.5-0.5-0.5-0.9c0-0.3,0.2-0.4,0.5-0.3C54.8,86.5,55,86.9,55,87.2
					z"/>
				<path class="st7" d="M56.8,88.2c0,0.3-0.2,0.4-0.5,0.3c-0.3-0.2-0.5-0.5-0.5-0.9c0-0.3,0.2-0.4,0.5-0.3
					C56.6,87.5,56.8,87.9,56.8,88.2z"/>
			</g>
			<g>
				<path class="st7" d="M41.6,80.9c0,0.3-0.2,0.4-0.5,0.3c-0.3-0.2-0.5-0.5-0.5-0.9c0-0.3,0.2-0.4,0.5-0.3
					C41.3,80.2,41.6,80.6,41.6,80.9z"/>
				<path class="st7" d="M43.4,82c0,0.3-0.2,0.4-0.5,0.3c-0.3-0.2-0.5-0.5-0.5-0.9c0-0.3,0.2-0.4,0.5-0.3
					C43.1,81.3,43.4,81.7,43.4,82z"/>
				<path class="st7" d="M45.1,83c0,0.3-0.2,0.4-0.5,0.3c-0.3-0.2-0.5-0.5-0.5-0.9c0-0.3,0.2-0.4,0.5-0.3
					C44.9,82.3,45.1,82.7,45.1,83z"/>
				<path class="st7" d="M46.9,84c0,0.3-0.2,0.4-0.5,0.3c-0.3-0.2-0.5-0.5-0.5-0.9c0-0.3,0.2-0.4,0.5-0.3S46.9,83.7,46.9,84z"/>
				<path class="st7" d="M48.7,85.1c0,0.3-0.2,0.4-0.5,0.3c-0.3-0.2-0.5-0.5-0.5-0.9c0-0.3,0.2-0.4,0.5-0.3
					C48.5,84.4,48.7,84.8,48.7,85.1z"/>
				<path class="st7" d="M50.5,86.1c0,0.3-0.2,0.4-0.5,0.3c-0.3-0.2-0.5-0.5-0.5-0.9c0-0.3,0.2-0.4,0.5-0.3
					C50.3,85.4,50.5,85.8,50.5,86.1z"/>
				<path class="st7" d="M52.3,87.1c0,0.3-0.2,0.4-0.5,0.3c-0.3-0.2-0.5-0.5-0.5-0.9c0-0.3,0.2-0.4,0.5-0.3
					C52.1,86.4,52.3,86.8,52.3,87.1z"/>
				<path class="st7" d="M54.1,88.2c0,0.3-0.2,0.4-0.5,0.3c-0.3-0.2-0.5-0.5-0.5-0.9c0-0.3,0.2-0.4,0.5-0.3
					C53.9,87.5,54.1,87.9,54.1,88.2z"/>
				<path class="st7" d="M55.9,89.2c0,0.3-0.2,0.4-0.5,0.3c-0.3-0.2-0.5-0.5-0.5-0.9s0.2-0.4,0.5-0.3C55.7,88.5,55.9,88.9,55.9,89.2
					z"/>
			</g>
			<g>
				<path class="st7" d="M40.7,81.9c0,0.3-0.2,0.4-0.5,0.3c-0.3-0.2-0.5-0.5-0.5-0.9c0-0.3,0.2-0.4,0.5-0.3
					C40.4,81.2,40.7,81.6,40.7,81.9z"/>
				<path class="st7" d="M42.5,82.9c0,0.3-0.2,0.4-0.5,0.3c-0.3-0.2-0.5-0.5-0.5-0.9c0-0.3,0.2-0.4,0.5-0.3
					C42.2,82.2,42.5,82.6,42.5,82.9z"/>
				<path class="st7" d="M44.2,84c0,0.3-0.2,0.4-0.5,0.3c-0.3-0.2-0.5-0.5-0.5-0.9s0.2-0.4,0.5-0.3C44,83.3,44.2,83.7,44.2,84z"/>
				<path class="st7" d="M46,85c0,0.3-0.2,0.4-0.5,0.3c-0.3-0.2-0.5-0.5-0.5-0.9c0-0.3,0.2-0.4,0.5-0.3C45.8,84.3,46,84.7,46,85z"/>
				<path class="st7" d="M47.8,86.1c0,0.3-0.2,0.4-0.5,0.3c-0.3-0.2-0.5-0.5-0.5-0.9c0-0.3,0.2-0.4,0.5-0.3
					C47.6,85.3,47.8,85.7,47.8,86.1z"/>
				<path class="st7" d="M49.6,87.1c0,0.3-0.2,0.4-0.5,0.3c-0.3-0.2-0.5-0.5-0.5-0.9c0-0.3,0.2-0.4,0.5-0.3
					C49.4,86.4,49.6,86.8,49.6,87.1z"/>
				<path class="st7" d="M51.4,88.1c0,0.3-0.2,0.4-0.5,0.3c-0.3-0.2-0.5-0.5-0.5-0.9c0-0.3,0.2-0.4,0.5-0.3
					C51.2,87.4,51.4,87.8,51.4,88.1z"/>
				<path class="st7" d="M53.2,89.2c0,0.3-0.2,0.4-0.5,0.3c-0.3-0.2-0.5-0.5-0.5-0.9c0-0.3,0.2-0.4,0.5-0.3
					C53,88.4,53.2,88.8,53.2,89.2z"/>
				<path class="st7" d="M55,90.2c0,0.3-0.2,0.4-0.5,0.3c-0.3-0.2-0.5-0.5-0.5-0.9c0-0.3,0.2-0.4,0.5-0.3C54.8,89.5,55,89.9,55,90.2
					z"/>
				<path class="st7" d="M56.8,91.2c0,0.3-0.2,0.4-0.5,0.3c-0.3-0.2-0.5-0.5-0.5-0.9c0-0.3,0.2-0.4,0.5-0.3
					C56.6,90.5,56.8,90.9,56.8,91.2z"/>
			</g>
			<g>
				<path class="st7" d="M41.6,83.9c0,0.3-0.2,0.4-0.5,0.3c-0.3-0.2-0.5-0.5-0.5-0.9s0.2-0.4,0.5-0.3C41.3,83.2,41.6,83.6,41.6,83.9
					z"/>
				<path class="st7" d="M43.4,85c0,0.3-0.2,0.4-0.5,0.3c-0.3-0.2-0.5-0.5-0.5-0.9c0-0.3,0.2-0.4,0.5-0.3
					C43.1,84.2,43.4,84.6,43.4,85z"/>
				<path class="st7" d="M45.1,86c0,0.3-0.2,0.4-0.5,0.3c-0.3-0.2-0.5-0.5-0.5-0.9c0-0.3,0.2-0.4,0.5-0.3
					C44.9,85.3,45.1,85.7,45.1,86z"/>
				<path class="st7" d="M46.9,87c0,0.3-0.2,0.4-0.5,0.3c-0.3-0.2-0.5-0.5-0.5-0.9c0-0.3,0.2-0.4,0.5-0.3
					C46.7,86.3,46.9,86.7,46.9,87z"/>
				<path class="st7" d="M48.7,88.1c0,0.3-0.2,0.4-0.5,0.3c-0.3-0.2-0.5-0.5-0.5-0.9s0.2-0.4,0.5-0.3C48.5,87.3,48.7,87.7,48.7,88.1
					z"/>
				<path class="st7" d="M50.5,89.1c0,0.3-0.2,0.4-0.5,0.3c-0.3-0.2-0.5-0.5-0.5-0.9c0-0.3,0.2-0.4,0.5-0.3
					C50.3,88.4,50.5,88.8,50.5,89.1z"/>
				<path class="st7" d="M52.3,90.1c0,0.3-0.2,0.4-0.5,0.3c-0.3-0.2-0.5-0.5-0.5-0.9c0-0.3,0.2-0.4,0.5-0.3
					C52.1,89.4,52.3,89.8,52.3,90.1z"/>
				<path class="st7" d="M54.1,91.2c0,0.3-0.2,0.4-0.5,0.3c-0.3-0.2-0.5-0.5-0.5-0.9c0-0.3,0.2-0.4,0.5-0.3
					C53.9,90.5,54.1,90.8,54.1,91.2z"/>
				<path class="st7" d="M55.9,92.2c0,0.3-0.2,0.4-0.5,0.3c-0.3-0.2-0.5-0.5-0.5-0.9s0.2-0.4,0.5-0.3C55.7,91.5,55.9,91.9,55.9,92.2
					z"/>
			</g>
			<g>
				<path class="st7" d="M40.7,84.9c0,0.3-0.2,0.4-0.5,0.3c-0.3-0.2-0.5-0.5-0.5-0.9c0-0.3,0.2-0.4,0.5-0.3
					C40.4,84.2,40.7,84.6,40.7,84.9z"/>
				<path class="st7" d="M42.5,85.9c0,0.3-0.2,0.4-0.5,0.3c-0.3-0.2-0.5-0.5-0.5-0.9c0-0.3,0.2-0.4,0.5-0.3
					C42.2,85.2,42.5,85.6,42.5,85.9z"/>
				<path class="st7" d="M44.2,87c0,0.3-0.2,0.4-0.5,0.3c-0.3-0.2-0.5-0.5-0.5-0.9c0-0.3,0.2-0.4,0.5-0.3C44,86.3,44.2,86.6,44.2,87
					z"/>
				<path class="st7" d="M46,88c0,0.3-0.2,0.4-0.5,0.3c-0.3-0.2-0.5-0.5-0.5-0.9c0-0.3,0.2-0.4,0.5-0.3C45.8,87.3,46,87.7,46,88z"/>
				<path class="st7" d="M47.8,89c0,0.3-0.2,0.4-0.5,0.3c-0.3-0.2-0.5-0.5-0.5-0.9c0-0.3,0.2-0.4,0.5-0.3
					C47.6,88.3,47.8,88.7,47.8,89z"/>
				<path class="st7" d="M49.6,90.1c0,0.3-0.2,0.4-0.5,0.3c-0.3-0.2-0.5-0.5-0.5-0.9s0.2-0.4,0.5-0.3C49.4,89.4,49.6,89.7,49.6,90.1
					z"/>
				<path class="st7" d="M51.4,91.1c0,0.3-0.2,0.4-0.5,0.3c-0.3-0.2-0.5-0.5-0.5-0.9c0-0.3,0.2-0.4,0.5-0.3
					C51.2,90.4,51.4,90.8,51.4,91.1z"/>
				<path class="st7" d="M53.2,92.1c0,0.3-0.2,0.4-0.5,0.3c-0.3-0.2-0.5-0.5-0.5-0.9c0-0.3,0.2-0.4,0.5-0.3
					C53,91.4,53.2,91.8,53.2,92.1z"/>
				<path class="st7" d="M55,93.2c0,0.3-0.2,0.4-0.5,0.3c-0.3-0.2-0.5-0.5-0.5-0.9c0-0.3,0.2-0.4,0.5-0.3C54.8,92.5,55,92.8,55,93.2
					z"/>
				<path class="st7" d="M56.8,94.2c0,0.3-0.2,0.4-0.5,0.3c-0.3-0.2-0.5-0.5-0.5-0.9s0.2-0.4,0.5-0.3C56.6,93.5,56.8,93.9,56.8,94.2
					z"/>
			</g>
			<g>
				<path class="st7" d="M41.6,86.9c0,0.3-0.2,0.4-0.5,0.3c-0.3-0.2-0.5-0.5-0.5-0.9c0-0.3,0.2-0.4,0.5-0.3
					C41.3,86.2,41.6,86.6,41.6,86.9z"/>
				<path class="st7" d="M39.8,71c0,0.3-0.2,0.4-0.5,0.3c-0.3-0.2-0.5-0.5-0.5-0.9s0.2-0.4,0.5-0.3C39.6,70.3,39.8,70.7,39.8,71z"/>
				<path class="st7" d="M39.8,74c0,0.3-0.2,0.4-0.5,0.3c-0.3-0.2-0.5-0.5-0.5-0.9c0-0.3,0.2-0.4,0.5-0.3
					C39.6,73.3,39.8,73.7,39.8,74z"/>
				<path class="st7" d="M39.8,77c0,0.3-0.2,0.4-0.5,0.3c-0.3-0.2-0.5-0.5-0.5-0.9c0-0.3,0.2-0.4,0.5-0.3
					C39.6,76.2,39.8,76.6,39.8,77z"/>
				<path class="st7" d="M39.8,79.9c0,0.3-0.2,0.4-0.5,0.3c-0.3-0.2-0.5-0.5-0.5-0.9c0-0.3,0.2-0.4,0.5-0.3
					C39.6,79.2,39.8,79.6,39.8,79.9z"/>
				<path class="st7" d="M39.8,82.9c0,0.3-0.2,0.4-0.5,0.3c-0.3-0.2-0.5-0.5-0.5-0.9s0.2-0.4,0.5-0.3C39.6,82.2,39.8,82.6,39.8,82.9
					z"/>
				<path class="st7" d="M39.8,85.9c0,0.3-0.2,0.4-0.5,0.3c-0.3-0.2-0.5-0.5-0.5-0.9c0-0.3,0.2-0.4,0.5-0.3
					C39.6,85.2,39.8,85.6,39.8,85.9z"/>
				<path class="st7" d="M57.6,81.3c0,0.3-0.2,0.4-0.5,0.3c-0.3-0.2-0.5-0.5-0.5-0.9c0-0.3,0.2-0.4,0.5-0.3
					C57.4,80.6,57.6,80.9,57.6,81.3z"/>
				<path class="st7" d="M57.6,84.2c0,0.3-0.2,0.4-0.5,0.3c-0.3-0.2-0.5-0.5-0.5-0.9c0-0.3,0.2-0.4,0.5-0.3
					C57.4,83.5,57.6,83.9,57.6,84.2z"/>
				<path class="st7" d="M57.6,87.2c0,0.3-0.2,0.4-0.5,0.3c-0.3-0.2-0.5-0.5-0.5-0.9s0.2-0.4,0.5-0.3C57.4,86.5,57.6,86.9,57.6,87.2
					z"/>
				<path class="st7" d="M57.6,90.2c0,0.3-0.2,0.4-0.5,0.3c-0.3-0.2-0.5-0.5-0.5-0.9c0-0.3,0.2-0.4,0.5-0.3
					C57.4,89.5,57.6,89.9,57.6,90.2z"/>
				<path class="st7" d="M57.6,93.2c0,0.3-0.2,0.4-0.5,0.3c-0.3-0.2-0.5-0.5-0.5-0.9c0-0.3,0.2-0.4,0.5-0.3
					C57.4,92.5,57.6,92.9,57.6,93.2z"/>
				<path class="st7" d="M57.6,96.2c0,0.3-0.2,0.4-0.5,0.3c-0.3-0.2-0.5-0.5-0.5-0.9c0-0.3,0.2-0.4,0.5-0.3
					C57.4,95.4,57.6,95.8,57.6,96.2z"/>
				<path class="st7" d="M43.4,87.9c0,0.3-0.2,0.4-0.5,0.3c-0.3-0.2-0.5-0.5-0.5-0.9c0-0.3,0.2-0.4,0.5-0.3
					C43.1,87.2,43.4,87.6,43.4,87.9z"/>
				<path class="st7" d="M45.1,89c0,0.3-0.2,0.4-0.5,0.3c-0.3-0.2-0.5-0.5-0.5-0.9c0-0.3,0.2-0.4,0.5-0.3
					C44.9,88.3,45.1,88.6,45.1,89z"/>
				<path class="st7" d="M46.9,90c0,0.3-0.2,0.4-0.5,0.3c-0.3-0.2-0.5-0.5-0.5-0.9c0-0.3,0.2-0.4,0.5-0.3
					C46.7,89.3,46.9,89.7,46.9,90z"/>
				<path class="st7" d="M48.7,91c0,0.3-0.2,0.4-0.5,0.3c-0.3-0.2-0.5-0.5-0.5-0.9c0-0.3,0.2-0.4,0.5-0.3
					C48.5,90.3,48.7,90.7,48.7,91z"/>
				<path class="st7" d="M50.5,92.1c0,0.3-0.2,0.4-0.5,0.3c-0.3-0.2-0.5-0.5-0.5-0.9c0-0.3,0.2-0.4,0.5-0.3
					C50.3,91.4,50.5,91.7,50.5,92.1z"/>
				<path class="st7" d="M52.3,93.1c0,0.3-0.2,0.4-0.5,0.3c-0.3-0.2-0.5-0.5-0.5-0.9c0-0.3,0.2-0.4,0.5-0.3
					C52.1,92.4,52.3,92.8,52.3,93.1z"/>
				<path class="st7" d="M54.1,94.1c0,0.3-0.2,0.4-0.5,0.3c-0.3-0.2-0.5-0.5-0.5-0.9c0-0.3,0.2-0.4,0.5-0.3
					C53.9,93.4,54.1,93.8,54.1,94.1z"/>
				<path class="st7" d="M55.9,95.2c0,0.3-0.2,0.4-0.5,0.3c-0.3-0.2-0.5-0.5-0.5-0.9c0-0.3,0.2-0.4,0.5-0.3
					C55.7,94.5,55.9,94.9,55.9,95.2z"/>
			</g>
		</g>
		<g>
			<path class="st7" d="M58.4,80.2c0.3,0,0.5-0.3,0.5-0.6c0-0.3-0.2-0.6-0.5-0.6c-0.3,0-0.5,0.3-0.5,0.6
				C57.9,79.9,58.1,80.2,58.4,80.2z"/>
			<path class="st7" d="M60.2,80.1c0.3,0,0.5-0.3,0.5-0.6c0-0.3-0.2-0.6-0.5-0.6c-0.3,0-0.5,0.3-0.5,0.6
				C59.6,79.9,59.9,80.1,60.2,80.1z"/>
			<path class="st7" d="M61.9,80.1c0.3,0,0.5-0.3,0.5-0.6s-0.2-0.6-0.5-0.6c-0.3,0-0.5,0.3-0.5,0.6C61.4,79.8,61.7,80.1,61.9,80.1z"
				/>
			<path class="st7" d="M58.8,81.1c0,0.3,0.2,0.6,0.5,0.6c0.3,0,0.5-0.3,0.5-0.6c0-0.3-0.2-0.6-0.5-0.6C59,80.5,58.8,80.8,58.8,81.1
				z"/>
			<path class="st7" d="M60.5,81c0,0.3,0.2,0.6,0.5,0.6c0.3,0,0.5-0.3,0.5-0.6c0-0.3-0.2-0.6-0.5-0.6C60.8,80.5,60.5,80.7,60.5,81z"
				/>
			<path class="st7" d="M58.4,82c-0.3,0-0.5,0.3-0.5,0.6c0,0.3,0.2,0.6,0.5,0.6c0.3,0,0.5-0.3,0.5-0.6C58.9,82.2,58.6,82,58.4,82z"
				/>
			<path class="st7" d="M60.2,81.9c-0.3,0-0.5,0.3-0.5,0.6c0,0.3,0.2,0.6,0.5,0.6s0.5-0.3,0.5-0.6C60.7,82.2,60.4,81.9,60.2,81.9z"
				/>
			<path class="st7" d="M61.9,81.9c-0.3,0-0.5,0.3-0.5,0.6s0.2,0.6,0.5,0.6c0.3,0,0.5-0.3,0.5-0.6C62.4,82.1,62.2,81.9,61.9,81.9z"
				/>
			<path class="st7" d="M59.3,83.5c-0.3,0-0.5,0.3-0.5,0.6c0,0.3,0.2,0.6,0.5,0.6c0.3,0,0.5-0.3,0.5-0.6
				C59.8,83.7,59.5,83.5,59.3,83.5z"/>
			<path class="st7" d="M61,83.4c-0.3,0-0.5,0.3-0.5,0.6c0,0.3,0.2,0.6,0.5,0.6c0.3,0,0.5-0.3,0.5-0.6C61.6,83.7,61.3,83.4,61,83.4z
				"/>
			<path class="st7" d="M58.4,85c-0.3,0-0.5,0.3-0.5,0.6c0,0.3,0.2,0.6,0.5,0.6c0.3,0,0.5-0.3,0.5-0.6S58.6,85,58.4,85z"/>
			<path class="st7" d="M60.2,84.9c-0.3,0-0.5,0.3-0.5,0.6c0,0.3,0.2,0.6,0.5,0.6c0.3,0,0.5-0.3,0.5-0.6S60.4,84.9,60.2,84.9z"/>
			<path class="st7" d="M61.9,84.9c-0.3,0-0.5,0.3-0.5,0.6s0.2,0.6,0.5,0.6c0.3,0,0.5-0.3,0.5-0.6C62.4,85.1,62.2,84.9,61.9,84.9z"
				/>
			<path class="st7" d="M59.3,86.5c-0.3,0-0.5,0.3-0.5,0.6c0,0.3,0.2,0.6,0.5,0.6c0.3,0,0.5-0.3,0.5-0.6
				C59.8,86.7,59.5,86.5,59.3,86.5z"/>
			<path class="st7" d="M61,86.4c-0.3,0-0.5,0.3-0.5,0.6c0,0.3,0.2,0.6,0.5,0.6c0.3,0,0.5-0.3,0.5-0.6C61.6,86.6,61.3,86.4,61,86.4z
				"/>
			<path class="st7" d="M58.4,88c-0.3,0-0.5,0.3-0.5,0.6c0,0.3,0.2,0.6,0.5,0.6c0.3,0,0.5-0.3,0.5-0.6S58.6,87.9,58.4,88z"/>
			<path class="st7" d="M60.2,89.1c0.3,0,0.5-0.3,0.5-0.6c0-0.3-0.2-0.6-0.5-0.6s-0.5,0.3-0.5,0.6C59.6,88.8,59.9,89.1,60.2,89.1z"
				/>
			<path class="st7" d="M61.9,89c0.3,0,0.5-0.3,0.5-0.6c0-0.3-0.2-0.6-0.5-0.6c-0.3,0-0.5,0.3-0.5,0.6C61.4,88.8,61.7,89,61.9,89z"
				/>
			<path class="st7" d="M59.3,90.6c0.3,0,0.5-0.3,0.5-0.6c0-0.3-0.2-0.6-0.5-0.6c-0.3,0-0.5,0.3-0.5,0.6
				C58.8,90.4,59,90.6,59.3,90.6z"/>
			<path class="st7" d="M61,90.5c0.3,0,0.5-0.3,0.5-0.6c0-0.3-0.2-0.6-0.5-0.6c-0.3,0-0.5,0.3-0.5,0.6C60.5,90.3,60.8,90.5,61,90.5z
				"/>
			<path class="st7" d="M58.4,92.1c0.3,0,0.5-0.3,0.5-0.6c0-0.3-0.2-0.6-0.5-0.6c-0.3,0-0.5,0.3-0.5,0.6S58.1,92.1,58.4,92.1z"/>
			<path class="st7" d="M60.2,92c0.3,0,0.5-0.3,0.5-0.6c0-0.3-0.2-0.6-0.5-0.6c-0.3,0-0.5,0.3-0.5,0.6C59.6,91.8,59.9,92,60.2,92z"
				/>
			<path class="st7" d="M61.9,92c0.3,0,0.5-0.3,0.5-0.6c0-0.3-0.2-0.6-0.5-0.6c-0.3,0-0.5,0.3-0.5,0.6C61.4,91.7,61.7,92,61.9,92z"
				/>
			<path class="st7" d="M59.3,93.6c0.3,0,0.5-0.3,0.5-0.6c0-0.3-0.2-0.6-0.5-0.6c-0.3,0-0.5,0.3-0.5,0.6
				C58.8,93.3,59,93.6,59.3,93.6z"/>
			<path class="st7" d="M61,93.5c0.3,0,0.5-0.3,0.5-0.6c0-0.3-0.2-0.6-0.5-0.6c-0.3,0-0.5,0.3-0.5,0.6C60.5,93.3,60.8,93.5,61,93.5z
				"/>
			<path class="st7" d="M58.4,95.1c0.3,0,0.5-0.3,0.5-0.6c0-0.3-0.2-0.6-0.5-0.6c-0.3,0-0.5,0.3-0.5,0.6
				C57.9,94.8,58.1,95.1,58.4,95.1z"/>
			<path class="st7" d="M60.2,95c0.3,0,0.5-0.3,0.5-0.6c0-0.3-0.2-0.6-0.5-0.6c-0.3,0-0.5,0.3-0.5,0.6C59.6,94.8,59.9,95,60.2,95z"
				/>
			<path class="st7" d="M61.9,94.9c0.3,0,0.5-0.3,0.5-0.6s-0.2-0.6-0.5-0.6c-0.3,0-0.5,0.3-0.5,0.6C61.4,94.7,61.7,95,61.9,94.9z"/>
			<path class="st7" d="M59.3,96.5c0.3,0,0.5-0.3,0.5-0.6c0-0.3-0.2-0.6-0.5-0.6c-0.3,0-0.5,0.3-0.5,0.6S59,96.5,59.3,96.5z"/>
			<path class="st7" d="M61,96.5c0.3,0,0.5-0.3,0.5-0.6s-0.2-0.6-0.5-0.6c-0.3,0-0.5,0.3-0.5,0.6C60.5,96.2,60.8,96.5,61,96.5z"/>
		</g>
	</g>
</g>
</svg>
