<?xml version="1.0" encoding="utf-8"?>
<!-- Generator: Adobe Illustrator 22.0.0, SVG Export Plug-In . SVG Version: 6.00 Build 0)  -->
<svg version="1.1" id="Warstwa_1" xmlns="http://www.w3.org/2000/svg" xmlns:xlink="http://www.w3.org/1999/xlink" x="0px" y="0px"
	 viewBox="0 0 120 120" style="enable-background:new 0 0 120 120;" xml:space="preserve">
<style type="text/css">
	.st0{fill:none;}
	.st1{fill:#C5C9D8;}
	.st2{fill:#DADAE8;}
	.st3{fill:#E7E7F0;}
	.st4{fill:#F4F5FA;}
	.st5{fill:#57565E;}
	.st6{fill:#E5E8F5;}
	.st7{fill:#C4C8D8;}
	.st8{fill:url(#SVGID_1_);}
	.st9{fill:#D3D3E3;}
	.st10{fill:#494855;}
	.st11{fill:#7C78F0;}
	.st12{fill:#EFF0F5;}
	.st13{fill:#D9DBE6;}
	.st14{fill:#FC797E;}
	.st15{fill:#FFE568;}
	.st16{fill:#FFEC8B;}
</style>
<rect y="0" class="st0" width="120" height="120"/>
<g>
	<g>
		<path class="st1" d="M95.2,90.6l-14.7-8.5c-0.5-0.3-1.3-0.3-1.8,0l-37.3,21.7l-2,0.5v1l0,0c0,0.2,0.1,0.4,0.4,0.5l15.1,8.7
			c0.5,0.3,1.3,0.3,1.8,0l39-22.6c0.2-0.1,0.4-0.3,0.4-0.5l0,0v-1L95.2,90.6z"/>
		<path class="st2" d="M95.6,89.9l-15.1-8.7c-0.5-0.3-1.3-0.3-1.8,0l-39,22.6c-0.5,0.3-0.5,0.8,0,1l15.1,8.7c0.5,0.3,1.3,0.3,1.8,0
			l39-22.6C96.1,90.6,96.1,90.2,95.6,89.9z"/>
		<g>
			<path class="st3" d="M47,104.8v-0.2l-0.2,0l-1.7-1c-0.2-0.1-0.5-0.1-0.6,0l-1.7,1l-0.1,0v0.2v0v0h0c0,0.1,0,0.1,0.1,0.2l1.7,1
				c0.2,0.1,0.5,0.1,0.6,0l1.7-1C46.9,104.9,47,104.8,47,104.8z"/>
			<path class="st3" d="M58,111.2V111l-0.2,0l-1.7-1c-0.2-0.1-0.5-0.1-0.6,0l-1.7,1l-0.1,0v0.2v0v0h0c0,0.1,0,0.1,0.1,0.2l1.7,1
				c0.2,0.1,0.5,0.1,0.6,0l1.7-1C58,111.3,58,111.2,58,111.2z"/>
			<path class="st3" d="M60.8,109.6v-0.2l-0.2,0l-1.7-1c-0.2-0.1-0.5-0.1-0.6,0l-1.7,1l-0.1,0v0.2v0v0h0c0,0.1,0,0.1,0.1,0.2l1.7,1
				c0.2,0.1,0.5,0.1,0.6,0l1.7-1C60.7,109.7,60.8,109.6,60.8,109.6z"/>
			<path class="st3" d="M63.5,108v-0.2l-0.2,0l-1.7-1c-0.2-0.1-0.5-0.1-0.6,0l-1.7,1l-0.1,0v0.2v0v0h0c0,0.1,0,0.1,0.1,0.2l1.7,1
				c0.2,0.1,0.5,0.1,0.6,0l1.7-1C63.4,108.1,63.5,108.1,63.5,108z"/>
			<path class="st3" d="M66.2,106.4v-0.2l-0.2,0l-1.7-1c-0.2-0.1-0.5-0.1-0.6,0l-1.7,1l-0.1,0v0.2v0v0h0c0,0.1,0,0.1,0.1,0.2l1.7,1
				c0.2,0.1,0.5,0.1,0.6,0l1.7-1C66.2,106.5,66.2,106.5,66.2,106.4z"/>
			<path class="st3" d="M49.7,103.2V103l-0.2,0l-1.7-1c-0.2-0.1-0.5-0.1-0.6,0l-1.7,1l-0.1,0v0.2v0v0h0c0,0.1,0,0.1,0.1,0.2l1.7,1
				c0.2,0.1,0.5,0.1,0.6,0l1.7-1C49.7,103.3,49.7,103.3,49.7,103.2z"/>
			<path class="st3" d="M54,103.9v-0.2l-0.2,0l-1.7-1c-0.2-0.1-0.5-0.1-0.6,0l-1.7,1l-0.1,0v0.2v0v0h0c0,0.1,0,0.1,0.1,0.2l1.7,1
				c0.2,0.1,0.5,0.1,0.6,0l1.7-1C53.9,104,54,104,54,103.9z"/>
			<path class="st3" d="M56.7,102.3v-0.2l-0.2,0l-1.7-1c-0.2-0.1-0.5-0.1-0.6,0l-1.7,1l-0.1,0v0.2v0v0h0c0,0.1,0,0.1,0.1,0.2l1.7,1
				c0.2,0.1,0.5,0.1,0.6,0l1.7-1C56.7,102.4,56.7,102.4,56.7,102.3z"/>
			<path class="st3" d="M58.1,104.7v-0.2l-0.2,0l-1.7-1c-0.2-0.1-0.5-0.1-0.6,0l-1.7,1l-0.1,0v0.2v0v0h0c0,0.1,0,0.1,0.1,0.2l1.7,1
				c0.2,0.1,0.5,0.1,0.6,0l1.7-1C58.1,104.8,58.1,104.8,58.1,104.7z"/>
			<path class="st3" d="M60.9,106.3v-0.2l-0.2,0l-1.7-1c-0.2-0.1-0.5-0.1-0.6,0l-1.7,1l-0.1,0v0.2v0v0h0c0,0.1,0,0.1,0.1,0.2l1.7,1
				c0.2,0.1,0.5,0.1,0.6,0l1.7-1C60.9,106.4,60.9,106.4,60.9,106.3z"/>
			<path class="st3" d="M63.6,104.7v-0.2l-0.2,0l-1.7-1c-0.2-0.1-0.5-0.1-0.6,0l-1.7,1l-0.1,0v0.2v0v0h0c0,0.1,0,0.1,0.1,0.2l1.7,1
				c0.2,0.1,0.5,0.1,0.6,0l1.7-1C63.6,104.9,63.6,104.8,63.6,104.7z"/>
			<path class="st3" d="M66.4,103.1v-0.2l-0.2,0l-1.7-1c-0.2-0.1-0.5-0.1-0.6,0l-1.7,1l-0.1,0v0.2v0v0h0c0,0.1,0,0.1,0.1,0.2l1.7,1
				c0.2,0.1,0.5,0.1,0.6,0l1.7-1C66.3,103.3,66.4,103.2,66.4,103.1z"/>
			<path class="st3" d="M69.1,101.6v-0.2l-0.2,0l-1.7-1c-0.2-0.1-0.5-0.1-0.6,0l-1.7,1l-0.1,0v0.2v0v0h0c0,0.1,0,0.1,0.1,0.2l1.7,1
				c0.2,0.1,0.5,0.1,0.6,0l1.7-1C69,101.7,69.1,101.6,69.1,101.6z"/>
			<path class="st3" d="M71.8,100v-0.2l-0.2,0l-1.7-1c-0.2-0.1-0.5-0.1-0.6,0l-1.7,1l-0.1,0v0.2v0v0h0c0,0.1,0,0.1,0.1,0.2l1.7,1
				c0.2,0.1,0.5,0.1,0.6,0l1.7-1C71.8,100.1,71.8,100,71.8,100z"/>
			<path class="st3" d="M74.5,98.4v-0.2l-0.2,0l-1.7-1c-0.2-0.1-0.5-0.1-0.6,0l-1.7,1l-0.1,0v0.2v0v0l0,0c0,0.1,0,0.1,0.1,0.2l1.7,1
				c0.2,0.1,0.5,0.1,0.6,0l1.7-1C74.5,98.5,74.5,98.5,74.5,98.4z"/>
			<path class="st3" d="M77.3,96.8v-0.2l-0.2,0l-1.7-1c-0.2-0.1-0.5-0.1-0.6,0l-1.7,1l-0.1,0v0.2v0v0h0c0,0.1,0,0.1,0.1,0.2l1.7,1
				c0.2,0.1,0.5,0.1,0.6,0l1.7-1C77.2,96.9,77.3,96.9,77.3,96.8z"/>
			<path class="st3" d="M80,95.2V95l-0.2,0l-1.7-1c-0.2-0.1-0.5-0.1-0.6,0l-1.7,1l-0.1,0v0.2v0v0h0c0,0.1,0,0.1,0.1,0.2l1.7,1
				c0.2,0.1,0.5,0.1,0.6,0l1.7-1C79.9,95.4,80,95.3,80,95.2z"/>
			<path class="st3" d="M82.7,93.6v-0.2l-0.2,0l-1.7-1c-0.2-0.1-0.5-0.1-0.6,0l-1.7,1l-0.1,0v0.2v0v0h0c0,0.1,0,0.1,0.1,0.2l1.7,1
				c0.2,0.1,0.5,0.1,0.6,0l1.7-1C82.7,93.8,82.7,93.7,82.7,93.6z"/>
			<path class="st3" d="M85.6,95.1v-0.2l-0.2,0l-1.7-1c-0.2-0.1-0.5-0.1-0.6,0l-1.7,1l-0.1,0v0.2v0v0h0c0,0.1,0,0.1,0.1,0.2l1.7,1
				c0.2,0.1,0.5,0.1,0.6,0l1.7-1C85.6,95.3,85.6,95.2,85.6,95.1z"/>
			<path class="st3" d="M88.4,93.5v-0.2l-0.2,0l-1.7-1c-0.2-0.1-0.5-0.1-0.6,0l-1.7,1l-0.1,0v0.2v0v0h0c0,0.1,0,0.1,0.1,0.2l1.7,1
				c0.2,0.1,0.5,0.1,0.6,0l1.7-1C88.3,93.7,88.4,93.6,88.4,93.5z"/>
			<path class="st3" d="M93.9,90.3v-0.2l-0.2,0l-1.7-1c-0.2-0.1-0.5-0.1-0.6,0l-1.7,1l-0.1,0v0.2v0v0h0c0,0.1,0,0.1,0.1,0.2l1.7,1
				c0.2,0.1,0.5,0.1,0.6,0l1.7-1C93.8,90.5,93.9,90.4,93.9,90.3z"/>
			<path class="st3" d="M91,88.5l-1.7-1c-0.2-0.1-0.5-0.1-0.6,0l-0.2,0.1h0l-1.5,0.9l-0.1,0v0.1l-0.1,0.1l-0.1,0v0.2v0v0h0
				c0,0.1,0,0.1,0.1,0.2l1.7,1c0.2,0.1,0.5,0.1,0.6,0l2-1.2c0.1-0.1,0.1-0.1,0.1-0.2v-0.2L91,88.5z"/>
			<path class="st3" d="M85.4,92.1v-0.2l-0.2,0l-1.7-1c-0.2-0.1-0.5-0.1-0.6,0l-1.7,1l-0.1,0v0.2v0v0h0c0,0.1,0,0.1,0.1,0.2l1.7,1
				c0.2,0.1,0.5,0.1,0.6,0l1.7-1C85.4,92.2,85.4,92.1,85.4,92.1z"/>
			<path class="st3" d="M88.2,90.5v-0.2l-0.2,0l-1.7-1c-0.2-0.1-0.5-0.1-0.6,0l-1.7,1l-0.1,0v0.2v0v0h0c0,0.1,0,0.1,0.1,0.2l1.7,1
				c0.2,0.1,0.5,0.1,0.6,0l1.7-1C88.1,90.6,88.2,90.5,88.2,90.5z"/>
			<path class="st3" d="M60.9,103.1v-0.2l-0.2,0l-1.7-1c-0.2-0.1-0.5-0.1-0.6,0l-1.7,1l-0.1,0v0.2v0v0h0c0,0.1,0,0.1,0.1,0.2l1.7,1
				c0.2,0.1,0.5,0.1,0.6,0l1.7-1C60.8,103.3,60.9,103.2,60.9,103.1z"/>
			<path class="st3" d="M63.6,101.5v-0.2l-0.2,0l-1.7-1c-0.2-0.1-0.5-0.1-0.6,0l-1.7,1l-0.1,0v0.2v0v0h0c0,0.1,0,0.1,0.1,0.2l1.7,1
				c0.2,0.1,0.5,0.1,0.6,0l1.7-1C63.5,101.7,63.6,101.6,63.6,101.5z"/>
			<path class="st3" d="M66.3,99.9v-0.2l-0.2,0l-1.7-1c-0.2-0.1-0.5-0.1-0.6,0l-1.7,1l-0.1,0v0.2v0v0h0c0,0.1,0,0.1,0.1,0.2l1.7,1
				c0.2,0.1,0.5,0.1,0.6,0l1.7-1C66.3,100.1,66.3,100,66.3,99.9z"/>
			<path class="st3" d="M69,98.4v-0.2l-0.2,0l-1.7-1c-0.2-0.1-0.5-0.1-0.6,0l-1.7,1l-0.1,0v0.2v0v0h0c0,0.1,0,0.1,0.1,0.2l1.7,1
				c0.2,0.1,0.5,0.1,0.6,0l1.7-1C69,98.5,69,98.4,69,98.4z"/>
			<path class="st3" d="M71.8,96.8v-0.2l-0.2,0l-1.7-1c-0.2-0.1-0.5-0.1-0.6,0l-1.7,1l-0.1,0v0.2v0v0h0c0,0.1,0,0.1,0.1,0.2l1.7,1
				c0.2,0.1,0.5,0.1,0.6,0l1.7-1C71.7,96.9,71.8,96.8,71.8,96.8z"/>
			<path class="st3" d="M74.5,95.2V95l-0.2,0l-1.7-1c-0.2-0.1-0.5-0.1-0.6,0l-1.7,1l-0.1,0v0.2v0v0h0c0,0.1,0,0.1,0.1,0.2l1.7,1
				c0.2,0.1,0.5,0.1,0.6,0l1.7-1C74.4,95.3,74.5,95.3,74.5,95.2z"/>
			<path class="st3" d="M77.2,93.6v-0.2l-0.2,0l-1.7-1c-0.2-0.1-0.5-0.1-0.6,0l-1.7,1l-0.1,0v0.2v0v0h0c0,0.1,0,0.1,0.1,0.2l1.7,1
				c0.2,0.1,0.5,0.1,0.6,0l1.7-1C77.2,93.7,77.2,93.7,77.2,93.6z"/>
			<path class="st3" d="M79.9,92v-0.2l-0.2,0l-1.7-1c-0.2-0.1-0.5-0.1-0.6,0l-1.7,1l-0.1,0V92v0v0h0c0,0.1,0,0.1,0.1,0.2l1.7,1
				c0.2,0.1,0.5,0.1,0.6,0l1.7-1C79.9,92.2,79.9,92.1,79.9,92z"/>
			<path class="st3" d="M82.7,90.4v-0.2l-0.2,0l-1.7-1c-0.2-0.1-0.5-0.1-0.6,0l-1.7,1l-0.1,0v0.2v0v0l0,0c0,0.1,0,0.1,0.1,0.2l1.7,1
				c0.2,0.1,0.5,0.1,0.6,0l1.7-1C82.6,90.6,82.7,90.5,82.7,90.4z"/>
			<path class="st3" d="M59.4,100.7v-0.2l-0.2,0l-1.7-1c-0.2-0.1-0.5-0.1-0.6,0l-1.7,1l-0.1,0v0.2v0v0h0c0,0.1,0,0.1,0.1,0.2l1.7,1
				c0.2,0.1,0.5,0.1,0.6,0l1.7-1C59.4,100.9,59.4,100.8,59.4,100.7z"/>
			<path class="st3" d="M62.2,99.1v-0.2l-0.2,0l-1.7-1c-0.2-0.1-0.5-0.1-0.6,0l-1.7,1l-0.1,0v0.2v0v0h0c0,0.1,0,0.1,0.1,0.2l1.7,1
				c0.2,0.1,0.5,0.1,0.6,0l1.7-1C62.1,99.3,62.2,99.2,62.2,99.1z"/>
			<path class="st3" d="M64.9,97.6v-0.2l-0.2,0l-1.7-1c-0.2-0.1-0.5-0.1-0.6,0l-1.7,1l-0.1,0v0.2v0v0l0,0c0,0.1,0,0.1,0.1,0.2l1.7,1
				c0.2,0.1,0.5,0.1,0.6,0l1.7-1C64.8,97.7,64.9,97.6,64.9,97.6z"/>
			<path class="st3" d="M67.6,96v-0.2l-0.2,0l-1.7-1c-0.2-0.1-0.5-0.1-0.6,0l-1.7,1l-0.1,0V96v0v0h0c0,0.1,0,0.1,0.1,0.2l1.7,1
				c0.2,0.1,0.5,0.1,0.6,0l1.7-1C67.6,96.1,67.6,96,67.6,96z"/>
			<path class="st3" d="M70.3,94.4v-0.2l-0.2,0l-1.7-1c-0.2-0.1-0.5-0.1-0.6,0l-1.7,1l-0.1,0v0.2v0v0h0c0,0.1,0,0.1,0.1,0.2l1.7,1
				c0.2,0.1,0.5,0.1,0.6,0l1.7-1C70.3,94.5,70.3,94.5,70.3,94.4z"/>
			<path class="st3" d="M73.1,92.8v-0.2l-0.2,0l-1.7-1c-0.2-0.1-0.5-0.1-0.6,0l-1.7,1l-0.1,0v0.2v0v0h0c0,0.1,0,0.1,0.1,0.2l1.7,1
				c0.2,0.1,0.5,0.1,0.6,0l1.7-1C73,92.9,73.1,92.9,73.1,92.8z"/>
			<path class="st3" d="M75.8,91.2V91l-0.2,0l-1.7-1c-0.2-0.1-0.5-0.1-0.6,0l-1.7,1l-0.1,0v0.2v0v0h0c0,0.1,0,0.1,0.1,0.2l1.7,1
				c0.2,0.1,0.5,0.1,0.6,0l1.7-1C75.7,91.4,75.8,91.3,75.8,91.2z"/>
			<path class="st3" d="M78.5,89.6v-0.2l-0.2,0l-1.7-1c-0.2-0.1-0.5-0.1-0.6,0l-1.7,1l-0.1,0v0.2v0v0h0c0,0.1,0,0.1,0.1,0.2l1.7,1
				c0.2,0.1,0.5,0.1,0.6,0l1.7-1C78.5,89.8,78.5,89.7,78.5,89.6z"/>
			<path class="st3" d="M81.2,88.1v-0.2l-0.2,0l-1.7-1c-0.2-0.1-0.5-0.1-0.6,0l-1.7,1l-0.1,0v0.2v0v0h0c0,0.1,0,0.1,0.1,0.2l1.7,1
				c0.2,0.1,0.5,0.1,0.6,0l1.7-1C81.2,88.2,81.2,88.1,81.2,88.1z"/>
			<path class="st3" d="M52.4,101.6v-0.2l-0.2,0l-1.7-1c-0.2-0.1-0.5-0.1-0.6,0l-1.7,1l-0.1,0v0.2v0v0h0c0,0.1,0,0.1,0.1,0.2l1.7,1
				c0.2,0.1,0.5,0.1,0.6,0l1.7-1C52.4,101.7,52.4,101.7,52.4,101.6z"/>
			<path class="st3" d="M55.2,100v-0.2l-0.2,0l-1.7-1c-0.2-0.1-0.5-0.1-0.6,0l-1.7,1l-0.1,0v0.2v0v0l0,0c0,0.1,0,0.1,0.1,0.2l1.7,1
				c0.2,0.1,0.5,0.1,0.6,0l1.7-1C55.1,100.2,55.2,100.1,55.2,100z"/>
			<path class="st3" d="M57.9,98.4v-0.2l-0.2,0l-1.7-1c-0.2-0.1-0.5-0.1-0.6,0l-1.7,1l-0.1,0v0.2v0v0h0c0,0.1,0,0.1,0.1,0.2l1.7,1
				c0.2,0.1,0.5,0.1,0.6,0l1.7-1C57.8,98.6,57.9,98.5,57.9,98.4z"/>
			<path class="st3" d="M60.6,96.9v-0.2l-0.2,0l-1.7-1c-0.2-0.1-0.5-0.1-0.6,0l-1.7,1l-0.1,0v0.2v0v0h0c0,0.1,0,0.1,0.1,0.2l1.7,1
				c0.2,0.1,0.5,0.1,0.6,0l1.7-1C60.6,97,60.6,96.9,60.6,96.9z"/>
			<path class="st3" d="M63.3,95.3v-0.2l-0.2,0l-1.7-1c-0.2-0.1-0.5-0.1-0.6,0l-1.7,1l-0.1,0v0.2v0v0h0c0,0.1,0,0.1,0.1,0.2l1.7,1
				c0.2,0.1,0.5,0.1,0.6,0l1.7-1C63.3,95.4,63.3,95.3,63.3,95.3z"/>
			<path class="st3" d="M66.1,93.7v-0.2l-0.2,0l-1.7-1c-0.2-0.1-0.5-0.1-0.6,0l-1.7,1l-0.1,0v0.2v0v0h0c0,0.1,0,0.1,0.1,0.2l1.7,1
				c0.2,0.1,0.5,0.1,0.6,0l1.7-1C66,93.8,66.1,93.8,66.1,93.7z"/>
			<path class="st3" d="M68.8,92.1v-0.2l-0.2,0l-1.7-1c-0.2-0.1-0.5-0.1-0.6,0l-1.7,1l-0.1,0v0.2v0v0l0,0c0,0.1,0,0.1,0.1,0.2l1.7,1
				c0.2,0.1,0.5,0.1,0.6,0l1.7-1C68.7,92.2,68.8,92.2,68.8,92.1z"/>
			<path class="st3" d="M71.5,90.5v-0.2l-0.2,0l-1.7-1c-0.2-0.1-0.5-0.1-0.6,0l-1.7,1l-0.1,0v0.2v0v0h0c0,0.1,0,0.1,0.1,0.2l1.7,1
				c0.2,0.1,0.5,0.1,0.6,0l1.7-1C71.5,90.7,71.5,90.6,71.5,90.5z"/>
			<path class="st3" d="M74.2,88.9v-0.2l-0.2,0l-1.7-1c-0.2-0.1-0.5-0.1-0.6,0l-1.7,1l-0.1,0v0.2v0v0h0c0,0.1,0,0.1,0.1,0.2l1.7,1
				c0.2,0.1,0.5,0.1,0.6,0l1.7-1C74.2,89.1,74.2,89,74.2,88.9z"/>
			<path class="st3" d="M77,87.4v-0.2l-0.2,0l-1.7-1c-0.2-0.1-0.5-0.1-0.6,0l-1.7,1l-0.1,0v0.2v0v0h0c0,0.1,0,0.1,0.1,0.2l1.7,1
				c0.2,0.1,0.5,0.1,0.6,0l1.7-1C76.9,87.5,77,87.4,77,87.4z"/>
			<path class="st3" d="M79.7,85.8v-0.2l-0.2,0l-1.7-1c-0.2-0.1-0.5-0.1-0.6,0l-1.7,1l-0.1,0v0.2v0v0h0c0,0.1,0,0.1,0.1,0.2l1.7,1
				c0.2,0.1,0.5,0.1,0.6,0l1.7-1C79.6,85.9,79.7,85.8,79.7,85.8z"/>
			<path class="st3" d="M82.8,83.7l-0.2,0l-1.7-1c-0.2-0.1-0.5-0.1-0.6,0L78.2,84L78,84l0,0.2c0,0,0,0,0,0l0,0l0,0
				c0,0.1,0.1,0.1,0.1,0.2l1.7,1c0.2,0.1,0.5,0.1,0.6,0l2.2-1.3c0.1-0.1,0.1-0.1,0.1-0.2l0,0V83.7z"/>
			<path class="st3" d="M82.9,96.7v-0.2l-0.2,0l-1.7-1c-0.1-0.1-0.3-0.1-0.5-0.1c-0.1,0-0.1,0-0.1,0.1l-1.7,1l-0.1,0v0.1l-12.1,7
				l0,0l-1.7,1l-0.1,0v0.2v0v0l0,0c0,0,0,0,0,0c0,0,0,0,0,0c0,0,0,0,0,0c0,0,0,0,0,0c0,0,0,0,0,0c0,0,0,0,0,0c0,0,0,0,0.1,0
				c0,0,0,0,0,0l1.8,1c0,0,0.1,0,0.1,0.1c0.1,0,0.1,0,0.2,0c0.1,0,0.2,0,0.3-0.1l1.7-1h0l14-8.1C82.9,96.8,82.9,96.8,82.9,96.7z"/>
			<path class="st3" d="M47.4,101.4C47.4,101.4,47.4,101.4,47.4,101.4v-0.2l-0.1,0c0,0,0,0,0,0l-0.5-0.3c-0.2-0.1-0.5-0.1-0.6,0
				l-1.6,0.9l-0.3,0.1l0,0.2c0,0.1,0,0.1,0.1,0.2l0.5,0.3c0.2,0.1,0.5,0.1,0.6,0l1.7-1C47.3,101.5,47.4,101.4,47.4,101.4L47.4,101.4
				L47.4,101.4z"/>
			<path class="st3" d="M50.1,99.8C50.1,99.8,50.1,99.8,50.1,99.8v-0.2l-0.1,0c0,0,0,0,0,0l-0.5-0.3c-0.2-0.1-0.5-0.1-0.6,0
				l-1.6,0.9l-0.3,0.1l0,0.2c0,0.1,0,0.1,0.1,0.2l0.5,0.3c0.2,0.1,0.5,0.1,0.6,0l1.7-1C50.1,99.9,50.1,99.9,50.1,99.8L50.1,99.8
				L50.1,99.8z"/>
			<path class="st3" d="M52.8,98.2C52.8,98.2,52.8,98.2,52.8,98.2V98l-0.1,0c0,0,0,0,0,0l-0.5-0.3c-0.2-0.1-0.5-0.1-0.6,0L50,98.7
				l-0.3,0.1l0,0.2c0,0.1,0,0.1,0.1,0.2l0.5,0.3c0.2,0.1,0.5,0.1,0.6,0l1.7-1C52.8,98.3,52.8,98.3,52.8,98.2L52.8,98.2L52.8,98.2z"
				/>
			<path class="st3" d="M55.6,96.6C55.6,96.6,55.6,96.6,55.6,96.6v-0.2l-0.1,0c0,0,0,0,0,0L55,96.2c-0.2-0.1-0.5-0.1-0.6,0l-1.6,0.9
				l-0.3,0.1l0,0.2c0,0.1,0,0.1,0.1,0.2l0.5,0.3c0.2,0.1,0.5,0.1,0.6,0l1.7-1C55.5,96.8,55.6,96.7,55.6,96.6L55.6,96.6L55.6,96.6z"
				/>
			<path class="st3" d="M58.3,95C58.3,95,58.3,95,58.3,95v-0.2l-0.1,0c0,0,0,0,0,0l-0.5-0.3c-0.2-0.1-0.5-0.1-0.6,0l-1.6,0.9
				l-0.3,0.1l0,0.2c0,0.1,0,0.1,0.1,0.2l0.5,0.3c0.2,0.1,0.5,0.1,0.6,0l1.7-1C58.2,95.2,58.3,95.1,58.3,95L58.3,95L58.3,95z"/>
			<path class="st3" d="M61,93.5C61,93.5,61,93.5,61,93.5v-0.2l-0.1,0c0,0,0,0,0,0L60.4,93c-0.2-0.1-0.5-0.1-0.6,0l-1.6,0.9L57.9,94
				l0,0.2c0,0.1,0,0.1,0.1,0.2l0.5,0.3c0.2,0.1,0.5,0.1,0.6,0l1.7-1C61,93.6,61,93.5,61,93.5L61,93.5L61,93.5z"/>
			<path class="st3" d="M63.7,91.9C63.7,91.9,63.7,91.9,63.7,91.9v-0.2l-0.1,0c0,0,0,0,0,0l-0.5-0.3c-0.2-0.1-0.5-0.1-0.6,0
				l-1.6,0.9l-0.3,0.1l0,0.2c0,0.1,0,0.1,0.1,0.2l0.5,0.3c0.2,0.1,0.5,0.1,0.6,0l1.7-1C63.7,92,63.7,91.9,63.7,91.9L63.7,91.9
				L63.7,91.9z"/>
			<path class="st3" d="M66.5,90.3C66.5,90.3,66.5,90.3,66.5,90.3v-0.2l-0.1,0c0,0,0,0,0,0l-0.5-0.3c-0.2-0.1-0.5-0.1-0.6,0
				l-1.6,0.9l-0.3,0.1l0,0.2c0,0.1,0,0.1,0.1,0.2l0.5,0.3c0.2,0.1,0.5,0.1,0.6,0l1.7-1C66.4,90.4,66.5,90.4,66.5,90.3L66.5,90.3
				L66.5,90.3z"/>
			<path class="st3" d="M69.2,88.7C69.2,88.7,69.2,88.7,69.2,88.7v-0.2l-0.1,0c0,0,0,0,0,0l-0.5-0.3c-0.2-0.1-0.5-0.1-0.6,0
				l-1.6,0.9l-0.3,0.1l0,0.2c0,0.1,0,0.1,0.1,0.2l0.5,0.3c0.2,0.1,0.5,0.1,0.6,0l1.7-1C69.1,88.8,69.2,88.8,69.2,88.7L69.2,88.7
				L69.2,88.7z"/>
			<path class="st3" d="M71.9,87.1C71.9,87.1,71.9,87.1,71.9,87.1v-0.2l-0.1,0c0,0,0,0,0,0l-0.5-0.3c-0.2-0.1-0.5-0.1-0.6,0
				l-1.6,0.9l-0.3,0.1l0,0.2c0,0.1,0,0.1,0.1,0.2l0.5,0.3c0.2,0.1,0.5,0.1,0.6,0l1.7-1C71.9,87.3,71.9,87.2,71.9,87.1L71.9,87.1
				L71.9,87.1z"/>
			<path class="st3" d="M74.6,85.5C74.6,85.5,74.6,85.5,74.6,85.5v-0.2l-0.1,0c0,0,0,0,0,0L74,85.1c-0.2-0.1-0.5-0.1-0.6,0L71.8,86
				l-0.3,0.1l0,0.2c0,0.1,0,0.1,0.1,0.2l0.5,0.3c0.2,0.1,0.5,0.1,0.6,0l1.7-1C74.6,85.7,74.6,85.6,74.6,85.5L74.6,85.5L74.6,85.5z"
				/>
			<path class="st3" d="M77.4,84C77.4,84,77.4,83.9,77.4,84v-0.2l-0.1,0c0,0,0,0,0,0l-0.5-0.3c-0.2-0.1-0.5-0.1-0.6,0l-1.6,0.9
				l-0.3,0.1l0,0.2c0,0.1,0,0.1,0.1,0.2l0.5,0.3c0.2,0.1,0.5,0.1,0.6,0l1.7-1C77.3,84.1,77.4,84,77.4,84L77.4,84L77.4,84z"/>
			<path class="st3" d="M80.1,82.4C80.1,82.4,80.1,82.4,80.1,82.4v-0.2l-0.1,0c0,0,0,0,0,0l-0.5-0.3c-0.2-0.1-0.5-0.1-0.6,0
				l-1.6,0.9L77,82.9l0,0.2c0,0.1,0,0.1,0.1,0.2l0.5,0.3c0.2,0.1,0.5,0.1,0.6,0l1.7-1C80,82.5,80.1,82.4,80.1,82.4L80.1,82.4
				L80.1,82.4z"/>
			<path class="st3" d="M51.3,105.3l-0.1,0c0,0,0,0,0,0l-1.8-1c-0.2-0.1-0.5-0.1-0.6,0l-3.2,1.9l-0.2,0v0.2c0,0,0,0,0,0v0l0,0
				c0,0.1,0,0.1,0.1,0.2l1.8,1c0.2,0.1,0.5,0.1,0.6,0l3.3-1.9c0.1-0.1,0.1-0.1,0.1-0.2l0,0V105.3z"/>
			<path class="st3" d="M55.4,106.1l-0.1,0c0,0,0,0,0,0l-1.7-1c-0.2-0.1-0.5-0.1-0.6,0l-4.5,2.6l-0.2,0.1v0.2l0,0
				c0,0.1,0,0.1,0.1,0.2l1.7,1c0.2,0.1,0.5,0.1,0.6,0l4.6-2.7c0.1-0.1,0.1-0.1,0.1-0.2l0,0V106.1z"/>
			<path class="st3" d="M58.2,107.7l-0.1,0c0,0,0,0,0,0l-1.7-1c-0.2-0.1-0.5-0.1-0.6,0l-4.5,2.6l-0.2,0.1v0.2l0,0
				c0,0.1,0,0.1,0.1,0.2l1.7,1c0.2,0.1,0.5,0.1,0.6,0l4.6-2.7c0.1-0.1,0.1-0.1,0.1-0.2h0V107.7z"/>
			<path class="st3" d="M85.6,85.3l-0.1,0c0,0,0,0,0,0l-1.8-1c-0.2-0.1-0.5-0.1-0.6,0l-3.3,1.9l-0.2,0v0.2c0,0,0,0,0,0v0l0,0
				c0,0.1,0,0.1,0.1,0.2l1.8,1c0.2,0.1,0.5,0.1,0.6,0l3.3-1.9c0.1-0.1,0.1-0.1,0.1-0.2l0,0V85.3z"/>
			<path class="st3" d="M88.2,87l-1.7-1c-0.2-0.1-0.5-0.1-0.6,0l-4.7,2.7c-0.2,0.1-0.2,0.3,0,0.4l1.7,1c0.2,0.1,0.5,0.1,0.6,0
				l4.7-2.7C88.4,87.2,88.4,87.1,88.2,87L88.2,87z"/>
			<path class="st3" d="M89.8,91.2C89.8,91.2,89.8,91.2,89.8,91.2V91l-0.1,0c0,0,0,0,0,0l-0.5-0.3c-0.2-0.1-0.5-0.1-0.6,0L87,91.7
				l-0.3,0.1l0,0.2c0,0.1,0,0.1,0.1,0.2l0.5,0.3c0.2,0.1,0.5,0.1,0.6,0l1.7-1C89.8,91.3,89.8,91.3,89.8,91.2L89.8,91.2L89.8,91.2z"
				/>
			<path class="st3" d="M91.1,92C91.1,92,91.1,91.9,91.1,92v-0.2l-0.1,0c0,0,0,0,0,0l-0.5-0.3c-0.2-0.1-0.5-0.1-0.6,0l-1.6,0.9
				L88,92.5l0,0.2c0,0.1,0,0.1,0.1,0.2l0.5,0.3c0.2,0.1,0.5,0.1,0.6,0l1.7-1C91,92.1,91.1,92,91.1,92L91.1,92L91.1,92z"/>
			<path class="st3" d="M60.8,106.1l-1.7-1c-0.2-0.1-0.5-0.1-0.6,0l-1.7,1c-0.2,0.1-0.2,0.3,0,0.4l1.7,1c0.2,0.1,0.5,0.1,0.6,0
				l1.7-1C61,106.4,61,106.2,60.8,106.1L60.8,106.1z"/>
		</g>
		<path class="st3" d="M44.7,102.9L44.7,102.9l0-0.2l-0.1,0c0,0,0,0,0,0l-0.5-0.3c-0.2-0.1-0.5-0.1-0.6,0l-2,1.2l-0.3,0.1v0.2l0,0
			c0,0.1,0.1,0.1,0.1,0.2l0.5,0.3c0.2,0.1,0.5,0.1,0.6,0l2.2-1.3C44.6,103.1,44.7,103,44.7,102.9z"/>
		<g>
			<path class="st4" d="M46.8,104.4l-1.7-1c-0.2-0.1-0.5-0.1-0.6,0l-1.7,1c-0.2,0.1-0.2,0.3,0,0.4l1.7,1c0.2,0.1,0.5,0.1,0.6,0
				l1.7-1C47,104.7,47,104.5,46.8,104.4L46.8,104.4z"/>
			<path class="st4" d="M49.6,102.8l-1.7-1c-0.2-0.1-0.5-0.1-0.6,0l-1.7,1c-0.2,0.1-0.2,0.3,0,0.4l1.7,1c0.2,0.1,0.5,0.1,0.6,0
				l1.7-1C49.8,103.1,49.8,102.9,49.6,102.8L49.6,102.8z"/>
			<path class="st4" d="M52.3,101.2l-1.7-1c-0.2-0.1-0.5-0.1-0.6,0l-1.7,1c-0.2,0.1-0.2,0.3,0,0.4l1.7,1c0.2,0.1,0.5,0.1,0.6,0
				l1.7-1C52.5,101.5,52.5,101.3,52.3,101.2L52.3,101.2z"/>
			<path class="st4" d="M55,99.7l-1.7-1c-0.2-0.1-0.5-0.1-0.6,0l-1.7,1c-0.2,0.1-0.2,0.3,0,0.4l1.7,1c0.2,0.1,0.5,0.1,0.6,0l1.7-1
				C55.2,99.9,55.2,99.8,55,99.7L55,99.7z"/>
			<path class="st4" d="M57.8,98.1l-1.7-1c-0.2-0.1-0.5-0.1-0.6,0l-1.7,1c-0.2,0.1-0.2,0.3,0,0.4l1.7,1c0.2,0.1,0.5,0.1,0.6,0l1.7-1
				C57.9,98.3,57.9,98.2,57.8,98.1L57.8,98.1z"/>
			<path class="st4" d="M60.5,96.5l-1.7-1c-0.2-0.1-0.5-0.1-0.6,0l-1.7,1c-0.2,0.1-0.2,0.3,0,0.4l1.7,1c0.2,0.1,0.5,0.1,0.6,0l1.7-1
				C60.7,96.8,60.7,96.6,60.5,96.5L60.5,96.5z"/>
			<path class="st4" d="M63.2,94.9l-1.7-1c-0.2-0.1-0.5-0.1-0.6,0l-1.7,1c-0.2,0.1-0.2,0.3,0,0.4l1.7,1c0.2,0.1,0.5,0.1,0.6,0l1.7-1
				C63.4,95.2,63.4,95,63.2,94.9L63.2,94.9z"/>
			<path class="st4" d="M65.9,93.3l-1.7-1c-0.2-0.1-0.5-0.1-0.6,0l-1.7,1c-0.2,0.1-0.2,0.3,0,0.4l1.7,1c0.2,0.1,0.5,0.1,0.6,0l1.7-1
				C66.1,93.6,66.1,93.4,65.9,93.3L65.9,93.3z"/>
			<path class="st4" d="M68.6,91.7l-1.7-1c-0.2-0.1-0.5-0.1-0.6,0l-1.7,1c-0.2,0.1-0.2,0.3,0,0.4l1.7,1c0.2,0.1,0.5,0.1,0.6,0l1.7-1
				C68.8,92,68.8,91.8,68.6,91.7L68.6,91.7z"/>
			<path class="st4" d="M71.4,90.2l-1.7-1c-0.2-0.1-0.5-0.1-0.6,0l-1.7,1c-0.2,0.1-0.2,0.3,0,0.4l1.7,1c0.2,0.1,0.5,0.1,0.6,0l1.7-1
				C71.6,90.4,71.6,90.3,71.4,90.2L71.4,90.2z"/>
			<path class="st4" d="M74.1,88.6l-1.7-1c-0.2-0.1-0.5-0.1-0.6,0l-1.7,1c-0.2,0.1-0.2,0.3,0,0.4l1.7,1c0.2,0.1,0.5,0.1,0.6,0l1.7-1
				C74.3,88.8,74.3,88.7,74.1,88.6L74.1,88.6z"/>
			<path class="st4" d="M56.6,101.9l-1.7-1c-0.2-0.1-0.5-0.1-0.6,0l-1.7,1c-0.2,0.1-0.2,0.3,0,0.4l1.7,1c0.2,0.1,0.5,0.1,0.6,0
				l1.7-1C56.8,102.2,56.8,102,56.6,101.9L56.6,101.9z"/>
			<path class="st4" d="M59.3,100.3l-1.7-1c-0.2-0.1-0.5-0.1-0.6,0l-1.7,1c-0.2,0.1-0.2,0.3,0,0.4l1.7,1c0.2,0.1,0.5,0.1,0.6,0
				l1.7-1C59.5,100.6,59.5,100.4,59.3,100.3L59.3,100.3z"/>
			<path class="st4" d="M62,98.8l-1.7-1c-0.2-0.1-0.5-0.1-0.6,0l-1.7,1c-0.2,0.1-0.2,0.3,0,0.4l1.7,1c0.2,0.1,0.5,0.1,0.6,0l1.7-1
				C62.2,99,62.2,98.9,62,98.8L62,98.8z"/>
			<path class="st4" d="M64.8,97.2l-1.7-1c-0.2-0.1-0.5-0.1-0.6,0l-1.7,1c-0.2,0.1-0.2,0.3,0,0.4l1.7,1c0.2,0.1,0.5,0.1,0.6,0l1.7-1
				C64.9,97.4,64.9,97.3,64.8,97.2L64.8,97.2z"/>
			<path class="st4" d="M67.5,95.6l-1.7-1c-0.2-0.1-0.5-0.1-0.6,0l-1.7,1c-0.2,0.1-0.2,0.3,0,0.4l1.7,1c0.2,0.1,0.5,0.1,0.6,0l1.7-1
				C67.7,95.9,67.7,95.7,67.5,95.6L67.5,95.6z"/>
			<path class="st4" d="M70.2,94l-1.7-1c-0.2-0.1-0.5-0.1-0.6,0l-1.7,1c-0.2,0.1-0.2,0.3,0,0.4l1.7,1c0.2,0.1,0.5,0.1,0.6,0l1.7-1
				C70.4,94.3,70.4,94.1,70.2,94L70.2,94z"/>
			<path class="st4" d="M72.9,92.4l-1.7-1c-0.2-0.1-0.5-0.1-0.6,0l-1.7,1c-0.2,0.1-0.2,0.3,0,0.4l1.7,1c0.2,0.1,0.5,0.1,0.6,0l1.7-1
				C73.1,92.7,73.1,92.5,72.9,92.4L72.9,92.4z"/>
			<path class="st4" d="M75.7,90.8l-1.7-1c-0.2-0.1-0.5-0.1-0.6,0l-1.7,1c-0.2,0.1-0.2,0.3,0,0.4l1.7,1c0.2,0.1,0.5,0.1,0.6,0l1.7-1
				C75.8,91.1,75.8,90.9,75.7,90.8L75.7,90.8z"/>
			<path class="st4" d="M78.4,89.3l-1.7-1c-0.2-0.1-0.5-0.1-0.6,0l-1.7,1c-0.2,0.1-0.2,0.3,0,0.4l1.7,1c0.2,0.1,0.5,0.1,0.6,0l1.7-1
				C78.6,89.5,78.6,89.4,78.4,89.3L78.4,89.3z"/>
			<path class="st4" d="M81.1,87.7l-1.7-1c-0.2-0.1-0.5-0.1-0.6,0l-1.7,1c-0.2,0.1-0.2,0.3,0,0.4l1.7,1c0.2,0.1,0.5,0.1,0.6,0l1.7-1
				C81.3,87.9,81.3,87.8,81.1,87.7L81.1,87.7z"/>
			<path class="st4" d="M76.8,87l-1.7-1c-0.2-0.1-0.5-0.1-0.6,0l-1.7,1c-0.2,0.1-0.2,0.3,0,0.4l1.7,1c0.2,0.1,0.5,0.1,0.6,0l1.7-1
				C77,87.3,77,87.1,76.8,87L76.8,87z"/>
			<path class="st4" d="M79.6,85.4l-1.7-1c-0.2-0.1-0.5-0.1-0.6,0l-1.7,1c-0.2,0.1-0.2,0.3,0,0.4l1.7,1c0.2,0.1,0.5,0.1,0.6,0l1.7-1
				C79.7,85.7,79.7,85.5,79.6,85.4L79.6,85.4z"/>
			<path class="st4" d="M57.9,110.8l-1.7-1c-0.2-0.1-0.5-0.1-0.6,0l-1.7,1c-0.2,0.1-0.2,0.3,0,0.4l1.7,1c0.2,0.1,0.5,0.1,0.6,0
				l1.7-1C58.1,111,58.1,110.9,57.9,110.8L57.9,110.8z"/>
			<path class="st4" d="M60.6,109.2l-1.7-1c-0.2-0.1-0.5-0.1-0.6,0l-1.7,1c-0.2,0.1-0.2,0.3,0,0.4l1.7,1c0.2,0.1,0.5,0.1,0.6,0
				l1.7-1C60.8,109.5,60.8,109.3,60.6,109.2L60.6,109.2z"/>
			<path class="st4" d="M63.3,107.6l-1.7-1c-0.2-0.1-0.5-0.1-0.6,0l-1.7,1c-0.2,0.1-0.2,0.3,0,0.4l1.7,1c0.2,0.1,0.5,0.1,0.6,0
				l1.7-1C63.5,107.9,63.5,107.7,63.3,107.6L63.3,107.6z"/>
			<path class="st4" d="M66.1,106l-1.7-1c-0.2-0.1-0.5-0.1-0.6,0l-1.7,1c-0.2,0.1-0.2,0.3,0,0.4l1.7,1c0.2,0.1,0.5,0.1,0.6,0l1.7-1
				C66.2,106.3,66.2,106.1,66.1,106L66.1,106z"/>
			<path class="st4" d="M53.9,103.5l-1.7-1c-0.2-0.1-0.5-0.1-0.6,0l-1.7,1c-0.2,0.1-0.2,0.3,0,0.4l1.7,1c0.2,0.1,0.5,0.1,0.6,0
				l1.7-1C54,103.8,54,103.6,53.9,103.5L53.9,103.5z"/>
			<path class="st4" d="M82.7,83.6l-1.7-1c-0.2-0.1-0.5-0.1-0.6,0l-2.2,1.3c-0.2,0.1-0.2,0.3,0,0.4l1.7,1c0.2,0.1,0.5,0.1,0.6,0
				l2.2-1.3C82.9,83.8,82.9,83.7,82.7,83.6L82.7,83.6z"/>
			<path class="st4" d="M82.8,96.3l-1.7-1c-0.2-0.1-0.5-0.1-0.6,0l-15.7,9.1c-0.2,0.1-0.2,0.3,0,0.4l1.7,1c0.2,0.1,0.5,0.1,0.6,0
				l15.7-9.1C83,96.6,83,96.4,82.8,96.3L82.8,96.3z"/>
			<path class="st4" d="M47.3,101l-0.5-0.3c-0.2-0.1-0.5-0.1-0.6,0l-1.7,1c-0.2,0.1-0.2,0.3,0,0.4l0.5,0.3c0.2,0.1,0.5,0.1,0.6,0
				l1.7-1C47.4,101.3,47.4,101.1,47.3,101L47.3,101z"/>
			<path class="st4" d="M50,99.4l-0.5-0.3c-0.2-0.1-0.5-0.1-0.6,0l-1.7,1c-0.2,0.1-0.2,0.3,0,0.4l0.5,0.3c0.2,0.1,0.5,0.1,0.6,0
				l1.7-1C50.2,99.7,50.2,99.5,50,99.4L50,99.4z"/>
			<path class="st4" d="M52.7,97.8l-0.5-0.3c-0.2-0.1-0.5-0.1-0.6,0l-1.7,1c-0.2,0.1-0.2,0.3,0,0.4l0.5,0.3c0.2,0.1,0.5,0.1,0.6,0
				l1.7-1C52.9,98.1,52.9,97.9,52.7,97.8L52.7,97.8z"/>
			<path class="st4" d="M55.4,96.2L55,96c-0.2-0.1-0.5-0.1-0.6,0l-1.7,1c-0.2,0.1-0.2,0.3,0,0.4l0.5,0.3c0.2,0.1,0.5,0.1,0.6,0
				l1.7-1C55.6,96.5,55.6,96.3,55.4,96.2L55.4,96.2z"/>
			<path class="st4" d="M58.2,94.7l-0.5-0.3c-0.2-0.1-0.5-0.1-0.6,0l-1.7,1c-0.2,0.1-0.2,0.3,0,0.4l0.5,0.3c0.2,0.1,0.5,0.1,0.6,0
				l1.7-1C58.3,94.9,58.3,94.8,58.2,94.7L58.2,94.7z"/>
			<path class="st4" d="M60.9,93.1l-0.5-0.3c-0.2-0.1-0.5-0.1-0.6,0l-1.7,1c-0.2,0.1-0.2,0.3,0,0.4l0.5,0.3c0.2,0.1,0.5,0.1,0.6,0
				l1.7-1C61.1,93.3,61.1,93.2,60.9,93.1L60.9,93.1z"/>
			<path class="st4" d="M63.6,91.5l-0.5-0.3c-0.2-0.1-0.5-0.1-0.6,0l-1.7,1c-0.2,0.1-0.2,0.3,0,0.4l0.5,0.3c0.2,0.1,0.5,0.1,0.6,0
				l1.7-1C63.8,91.8,63.8,91.6,63.6,91.5L63.6,91.5z"/>
			<path class="st4" d="M66.3,89.9l-0.5-0.3c-0.2-0.1-0.5-0.1-0.6,0l-1.7,1c-0.2,0.1-0.2,0.3,0,0.4l0.5,0.3c0.2,0.1,0.5,0.1,0.6,0
				l1.7-1C66.5,90.2,66.5,90,66.3,89.9L66.3,89.9z"/>
			<path class="st4" d="M69.1,88.3l-0.5-0.3c-0.2-0.1-0.5-0.1-0.6,0l-1.7,1c-0.2,0.1-0.2,0.3,0,0.4l0.5,0.3c0.2,0.1,0.5,0.1,0.6,0
				l1.7-1C69.2,88.6,69.2,88.4,69.1,88.3L69.1,88.3z"/>
			<path class="st4" d="M71.8,86.7l-0.5-0.3c-0.2-0.1-0.5-0.1-0.6,0l-1.7,1c-0.2,0.1-0.2,0.3,0,0.4l0.5,0.3c0.2,0.1,0.5,0.1,0.6,0
				l1.7-1C72,87,72,86.8,71.8,86.7L71.8,86.7z"/>
			<path class="st4" d="M74.5,85.2L74,84.9c-0.2-0.1-0.5-0.1-0.6,0l-1.7,1c-0.2,0.1-0.2,0.3,0,0.4l0.5,0.3c0.2,0.1,0.5,0.1,0.6,0
				l1.7-1C74.7,85.4,74.7,85.3,74.5,85.2L74.5,85.2z"/>
			<path class="st4" d="M77.2,83.6l-0.5-0.3c-0.2-0.1-0.5-0.1-0.6,0l-1.7,1c-0.2,0.1-0.2,0.3,0,0.4l0.5,0.3c0.2,0.1,0.5,0.1,0.6,0
				l1.7-1C77.4,83.8,77.4,83.7,77.2,83.6L77.2,83.6z"/>
			<path class="st4" d="M80,82l-0.5-0.3c-0.2-0.1-0.5-0.1-0.6,0l-1.7,1c-0.2,0.1-0.2,0.3,0,0.4l0.5,0.3c0.2,0.1,0.5,0.1,0.6,0l1.7-1
				C80.1,82.3,80.1,82.1,80,82L80,82z"/>
			<path class="st4" d="M44.5,102.6l-0.5-0.3c-0.2-0.1-0.5-0.1-0.6,0l-2.2,1.3c-0.2,0.1-0.2,0.3,0,0.4l0.5,0.3
				c0.2,0.1,0.5,0.1,0.6,0l2.2-1.3C44.7,102.8,44.7,102.7,44.5,102.6L44.5,102.6z"/>
			<path class="st4" d="M51.2,105.1l-1.8-1c-0.2-0.1-0.5-0.1-0.6,0l-3.3,1.9c-0.2,0.1-0.2,0.3,0,0.4l1.8,1c0.2,0.1,0.5,0.1,0.6,0
				l3.3-1.9C51.3,105.4,51.3,105.2,51.2,105.1L51.2,105.1z"/>
			<path class="st4" d="M55.3,105.9l-1.7-1c-0.2-0.1-0.5-0.1-0.6,0l-4.6,2.7c-0.2,0.1-0.2,0.3,0,0.4l1.7,1c0.2,0.1,0.5,0.1,0.6,0
				l4.6-2.7C55.5,106.2,55.5,106,55.3,105.9L55.3,105.9z"/>
			<path class="st4" d="M58.1,107.5l-1.8-1c-0.2-0.1-0.5-0.1-0.6,0l-4.6,2.7c-0.2,0.1-0.2,0.3,0,0.4l1.8,1c0.2,0.1,0.5,0.1,0.6,0
				l4.6-2.7C58.2,107.8,58.2,107.6,58.1,107.5L58.1,107.5z"/>
			<path class="st4" d="M85.5,85.2l-1.8-1c-0.2-0.1-0.5-0.1-0.6,0l-3.3,1.9c-0.2,0.1-0.2,0.3,0,0.4l1.8,1c0.2,0.1,0.5,0.1,0.6,0
				l3.3-1.9C85.6,85.4,85.6,85.3,85.5,85.2L85.5,85.2z"/>
			<path class="st4" d="M88.2,86.8l-1.7-1c-0.2-0.1-0.5-0.1-0.6,0l-4.7,2.7c-0.2,0.1-0.2,0.3,0,0.4l1.7,1c0.2,0.1,0.5,0.1,0.6,0
				l4.7-2.7C88.4,87,88.4,86.9,88.2,86.8L88.2,86.8z"/>
			<path class="st4" d="M89.7,90.8l-0.5-0.3c-0.2-0.1-0.5-0.1-0.6,0l-1.7,1c-0.2,0.1-0.2,0.3,0,0.4l0.5,0.3c0.2,0.1,0.5,0.1,0.6,0
				l1.7-1C89.8,91.1,89.8,90.9,89.7,90.8L89.7,90.8z"/>
			<path class="st4" d="M91,91.6l-0.5-0.3c-0.2-0.1-0.5-0.1-0.6,0l-1.7,1c-0.2,0.1-0.2,0.3,0,0.4l0.5,0.3c0.2,0.1,0.5,0.1,0.6,0
				l1.7-1C91.1,91.8,91.1,91.7,91,91.6L91,91.6z"/>
			<path class="st4" d="M79.8,91.7l-1.7-1c-0.2-0.1-0.5-0.1-0.6,0l-1.7,1c-0.2,0.1-0.2,0.3,0,0.4l1.7,1c0.2,0.1,0.5,0.1,0.6,0l1.7-1
				C80,91.9,80,91.8,79.8,91.7L79.8,91.7z"/>
			<path class="st4" d="M82.5,90.1l-1.7-1c-0.2-0.1-0.5-0.1-0.6,0l-1.7,1c-0.2,0.1-0.2,0.3,0,0.4l1.7,1c0.2,0.1,0.5,0.1,0.6,0l1.7-1
				C82.7,90.3,82.7,90.2,82.5,90.1L82.5,90.1z"/>
			<path class="st4" d="M82.6,93.3l-1.8-1c-0.2-0.1-0.5-0.1-0.6,0l-1.7,1c-0.2,0.1-0.2,0.3,0,0.4l1.8,1c0.2,0.1,0.5,0.1,0.6,0l1.7-1
				C82.8,93.5,82.8,93.4,82.6,93.3L82.6,93.3z"/>
			<path class="st4" d="M85.3,91.7l-1.8-1c-0.2-0.1-0.5-0.1-0.6,0l-1.7,1c-0.2,0.1-0.2,0.3,0,0.4l1.8,1c0.2,0.1,0.5,0.1,0.6,0l1.7-1
				C85.5,91.9,85.5,91.8,85.3,91.7L85.3,91.7z"/>
			<path class="st4" d="M88,90.1l-1.8-1c-0.2-0.1-0.5-0.1-0.6,0l-1.7,1c-0.2,0.1-0.2,0.3,0,0.4l1.8,1c0.2,0.1,0.5,0.1,0.6,0l1.7-1
				C88.2,90.4,88.2,90.2,88,90.1L88,90.1z"/>
			<path class="st4" d="M91,88.4l-1.8-1c-0.2-0.1-0.5-0.1-0.6,0l-2,1.2c-0.2,0.1-0.2,0.3,0,0.4l1.8,1c0.2,0.1,0.5,0.1,0.6,0l2-1.2
				C91.2,88.6,91.2,88.5,91,88.4L91,88.4z"/>
			<path class="st4" d="M74.4,94.8l-1.7-1c-0.2-0.1-0.5-0.1-0.6,0l-1.7,1c-0.2,0.1-0.2,0.3,0,0.4l1.7,1c0.2,0.1,0.5,0.1,0.6,0l1.7-1
				C74.5,95.1,74.5,94.9,74.4,94.8L74.4,94.8z"/>
			<path class="st4" d="M77.1,93.2l-1.7-1c-0.2-0.1-0.5-0.1-0.6,0l-1.7,1c-0.2,0.1-0.2,0.3,0,0.4l1.7,1c0.2,0.1,0.5,0.1,0.6,0l1.7-1
				C77.3,93.5,77.3,93.3,77.1,93.2L77.1,93.2z"/>
			<path class="st4" d="M77.1,96.4l-1.8-1c-0.2-0.1-0.5-0.1-0.6,0l-1.7,1c-0.2,0.1-0.2,0.3,0,0.4l1.8,1c0.2,0.1,0.5,0.1,0.6,0l1.7-1
				C77.3,96.7,77.3,96.5,77.1,96.4L77.1,96.4z"/>
			<path class="st4" d="M79.9,94.8l-1.8-1c-0.2-0.1-0.5-0.1-0.6,0l-1.7,1c-0.2,0.1-0.2,0.3,0,0.4l1.8,1c0.2,0.1,0.5,0.1,0.6,0l1.7-1
				C80,95.1,80,94.9,79.9,94.8L79.9,94.8z"/>
			<path class="st4" d="M68.9,98l-1.7-1c-0.2-0.1-0.5-0.1-0.6,0l-1.7,1c-0.2,0.1-0.2,0.3,0,0.4l1.7,1c0.2,0.1,0.5,0.1,0.6,0l1.7-1
				C69.1,98.3,69.1,98.1,68.9,98L68.9,98z"/>
			<path class="st4" d="M71.6,96.4l-1.7-1c-0.2-0.1-0.5-0.1-0.6,0l-1.7,1c-0.2,0.1-0.2,0.3,0,0.4l1.7,1c0.2,0.1,0.5,0.1,0.6,0l1.7-1
				C71.8,96.7,71.8,96.5,71.6,96.4L71.6,96.4z"/>
			<path class="st4" d="M71.7,99.6l-1.8-1c-0.2-0.1-0.5-0.1-0.6,0l-1.7,1c-0.2,0.1-0.2,0.3,0,0.4l1.8,1c0.2,0.1,0.5,0.1,0.6,0l1.7-1
				C71.9,99.9,71.9,99.7,71.7,99.6L71.7,99.6z"/>
			<path class="st4" d="M74.4,98l-1.8-1c-0.2-0.1-0.5-0.1-0.6,0l-1.7,1c-0.2,0.1-0.2,0.3,0,0.4l1.8,1c0.2,0.1,0.5,0.1,0.6,0l1.7-1
				C74.6,98.3,74.6,98.1,74.4,98L74.4,98z"/>
			<path class="st4" d="M63.5,101.2l-1.7-1c-0.2-0.1-0.5-0.1-0.6,0l-1.7,1c-0.2,0.1-0.2,0.3,0,0.4l1.7,1c0.2,0.1,0.5,0.1,0.6,0
				l1.7-1C63.6,101.4,63.6,101.3,63.5,101.2L63.5,101.2z"/>
			<path class="st4" d="M66.2,99.6l-1.7-1c-0.2-0.1-0.5-0.1-0.6,0l-1.7,1c-0.2,0.1-0.2,0.3,0,0.4l1.7,1c0.2,0.1,0.5,0.1,0.6,0l1.7-1
				C66.4,99.8,66.4,99.7,66.2,99.6L66.2,99.6z"/>
			<path class="st4" d="M66.2,102.8l-1.8-1c-0.2-0.1-0.5-0.1-0.6,0l-1.7,1c-0.2,0.1-0.2,0.3,0,0.4l1.8,1c0.2,0.1,0.5,0.1,0.6,0
				l1.7-1C66.4,103,66.4,102.9,66.2,102.8L66.2,102.8z"/>
			<path class="st4" d="M69,101.2l-1.8-1c-0.2-0.1-0.5-0.1-0.6,0l-1.7,1c-0.2,0.1-0.2,0.3,0,0.4l1.8,1c0.2,0.1,0.5,0.1,0.6,0l1.7-1
				C69.1,101.4,69.1,101.3,69,101.2L69,101.2z"/>
			<path class="st4" d="M58,104.3l-1.7-1c-0.2-0.1-0.5-0.1-0.6,0l-1.7,1c-0.2,0.1-0.2,0.3,0,0.4l1.7,1c0.2,0.1,0.5,0.1,0.6,0l1.7-1
				C58.2,104.6,58.2,104.4,58,104.3L58,104.3z"/>
			<path class="st4" d="M60.7,102.7l-1.7-1c-0.2-0.1-0.5-0.1-0.6,0l-1.7,1c-0.2,0.1-0.2,0.3,0,0.4l1.7,1c0.2,0.1,0.5,0.1,0.6,0
				l1.7-1C60.9,103,60.9,102.8,60.7,102.7L60.7,102.7z"/>
			<path class="st4" d="M60.8,105.9l-1.8-1c-0.2-0.1-0.5-0.1-0.6,0l-1.7,1c-0.2,0.1-0.2,0.3,0,0.4l1.8,1c0.2,0.1,0.5,0.1,0.6,0
				l1.7-1C61,106.2,61,106,60.8,105.9L60.8,105.9z"/>
			<path class="st4" d="M63.5,104.3l-1.8-1c-0.2-0.1-0.5-0.1-0.6,0l-1.7,1c-0.2,0.1-0.2,0.3,0,0.4l1.8,1c0.2,0.1,0.5,0.1,0.6,0
				l1.7-1C63.7,104.6,63.7,104.4,63.5,104.3L63.5,104.3z"/>
			<path class="st4" d="M85.5,94.7l-1.7-1c-0.2-0.1-0.5-0.1-0.6,0l-1.7,1c-0.2,0.1-0.2,0.3,0,0.4l1.7,1c0.2,0.1,0.5,0.1,0.6,0l1.7-1
				C85.7,95,85.7,94.8,85.5,94.7L85.5,94.7z"/>
			<path class="st4" d="M88.2,93.2l-1.7-1c-0.2-0.1-0.5-0.1-0.6,0l-1.7,1c-0.2,0.1-0.2,0.3,0,0.4l1.7,1c0.2,0.1,0.5,0.1,0.6,0l1.7-1
				C88.4,93.4,88.4,93.3,88.2,93.2L88.2,93.2z"/>
			<path class="st4" d="M93.7,89.9l-1.7-1c-0.2-0.1-0.5-0.1-0.6,0l-1.7,1c-0.2,0.1-0.2,0.3,0,0.4l1.7,1c0.2,0.1,0.5,0.1,0.6,0l1.7-1
				C93.9,90.2,93.9,90.1,93.7,89.9L93.7,89.9z"/>
		</g>
	</g>
	<g>
		<g>
			<path class="st5" d="M101,88.5l10-5.8c0.7-0.4,0.6-1.1-0.2-1.6l-13.6-7.9c-0.8-0.5-2-0.5-2.8-0.1l-10,5.8
				c-0.7,0.4-0.6,1.1,0.2,1.6l13.6,7.9C99,88.8,100.3,88.9,101,88.5z"/>
		</g>
		<g>
			<path class="st1" d="M98.1,83.4c0,0-4.4-2.6-4.8-2.9c-0.9-0.7-0.7-1-0.3-1.5c0.4-0.5,2.5-2,4.9-1.5c2.5,0.5,4.6,3.1,4.8,3.7
				c0.2,0.6,0,1.1-0.9,1.5C100.9,83.3,99.5,84,98.1,83.4z"/>
			<path class="st6" d="M98.1,82.9c0,0-4.6-2.7-5-3c-0.9-0.7-0.7-1.1-0.3-1.6c0.4-0.5,2.6-2,5.2-1.6c2.6,0.5,4.8,3.3,5,3.9
				c0.2,0.6,0,1.1-1,1.6C101,82.7,99.6,83.5,98.1,82.9z"/>
		</g>
	</g>
	<g>
		<g>
			<g>
				<path class="st7" d="M62.5,81.2l-12-6.9c-1.2-0.7-1.9-2.1-1.7-3.5l2.8-19l-6.9,4L33.3,79.8c-0.7,1.6-0.1,3.4,1.4,4.3l10.9,6.3
					c2.4,1.4,5.4,1.4,7.8,0l9.1-5.3C63.9,84.2,63.9,82.1,62.5,81.2z"/>
				<path class="st3" d="M62.4,83.8l-9.1,5.3c-2.4,1.4-5.4,1.4-7.8,0l-10.1-5.8c-1.1-0.6-1.6-2-1-3.2l11.8-24.8l6.9-4l-2.8,19
					c-0.2,1.4,0.4,2.8,1.7,3.5L62.4,80C63.9,80.8,63.9,83,62.4,83.8z"/>
				<g>
					<linearGradient id="SVGID_1_" gradientUnits="userSpaceOnUse" x1="21.467" y1="84.0539" x2="67.9759" y2="3.4982">
						<stop  offset="1.384730e-02" style="stop-color:#A0A6C0"/>
						<stop  offset="0.402" style="stop-color:#A0A6C0"/>
						<stop  offset="0.4025" style="stop-color:#A2A8C2"/>
						<stop  offset="0.4078" style="stop-color:#B8BCD0"/>
						<stop  offset="0.413" style="stop-color:#C5C8D9"/>
						<stop  offset="0.4179" style="stop-color:#C9CCDC"/>
						<stop  offset="0.4271" style="stop-color:#D7D9E6"/>
						<stop  offset="0.4348" style="stop-color:#E7E7F0"/>
					</linearGradient>
					<path class="st8" d="M72.8,47.7L71.6,7.5l0.9-1.4l-1.7-0.8l0,0c-0.4-0.2-0.8-0.1-1.3,0.2L18.4,35c-1.1,0.6-1.9,2.2-1.9,3.5
						l1.2,41l0,1.1c0,1,0.5,1.7,1.1,1.9l1.7,0.7l1-1.5l48.5-28c1.5-0.9,2.8-3.1,2.7-4.9L72.8,47.7z"/>
					<path class="st9" d="M18.2,39.2l1.3,42.1c0.1,1.8,1.4,2.5,2.9,1.6l49.4-28.5c1.5-0.9,2.8-3.1,2.7-4.9l0-1.1l-55,31.8L18.2,39.2
						L18.2,39.2z"/>
					<path class="st10" d="M71.2,6.3L20.1,35.8c-1.1,0.6-1.9,2.2-1.9,3.5l1.2,41l55-31.8l-1.2-41C73.2,6.2,72.3,5.7,71.2,6.3
						L71.2,6.3z"/>
					<polygon class="st11" points="72.1,7.4 19.4,37.8 20.6,76.6 73.2,46.2 72.1,7.4 					"/>
					<polygon class="st7" points="73.2,43.9 20.5,74.3 20.6,76.6 73.2,46.2 					"/>
				</g>
				<path class="st12" d="M62.4,83.8l-9.1,5.3c-2.4,1.4-5.4,1.4-7.8,0l-10.1-5.8l16.5-9.4L62.4,80C63.9,80.8,63.9,83,62.4,83.8z"/>
			</g>
		</g>
		<g>
			<g>
				<polygon class="st12" points="62.8,22.1 31.4,40.3 32.1,63.4 63.5,45.3 62.8,22.1 				"/>
				<polygon class="st13" points="62.8,22.1 31.4,40.3 31.5,44.2 62.9,26 62.8,22.1 				"/>
				<polygon class="st14" points="34.6,40 32.6,41.2 32.6,42.6 34.6,41.5 34.6,40 				"/>
			</g>
		</g>
		<g>
			<path class="st15" d="M25,47l-1.6,0.9c-0.1,0.1-0.2,0-0.2-0.1l0-0.1c0-0.1-0.1-0.1-0.2-0.1l-1.4,0.8c-0.1,0.1-0.2,0.2-0.2,0.4
				l-0.1,0.3c0,0,0,0.1,0,0.1V52c0,0.1,0.1,0.2,0.2,0.1l3.7-2.1c0.1-0.1,0.2-0.2,0.2-0.3v-2.5C25.2,46.9,25.1,46.9,25,47z"/>
			<path class="st16" d="M25,47.2l-3.7,2.1c-0.1,0.1-0.2,0.2-0.2,0.3V52c0,0.1,0.1,0.2,0.2,0.1l3.7-2.1c0.1-0.1,0.2-0.2,0.2-0.3
				v-2.3C25.2,47.2,25.1,47.1,25,47.2z"/>
		</g>
		<g>
			<path class="st15" d="M25,40.8l-1.6,0.9c-0.1,0.1-0.2,0-0.2-0.1l0-0.1c0-0.1-0.1-0.1-0.2-0.1l-1.4,0.8c-0.1,0.1-0.2,0.2-0.2,0.4
				l-0.1,0.3c0,0,0,0.1,0,0.1v2.8c0,0.1,0.1,0.2,0.2,0.1l3.7-2.1c0.1-0.1,0.2-0.2,0.2-0.3v-2.5C25.2,40.7,25.1,40.7,25,40.8z"/>
			<path class="st16" d="M25,41l-3.7,2.1c-0.1,0.1-0.2,0.2-0.2,0.3v2.3c0,0.1,0.1,0.2,0.2,0.1l3.7-2.1c0.1-0.1,0.2-0.2,0.2-0.3v-2.3
				C25.2,41,25.1,40.9,25,41z"/>
		</g>
		<g>
			<path class="st15" d="M69.2,13l-1.6,0.9c-0.1,0.1-0.2,0-0.2-0.1l0-0.1c0-0.1-0.1-0.1-0.2-0.1l-1.4,0.8c-0.1,0.1-0.2,0.2-0.2,0.4
				l-0.1,0.3c0,0,0,0.1,0,0.1V18c0,0.1,0.1,0.2,0.2,0.1l3.7-2.1c0.1-0.1,0.2-0.2,0.2-0.3v-2.5C69.4,13,69.3,13,69.2,13z"/>
			<path class="st16" d="M69.2,13.3l-3.7,2.1c-0.1,0.1-0.2,0.2-0.2,0.3V18c0,0.1,0.1,0.2,0.2,0.1l3.7-2.1c0.1-0.1,0.2-0.2,0.2-0.3
				v-2.3C69.4,13.3,69.3,13.2,69.2,13.3z"/>
		</g>
	</g>
</g>
</svg>
