<?xml version="1.0" encoding="utf-8"?>
<!-- Generator: Adobe Illustrator 22.0.0, SVG Export Plug-In . SVG Version: 6.00 Build 0)  -->
<svg version="1.1" id="Warstwa_1" xmlns="http://www.w3.org/2000/svg" xmlns:xlink="http://www.w3.org/1999/xlink" x="0px" y="0px"
	 viewBox="0 0 120 120" style="enable-background:new 0 0 120 120;" xml:space="preserve">
<style type="text/css">
	.st0{fill:none;}
	.st1{fill:#F5F2E8;}
	.st2{fill:#41464F;}
	.st3{fill:url(#SVGID_1_);}
	.st4{fill:#F1F1F3;}
	.st5{fill:#494F59;}
	.st6{fill:#323741;}
	.st7{fill:#71757C;}
	.st8{fill:#595E66;}
	.st9{fill:#F6F6F8;}
	.st10{fill:#CFD1DC;}
	.st11{fill:#3B3F47;}
	.st12{fill:#619347;}
</style>
<rect y="0" class="st0" width="120" height="120"/>
<g>
	<g>
		<path class="st1" d="M110.2,91.6l-32.9,19c-6.7-3.6-12.3-5.3-15.5-10V95l30.4-17.6C95.1,78.1,101.1,87.4,110.2,91.6z"/>
		<path class="st2" d="M104.7,58.7c0,4.3,0,9.9,0,9.9V70c0,0.1,0,0.1,0,0.1c0,2.5-1.3,4.8-3.5,6.1l-2.6,1.5v0L97.4,77l-1.1-0.6
			L62.7,95.8v2.7l-5.9,3.4c-2.1,1.2-4.6,1.8-7.1,1.5c0,0-10.5-1.3-17.2-4.3l-16-9.2c-2.4-1.4-3.5-3.1-3.5-4.8V63.4l10.8,4.7l42-21.5
			c3.6-2.1,6.2-4,10.4-1.6l15.3,8.8l8.8-7.5l4.3,9C104.7,55.5,104.7,56.8,104.7,58.7z"/>
		<linearGradient id="SVGID_1_" gradientUnits="userSpaceOnUse" x1="13.0751" y1="72.23" x2="104.7477" y2="72.23">
			<stop  offset="0" style="stop-color:#C4C8D8"/>
			<stop  offset="4.637538e-03" style="stop-color:#C0C4D5"/>
			<stop  offset="9.217172e-03" style="stop-color:#B4B9CD"/>
			<stop  offset="1.376033e-02" style="stop-color:#A0A6C0"/>
			<stop  offset="1.384730e-02" style="stop-color:#A0A6C0"/>
			<stop  offset="0.2485" style="stop-color:#A0A6C0"/>
			<stop  offset="0.2568" style="stop-color:#ACB1C7"/>
			<stop  offset="0.2737" style="stop-color:#BDC0D2"/>
			<stop  offset="0.2918" style="stop-color:#C8CAD8"/>
			<stop  offset="0.3131" style="stop-color:#CBCDDA"/>
			<stop  offset="0.4249" style="stop-color:#D0D2DD"/>
			<stop  offset="0.4275" style="stop-color:#D3D4DF"/>
			<stop  offset="0.4482" style="stop-color:#E2E2E9"/>
			<stop  offset="0.4644" style="stop-color:#E8E7EC"/>
			<stop  offset="0.9401" style="stop-color:#E8E7EC"/>
			<stop  offset="0.9812" style="stop-color:#E8E7EC"/>
			<stop  offset="0.9916" style="stop-color:#DDDEE6"/>
			<stop  offset="1" style="stop-color:#D0D3DF"/>
		</linearGradient>
		<path class="st3" d="M104.7,58.7c0,4.3,0,9.9,0,9.9c0,0.4,0,0.8-0.1,1.2c-0.4,2-1.6,3.8-3.4,4.8l-2.6,1.5L97.4,77l-1.1-0.6
			L62.7,95.8V97l-5.9,3.4c-2.1,1.2-4.6,1.8-7.1,1.5c0,0-10.5-1.3-17.2-4.3l-16-9.2c-2.3-1.3-3.4-3-3.5-4.6V62l10.8,4.7l42-21.5
			c3.6-2.1,6.2-4,10.4-1.6l15.3,8.8l8.8-7.5l4.3,9C104.7,54,104.7,56.1,104.7,58.7z"/>
		<path class="st4" d="M100.4,42L80.2,30.3C76,27.9,69.6,27.6,66,29.7L15.5,58.8c-3.6,2.1-3.2,5.8,1,8.2l20.3,11.7L100.4,42z"/>
		<path class="st5" d="M17,66.3c-1.9-1.1-3-2.5-3-3.9c0-1.3,1.1-2.2,2-2.8l50.4-29.1c1.4-0.8,3.5-1.3,5.7-1.3c2.8,0,5.5,0.7,7.6,1.9
			L98.6,42L36.8,77.7L17,66.3z"/>
		<polygon class="st6" points="76.8,35.5 71.4,38.6 70.9,38.9 65.8,41.9 65.3,42.2 27.5,64 27.2,64.1 19.3,59.5 18.5,59.1 19,58.8 
			24.1,55.8 24.6,55.5 62.4,33.7 63,33.4 68,30.5 68.9,30.9 68.9,30.9 		"/>
		<path class="st2" d="M68,30.5l-0.1-0.4l-1.6-4.6c-1.5-4.4-6.7-6.4-10.7-4L20.1,41.9c-3.6,2.1-5.3,6.5-3.9,10.5l2.1,6.3l0.1,0.4
			l8.4,4.8l-2.7-8.1l-1.9-5.5c-0.4-1.1,0.1-2.3,1.1-2.9l33-19.1c1.9-1.1,4.2-0.2,4.9,1.8l1.2,3.5l2.9,8.5l5.6-3.2L68,30.5z"/>
		<path class="st7" d="M71.4,38.6l-0.5,0.3l-5.1,2.9l-2.6-7.7L63,33.4L62,30.7c-0.7-2-3-2.9-4.9-1.8l-33,19.1
			c-1,0.6-1.5,1.8-1.1,2.9l1.6,4.7l0.3,0.8l2.6,7.7l-0.3,0.2l-7.9-4.6l-0.1-0.4L19,58.8l-2-5.9c-1.3-4,0.3-8.4,3.9-10.5l35.5-20.5
			c4-2.3,9.2-0.4,10.7,4l1.6,4.6l0.1,0.4v0L71.4,38.6z"/>
		<g>
			<polygon class="st2" points="27.5,64 26.2,60 23.2,61.8 27.2,64.1 			"/>
			<polygon class="st2" points="70.9,38.9 71.4,38.6 70.1,34.7 65.9,37.1 65.4,37.4 64.5,37.9 65.8,41.9 			"/>
		</g>
		<path class="st4" d="M101.1,60.5L59.3,84.7c-2.8,1.6-6.2,2-9.4,1l-13.1-6.9L100.4,42l4.2,11.9C104.8,56.6,103.4,59.2,101.1,60.5z"
			/>
		<path class="st2" d="M53.4,85.3c-1.1,0-2.2-0.2-3.2-0.5l-11.6-6.1l61.3-35.4l3.8,10.8c0.1,2.3-1.1,4.5-3.1,5.6L58.8,83.9
			C57.2,84.8,55.3,85.3,53.4,85.3z"/>
		<path class="st7" d="M74.7,64.7c0.2,0.9-0.4,1.7-1.3,1.8c-1,0.2-1.9-0.4-2.1-1.3c-0.2-0.9,0.4-1.7,1.3-1.8
			C73.5,63.3,74.5,63.9,74.7,64.7z"/>
		<path class="st2" d="M74.2,64.8c0.2,0.6-0.3,1.2-0.9,1.3c-0.7,0.1-1.3-0.3-1.5-0.9c-0.2-0.6,0.3-1.2,0.9-1.3
			C73.3,63.8,74,64.2,74.2,64.8z"/>
		<polygon class="st8" points="98.6,67.8 98.6,77.7 97.4,77 96.3,76.4 62.7,95.8 62.7,88.6 94.5,70.2 		"/>
		<polygon class="st2" points="98.6,67.8 98.6,77.7 97.4,77 96.3,76.4 97.4,68.5 		"/>
		<polygon class="st5" points="99.9,43.3 99.4,42.6 98.6,42 36.8,77.7 37.8,78.2 38.7,78.7 		"/>
		<path class="st9" d="M52.1,9.4c0,0-14.3,9.4-32.9,19C17.1,37,31.6,61.6,31.6,61.6l32.9-19C64.5,42.7,50,18.1,52.1,9.4z"/>
		<path class="st10" d="M31.6,61.6l32.9-19c0,0-0.6-1-1.5-2.6L30.2,59C31,60.7,31.6,61.6,31.6,61.6z"/>
		<path class="st9" d="M110.9,89.2l-32.9,19c-7.1-1.5-12.3-7.2-15.4-11.9v-5.6l30.4-17.6C95.5,77.8,101.4,87.1,110.9,89.2z"/>
		<path class="st10" d="M62.7,93.4l31.6-18.1c-0.5-0.8-0.9-1.5-1.2-2.2L62.7,90.6V93.4z"/>
		<g>
			<path class="st11" d="M90.3,44.9c-0.3,0-0.6-0.1-0.9-0.2l-0.9-0.5c-0.3-0.1-0.4-0.4-0.4-0.6c0-0.2,0.1-0.4,0.4-0.6l2-1.2
				c0.5-0.3,1.3-0.3,1.8,0l0.9,0.5c0.3,0.1,0.4,0.4,0.4,0.6c0,0.2-0.1,0.4-0.4,0.6l-2,1.2C90.9,44.8,90.6,44.9,90.3,44.9z
				 M91.4,41.8c-0.3,0-0.5,0.1-0.7,0.2l-2,1.2c-0.2,0.1-0.3,0.2-0.3,0.4c0,0.1,0.1,0.3,0.3,0.4l0.9,0.5c0.4,0.2,1.1,0.2,1.5,0l2-1.2
				c0.2-0.1,0.3-0.2,0.3-0.4c0-0.1-0.1-0.3-0.3-0.4L92.2,42C92,41.9,91.7,41.8,91.4,41.8z"/>
		</g>
		<g>
			<path class="st11" d="M85.7,42.2c-0.3,0-0.6-0.1-0.9-0.2l-0.9-0.5c-0.3-0.1-0.4-0.4-0.4-0.6c0-0.2,0.1-0.4,0.4-0.6l2-1.2
				c0.5-0.3,1.3-0.3,1.8,0l0.9,0.5c0.3,0.1,0.4,0.4,0.4,0.6c0,0.2-0.1,0.4-0.4,0.6l-2,1.2C86.3,42.1,86,42.2,85.7,42.2z M86.8,39.2
				c-0.3,0-0.5,0.1-0.7,0.2l-2,1.2c-0.2,0.1-0.3,0.2-0.3,0.4c0,0.1,0.1,0.3,0.3,0.4l0.9,0.5c0.4,0.2,1.1,0.2,1.5,0l2-1.2
				c0.2-0.1,0.3-0.2,0.3-0.4c0-0.1-0.1-0.3-0.3-0.4l-0.9-0.5C87.4,39.2,87.1,39.2,86.8,39.2z"/>
		</g>
		<g>
			<path class="st12" d="M81.1,39.6c-0.3,0-0.6-0.1-0.9-0.2l-0.9-0.5c-0.3-0.1-0.4-0.4-0.4-0.6c0-0.2,0.1-0.4,0.4-0.6l2-1.2
				c0.5-0.3,1.3-0.3,1.8,0L84,37c0.3,0.1,0.4,0.4,0.4,0.6c0,0.2-0.1,0.4-0.4,0.6l-2,1.2C81.7,39.5,81.4,39.6,81.1,39.6z M82.2,36.5
				c-0.3,0-0.5,0.1-0.7,0.2l-2,1.2c-0.2,0.1-0.3,0.2-0.3,0.4c0,0.1,0.1,0.3,0.3,0.4l0.9,0.5c0.4,0.2,1.1,0.2,1.5,0l2-1.2
				c0.2-0.1,0.3-0.2,0.3-0.4c0-0.1-0.1-0.3-0.3-0.4l-0.9-0.5C82.7,36.6,82.5,36.5,82.2,36.5z"/>
		</g>
		<g>
			<path class="st11" d="M39.6,74.6c-0.3,0-0.6-0.1-0.9-0.2l-0.9-0.5c-0.3-0.1-0.4-0.4-0.4-0.6c0-0.2,0.1-0.4,0.4-0.6l2-1.2
				c0.5-0.3,1.3-0.3,1.8,0l0.9,0.5c0.3,0.1,0.4,0.4,0.4,0.6c0,0.2-0.1,0.4-0.4,0.6l-2,1.2C40.2,74.5,39.9,74.6,39.6,74.6z
				 M40.6,71.6c-0.3,0-0.5,0.1-0.7,0.2l-2,1.2c-0.2,0.1-0.3,0.2-0.3,0.4c0,0.1,0.1,0.3,0.3,0.4l0.9,0.5c0.4,0.2,1.1,0.2,1.5,0l2-1.2
				c0.2-0.1,0.3-0.2,0.3-0.4c0-0.1-0.1-0.3-0.3-0.4l-0.9-0.5C41.2,71.6,40.9,71.6,40.6,71.6z"/>
		</g>
		<g>
			<path class="st11" d="M34.9,71.9c-0.3,0-0.6-0.1-0.9-0.2l-0.9-0.5c-0.3-0.1-0.4-0.4-0.4-0.6c0-0.2,0.1-0.4,0.4-0.6l2-1.2
				c0.5-0.3,1.3-0.3,1.8,0l0.9,0.5c0.3,0.1,0.4,0.4,0.4,0.6c0,0.2-0.1,0.4-0.4,0.6l-2,1.2C35.6,71.9,35.3,71.9,34.9,71.9z M36,68.9
				c-0.3,0-0.5,0.1-0.7,0.2l-2,1.2c-0.2,0.1-0.3,0.2-0.3,0.4c0,0.1,0.1,0.3,0.3,0.4l0.9,0.5c0.4,0.2,1.1,0.2,1.5,0l2-1.2
				c0.2-0.1,0.3-0.2,0.3-0.4c0-0.1-0.1-0.3-0.3-0.4l-0.9-0.5C36.6,69,36.3,68.9,36,68.9z"/>
		</g>
		<g>
			<path class="st11" d="M30.3,69.3c-0.3,0-0.6-0.1-0.9-0.2l-0.9-0.5c-0.3-0.1-0.4-0.4-0.4-0.6c0-0.2,0.1-0.4,0.4-0.6l2-1.2
				c0.5-0.3,1.3-0.3,1.8,0l0.9,0.5c0.3,0.1,0.4,0.4,0.4,0.6c0,0.2-0.1,0.4-0.4,0.6l-2,1.2C31,69.2,30.6,69.3,30.3,69.3z M31.4,66.2
				c-0.3,0-0.5,0.1-0.7,0.2l-2,1.2c-0.2,0.1-0.3,0.2-0.3,0.4c0,0.1,0.1,0.3,0.3,0.4l0.9,0.5c0.4,0.2,1.1,0.2,1.5,0l2-1.2
				c0.2-0.1,0.3-0.2,0.3-0.4c0-0.1-0.1-0.3-0.3-0.4l-0.9-0.5C32,66.3,31.7,66.2,31.4,66.2z"/>
		</g>
		<path class="st5" d="M102.3,53.2L99.9,45l1.1,7.4c0.3,2-0.7,4.1-2.5,5.1L58,81.2c-2.2,1.3-4.9,1.7-7.4,1.2c-1-0.2-2-0.4-2.5-0.7
			c-1.6-0.7-5.7-2.3-5.7-2.3l6.5,3.5c0,0,0.9,0.8,3.3,1.1c2.5,0.3,5.3-0.8,5.3-0.8s42.8-24.3,44.4-26.4
			C103.5,54.8,102.3,53.2,102.3,53.2z"/>
	</g>
</g>
</svg>
