<?xml version="1.0" encoding="utf-8"?>
<!-- Generator: Adobe Illustrator 22.0.0, SVG Export Plug-In . SVG Version: 6.00 Build 0)  -->
<svg version="1.1" id="Warstwa_1" xmlns="http://www.w3.org/2000/svg" xmlns:xlink="http://www.w3.org/1999/xlink" x="0px" y="0px"
	 viewBox="0 0 120 120" style="enable-background:new 0 0 120 120;" xml:space="preserve">
<style type="text/css">
	.st0{fill:none;}
	.st1{fill:#F5F2E8;}
	.st2{fill:url(#SVGID_1_);}
	.st3{fill:#EFF0F5;}
	.st4{fill:#FDFDFE;}
	.st5{fill:#3A3F47;}
	.st6{fill:#7C78F0;}
	.st7{fill:#8680FA;}
	.st8{fill:#2A2A2C;}
	.st9{fill:#404992;}
	.st10{fill:#516F83;}
	.st11{fill:#C4C8D8;}
	.st12{fill:#A0A6C0;}
	.st13{fill:#191F28;}
	.st14{fill:#989AF4;}
	.st15{fill:#B9B8F8;}
	.st16{fill:#D2D1FA;}
	.st17{fill:#5A57BD;}
	.st18{fill:#00DD90;}
	.st19{fill:#C1C5D5;}
	.st20{fill:#FFB33D;}
	.st21{fill:#F1F2F6;}
	.st22{fill:#81D1EF;}
	.st23{fill:#B8E5F6;}
	.st24{fill:#F7393B;}
	.st25{fill:#7CD14F;}
	.st26{fill:#D9CCDB;}
	.st27{fill:#383838;}
	.st28{fill:#666666;}
	.st29{fill:#FF8E8C;}
	.st30{fill:#FECB4C;}
	.st31{fill:#FF4C4A;}
	.st32{fill:#FFFFFF;}
	.st33{fill:#FFE43D;}
	.st34{fill:#CE7836;}
	.st35{fill:#D5D8E7;}
	.st36{fill:#6DB6F3;}
	.st37{fill:#B3E7FC;}
	.st38{fill:#6EBA46;}
	.st39{fill:#FFE56F;}
	.st40{fill:#D2D6E1;}
	.st41{fill:#586891;}
	.st42{fill:#746EEE;}
	.st43{fill:#455492;}
	.st44{fill:#313C6D;}
	.st45{fill:#8B96B3;}
	.st46{fill:#FFE568;}
	.st47{fill:#FFEC8B;}
	.st48{fill:#A184C2;}
	.st49{fill:#6D7A9D;}
</style>
<rect y="0" class="st0" width="120" height="120"/>
<g>
	<g>
		<polygon class="st1" points="39.3,92.6 43.3,92.6 43.3,78.2 		"/>
		<linearGradient id="SVGID_1_" gradientUnits="userSpaceOnUse" x1="6.5" y1="61.6955" x2="113.5" y2="61.6955">
			<stop  offset="0" style="stop-color:#C4C8D8"/>
			<stop  offset="4.637538e-03" style="stop-color:#C0C4D5"/>
			<stop  offset="9.217172e-03" style="stop-color:#B4B9CD"/>
			<stop  offset="1.376033e-02" style="stop-color:#A0A6C0"/>
			<stop  offset="1.384730e-02" style="stop-color:#A0A6C0"/>
			<stop  offset="0.3045" style="stop-color:#A0A6C0"/>
			<stop  offset="0.3075" style="stop-color:#A3A9C2"/>
			<stop  offset="0.3273" style="stop-color:#B6BACE"/>
			<stop  offset="0.3482" style="stop-color:#C0C5D6"/>
			<stop  offset="0.3715" style="stop-color:#C4C8D8"/>
			<stop  offset="0.95" style="stop-color:#C4C8D8"/>
			<stop  offset="1" style="stop-color:#C4C8D8"/>
		</linearGradient>
		<path class="st2" d="M113.5,48.5l-1.9,0.8L81,31.8c-2.4-1.4-6.7-1.2-9.5,0.4L8.8,68.4c-0.1,0.1-0.2,0.1-0.3,0.2l-2-0.6v3.5l0,0
			c0,0.9,0.6,1.7,1.6,2.3L39,91.6c2.4,1.4,6.7,1.2,9.5-0.4L111.2,55c1.5-0.9,2.3-2,2.3-3.1l0,0L113.5,48.5z"/>
		<path class="st3" d="M39,88.2L8.1,70.5C5.7,69.1,6,66.6,8.8,65l62.7-36.2c2.8-1.6,7.1-1.8,9.5-0.4l30.8,17.8
			c2.4,1.4,2.1,3.9-0.7,5.5L48.4,87.9C45.6,89.5,41.4,89.6,39,88.2z"/>
		<path class="st4" d="M111.2,51.3L48.4,87.5c-2.8,1.6-7.1,1.8-9.5,0.4L8.1,70.1c-1-0.6-1.6-1.4-1.6-2.2c-0.1,1,0.5,1.9,1.6,2.5
			L39,88.2c2.4,1.4,6.7,1.2,9.5-0.4l62.7-36.2c1.6-0.9,2.4-2.1,2.3-3.3C113.4,49.4,112.6,50.5,111.2,51.3z"/>
		<path class="st5" d="M111.5,49.8c-0.3,0.5-0.8,1-1.5,1.4L94.7,60L75.3,71.2L47.7,87.2c-2.3,1.4-5.9,1.5-7.9,0.3L11.6,71.2L9.5,70
			c-2-1.2-1.8-3.2,0.6-4.6l9.4-5.4l17.7-10.2l24.2-14l11.1-6.4c2.3-1.4,5.9-1.5,7.9-0.3l11.6,6.7l18.6,10.8
			C112,47.4,112.3,48.7,111.5,49.8z"/>
		<path class="st6" d="M111.1,49.5c-0.1,0.1-0.1,0.2-0.2,0.3c-0.3,0.3-0.7,0.7-1.2,1l-16,9.2L74.3,71.2L47.4,86.7
			c-1.2,0.7-2.7,1.1-4.3,1.1c-1.2,0-2.4-0.3-3.2-0.7L12.5,71.2l-2.8-1.6c-0.7-0.4-1.1-1-1.1-1.6c0-0.8,0.6-1.6,1.7-2.2L20.4,60
			L38,49.8l24.2-14l10.3-6c1.2-0.7,2.7-1.1,4.3-1.1c1.3,0,2.4,0.3,3.2,0.7l10.9,6.3L110.3,47c0.6,0.4,1,0.8,1.1,1.3
			C111.5,48.7,111.4,49.1,111.1,49.5z"/>
		<path class="st7" d="M93.7,60L74.3,71.2H12.5l-2.8-1.6c-0.7-0.4-1.1-1-1.1-1.6c0-0.8,0.6-1.6,1.7-2.2L20.4,60H93.7z"/>
		<path class="st8" d="M96,41.9l-7.6-4.4c-0.1-0.1-0.1-0.2,0-0.3l0,0c0.2-0.1,0.4-0.1,0.5,0l7.6,4.4c0.1,0.1,0.1,0.2,0,0.3l0,0
			C96.4,42,96.1,42,96,41.9z"/>
		<path class="st9" d="M88.4,37.5C88.4,37.4,88.4,37.4,88.4,37.5c0.3-0.2,0.5-0.2,0.6-0.1l7.6,4.4c0,0,0,0,0.1,0.1
			c0.1-0.1,0-0.2-0.1-0.2L89,37.2c-0.1-0.1-0.4-0.1-0.5,0C88.3,37.3,88.3,37.4,88.4,37.5z"/>
		<path class="st5" d="M85.6,35.5c-0.5,0.3-1.2,0.3-1.7,0c-0.5-0.3-0.5-0.7,0-1s1.2-0.3,1.7,0S86,35.3,85.6,35.5z"/>
		<path class="st10" d="M85.3,35.4c-0.3,0.2-0.8,0.2-1,0c-0.3-0.2-0.3-0.4,0-0.6c0.3-0.2,0.8-0.2,1,0C85.6,34.9,85.6,35.2,85.3,35.4
			z"/>
		<path class="st8" d="M87.6,36.7c-0.3,0.2-0.8,0.2-1.2,0c-0.3-0.2-0.3-0.5,0-0.7c0.3-0.2,0.8-0.2,1.2,0
			C87.9,36.2,87.9,36.5,87.6,36.7z"/>
		<g>
			<path class="st3" d="M106.4,57.1l-4.5,2.6c-0.4,0.2-0.7,0-0.7-0.5l0,0c0-0.5,0.3-1.1,0.7-1.3l4.5-2.6c0.4-0.2,0.7,0,0.7,0.5l0,0
				C107.1,56.3,106.8,56.9,106.4,57.1z"/>
			<path class="st11" d="M106.7,57.3l-4.5,2.6c-0.4,0.2-0.7,0-0.7-0.5l0,0c0-0.5,0.3-1.1,0.7-1.3l4.5-2.6c0.4-0.2,0.7,0,0.7,0.5l0,0
				C107.4,56.5,107.1,57.1,106.7,57.3z"/>
		</g>
		<g>
			<path class="st3" d="M77.7,73.7l-4.5,2.6c-0.4,0.2-0.7,0-0.7-0.5l0,0c0-0.5,0.3-1.1,0.7-1.3l4.5-2.6c0.4-0.2,0.7,0,0.7,0.5l0,0
				C78.4,72.9,78.1,73.4,77.7,73.7z"/>
			<path class="st11" d="M78.1,73.9l-4.5,2.6c-0.4,0.2-0.7,0-0.7-0.5l0,0c0-0.5,0.3-1.1,0.7-1.3l4.5-2.6c0.4-0.2,0.7,0,0.7,0.5l0,0
				C78.7,73.1,78.4,73.7,78.1,73.9z"/>
		</g>
		<path class="st12" d="M25.8,82.4c0,0.4-0.3,0.6-0.6,0.4l-3.9-2.2c-0.3-0.2-0.6-0.7-0.6-1.1c0-0.4,0.3-0.6,0.6-0.4l0.4,0.2l3.5,2
			c0.2,0.1,0.5,0.5,0.5,0.8C25.8,82.2,25.8,82.3,25.8,82.4z"/>
		<path class="st13" d="M25.8,82.1l-3.5-2c-0.2-0.1-0.5-0.5-0.5-0.8l3.5,2C25.5,81.4,25.7,81.7,25.8,82.1z"/>
		<g>
			<path class="st14" d="M83.6,58.1L60,44.5c-0.8-0.5-0.7-1.3,0.2-1.8l7.9-4.6c0.9-0.5,2.4-0.6,3.2-0.1L95,51.6
				c0.8,0.5,0.7,1.3-0.2,1.8L86.8,58C85.9,58.6,84.4,58.6,83.6,58.1z"/>
		</g>
		<g>
			<path class="st15" d="M32,69.6c-0.2,0.1-0.6,0.1-0.8,0c-0.2-0.1-0.2-0.3,0-0.5c0.2-0.1,0.6-0.1,0.8,0
				C32.2,69.2,32.2,69.5,32,69.6z"/>
			<path class="st16" d="M34.2,70.8c-0.2,0.1-0.6,0.1-0.8,0c-0.2-0.1-0.2-0.3,0-0.5c0.2-0.1,0.6-0.1,0.8,0
				C34.4,70.5,34.4,70.7,34.2,70.8z"/>
			<path class="st15" d="M36.3,72.1c-0.2,0.1-0.6,0.1-0.8,0c-0.2-0.1-0.2-0.3,0-0.5c0.2-0.1,0.6-0.1,0.8,0
				C36.6,71.8,36.6,72,36.3,72.1z"/>
			<path class="st15" d="M38.5,73.3c-0.2,0.1-0.6,0.1-0.8,0s-0.2-0.3,0-0.5c0.2-0.1,0.6-0.1,0.8,0C38.7,73,38.7,73.2,38.5,73.3z"/>
		</g>
		<g>
			<path class="st17" d="M37.7,58.6L34,56.5c-0.8-0.5-0.7-1.3,0.2-1.8l3.2-1.8c0.9-0.5,2.4-0.6,3.2-0.1l3.7,2.1
				c0.8,0.5,0.7,1.3-0.2,1.8l-3.2,1.8C39.9,59,38.5,59.1,37.7,58.6z"/>
			<path class="st17" d="M24.7,76.1L21,74c-0.8-0.5-0.7-1.3,0.2-1.8l3.2-1.8c0.9-0.5,2.4-0.6,3.2-0.1l3.7,2.1
				c0.8,0.5,0.7,1.3-0.2,1.8L27.9,76C26.9,76.5,25.5,76.6,24.7,76.1z"/>
			<path class="st17" d="M16.1,71.1L12.4,69c-0.8-0.5-0.7-1.3,0.2-1.8l3.2-1.8c0.9-0.5,2.4-0.6,3.2-0.1l3.7,2.1
				c0.8,0.5,0.7,1.3-0.2,1.8L19.2,71C18.3,71.5,16.9,71.6,16.1,71.1z"/>
			<path class="st17" d="M73.4,68.1L69.7,66c-0.8-0.5-0.7-1.3,0.2-1.8l3.2-1.8c0.9-0.5,2.4-0.6,3.2-0.1l3.7,2.1
				c0.8,0.5,0.7,1.3-0.2,1.8L76.5,68C75.6,68.5,74.2,68.6,73.4,68.1z"/>
			<path class="st17" d="M42.2,86.2L38.5,84c-0.8-0.5-0.7-1.3,0.2-1.8l3.2-1.8c0.9-0.5,2.4-0.6,3.2-0.1l3.7,2.1
				c0.8,0.5,0.7,1.3-0.2,1.8L45.3,86C44.4,86.6,43,86.6,42.2,86.2z"/>
			<path class="st17" d="M56,58.1l-3.7-2.1c-0.8-0.5-0.7-1.3,0.2-1.8l3.2-1.8c0.9-0.5,2.4-0.6,3.2-0.1l3.7,2.1
				c0.8,0.5,0.7,1.3-0.2,1.8l-3.2,1.8C58.2,58.5,56.8,58.5,56,58.1z"/>
			<path class="st17" d="M63.8,73.7l-3.7-2.1c-0.8-0.5-0.7-1.3,0.2-1.8l3.2-1.8c0.9-0.5,2.4-0.6,3.2-0.1l3.7,2.1
				c0.8,0.5,0.7,1.3-0.2,1.8L67,73.5C66,74.1,64.6,74.1,63.8,73.7z"/>
			<path class="st17" d="M43.3,67l-3.6,2.1c-0.8,0.5-2.1,0.5-2.9,0L33.1,67c-0.8-0.5-0.8-1.2,0-1.7l3.6-2.1c0.8-0.5,2.1-0.5,2.9,0
				l3.7,2.1c0.7,0.4,0.8,0.9,0.4,1.4C43.6,66.8,43.5,66.9,43.3,67C43.4,67,43.3,67,43.3,67z"/>
			<path class="st17" d="M28.1,64.1L24.4,62c-0.8-0.5-0.7-1.3,0.2-1.8l3.2-1.8c0.9-0.5,2.4-0.6,3.2-0.1l3.7,2.1
				c0.8,0.5,0.7,1.3-0.2,1.8L31.2,64C30.3,64.5,28.9,64.6,28.1,64.1z"/>
			<path class="st17" d="M64.7,63.1L61,61c-0.8-0.5-0.7-1.3,0.2-1.8l3.2-1.8c0.9-0.5,2.4-0.6,3.2-0.1l3.7,2.1
				c0.8,0.5,0.7,1.3-0.2,1.8L67.8,63C66.9,63.5,65.5,63.6,64.7,63.1z"/>
			<path class="st17" d="M33.4,81.2L29.8,79c-0.8-0.5-0.7-1.3,0.2-1.8l3.2-1.8c0.9-0.5,2.4-0.6,3.2-0.1l3.7,2.1
				c0.8,0.5,0.7,1.3-0.2,1.8L36.6,81C35.7,81.6,34.2,81.6,33.4,81.2z"/>
			<path class="st17" d="M49.3,57.7l3.7,2.1c0.8,0.5,0.8,1.2,0,1.7l-3.6,2.1c-0.8,0.5-2.1,0.5-2.9,0l-3.7-2.1
				c-0.8-0.5-0.8-1.2,0-1.7l3.6-2.1C47.1,57.2,48.4,57.2,49.3,57.7z"/>
			<path class="st17" d="M55.1,68.7l-3.7-2.1c-0.8-0.5-0.7-1.3,0.2-1.8l3.2-1.8c0.9-0.5,2.4-0.6,3.2-0.1l3.7,2.1
				c0.8,0.5,0.7,1.3-0.2,1.8l-3.2,1.8C57.3,69.1,55.9,69.1,55.1,68.7z"/>
			<path class="st17" d="M45.5,74.2L41.8,72c-0.8-0.5-0.7-1.3,0.2-1.8l3.2-1.8c0.9-0.5,2.4-0.6,3.2-0.1l3.7,2.1
				c0.8,0.5,0.7,1.3-0.2,1.8L48.6,74C47.7,74.6,46.3,74.6,45.5,74.2z"/>
			<path class="st17" d="M47.3,53l-3.7-2.1c-0.8-0.5-0.7-1.3,0.2-1.8l3.2-1.8c0.9-0.5,2.4-0.6,3.2-0.1l3.7,2.1
				c0.8,0.5,0.7,1.3-0.2,1.8l-3.2,1.8C49.5,53.4,48.1,53.5,47.3,53z"/>
			<path class="st17" d="M54.2,79.2l-3.7-2.1c-0.8-0.5-0.7-1.3,0.2-1.8l3.2-1.8c0.9-0.5,2.4-0.6,3.2-0.1l3.7,2.1
				c0.8,0.5,0.7,1.3-0.2,1.8L57.3,79C56.4,79.6,55,79.6,54.2,79.2z"/>
		</g>
		<g>
			<path class="st18" d="M37.7,58L34,55.9c-0.8-0.5-0.7-1.3,0.2-1.8l3.2-1.8c0.9-0.5,2.4-0.6,3.2-0.1l3.7,2.1
				c0.8,0.5,0.7,1.3-0.2,1.8l-3.2,1.8C39.9,58.4,38.5,58.5,37.7,58z"/>
			<g>
				<g>
					<polygon class="st19" points="39.7,56.7 38.6,56.7 38.7,56.1 39.7,56.1 					"/>
					<path class="st20" d="M39.7,56.7l-1.1,0l-0.1,0.9c0,0.2,0.3,0.4,0.6,0.4l0,0c0.3,0,0.6-0.2,0.6-0.4L39.7,56.7z"/>
					<path class="st21" d="M42,54.5c0,0.9-1.3,1.6-2.9,1.6c-1.6,0-2.9-0.7-2.9-1.7c0-0.9,1.3-1.6,2.9-1.6C40.7,52.9,42,53.6,42,54.5
						z"/>
					<path class="st22" d="M41.5,54.5c0,0.7-1,1.3-2.3,1.3c-1.3,0-2.3-0.6-2.3-1.3c0-0.7,1-1.3,2.3-1.3
						C40.4,53.2,41.5,53.8,41.5,54.5z"/>
				</g>
				<path class="st23" d="M40.4,53.9c-0.1,0.2-0.6,0.3-1.1,0.2c-0.5-0.1-0.8-0.3-0.7-0.5c0.1-0.2,0.6-0.3,1.1-0.2
					C40.2,53.5,40.5,53.8,40.4,53.9z"/>
			</g>
		</g>
		<g>
			<path class="st22" d="M24.7,75.5L21,73.4c-0.8-0.5-0.7-1.3,0.2-1.8l3.2-1.8c0.9-0.5,2.4-0.6,3.2-0.1l3.7,2.1
				c0.8,0.5,0.7,1.3-0.2,1.8l-3.2,1.8C26.9,75.9,25.5,76,24.7,75.5z"/>
			<polygon class="st24" points="30.6,72 25.9,72.3 26.2,73 			"/>
			<polygon class="st21" points="21.5,73.2 26.2,73 25.9,72.3 			"/>
			<path class="st21" d="M26.9,72.8c-0.3,0.2-0.8,0.3-1.2,0.1c-0.4-0.1-0.5-0.5-0.3-0.7c0.3-0.2,0.8-0.3,1.2-0.1
				C27,72.3,27.1,72.6,26.9,72.8z"/>
			<path class="st24" d="M26.5,72.7c-0.1,0.1-0.4,0.2-0.6,0.1c-0.2-0.1-0.3-0.2-0.1-0.4c0.1-0.1,0.4-0.2,0.6-0.1
				C26.6,72.4,26.6,72.6,26.5,72.7z"/>
		</g>
		<g>
			<path class="st25" d="M16.1,70.5l-3.7-2.1c-0.8-0.5-0.7-1.3,0.2-1.8l3.2-1.8c0.9-0.5,2.4-0.6,3.2-0.1l3.7,2.1
				c0.8,0.5,0.7,1.3-0.2,1.8l-3.2,1.8C18.3,70.9,16.9,71,16.1,70.5z"/>
			<path class="st21" d="M20.8,66.5c-0.2-0.3-0.2-0.3-0.2-0.3l-0.2,0.1l-1.6,0.4c0,0,0.1,0.2,0.2,0.3c0.5,0.2,0,0.5-1.4,0.9
				c-1.4,0.4-2.2,0.4-2.1,0c0-0.1-0.2-0.3-0.2-0.3L13.6,68l-0.2,0.1c0,0,0,0,0.2,0.3c0.7,0.9,2.8,0.6,4.4,0.2
				C19.8,68.1,21.5,67.4,20.8,66.5z"/>
		</g>
		<g>
			<path class="st21" d="M73.4,67.5l-3.7-2.1c-0.8-0.5-0.7-1.3,0.2-1.8l3.2-1.8c0.9-0.5,2.4-0.6,3.2-0.1l3.7,2.1
				c0.8,0.5,0.7,1.3-0.2,1.8l-3.2,1.8C75.6,68,74.2,68,73.4,67.5z"/>
			<path class="st24" d="M77.5,66.2c-1.5,0.9-3.9,0.9-5.4,0c-1.5-0.9-1.5-2.3,0-3.1c1.5-0.9,3.9-0.9,5.4,0
				C79,63.9,79,65.3,77.5,66.2z"/>
			<g>
				<polygon class="st21" points="78.1,64.4 72.4,63.7 73.2,64.7 73.6,65 73.5,65 74.1,66.3 				"/>
				<polygon class="st11" points="76.3,64.6 73.2,64.7 72.5,65.4 73.6,65.2 73.5,65.1 				"/>
			</g>
		</g>
		<g>
			<path class="st24" d="M42.2,85.6l-3.7-2.1c-0.8-0.5-0.7-1.3,0.2-1.8l3.2-1.8c0.9-0.5,2.4-0.6,3.2-0.1l3.7,2.1
				c0.8,0.5,0.7,1.3-0.2,1.8l-3.2,1.8C44.4,86,43,86,42.2,85.6z"/>
			<g>
				<polygon class="st21" points="47.4,82.3 44.4,81.1 41.3,82.9 41.6,83.1 43.9,81.8 46.3,82.7 43.8,84.1 44.1,84.3 				"/>
				<path class="st21" d="M41.7,82.9c-0.1,0.2-0.7,0.4-1.2,0.3c-0.5-0.1-0.9-0.4-0.7-0.6c0.1-0.2,0.7-0.4,1.2-0.3
					C41.6,82.4,41.9,82.7,41.7,82.9z"/>
				<path class="st21" d="M44.3,84.1c-0.1,0.2-0.7,0.4-1.2,0.3c-0.5-0.1-0.9-0.4-0.7-0.6c0.1-0.2,0.7-0.4,1.2-0.3
					C44.1,83.6,44.4,83.9,44.3,84.1z"/>
			</g>
		</g>
		<g>
			<path class="st24" d="M56,57.5l-3.7-2.1c-0.8-0.5-0.7-1.3,0.2-1.8l3.2-1.8c0.9-0.5,2.4-0.6,3.2-0.1l3.7,2.1
				c0.8,0.5,0.7,1.3-0.2,1.8l-3.2,1.8C58.2,57.9,56.8,57.9,56,57.5z"/>
			<path class="st21" d="M60.1,56.1c-1.5,0.9-3.9,0.9-5.4,0c-1.5-0.9-1.5-2.3,0-3.1c1.5-0.9,3.9-0.9,5.4,0
				C61.6,53.8,61.6,55.2,60.1,56.1z"/>
			<path class="st26" d="M58.1,54.8c-0.3,0.2-0.8,0.3-1.2,0.1c-0.4-0.1-0.5-0.5-0.3-0.7c0.3-0.2,0.8-0.3,1.2-0.1
				C58.3,54.2,58.4,54.6,58.1,54.8z"/>
			<polygon class="st24" points="57.5,54.5 57.3,54.5 58.5,52.6 58.7,52.6 			"/>
			<polygon class="st27" points="57.4,54.4 57.4,54.6 53.8,54.6 53.8,54.4 			"/>
			<polygon class="st27" points="57.3,54.6 57.4,54.4 60.4,55.1 60.4,55.2 			"/>
			<path class="st28" d="M57.8,54.7c-0.1,0.1-0.4,0.2-0.6,0.1c-0.2-0.1-0.3-0.2-0.1-0.4c0.1-0.1,0.4-0.2,0.6-0.1
				C57.8,54.4,57.9,54.5,57.8,54.7z"/>
		</g>
		<g>
			<path class="st21" d="M63.8,73.1L60.2,71c-0.8-0.5-0.7-1.3,0.2-1.8l3.2-1.8c0.9-0.5,2.4-0.6,3.2-0.1l3.7,2.1
				c0.8,0.5,0.7,1.3-0.2,1.8L67,72.9C66,73.5,64.6,73.5,63.8,73.1z"/>
			<path class="st29" d="M64.7,67.6l-1.3,0.8C63,68.6,63.3,69,63.9,69l2.6,0c0.6,0,1-0.4,0.5-0.7l-1.3-0.8
				C65.5,67.4,65,67.4,64.7,67.6z"/>
			<path class="st29" d="M65.8,72.6l1.3-0.8c0.5-0.3,0.1-0.7-0.5-0.7l-2.6,0c-0.6,0-1,0.4-0.5,0.7l1.3,0.8
				C65,72.8,65.5,72.8,65.8,72.6z"/>
			<path class="st29" d="M64.7,67.6l-1.3,0.8C63,68.6,63.3,69,63.9,69l2.6,0c0.6,0,1-0.4,0.5-0.7l-1.3-0.8
				C65.5,67.4,65,67.4,64.7,67.6z"/>
			<path class="st29" d="M65.8,72.6l1.3-0.8c0.5-0.3,0.1-0.7-0.5-0.7l-2.6,0c-0.6,0-1,0.4-0.5,0.7l1.3,0.8
				C65,72.8,65.5,72.8,65.8,72.6z"/>
			<path class="st30" d="M60.9,70.4l1.3,0.8c0.5,0.3,1.2,0.1,1.2-0.3l0-1.5c0-0.4-0.8-0.6-1.2-0.3l-1.3,0.8
				C60.6,70,60.6,70.2,60.9,70.4z"/>
			<path class="st30" d="M69.6,69.8l-1.3-0.8c-0.5-0.3-1.2-0.1-1.2,0.3l0,1.5c0,0.4,0.8,0.6,1.2,0.3l1.3-0.8
				C69.9,70.2,69.9,70,69.6,69.8z"/>
		</g>
		<g>
			<path class="st22" d="M43.3,66.4l-3.6,2.1c-0.8,0.5-2.1,0.5-2.9,0l-3.7-2.1c-0.8-0.5-0.8-1.2,0-1.7l3.6-2.1
				c0.8-0.5,2.1-0.5,2.9,0l3.7,2.1c0.7,0.4,0.8,0.9,0.4,1.4C43.6,66.3,43.5,66.3,43.3,66.4C43.4,66.4,43.3,66.4,43.3,66.4z"/>
			<path class="st21" d="M37.9,67L35,67.5l-1.9-1.1c-0.8-0.5-0.8-1.2,0-1.7l0.5-0.3L37.9,67z"/>
			<path class="st25" d="M40.9,65.1l-3.2,1.7l-4.1-2.4l3.1-1.8c0.8-0.5,2.1-0.5,2.9,0l3.7,2.1c0.7,0.4,0.8,0.9,0.4,1.4
				C43.6,66.3,41,65,40.9,65.1z"/>
			<path class="st25" d="M43.3,66.4l-1.9,1.1l-2.3-1.4l3.4-2l0.9,0.5c0.7,0.4,0.8,0.9,0.4,1.4C43.6,66.3,43.5,66.3,43.3,66.4
				C43.4,66.4,43.3,66.4,43.3,66.4z"/>
			<polygon class="st20" points="33.9,64.3 38.1,66.7 37.3,67.2 33.1,64.7 			"/>
			<g>
				<path class="st31" d="M39.7,62.9c-0.7-0.4-1.9-0.4-2.6,0c-1,0.6-1.5,2.4-1.5,2.4s3.1-0.3,4.1-0.8C40.4,64,40.4,63.3,39.7,62.9z"
					/>
				<path class="st32" d="M39.1,64.1c-0.4,0.2-1.1,0.2-1.5,0c-0.4-0.2-0.4-0.6,0-0.9c0.4-0.2,1.1-0.2,1.5,0
					C39.5,63.5,39.5,63.8,39.1,64.1z"/>
			</g>
			<polygon class="st33" points="42.6,64.3 41.6,63.8 35,67.5 36,68.1 			"/>
		</g>
		<g>
			<path class="st34" d="M28.1,63.6l-3.7-2.1c-0.8-0.5-0.7-1.3,0.2-1.8l3.2-1.8c0.9-0.5,2.4-0.6,3.2-0.1l3.7,2.1
				c0.8,0.5,0.7,1.3-0.2,1.8l-3.2,1.8C30.3,64,28.9,64,28.1,63.6z"/>
			<g>
				<path class="st21" d="M29.7,62.4L26,60.3c-0.2-0.1-0.2-0.4,0.1-0.5l1.9-1.1c0.3-0.2,0.7-0.2,0.9,0l3.7,2.1
					c0.2,0.1,0.2,0.4-0.1,0.5l-1.9,1.1C30.4,62.5,30,62.5,29.7,62.4z"/>
				<path class="st34" d="M29.9,62.1l-3.3-1.9c-0.1-0.1-0.1-0.2,0-0.3l1.6-0.9c0.1-0.1,0.4-0.1,0.5,0l3.3,1.9c0.1,0.1,0.1,0.2,0,0.3
					l-1.6,0.9C30.3,62.1,30.1,62.1,29.9,62.1z"/>
				<path class="st21" d="M31.5,62.4l-0.3-0.2c0,0,0-0.1,0-0.1l1-0.6c0,0,0.1,0,0.1,0l0.3,0.2c0,0,0,0.1,0,0.1l-1,0.6
					C31.6,62.5,31.6,62.5,31.5,62.4z"/>
				<path class="st21" d="M27.4,60.5l-0.6-0.4c0,0,0-0.1,0-0.1l1.7-1c0,0,0.1,0,0.1,0l0.6,0.4c0,0,0,0.1,0,0.1l-1.7,1
					C27.5,60.5,27.5,60.5,27.4,60.5z"/>
				<path class="st21" d="M28.3,61l-0.6-0.4c0,0,0-0.1,0-0.1l1.7-1c0,0,0.1,0,0.1,0l0.6,0.4c0,0,0,0.1,0,0.1l-1.7,1
					C28.4,61,28.4,61,28.3,61z"/>
				<path class="st21" d="M29.2,61.5l-0.6-0.4c0,0,0-0.1,0-0.1l1.7-1c0,0,0.1,0,0.1,0l0.6,0.4c0,0,0,0.1,0,0.1l-1.7,1
					C29.3,61.6,29.3,61.6,29.2,61.5z"/>
			</g>
		</g>
		<g>
			<g>
				<path class="st21" d="M79.8,32.1L77.8,31c-0.1-0.1-0.1-0.2,0-0.3l1-0.6c0.1-0.1,0.4-0.1,0.5,0l1.9,1.1c0.1,0.1,0.1,0.2,0,0.3
					l-1,0.6C80.1,32.2,79.9,32.2,79.8,32.1z"/>
				<path class="st21" d="M80.7,32.1L80.6,32c0,0,0,0,0,0l0.5-0.3c0,0,0.1,0,0.1,0l0.2,0.1c0,0,0,0,0,0L80.7,32.1
					C80.8,32.1,80.7,32.1,80.7,32.1z"/>
			</g>
		</g>
		<g>
			<path class="st35" d="M64.7,62.5L61,60.4c-0.8-0.5-0.7-1.3,0.2-1.8l3.2-1.8c0.9-0.5,2.4-0.6,3.2-0.1l3.7,2.1
				c0.8,0.5,0.7,1.3-0.2,1.8l-3.2,1.8C66.9,62.9,65.5,63,64.7,62.5z"/>
			<g>
				<g>
					<g>
						<path class="st36" d="M69.2,61.4c-1.7,1-4.5,1-6.2,0c-1.7-1-1.7-2.6,0-3.6c1.7-1,4.5-1,6.2,0C70.9,58.8,70.9,60.4,69.2,61.4z"
							/>
						<path class="st22" d="M69,61.2c-1.6,0.9-4.1,0.9-5.7,0c-1.6-0.9-1.6-2.4,0-3.3c1.6-0.9,4.1-0.9,5.7,0
							C70.6,58.8,70.6,60.3,69,61.2z"/>
						<path class="st37" d="M68.7,61.1c-1.4,0.8-3.8,0.8-5.2,0c-1.4-0.8-1.5-2.2,0-3c1.4-0.8,3.8-0.8,5.2,0
							C70.2,58.9,70.2,60.3,68.7,61.1z"/>
					</g>
				</g>
			</g>
			<path class="st25" d="M68.1,60.3c0,0-0.1,0.2-0.4,0.5c-0.2,0.3-0.5,0.5,0,0.5c0.3,0,0.3,0.1,0.4,0.1c0.2-0.1,0.4-0.2,0.6-0.3
				c-0.1,0-0.2-0.1-0.1-0.2c0.1-0.1,0.3-0.1,0.4,0c0,0,0,0,0,0c0.7-0.5,1-1.2,0.7-1.8c0,0,0,0,0,0c0,0-0.1,0-0.2,0
				c-0.2-0.1-0.2-0.2-0.2-0.2s0.4-0.2,0.2-0.2c-0.2,0-0.4,0.1-0.4,0.1s-0.7-0.3-0.8-0.2c0,0.1-0.2,0.2-0.3,0.2c0,0,0-0.3-0.3-0.2
				c-0.3,0.1-0.5,0-0.5,0.2s0,0.1,0,0.1s-0.3,0.1-0.8,0c-0.5-0.2-1.1,0.2-1.3,0.3c-0.2,0.2-0.4,0.4,0,0.6c0.3,0.2,0.7,0.3,0.2,0.5
				c-0.5,0.3-0.4,0.4-0.9,0.5c-0.5,0.1-0.5,0.1-0.5,0.3c0.5,0.2,1.1,0.4,1.6,0.5c0,0,0.1,0,0.1,0c0.4-0.1,0.7-0.1,1-0.1
				c0.3,0,1.1,0,1-0.1c0-0.1-0.3-0.2-0.4-0.3c-0.1-0.1,0,0,0.2-0.3c0.2-0.3,0.2-0.6,0.4-0.8c0.2-0.1,0.4,0,0.4,0s0.1-0.3-0.2-0.3
				c-0.3-0.1-0.3-0.1-0.2-0.3c0.1-0.3,0.7-0.1,0.7,0.2c0,0.3,0.3,0.4,0.3,0.4s0,0.1-0.3,0.1C68.2,60.2,68.1,60.3,68.1,60.3z"/>
			<g>
				<path class="st38" d="M64.2,57.8C64.2,57.8,64.1,57.8,64.2,57.8c-0.1,0.1,0.2,0.2,0.2,0.2s-0.7,0.3-0.5,0.4c0.2,0,0.4,0,0.5-0.1
					c0.2-0.1,0-0.2,0.4-0.3c0.4,0,0.7,0,0.7,0l0.4-0.1l0.1,0.2c0,0-0.4,0-0.4,0.1c0.1,0.1,0.6,0.1,0.6,0.1s0.4,0.1,0.3-0.1
					c-0.1-0.1-0.3-0.1-0.5-0.2c-0.3-0.1,0.1-0.1,0.1-0.1l0.4,0.2c0,0,0.3,0.1,0.5,0c0.2-0.1,0.1-0.3,0.1-0.3l0.2-0.1
					C66.4,57.3,65.2,57.4,64.2,57.8z"/>
				<path class="st38" d="M62.9,60.1c0,0,0.3,0,0.4-0.1s0.2-0.3,0.3-0.3c0.1,0,0-0.2,0-0.2c0-0.1,0.2,0,0.2-0.1
					c0.1-0.1,0.2-0.2,0.2-0.2s0.4,0,0.4-0.2c0-0.2-0.1-0.4-0.1-0.4s-0.1-0.1-0.4-0.1c-0.3,0-0.5,0.1-0.6,0s-0.2,0-0.2,0
					s-0.1,0.1-0.2,0.2c0,0,0,0,0,0c-0.4,0.5-0.5,1.1-0.1,1.7C62.9,60.2,62.9,60.1,62.9,60.1z"/>
			</g>
		</g>
		<g>
			<path class="st25" d="M33.4,80.6l-3.7-2.1C29,78,29.1,77.2,30,76.6l3.2-1.8c0.9-0.5,2.4-0.6,3.2-0.1l3.7,2.1
				c0.8,0.5,0.7,1.3-0.2,1.8l-3.2,1.8C35.7,81,34.2,81,33.4,80.6z"/>
			<path class="st21" d="M38.8,78.3l-2.4,1.4c-0.4,0.3-1.2,0.3-1.6,0l-2.2-1.3l-2.3-0.1l1.3-0.3l0.2-0.1l1.2-0.3l-1.5,0.1l-0.1,0
				c-0.4-0.3-0.4-0.7,0-0.9l2.4-1.4c0.4-0.3,1.2-0.3,1.6,0l3.5,2C39.2,77.6,39.2,78,38.8,78.3z"/>
		</g>
		<g>
			<path class="st34" d="M49.3,57.1l3.7,2.1c0.8,0.5,0.8,1.2,0,1.7L49.3,63c-0.8,0.5-2.1,0.5-2.9,0l-3.7-2.1c-0.8-0.5-0.8-1.2,0-1.7
				l3.6-2.1C47.1,56.6,48.4,56.6,49.3,57.1z"/>
			<path class="st39" d="M49.5,57.2l3.4,2c0.8,0.5,0.8,1.2,0,1.7L49.3,63c-0.8,0.5-2.1,0.5-2.9,0l-3.4-2L49.5,57.2z"/>
			<polygon class="st31" points="50.9,58.1 48.7,59.4 49.9,59.5 50.1,60.1 52.3,58.9 			"/>
		</g>
		<g>
			<path class="st40" d="M55.1,68.1L51.4,66c-0.8-0.5-0.7-1.3,0.2-1.8l3.2-1.8c0.9-0.5,2.4-0.6,3.2-0.1l3.7,2.1
				c0.8,0.5,0.7,1.3-0.2,1.8l-3.2,1.8C57.3,68.5,55.9,68.5,55.1,68.1z"/>
			<path class="st41" d="M59.2,66.7c-1.5,0.9-3.9,0.9-5.4,0c-1.5-0.9-1.5-2.3,0-3.1c1.5-0.9,3.9-0.9,5.4,0
				C60.7,64.4,60.7,65.8,59.2,66.7z"/>
			<path class="st42" d="M58.9,66.5c-1.3,0.7-3.4,0.7-4.7,0c-1.3-0.8-1.3-2,0-2.7c1.3-0.7,3.4-0.7,4.7,0
				C60.2,64.5,60.2,65.7,58.9,66.5z"/>
			<path class="st43" d="M58.4,66.2c-1,0.6-2.7,0.6-3.7,0c-1-0.6-1-1.6,0-2.2c1-0.6,2.7-0.6,3.7,0C59.4,64.6,59.4,65.6,58.4,66.2z"
				/>
			<path class="st44" d="M57.8,65.9c-0.7,0.4-1.9,0.4-2.7,0c-0.7-0.4-0.7-1.1,0-1.5c0.7-0.4,1.9-0.4,2.7,0
				C58.6,64.8,58.6,65.5,57.8,65.9z"/>
			<path class="st45" d="M57.6,64.7c-0.1,0.2-0.5,0.2-0.9,0.1c-0.4-0.1-0.7-0.3-0.6-0.4c0.1-0.2,0.5-0.2,0.9-0.1
				C57.4,64.3,57.7,64.5,57.6,64.7z"/>
		</g>
		<g>
			<path class="st34" d="M45.5,73.6l-3.7-2.1C41,71,41.1,70.2,42,69.6l3.2-1.8c0.9-0.5,2.4-0.6,3.2-0.1l3.7,2.1
				c0.8,0.5,0.7,1.3-0.2,1.8l-3.2,1.8C47.7,74,46.3,74,45.5,73.6z"/>
			<path class="st46" d="M50.3,71.1L48.5,70c-0.1-0.1-0.2-0.2-0.1-0.3l0.1-0.1c0.1-0.1,0-0.2-0.1-0.3l-1.7-1c-0.1-0.1-0.4-0.1-0.5,0
				l-0.3,0.1c0,0-0.1,0-0.1,0l-2.9,1.6c-0.1,0.1-0.1,0.2,0,0.3l4.4,2.5c0.1,0.1,0.3,0.1,0.5,0l2.6-1.5
				C50.5,71.3,50.5,71.2,50.3,71.1z"/>
			<path class="st47" d="M50.1,71.3l-4.4-2.5c-0.1-0.1-0.3-0.1-0.5,0l-2.4,1.4c-0.1,0.1-0.1,0.2,0,0.3l4.4,2.5
				c0.1,0.1,0.3,0.1,0.5,0l2.4-1.4C50.3,71.5,50.3,71.4,50.1,71.3z"/>
		</g>
		<g>
			<path class="st21" d="M47.3,52.4l-3.7-2.1c-0.8-0.5-0.7-1.3,0.2-1.8l3.2-1.8c0.9-0.5,2.4-0.6,3.2-0.1l3.7,2.1
				c0.8,0.5,0.7,1.3-0.2,1.8l-3.2,1.8C49.5,52.9,48.1,52.9,47.3,52.4z"/>
			<path class="st22" d="M53.3,50.1L51.9,51c-0.7,0.4-1.8,0.4-2.4,0l-0.7-0.4l0.1-0.1c0.7-0.4,0.7-1,0-1.4l-1.3-0.8l1.3-0.8
				c0.7-0.4,1.8-0.4,2.4,0l2,1.2C54,49.1,54,49.7,53.3,50.1z"/>
			<g>
				<path class="st32" d="M50.2,48l0.5,0.3l-1.7,1l-0.4-0.2l-0.2,0.1l-0.2-0.1L50.2,48z M49.9,49.2c0,0,0.1,0.1,0.1,0.2
					c-0.4,0.1-0.8,0.3-1.2,0.4l-0.1-0.2C49.1,49.5,49.5,49.3,49.9,49.2z M50.4,48.4l-0.2-0.1L48.8,49l0.2,0.1L50.4,48.4z M50.2,49.2
					l0.2,0.1l0.6-0.3c-0.1,0-0.2,0-0.3,0c0-0.1,0-0.1,0-0.2c0.4,0,0.7-0.1,1.1-0.2l0.1,0.1c-0.1,0-0.2,0-0.3,0.1l0.9,0.5l-0.2,0.1
					l-1-0.6c-0.1,0-0.2,0-0.3,0l1,0.6c-0.2,0.1-0.5,0.2-0.6,0.3l0.2,0.1l-0.2,0.1L51.3,50c-0.2,0.1-0.4,0.2-0.5,0.3l0.2,0.1
					l-0.2,0.1l-0.2-0.1c-0.3,0.1-0.5,0.1-0.7,0c-0.2-0.1-0.3-0.2-0.4-0.2c0.1,0,0.1-0.1,0.2-0.1c0.1,0.1,0.2,0.1,0.3,0.2
					c0.1,0.1,0.2,0.1,0.4,0l-0.8-0.5l0.1-0.1l0.5-0.3l-0.2-0.1L50.2,49.2z M51.1,49.8l-0.6-0.4L50,49.7l0.7,0.4
					C50.8,50,50.9,49.9,51.1,49.8z M50.5,48.7c0,0.1,0.1,0.2,0.1,0.4c-0.1,0-0.2,0-0.3,0c0-0.1,0-0.3,0-0.4L50.5,48.7z M50.5,49.6
					l0.2,0c0,0.1-0.1,0.2-0.1,0.3l-0.2,0C50.4,49.8,50.4,49.7,50.5,49.6z M51.1,49.2l-0.5,0.2l0.6,0.4c0.2-0.1,0.3-0.2,0.5-0.3
					L51.1,49.2z M51.2,48.4c0,0.1,0.1,0.2,0.1,0.4c-0.1,0-0.2,0-0.3,0c0-0.1,0-0.2,0-0.3L51.2,48.4z M51.2,49.3l0.2,0
					c0,0.1-0.1,0.2-0.1,0.3l-0.2,0C51.1,49.5,51.1,49.4,51.2,49.3z"/>
			</g>
			<path class="st48" d="M48.9,50.5l-0.1,0.1l-1.3-0.8c-0.7-0.4-0.7-1,0-1.4l0.1-0.1l1.3,0.8C49.5,49.4,49.5,50.1,48.9,50.5z"/>
			<path class="st31" d="M48.7,50.5L48,51c-0.7,0.4-1.8,0.4-2.4,0l-1.4-0.8c-0.7-0.4-0.7-1,0-1.4l0.9-0.5c0.7-0.4,1.8-0.4,2.4,0l0,0
				l-0.1,0.1c-0.7,0.4-0.7,1,0,1.4L48.7,50.5z"/>
			<g>
				<path class="st32" d="M44.6,49.1l1.3-0.3l0.1,0.1l-0.5,0.8l-0.2-0.1l0.1-0.1L45,49.2l-0.2,0L44.6,49.1z M45.3,49.2l0.2,0.1
					l0.1-0.2L45.3,49.2z"/>
				<path class="st32" d="M45.6,49.7l0.9-0.5l0.4,0.2c0.1,0.1,0.1,0.2,0,0.3c-0.1,0-0.1,0.1-0.2,0.1c0,0.1,0,0.1-0.1,0.2
					c-0.1,0.1-0.4,0.1-0.5,0L45.6,49.7z M46.2,49.9c0,0,0.1,0,0.2,0c0,0,0-0.1,0-0.1l-0.2-0.1l-0.2,0.1L46.2,49.9z M46.5,49.6
					c0,0,0.1,0,0.2,0c0,0,0-0.1,0-0.1l-0.1-0.1l-0.2,0.1L46.5,49.6z"/>
				<path class="st32" d="M47.6,50.2c0,0,0-0.1-0.1-0.1c-0.1-0.1-0.3-0.1-0.4,0c-0.1,0.1-0.1,0.2,0,0.2c0.1,0,0.1,0.1,0.2,0.1l0,0.2
					c-0.2,0-0.3,0-0.4-0.1c-0.2-0.1-0.2-0.4,0-0.5c0.2-0.1,0.6-0.1,0.9,0c0.1,0.1,0.2,0.2,0.2,0.3L47.6,50.2z"/>
			</g>
		</g>
		<g>
			<path class="st40" d="M54.2,78.6l-3.7-2.1c-0.8-0.5-0.7-1.3,0.2-1.8l3.2-1.8c0.9-0.5,2.4-0.6,3.2-0.1l3.7,2.1
				c0.8,0.5,0.7,1.3-0.2,1.8l-3.2,1.8C56.4,79,55,79.1,54.2,78.6z"/>
			<path class="st49" d="M55.3,76.5c0-0.1,0.1-0.1,0.2-0.2l0.7-0.1l0.1-0.4l-0.6-0.2c-0.1,0-0.2-0.1-0.1-0.2l0.3-0.4l-0.5-0.3
				L54.6,75c-0.1,0-0.2,0-0.3-0.1L54,74.6l-0.7,0L53.1,75c0,0.1-0.1,0.1-0.3,0.1L52.1,75l-0.4,0.3l0.4,0.3c0.1,0.1,0.1,0.1,0,0.2
				l-0.5,0.3l0.2,0.4l0.7,0c0.1,0,0.2,0.1,0.2,0.1l0,0.4l0.7,0.1l0.5-0.3c0.1-0.1,0.2-0.1,0.3,0l0.6,0.2l0.6-0.2L55.3,76.5z"/>
			<path class="st49" d="M59.3,75.7l0.4-0.1l0-0.4l-0.5-0.1c-0.2,0-0.3-0.1-0.3-0.3l0-0.3l-0.6-0.2L58,74.5c-0.2,0.1-0.4,0.1-0.5,0
				l-0.4-0.2l-0.6,0.2l0.1,0.3c0,0.1-0.1,0.2-0.3,0.3l-0.4,0.1l0,0.4l0.5,0.1c0.2,0,0.3,0.1,0.3,0.3l0,0.3l0.6,0.2l0.4-0.2
				c0.2-0.1,0.4-0.1,0.5,0l0.4,0.2l0.6-0.2L59,76C59,75.9,59.1,75.8,59.3,75.7z"/>
			<path class="st40" d="M54.6,76.3c-0.3,0.2-0.9,0.2-1.3,0c-0.4-0.2-0.4-0.5,0-0.7c0.3-0.2,0.9-0.2,1.3,0
				C54.9,75.7,54.9,76.1,54.6,76.3z"/>
			<path class="st40" d="M58.3,75.7c-0.3,0.2-0.8,0.2-1.1,0c-0.3-0.2-0.3-0.4,0-0.6c0.3-0.2,0.8-0.2,1.1,0
				C58.6,75.3,58.6,75.6,58.3,75.7z"/>
		</g>
		<g>
			<path class="st32" d="M71.9,42.5c0.7-0.4,1.8-0.4,2.5,0c0.7,0.4,0.7,1,0,1.4c-0.3,0.2-0.6,0.2-1,0.3L69,44.7l2.1,1.2L71,46
				l-2.3-1.3l4.7-0.5c0.3,0,0.6-0.1,0.9-0.3c0.6-0.4,0.6-0.9,0-1.3c-0.6-0.4-1.6-0.4-2.2,0L71.9,42.5z"/>
			<path class="st32" d="M77.7,44.4l0.1,0.1l-4.7,2.7L73,47.1L77.7,44.4z"/>
			<path class="st32" d="M75.2,48.1c0.1,0,0.1,0.1,0,0.2c-0.1,0-0.2,0-0.3,0c-0.1,0-0.1-0.1,0-0.1C75,48,75.1,48,75.2,48.1z
				 M77.4,46.8c0.1,0,0.1,0.1,0,0.2c-0.1,0-0.2,0-0.3,0c-0.1,0-0.1-0.1,0-0.1C77.2,46.8,77.3,46.8,77.4,46.8z"/>
			<path class="st32" d="M81.5,46.6l1.9,1.1l-0.2,0l-3.8,0.4c0.2,0,0.5,0.1,0.7,0.2c0.7,0.4,0.7,1,0,1.4c-0.7,0.4-1.8,0.4-2.5,0
				c-0.3-0.2-0.5-0.4-0.5-0.7l0.2,0c0,0.2,0.2,0.4,0.5,0.6c0.6,0.4,1.6,0.4,2.2,0c0.6-0.4,0.6-0.9,0-1.3c-0.3-0.2-0.7-0.3-1-0.3
				v-0.1l4.1-0.4l-1.7-1L81.5,46.6z"/>
			<path class="st32" d="M83.4,52l-2.6-1.5l6.3-0.6l0.2,0.1L83.6,52l0.9,0.5l-0.1,0.1l-0.9-0.5l-1,0.6l-0.1-0.1L83.4,52z M83.5,51.9
				l3.4-1.9l-5.8,0.6L83.5,51.9z"/>
		</g>
		<g>
			<path class="st32" d="M66.7,45.5l0.7,0.4L67.1,46l-0.4-0.2l-0.2,0.1l0.3,0.2l-0.2,0.1L66.3,46l-0.4,0.2l-0.3-0.2L66.7,45.5z"/>
			<path class="st32" d="M67.1,47l0.1-0.3l-0.2-0.1l-0.3,0.2l-0.3-0.2l1-0.6l0.4,0.3c0.2,0.1,0.2,0.3,0,0.4
				c-0.1,0.1-0.3,0.1-0.4,0.1l-0.2,0.3L67.1,47z M67.3,46.5l0.2,0.1c0.1,0,0.2,0,0.3,0c0.1,0,0.1-0.1,0-0.2l-0.2-0.1L67.3,46.5z"/>
			<path class="st32" d="M68.6,46.6l0.3,0.2l-1,0.6l-0.3-0.2L68.6,46.6z"/>
			<path class="st32" d="M69.1,46.9l0.4,0.2c0.3,0.2,0.3,0.4,0,0.6c-0.3,0.2-0.8,0.2-1,0l-0.4-0.2L69.1,46.9z M68.6,47.5l0.1,0.1
				c0.1,0.1,0.4,0.1,0.5,0c0.1-0.1,0.1-0.2,0-0.3l-0.1-0.1L68.6,47.5z"/>
			<path class="st32" d="M69,48.1l1.5-0.3l0.1,0.1l-0.6,0.9l-0.3-0.2l0.1-0.1l-0.4-0.2l-0.2,0L69,48.1z M69.9,48.1l0.2,0.1l0.1-0.2
				L69.9,48.1z"/>
			<path class="st32" d="M71.2,48.9l-0.4,0.2l-0.3-0.2l0.4-0.2l0.3-0.6l0.3,0.2l-0.1,0.3l0.5-0.1l0.3,0.2L71.2,48.9z"/>
			<path class="st32" d="M72.9,49.6c0.1,0,0.1,0,0.2,0c0.1,0,0.1-0.1,0-0.1c-0.1,0-0.2,0-0.2,0l-0.2-0.1c0.2-0.1,0.5-0.1,0.7,0
				c0.2,0.1,0.2,0.3,0,0.4c-0.1,0.1-0.3,0.1-0.3,0.1l-0.5,0l0.3,0.2l-0.2,0.1l-0.7-0.4L72.9,49.6z"/>
			<path class="st32" d="M74.6,50.1l-0.2,0.1l-1.3,0.2l-0.3-0.1l1.3-0.2l-0.6-0.3l0.2-0.1L74.6,50.1z"/>
			<path class="st32" d="M75.6,51.1l0.8,0l0.1,0.1l-1,0.6l-0.3-0.2l0.5-0.3l-0.5,0l0-0.3l-0.5,0.3l-0.3-0.2l1-0.6l0.1,0.1L75.6,51.1
				z"/>
			<path class="st32" d="M75.6,51.9l1.5-0.3l0.1,0.1l-0.6,0.9l-0.3-0.2l0.1-0.1L76.1,52l-0.2,0L75.6,51.9z M76.4,51.9l0.2,0.1
				l0.1-0.2L76.4,51.9z"/>
			<path class="st32" d="M77.5,52.9l0.1-0.3l-0.2-0.1l-0.3,0.2l-0.3-0.2l1-0.6l0.4,0.3c0.2,0.1,0.2,0.3,0,0.4
				c-0.1,0.1-0.3,0.1-0.4,0.1l-0.2,0.3L77.5,52.9z M77.7,52.5l0.2,0.1c0.1,0,0.2,0,0.3,0c0.1,0,0.1-0.1,0-0.2L78,52.3L77.7,52.5z"/>
			<path class="st32" d="M79.3,53.2c0-0.1,0-0.1-0.1-0.1c-0.1-0.1-0.3-0.1-0.5,0c-0.1,0.1-0.1,0.2,0,0.3c0.1,0,0.2,0.1,0.2,0.1
				l0,0.2c-0.2,0-0.4,0-0.5-0.1c-0.3-0.2-0.3-0.4,0-0.6c0.3-0.2,0.8-0.2,1,0c0.1,0.1,0.2,0.2,0.2,0.3L79.3,53.2z"/>
			<path class="st32" d="M80.3,53.4l-0.4,0.2l0.3,0.2l0.4-0.2l0.3,0.2l-1,0.6l-0.3-0.2l0.4-0.2l-0.3-0.2L79.3,54L79,53.8l1-0.6
				L80.3,53.4z"/>
		</g>
	</g>
</g>
</svg>
