<?xml version="1.0" encoding="utf-8"?>
<!-- Generator: Adobe Illustrator 22.0.0, SVG Export Plug-In . SVG Version: 6.00 Build 0)  -->
<svg version="1.1" id="Warstwa_1" xmlns="http://www.w3.org/2000/svg" xmlns:xlink="http://www.w3.org/1999/xlink" x="0px" y="0px"
	 viewBox="0 0 120 120" style="enable-background:new 0 0 120 120;" xml:space="preserve">
<style type="text/css">
	.st0{fill:none;}
	.st1{fill:#6865D9;}
	.st2{fill:#736FEF;}
	.st3{fill:#7C78F0;}
	.st4{fill:#807CF2;}
	.st5{fill:#C4C8D8;}
	.st6{fill:url(#SVGID_1_);}
	.st7{fill:#EFF0F5;}
	.st8{fill:#3A3F47;}
	.st9{fill:#565A62;}
	.st10{fill:url(#SVGID_2_);}
	.st11{fill:#FFC1E3;}
	.st12{fill:#FF4C4A;}
	.st13{fill:#00DD90;}
	.st14{fill:#C1C5D5;}
	.st15{fill:#FFB33D;}
	.st16{fill:#F1F2F6;}
	.st17{fill:#81D1EF;}
	.st18{fill:#B8E5F6;}
	.st19{fill:#F7393B;}
	.st20{fill:#CE7836;}
	.st21{fill:#FFE43D;}
	.st22{fill:#D9CCDB;}
	.st23{fill:#383838;}
	.st24{fill:#666666;}
	.st25{fill:#FF8E8C;}
	.st26{fill:#FECB4C;}
	.st27{fill:#7CD14F;}
	.st28{fill:#FFFFFF;}
	.st29{fill:#D5D8E7;}
	.st30{fill:#6DB6F3;}
	.st31{fill:#B3E7FC;}
	.st32{fill:#6EBA46;}
	.st33{fill:#FFE56F;}
	.st34{fill:#A184C2;}
	.st35{fill:#D2D6E1;}
	.st36{fill:#6D7A9D;}
</style>
<rect y="0" class="st0" width="120" height="120"/>
<g>
	<g>
		<path class="st1" d="M32.2,73.6c0,0-0.1,4.1,3.1,5.1c3.2,1,1.4-4.5,1.4-4.5L32.2,73.6z"/>
		<polygon class="st2" points="34.7,75.1 56,62.8 54.7,28.1 35.4,34.6 33,42.3 		"/>
		<g>
			<path class="st3" d="M72.3,86.4L65,82.2c-5-2.9-9-9.8-9-15.5V39.5l2.6,1.5v27.1c0,4.1,2.9,9.1,6.4,11.1l7.3,4.2
				c3.5,2,6.4,0.4,6.4-3.7v-9.7l2.6,1.5v9.7C81.4,86.9,77.3,89.2,72.3,86.4z"/>
			<path class="st4" d="M34.7,51.8L56,39.5l1.9,2.7l-0.2,26.6c0,0,0.9,5.6,4.1,9.5c3.2,3.9,13,6.5,13,6.5L55.4,98l-10.8-4.2
				l-6.3-6.2l-2.3-7L34.7,51.8z"/>
			<path class="st1" d="M34.7,51.8c0,0,1.2-8.6,11.7-15.7c10.1-6.8,17.7-3.7,17.7,1.2c0,4.9-14.8,11.7-14.8,11.7l-12,4.3L34.7,51.8z
				"/>
			<path class="st4" d="M37.3,53.2c0,0,1.2-8.6,11.7-15.7c10.1-6.8,17.7-3.7,17.7,1.2S51.9,50.4,51.9,50.4l-10.4,3.8L37.3,53.2z"/>
			<g>
				<path class="st1" d="M38.5,65.2c-0.7,0-1.4-0.1-2.1-0.4c-1.6-0.7-2.8-2.1-3.3-4c-0.9-3.6,0.9-7.9,4.1-9.7l17.5-10.1
					c1.7-1,3.6-1.2,5.2-0.5c1.6,0.7,2.8,2.1,3.3,4c0.9,3.6-0.9,7.9-4.1,9.7L41.6,64.3C40.6,64.9,39.5,65.2,38.5,65.2z M57.9,43.6
					c-0.4,0-0.9,0.1-1.4,0.4L39,54.1c-1.8,1.1-3,3.7-2.4,5.8c0.2,0.8,0.6,1.4,1.2,1.6c0.6,0.2,1.3,0.2,2.1-0.3l17.5-10.1
					c1.8-1.1,3-3.7,2.4-5.8c-0.2-0.8-0.6-1.4-1.2-1.6C58.4,43.6,58.1,43.6,57.9,43.6z"/>
			</g>
			<path class="st4" d="M37.3,59.3c0,0-0.2-7.8,1-9.4c1.3-1.7,13.6-8.8,13.6-8.8s5.7,0.4,4.8,5.1C55.8,50.9,37.3,59.3,37.3,59.3z"/>
			<path class="st3" d="M78.9,86.9L57.2,99.4l2.1-16.1l20.8-4.5C80.2,78.9,80.7,82.3,78.9,86.9z"/>
		</g>
		<g>
			<path class="st1" d="M51.1,98.7l-7.3-4.2c-5-2.9-9-9.8-9-15.5V51.8l2.6,1.5v27.1c0,4.1,2.9,9.1,6.4,11.1l7.3,4.2
				c3.5,2,6.4,0.4,6.4-3.7v-9.7l2.6,1.5v9.7C60.1,99.2,56,101.5,51.1,98.7z"/>
		</g>
		<g>
			<path class="st5" d="M51.6,89.1c0,0-1.3-1-1.3-15c0-14,0.2-16.5,3.9-19.3c3.7-2.8,0.6,12.9,0.6,12.9L51.6,89.1z"/>
			<path class="st5" d="M52,57c0,0,0.5-1.6,5.3-5.3c4.9-3.7,19-11.6,23-11.6C76,45.1,52,57,52,57z"/>
			<linearGradient id="SVGID_1_" gradientUnits="userSpaceOnUse" x1="52.3695" y1="90.6135" x2="81.4644" y2="40.2197">
				<stop  offset="0" style="stop-color:#BFC1D1"/>
				<stop  offset="4.075630e-02" style="stop-color:#A0A6C0"/>
				<stop  offset="0.4377" style="stop-color:#A0A6C0"/>
				<stop  offset="0.5274" style="stop-color:#CFCFDA"/>
				<stop  offset="0.5668" style="stop-color:#CFCFDA"/>
				<stop  offset="0.5983" style="stop-color:#C4C8D8"/>
				<stop  offset="0.9275" style="stop-color:#C4C8D8"/>
				<stop  offset="0.9644" style="stop-color:#BEC2D4"/>
				<stop  offset="1" style="stop-color:#B3B7CB"/>
			</linearGradient>
			<path class="st6" d="M86.8,43.6c0,0-4.4-3.3-6.4-3.4c0,0,0,0,0,0c-0.6,0-1.3,0.2-2,0.6L55.5,53.9c-2.4,1.4-4.3,4.7-4.3,7.4v26.2
				c0,0.9,0.2,1.6,0.6,2.2l0,0c0,0,1.3,2.2,6.4,3.8c0.5-0.5,2.3-3.5,4.8-7.8l15.3-8.8c2.4-1.4,4.3-4.7,4.3-7.4V51
				C85.1,46.5,86.8,43.6,86.8,43.6z"/>
			<g>
				<path class="st7" d="M53.3,77.7L53.3,77.7c-0.5-0.3-0.9-1.1-0.9-1.8v-8.5c0-0.7,0.4-1,0.9-0.7l0,0c0.5,0.3,0.9,1.1,0.9,1.8V77
					C54.2,77.7,53.8,78,53.3,77.7z"/>
				<path class="st5" d="M52.9,77.9L52.9,77.9c-0.5-0.3-0.9-1.1-0.9-1.8v-8.5c0-0.7,0.4-1,0.9-0.7l0,0c0.5,0.3,0.9,1.1,0.9,1.8v8.5
					C53.8,77.9,53.4,78.2,52.9,77.9z"/>
				<path class="st8" d="M53.8,81.9c0,0.2-0.1,0.3-0.3,0.2c-0.2-0.1-0.3-0.4-0.3-0.6c0-0.2,0.1-0.3,0.3-0.2
					C53.7,81.5,53.8,81.7,53.8,81.9z"/>
				<path class="st8" d="M53.8,83.3c0,0.2-0.1,0.3-0.3,0.2c-0.2-0.1-0.3-0.4-0.3-0.6c0-0.2,0.1-0.3,0.3-0.2
					C53.7,82.8,53.8,83.1,53.8,83.3z"/>
				<path class="st8" d="M53.8,84.6c0,0.2-0.1,0.3-0.3,0.2c-0.2-0.1-0.3-0.4-0.3-0.6c0-0.2,0.1-0.3,0.3-0.2
					C53.7,84.2,53.8,84.4,53.8,84.6z"/>
			</g>
			<g>
				<path class="st7" d="M60.7,56.9l22.8-13.2c2.4-1.4,4.3-0.3,4.3,2.4v26.2c0,2.7-1.9,6-4.3,7.4L60.7,92.9
					c-2.4,1.4-4.3,0.3-4.3-2.4V64.3C56.5,61.6,58.4,58.3,60.7,56.9z"/>
				<path class="st8" d="M60.9,58.3l22.5-13c1.7-1,3.2-0.2,3.2,1.8v25.9c0,2-1.4,4.5-3.2,5.5l-22.5,13c-1.7,1-3.2,0.2-3.2-1.8V63.8
					C57.7,61.8,59.1,59.3,60.9,58.3z"/>
				<path class="st8" d="M61.8,58.9l21.3-12.3c1.6-1,3-0.2,3,1.7v24.4c0,1.9-1.3,4.2-3,5.2L61.8,90.2c-1.6,1-3,0.2-3-1.7V64.1
					C58.8,62.2,60.2,59.9,61.8,58.9z"/>
				<path class="st9" d="M60.8,59.7l23.4-13.5c0.7-0.4,1.3-0.1,1.3,0.7c0,0.8-0.6,1.8-1.3,2.2L60.8,62.7c-0.7,0.4-1.3,0.1-1.3-0.7
					C59.5,61.1,60.1,60.1,60.8,59.7z"/>
			</g>
		</g>
		<linearGradient id="SVGID_2_" gradientUnits="userSpaceOnUse" x1="66.8012" y1="51.0078" x2="50.9879" y2="23.6183">
			<stop  offset="0.2732" style="stop-color:#8E8BF2"/>
			<stop  offset="0.3401" style="stop-color:#9899F4"/>
			<stop  offset="0.3568" style="stop-color:#9B9DF4"/>
			<stop  offset="0.4141" style="stop-color:#9A9CF4"/>
			<stop  offset="0.4717" style="stop-color:#9797F3"/>
			<stop  offset="0.5323" style="stop-color:#8E8BF2"/>
		</linearGradient>
		<path class="st10" d="M81.4,42.6c0-5.7-4-12.7-9-15.5l-9.9-5.7c-2.3-1.3-4.4-1.5-6-0.8h-0.1l-0.3,0.2c0,0-0.1,0-0.1,0L34.6,33.1
			l2.6,0.2l18.7,11.2l1,2.6l3.2,7.8L81.4,42.6L81.4,42.6L81.4,42.6L81.4,42.6z"/>
		<g>
			<g>
				<path class="st11" d="M75.9,74.7l1.7-1c0.4-0.2,0.7,0,0.7,0.4V76c0,0.4-0.3,0.9-0.7,1.2l-1.7,1c-0.4,0.2-0.7,0-0.7-0.4v-1.9
					C75.2,75.4,75.5,74.9,75.9,74.7z"/>
			</g>
			<path class="st12" d="M77.8,75c0-0.4-0.3-0.6-0.6-0.4c-0.2,0.1-0.3,0.3-0.5,0.5c-0.1-0.1-0.3-0.1-0.5,0c-0.4,0.2-0.6,0.7-0.6,1.1
				c0,0,0,0,0,0c0,0,0,0,0,0.1c0,0.6,1.1,0.9,1.1,0.9s1.1-1.5,1.1-2.1C77.8,75.1,77.8,75.1,77.8,75C77.8,75,77.8,75,77.8,75z"/>
		</g>
		<g>
			<path class="st1" d="M34.7,75.1l-2.6-1.5V38.7c0-5.7,4-8,9-5.1l9.9,5.7c5,2.9,9,9.8,9,15.5v0l-2.6-1.5v0c0-4.1-2.9-9.1-6.4-11.1
				l-9.9-5.7c-3.5-2-6.4-0.4-6.4,3.7V75.1z"/>
		</g>
		<g>
			<path class="st13" d="M83.4,65.1l-2.7,1.6c-0.6,0.3-1.1,0-1.1-0.8v-2.7c0-0.8,0.5-1.7,1.1-2.1l2.7-1.6c0.6-0.3,1.1,0,1.1,0.8V63
				C84.5,63.8,84,64.7,83.4,65.1z"/>
			<g>
				<g>
					<polygon class="st14" points="83.3,63.3 82.9,64 82.5,63.7 82.9,63.1 					"/>
					<path class="st15" d="M83.3,63.3L82.9,64l0.6,0.4c0.1,0.1,0.3,0,0.5-0.3l0,0c0.1-0.2,0.1-0.5,0-0.5L83.3,63.3z"/>
					<path class="st16" d="M82.8,61c0.6,0.3,0.6,1.4,0,2.4c-0.6,1-1.5,1.6-2.1,1.2c-0.6-0.3-0.6-1.4,0-2.4
						C81.3,61.2,82.2,60.7,82.8,61z"/>
					<path class="st17" d="M82.6,61.4c0.5,0.3,0.5,1.1,0,1.9c-0.5,0.8-1.2,1.2-1.7,1s-0.5-1.1,0-1.9C81.4,61.5,82.1,61.1,82.6,61.4z
						"/>
				</g>
				<path class="st18" d="M81.8,61.8c0.1,0.1-0.1,0.5-0.3,0.8c-0.2,0.3-0.5,0.4-0.6,0.3c-0.1-0.1,0.1-0.5,0.3-0.8
					C81.5,61.8,81.8,61.7,81.8,61.8z"/>
			</g>
		</g>
		<g>
			<path class="st17" d="M73.1,62.3l-2.6,1.5c-0.6,0.3-1.1,0-1.1-0.8v-2.6c0-0.8,0.5-1.7,1.1-2l2.6-1.5c0.6-0.3,1.1,0,1.1,0.8v2.6
				C74.2,61.1,73.7,62,73.1,62.3z"/>
			<polygon class="st19" points="73.1,57.4 71.5,60.4 72.1,60.4 			"/>
			<polygon class="st16" points="70.5,63.4 72.1,60.4 71.5,60.4 			"/>
			<path class="st16" d="M72.2,60c0.1,0.2-0.1,0.6-0.3,0.8c-0.2,0.2-0.5,0.2-0.5-0.1c-0.1-0.2,0.1-0.6,0.3-0.8
				C71.9,59.7,72.2,59.7,72.2,60z"/>
			<path class="st19" d="M72,60.2c0,0.1-0.1,0.3-0.2,0.4c-0.1,0.1-0.2,0.1-0.3,0c0-0.1,0.1-0.3,0.2-0.4C71.9,60,72,60,72,60.2z"/>
		</g>
		<g>
			<path class="st20" d="M67.5,79.7L65,81.2c-0.5,0.3-1,0-1-0.8v-2.5c0-0.7,0.4-1.6,1-1.9l2.5-1.4c0.5-0.3,1,0,1,0.8v2.5
				C68.5,78.6,68.1,79.4,67.5,79.7z"/>
			<path class="st21" d="M67.3,75.4l0.1,0.2c0,0,0,0,0.1,0l0.3-0.1c0.1,0,0.1,0.1,0.1,0.2L67.7,76c0,0,0,0.1,0,0.1l0,0.3
				c0,0.1-0.1,0.2-0.1,0.2l-0.2,0c0,0-0.1,0-0.1,0.1L67,77c-0.1,0.1-0.2,0.1-0.1,0l0-0.3c0,0,0-0.1,0-0.1l-0.2-0.1
				c-0.1,0,0-0.2,0.1-0.2L67,76c0,0,0.1-0.1,0.1-0.1l0.1-0.4C67.2,75.4,67.3,75.3,67.3,75.4z"/>
			<path class="st21" d="M66,77.2l0.2,0.4c0,0,0.1,0.1,0.1,0l0.5-0.2c0.1-0.1,0.2,0.1,0.1,0.3l-0.4,0.6c0,0.1-0.1,0.2-0.1,0.2
				l0.1,0.5c0,0.2-0.1,0.4-0.3,0.4l-0.4,0c-0.1,0-0.1,0-0.2,0.1l-0.4,0.5c-0.1,0.2-0.3,0.1-0.3-0.1l0.1-0.6c0-0.1,0-0.1-0.1-0.2
				L64.7,79c-0.1-0.1,0-0.3,0.1-0.4l0.5-0.4c0.1,0,0.1-0.1,0.1-0.2l0.2-0.6C65.8,77.2,66,77.1,66,77.2z"/>
		</g>
		<g>
			<path class="st16" d="M61.8,81.4l-1.7,1c-0.4,0.2-0.7,0-0.7-0.5v-1.7c0-0.5,0.3-1.1,0.7-1.3l1.7-1c0.4-0.2,0.7,0,0.7,0.5v1.7
				C62.5,80.6,62.2,81.2,61.8,81.4z"/>
			<path class="st19" d="M62.2,79.4c0,0.8-0.5,1.7-1.2,2.1c-0.7,0.4-1.2,0.1-1.2-0.7c0-0.8,0.5-1.7,1.2-2.1
				C61.7,78.4,62.2,78.7,62.2,79.4z"/>
			<g>
				<polygon class="st16" points="61.6,78.8 60.1,80.9 60.7,80.8 60.9,80.7 60.9,80.8 61.5,80.8 				"/>
				<polygon class="st5" points="61.3,79.6 60.7,80.8 60.8,81.2 60.9,80.8 60.9,80.8 				"/>
			</g>
		</g>
		<g>
			<path class="st19" d="M84.1,70.4L82,71.7c-0.5,0.3-0.9,0-0.9-0.6v-2.1c0-0.6,0.4-1.4,0.9-1.6l2.1-1.2c0.5-0.3,0.9,0,0.9,0.6v2.1
				C85,69.4,84.6,70.2,84.1,70.4z"/>
			<g>
				<polygon class="st16" points="84,66.8 82.5,68 82.5,70.1 82.7,70 82.7,68.5 83.9,67.5 83.9,69.2 84,69.1 				"/>
				<path class="st16" d="M82.7,69.9c0.1,0.1,0,0.5-0.2,0.7c-0.2,0.2-0.4,0.3-0.5,0.2c-0.1-0.1,0-0.5,0.2-0.7
					C82.3,69.8,82.6,69.7,82.7,69.9z"/>
				<path class="st16" d="M84,68.9c0.1,0.1,0,0.5-0.2,0.7c-0.2,0.2-0.4,0.3-0.5,0.2c-0.1-0.1,0-0.5,0.2-0.7
					C83.7,68.9,83.9,68.8,84,68.9z"/>
			</g>
		</g>
		<g>
			<path class="st19" d="M76.4,72.1l-4.6,2.6c-1,0.6-1.8,0-1.8-1.4v-4.5c0-1.3,0.8-2.9,1.8-3.5l4.6-2.6c1-0.6,1.8,0,1.8,1.4v4.5
				C78.2,70,77.4,71.6,76.4,72.1z"/>
			<path class="st16" d="M77.4,66.8c0,2.1-1.5,4.7-3.4,5.8c-1.9,1.1-3.4,0.2-3.4-1.9c0-2.1,1.5-4.7,3.4-5.8
				C75.9,63.8,77.4,64.7,77.4,66.8z"/>
			<path class="st22" d="M74.8,68.1c0.1,0.4-0.2,1-0.6,1.4c-0.4,0.3-0.8,0.3-0.9-0.1c-0.1-0.4,0.2-1,0.6-1.4
				C74.3,67.6,74.7,67.7,74.8,68.1z"/>
			<polygon class="st19" points="74.1,68.7 74,68.8 72.7,66.3 72.8,66.2 			"/>
			<polygon class="st23" points="74,68.7 74.2,68.8 71.9,72.7 71.7,72.6 			"/>
			<polygon class="st23" points="74.1,68.8 74,68.7 76.6,65.8 76.7,66 			"/>
			<path class="st24" d="M74.4,68.4c0,0.2-0.1,0.5-0.3,0.7c-0.2,0.2-0.4,0.1-0.5-0.1c0-0.2,0.1-0.5,0.3-0.7
				C74.2,68.2,74.4,68.2,74.4,68.4z"/>
		</g>
		<g>
			<path class="st16" d="M64.6,86.6l-2,1.2c-0.4,0.3-0.8,0-0.8-0.6v-2c0-0.6,0.4-1.3,0.8-1.5l2-1.2c0.4-0.3,0.8,0,0.8,0.6v2
				C65.4,85.7,65,86.3,64.6,86.6z"/>
			<path class="st25" d="M62.2,84.7v0.8c0,0.3,0.3,0.3,0.5,0l0.7-1.2c0.2-0.3,0.1-0.6-0.2-0.4l-0.7,0.4
				C62.4,84.3,62.2,84.5,62.2,84.7z"/>
			<path class="st25" d="M64.9,85.6v-0.8c0-0.3-0.3-0.3-0.5,0L63.7,86c-0.2,0.3-0.1,0.6,0.2,0.4l0.7-0.4
				C64.8,86,64.9,85.7,64.9,85.6z"/>
			<path class="st25" d="M62.2,84.7v0.8c0,0.3,0.3,0.3,0.5,0l0.7-1.2c0.2-0.3,0.1-0.6-0.2-0.4l-0.7,0.4
				C62.4,84.3,62.2,84.5,62.2,84.7z"/>
			<path class="st25" d="M64.9,85.6v-0.8c0-0.3-0.3-0.3-0.5,0L63.7,86c-0.2,0.3-0.1,0.6,0.2,0.4l0.7-0.4
				C64.8,86,64.9,85.7,64.9,85.6z"/>
			<path class="st26" d="M62.5,87.3l0.7-0.4c0.2-0.1,0.4-0.6,0.2-0.7l-0.7-0.4c-0.2-0.1-0.5,0.2-0.5,0.5v0.8
				C62.2,87.3,62.4,87.4,62.5,87.3z"/>
			<path class="st26" d="M64.6,83l-0.7,0.4c-0.2,0.1-0.4,0.6-0.2,0.7l0.7,0.4c0.2,0.1,0.5-0.2,0.5-0.5v-0.8
				C64.9,83,64.8,82.9,64.6,83z"/>
		</g>
		<g>
			<path class="st17" d="M67.7,67.7v3.5c0,0.8-0.6,1.7-1.2,2.1l-3.1,1.8c-0.7,0.4-1.2,0.1-1.2-0.7v-3.5c0-0.8,0.6-1.7,1.2-2.1
				l3.1-1.8c0.6-0.3,1-0.2,1.2,0.3C67.7,67.4,67.7,67.5,67.7,67.7C67.7,67.6,67.7,67.7,67.7,67.7z"/>
			<path class="st16" d="M65.8,71.9L65,74.2l-1.6,0.9c-0.7,0.4-1.2,0.1-1.2-0.7v-0.5L65.8,71.9z"/>
			<path class="st27" d="M65.7,68.9l-0.1,3l-3.4,2v-3c0-0.8,0.6-1.7,1.2-2.1l3.1-1.8c0.6-0.3,1-0.2,1.2,0.3
				C67.7,67.4,65.7,68.8,65.7,68.9z"/>
			<path class="st27" d="M67.7,67.7v1.9l-2,1.1v-3.3l0.7-0.4c0.6-0.3,1-0.2,1.2,0.3C67.7,67.4,67.7,67.5,67.7,67.7
				C67.7,67.6,67.7,67.7,67.7,67.7z"/>
			<polygon class="st15" points="62.2,73.6 65.7,71.6 65.7,72.4 62.2,74.4 			"/>
			<g>
				<path class="st12" d="M63.6,68.8c-0.6,0.4-1.1,1.2-1.1,1.9c0,1,1.1,2,1.1,2s1.1-2.4,1.1-3.3C64.7,68.8,64.2,68.5,63.6,68.8z"/>
				<path class="st28" d="M64.2,69.8c0,0.4-0.3,0.9-0.6,1.1c-0.4,0.2-0.6,0-0.6-0.4c0-0.4,0.3-0.9,0.6-1.1
					C63.9,69.2,64.2,69.3,64.2,69.8z"/>
			</g>
			<polygon class="st21" points="65.8,67.3 65,67.8 65,74.2 65.8,73.7 			"/>
		</g>
		<g>
			<path class="st29" d="M62.8,65.9L61,67c-0.4,0.2-0.8,0-0.8-0.6v-1.9c0-0.6,0.3-1.2,0.8-1.4l1.9-1.1c0.4-0.2,0.8,0,0.8,0.6v1.9
				C63.6,65,63.2,65.7,62.8,65.9z"/>
			<g>
				<g>
					<g>
						<path class="st30" d="M63.5,63.6c0,1-0.7,2.2-1.6,2.7s-1.6,0.1-1.6-0.9c0-1,0.7-2.2,1.6-2.7S63.5,62.6,63.5,63.6z"/>
						<path class="st17" d="M63.4,63.7c0,0.9-0.7,2.1-1.5,2.5c-0.8,0.5-1.5,0.1-1.5-0.8c0-0.9,0.7-2.1,1.5-2.5
							C62.7,62.4,63.4,62.7,63.4,63.7z"/>
						
							<ellipse transform="matrix(0.5047 -0.8633 0.8633 0.5047 -25.0492 85.3889)" class="st31" cx="61.9" cy="64.5" rx="1.9" ry="1.1"/>
					</g>
				</g>
			</g>
			<path class="st27" d="M62.7,63.8c0,0,0.1,0.1,0.1,0.3c0.1,0.2,0.1,0.3,0.2,0.1c0.1-0.1,0.1-0.1,0.1-0.2c0-0.1,0-0.2,0-0.3
				c0,0-0.1,0.1-0.1,0c0-0.1,0-0.1,0.1-0.2c0,0,0,0,0,0c0-0.5-0.3-0.7-0.6-0.8c0,0,0,0,0,0c0,0,0,0-0.1,0.1c-0.1,0.1-0.1,0-0.1,0
				s0-0.2,0-0.1c-0.1,0.1,0,0.2,0,0.2S62,63.3,62,63.3c0,0,0,0.2,0,0.2c0,0-0.1-0.1-0.2,0.1c0,0.2-0.1,0.2,0,0.3c0.1,0,0.1,0,0.1,0
				s0,0.2-0.2,0.4c-0.2,0.2-0.2,0.5-0.2,0.7c0,0.1,0.1,0.3,0.2,0.2c0.2-0.1,0.3-0.2,0.3,0.1c0,0.3,0.1,0.3,0,0.5
				c-0.1,0.2-0.1,0.3,0,0.3c0.2-0.2,0.4-0.4,0.6-0.6c0,0,0,0,0,0c0.1-0.2,0.1-0.3,0.2-0.5c0.1-0.1,0.2-0.5,0.2-0.5
				c0,0-0.1,0.1-0.2,0.1c-0.1,0,0,0-0.1-0.2c-0.1-0.2-0.2-0.2-0.2-0.4C62.5,63.8,62.6,63.8,62.7,63.8c0-0.1-0.1-0.2-0.2-0.1
				c-0.1,0.1-0.1,0.1-0.2,0c-0.1-0.1,0.2-0.3,0.3-0.2s0.3,0,0.3,0s0,0,0,0.2C62.7,63.8,62.7,63.8,62.7,63.8z"/>
			<g>
				<path class="st32" d="M60.6,64.9C60.6,64.9,60.6,64.9,60.6,64.9c0,0.1,0.1,0,0.1,0s0,0.4,0,0.3c0.1-0.1,0.1-0.2,0.1-0.3
					c0-0.1-0.1-0.1,0-0.3c0.1-0.2,0.2-0.3,0.2-0.3l0.1-0.2l0.1,0c0,0-0.1,0.2-0.1,0.2c0,0,0.2-0.3,0.2-0.3s0.1-0.2,0.1-0.2
					c-0.1,0-0.1,0.1-0.2,0.2c-0.1,0.1,0-0.1,0-0.1l0.2-0.1c0,0,0.1-0.1,0.1-0.2c0-0.1-0.1-0.1-0.1-0.1l0-0.1
					C61,63.8,60.7,64.4,60.6,64.9z"/>
				<path class="st32" d="M61.3,66.1c0,0,0.1-0.1,0-0.2c0-0.1-0.1-0.2-0.1-0.2c0,0-0.1,0-0.1,0c0,0,0-0.1,0-0.1c0-0.1,0-0.1,0-0.1
					s0.1-0.2,0-0.2c-0.1,0-0.2-0.1-0.2-0.1s-0.1,0-0.2,0.2c-0.1,0.1-0.1,0.3-0.1,0.3c-0.1,0,0,0.1,0,0.1s0,0.1,0,0.1c0,0,0,0,0,0
					c0.1,0.3,0.4,0.5,0.7,0.5C61.4,66.1,61.3,66.1,61.3,66.1z"/>
			</g>
		</g>
		<g>
			<path class="st27" d="M82.9,76.8L80.8,78c-0.5,0.3-0.8,0-0.8-0.6v-2c0-0.6,0.4-1.3,0.8-1.6l2.1-1.2c0.5-0.3,0.8,0,0.8,0.6v2
				C83.7,75.8,83.3,76.5,82.9,76.8z"/>
			<path class="st16" d="M83.3,73.6v1.5c0,0.3-0.2,0.6-0.5,0.8l-1.2,0.7l-0.7,1.1l0.2-0.7l0-0.1l0.2-0.7L80.9,77l0,0
				c-0.2,0.1-0.5,0-0.5-0.3v-1.5c0-0.3,0.2-0.6,0.5-0.8l2-1.1C83.1,73.2,83.3,73.3,83.3,73.6z"/>
		</g>
		<g>
			<path class="st20" d="M65.3,62.7l1.8-1c0.4-0.2,0.7,0,0.7,0.4v2c0,0.4-0.3,1-0.7,1.2l-1.8,1c-0.4,0.2-0.7,0-0.7-0.4v-2
				C64.6,63.4,64.9,62.9,65.3,62.7z"/>
			<path class="st33" d="M65.4,62.6l1.6-0.9c0.4-0.2,0.7,0,0.7,0.4v2c0,0.4-0.3,1-0.7,1.2l-1.6,0.9V62.6z"/>
			<polygon class="st12" points="66.1,62.2 66.1,63.4 66.4,63 66.7,63 66.7,61.8 			"/>
		</g>
		<g>
			<path class="st16" d="M81.7,58.6l-3,1.7c-0.7,0.4-1.2,0-1.2-0.9v-3c0-0.9,0.5-1.9,1.2-2.3l3-1.7c0.7-0.4,1.2,0,1.2,0.9v3
				C82.9,57.1,82.4,58.2,81.7,58.6z"/>
			<path class="st17" d="M82.6,53.3v1.4c0,0.6-0.4,1.4-1,1.7L81,56.7v-0.1c0-0.6-0.4-0.9-1-0.6l-1.1,0.6v-1.2c0-0.6,0.4-1.4,1-1.7
				l1.7-1C82.1,52.4,82.6,52.7,82.6,53.3z"/>
			<g>
				<path class="st28" d="M79.9,54.7l0.4-0.3v1.6L80,56.2v0.2l-0.1,0.1V54.7z M80.2,54.7L80,54.8v1.3l0.2-0.1V54.7z M80.4,54.8
					c0.1,0,0.2,0.1,0.3,0.1c0,0.1-0.1,0.2-0.1,0.2c-0.1,0-0.2-0.1-0.3-0.1L80.4,54.8z M80.6,55.4c0,0,0.1,0,0.2,0
					c-0.1,0.3-0.1,0.7-0.2,1l-0.2,0C80.4,56.1,80.5,55.7,80.6,55.4z M80.5,54.1c0.1,0,0.2,0.1,0.3,0.1c0,0.1-0.1,0.1-0.1,0.2
					c-0.1,0-0.2-0.1-0.3-0.1L80.5,54.1z M80.7,55.1l0.2-0.1l0-0.6c0,0.1-0.1,0.2-0.1,0.2c0,0-0.1-0.1-0.1-0.1
					c0.1-0.3,0.3-0.5,0.3-0.8l0.2-0.1c0,0.1-0.1,0.2-0.1,0.3l0.7-0.4v0.1L81,54.2c0,0.1-0.1,0.2-0.1,0.3l0.8-0.5c0,0.2,0,0.4,0,0.6
					l0.2-0.1v0.2l-0.2,0.1c0,0.2,0,0.3,0,0.5l0.2-0.1v0.2l-0.2,0.1c0,0.2-0.1,0.4-0.3,0.5c-0.1,0.1-0.2,0.1-0.3,0.2
					c0-0.1,0-0.1,0-0.2c0.1,0,0.2-0.1,0.3-0.1c0.1-0.1,0.1-0.1,0.1-0.3l-0.7,0.4v-0.1l0-0.5l-0.2,0.1V55.1z M81.5,54.8L81,55.1
					l0,0.5l0.5-0.3C81.5,55.1,81.5,55,81.5,54.8z M81,54.5l0,0.5l0.5-0.3c0-0.1,0-0.3,0-0.4L81,54.5z M81.1,55.2l0.1-0.1
					c0.1,0.1,0.1,0.1,0.2,0.2l-0.1,0.2C81.2,55.3,81.2,55.2,81.1,55.2z M81.1,54.5l0.1-0.1c0.1,0.1,0.1,0.1,0.1,0.2l-0.1,0.2
					C81.2,54.7,81.2,54.6,81.1,54.5z"/>
			</g>
			<path class="st34" d="M81,56.6v0.1l-1.1,0.6c-0.5,0.3-1,0.1-1-0.6v-0.1L80,56C80.6,55.7,81,56,81,56.6z"/>
			<path class="st12" d="M81,56.7v0.7c0,0.6-0.4,1.4-1,1.7l-1.1,0.6c-0.5,0.3-1,0.1-1-0.6v-0.8c0-0.6,0.4-1.4,1-1.7l0,0v0.1
				c0,0.6,0.4,0.9,1,0.6L81,56.7z"/>
			<g>
				<path class="st28" d="M78.4,59.1l0.3-1l0.1,0l0.3,0.6l-0.2,0.1l0-0.1l-0.3,0.2l0,0.1L78.4,59.1z M78.7,58.6l0.1-0.1l-0.1-0.1
					L78.7,58.6z"/>
				<path class="st28" d="M79.2,58.6v-0.8l0.3-0.2c0.1-0.1,0.2,0,0.2,0.1c0,0.1,0,0.1,0,0.2c0,0,0.1,0.1,0.1,0.1
					c0,0.1-0.1,0.3-0.2,0.4L79.2,58.6z M79.5,58c0,0,0.1-0.1,0.1-0.1s0-0.1-0.1,0V58L79.5,58L79.5,58z M79.5,58.3
					c0,0,0.1-0.1,0.1-0.1c0,0,0-0.1-0.1,0l-0.1,0.1v0.1L79.5,58.3z"/>
				<path class="st28" d="M80.3,57.4c0,0-0.1,0-0.1,0c-0.1,0.1-0.2,0.2-0.2,0.3c0,0.1,0.1,0.2,0.2,0.1c0,0,0.1-0.1,0.1-0.1l0.1,0.1
					c-0.1,0.1-0.2,0.2-0.3,0.3c-0.2,0.1-0.4,0-0.4-0.2c0-0.2,0.2-0.5,0.4-0.6c0.1-0.1,0.2-0.1,0.3,0L80.3,57.4z"/>
			</g>
		</g>
		<g>
			<path class="st35" d="M72.9,82.3L70,84c-0.6,0.4-1.2,0-1.2-0.9v-2.9c0-0.8,0.5-1.8,1.2-2.2l2.9-1.7c0.6-0.4,1.2,0,1.2,0.9v2.9
				C74.1,80.9,73.6,81.9,72.9,82.3z"/>
			<path class="st36" d="M71.9,80.7c-0.1,0-0.1-0.1,0-0.2l0.2-0.5l-0.2-0.2l-0.4,0.4c-0.1,0.1-0.1,0.1-0.2,0l-0.1-0.3l-0.4,0.2
				l-0.1,0.5c0,0.1-0.1,0.2-0.2,0.2l-0.4,0.1l-0.2,0.5l0.2,0.3c0,0,0,0.1,0,0.2l-0.3,0.4l0.1,0.4l0.4-0.2c0.1,0,0.1,0,0.1,0.1l0,0.5
				l0.4,0l0.3-0.5c0.1-0.1,0.1-0.1,0.2-0.1l0.3,0.1l0.4-0.4l0-0.4c0-0.1,0-0.2,0.1-0.2l0.4-0.3l0.1-0.5L71.9,80.7z"/>
			<path class="st36" d="M73,77.7l0.1-0.4l-0.3-0.1l-0.3,0.3c-0.1,0.1-0.2,0.1-0.3,0.1l-0.2-0.1l-0.4,0.3l0,0.3
				c0,0.1-0.1,0.3-0.2,0.4l-0.3,0.2l-0.1,0.5l0.2,0.1c0.1,0,0.1,0.1,0.1,0.3l-0.1,0.4l0.3,0.1l0.3-0.3c0.1-0.1,0.2-0.1,0.3-0.1
				l0.2,0.1l0.4-0.3l0-0.3c0-0.1,0.1-0.3,0.2-0.4l0.3-0.2l0.1-0.5L73.1,78C73,77.9,72.9,77.8,73,77.7z"/>
			<path class="st35" d="M71.5,81.1c0,0.3-0.2,0.7-0.5,0.9c-0.3,0.2-0.5,0-0.5-0.3s0.2-0.7,0.5-0.9C71.3,80.7,71.5,80.8,71.5,81.1z"
				/>
			<path class="st35" d="M72.6,78.3c0,0.3-0.2,0.6-0.4,0.7c-0.2,0.1-0.4,0-0.4-0.2s0.2-0.6,0.4-0.7C72.4,78,72.6,78.1,72.6,78.3z"/>
		</g>
	</g>
</g>
</svg>
