<?xml version="1.0" encoding="utf-8"?>
<!-- Generator: Adobe Illustrator 22.0.0, SVG Export Plug-In . SVG Version: 6.00 Build 0)  -->
<svg version="1.1" id="Warstwa_1" xmlns="http://www.w3.org/2000/svg" xmlns:xlink="http://www.w3.org/1999/xlink" x="0px" y="0px"
	 viewBox="0 0 120 120" style="enable-background:new 0 0 120 120;" xml:space="preserve">
<style type="text/css">
	.st0{fill:none;}
	.st1{fill:#5954EC;}
	.st2{fill:#736FEF;}
	.st3{fill:#5F5AC2;}
	.st4{fill:#5550AD;}
	.st5{fill:#C4C8D8;}
	.st6{fill:#EFF0F5;}
	.st7{fill:#7C78F0;}
	.st8{fill:#989AF4;}
	.st9{fill:#FFFFFF;}
	.st10{fill:#7CD14F;}
	.st11{fill:#C1C5D5;}
	.st12{fill:#FFB33D;}
	.st13{fill:#F1F2F6;}
	.st14{fill:#81D1EF;}
	.st15{fill:#B8E5F6;}
	.st16{fill:#F7393B;}
	.st17{fill:#D9CCDB;}
	.st18{fill:#383838;}
	.st19{fill:#666666;}
	.st20{fill:#CE7836;}
	.st21{fill:#FF8E8C;}
	.st22{fill:#FECB4C;}
	.st23{fill:#FF4C4A;}
	.st24{fill:#FFE43D;}
	.st25{fill:#D5D8E7;}
	.st26{fill:#6DB6F3;}
	.st27{fill:#B3E7FC;}
	.st28{fill:#6EBA46;}
	.st29{fill:#FFE56F;}
	.st30{fill:#D2D6E1;}
	.st31{fill:#586891;}
	.st32{fill:#746EEE;}
	.st33{fill:#455492;}
	.st34{fill:#313C6D;}
	.st35{fill:#8B96B3;}
	.st36{fill:#FFE568;}
	.st37{fill:#FFEC8B;}
	.st38{fill:#A184C2;}
	.st39{fill:#6D7A9D;}
	.st40{fill:#3A3F47;}
	.st41{fill:#827EF7;}
</style>
<rect y="0" class="st0" width="120" height="120"/>
<g>
	<g>
		<g>
			<path class="st1" d="M7.4,73.9l42.7-24.7c1.7-1,4.3-1.1,5.8-0.2l56.4,32.6c1.5,0.9,1.3,2.4-0.4,3.4l-42.7,24.7
				c-1.7,1-4.3,1.1-5.8,0.2l-54-31.2C7.9,77.8,5.7,74.9,7.4,73.9z"/>
			<path class="st2" d="M8.2,73.4l41.9-25.4c1.7-1,4.3-1.1,5.8-0.2l56.4,32.6c1.5,0.9,1.3,2.4-0.4,3.4l-42.7,24.7
				c-1.7,1-4.3,1.1-5.8,0.2L7.8,76.8C6.3,75.9,6.5,74.4,8.2,73.4z"/>
			<path class="st3" d="M83.2,63.5L56,47.8c-1.5-0.9-4.1-0.8-5.8,0.2L8.2,73.4c-1.7,1-1.9,2.5-0.4,3.4L35,92.4
				c1.3,0.2,2.2,0.2,2.5,0c0.6-0.3,41.5-24.1,44.4-25.7c2.9-1.6,0.2-2.2,0.2-2.2S82.5,64.1,83.2,63.5z"/>
			<path class="st4" d="M7.2,75.1l46.6-26.9l19.2-24.6c0.4-0.5-0.2-1.1-0.7-0.8L26.9,49.1l-20,25.6C6.7,74.9,7,75.3,7.2,75.1z"/>
			<g>
				<path class="st1" d="M46.2,99.9L8.3,78.1c-0.9-0.5-1.5-1.4-1.7-2.4c-0.2-1,0.1-2,0.7-2.8l17.8-22.9l0.8,0.6L8.1,73.5
					c-0.4,0.6-0.6,1.3-0.5,2c0.1,0.7,0.6,1.3,1.2,1.7L46.7,99L46.2,99.9z"/>
			</g>
			<g>
				<path class="st5" d="M65.5,10L23.2,34.4c-1.7,1-2.6,3.5-2.1,5.6l12.2,49.1c0.5,2.1,2.3,3.1,4,2.1l42.3-24.4
					c1.7-1,2.6-3.5,2.1-5.6L69.5,12.1C68.9,10,67.1,9,65.5,10L65.5,10z"/>
				<polygon class="st5" points="67.1,9.6 68.6,9.7 37.5,91.6 35.8,91.6 33.7,89.3 				"/>
				<path class="st6" d="M67,10L24.7,34.5c-1.7,1-2.6,3.5-2.1,5.6l12.2,49.1c0.5,2.1,2.3,3.1,4,2.1l42.3-24.4c1.7-1,2.6-3.5,2.1-5.6
					L71,12.2C70.4,10,68.6,9.1,67,10L67,10z"/>
				<path class="st7" d="M67.1,11.1l-17,9.8l-1.1,1.6c-0.6,1-1.4,1.7-2.3,2.2l-0.6,0.3c-0.9,0.5-1.8,0.7-2.7,0.6L42,25.6l-17,9.8
					c-1.3,0.8-2,2.7-1.6,4.4l12.1,48.8c0.4,1.7,1.8,2.4,3.1,1.6l42.1-24.3c1.3-0.8,2-2.7,1.6-4.4L70.2,12.8
					C69.8,11.1,68.4,10.4,67.1,11.1L67.1,11.1z"/>
				<path class="st8" d="M71.3,66.9c-0.2,0.1-0.3,0.3-0.4,0.5c-0.1,0.4,0,0.9,0.3,1.1c0.2,0.1,0.3,0,0.5,0c0.2-0.1,0.3-0.3,0.4-0.5
					c0.1-0.4,0-0.9-0.3-1.1C71.6,66.8,71.5,66.8,71.3,66.9L71.3,66.9z M45.5,83.9l-0.1-0.3l2.3-1.3l0.1,0.3L45.5,83.9L45.5,83.9z
					 M45.3,83.2l-0.1-0.3l2.3-1.3l0.1,0.3L45.3,83.2L45.3,83.2z M45.1,82.4L45,82.2l2.3-1.3l0.1,0.3L45.1,82.4L45.1,82.4z
					 M71.8,68.7c-0.2,0.1-0.4,0.1-0.6,0c-0.4-0.2-0.6-0.8-0.4-1.4c0.1-0.3,0.3-0.5,0.5-0.7c0.2-0.1,0.4-0.1,0.6,0
					c0.4,0.2,0.6,0.7,0.4,1.3l0.6,0.3l-0.1,0.2l-0.6-0.3C72.1,68.4,72,68.6,71.8,68.7L71.8,68.7z M55,77.3l-0.3-1.1l0.2-0.1l0.3,1.1
					l0.8-0.5l0.1,0.3l-0.8,0.5l0.3,1.1l-0.2,0.1l-0.3-1.1L54.2,78l-0.1-0.3L55,77.3L55,77.3z M64.1,73.7L62.7,73l0.7-2l0.1,0.1
					l-0.6,1.8l1.2,0.7L64.1,73.7L64.1,73.7z M79.4,60.6L37.4,84.9c-1,0.6-1.6,2.1-1.3,3.4c0.3,1.3,1.4,1.9,2.4,1.3l42.1-24.3
					c1-0.6,1.6-2.1,1.3-3.4C81.5,60.6,80.4,60,79.4,60.6L79.4,60.6z"/>
				<path class="st9" d="M55.3,77.4l-0.2,0.1l0.3,1.1l0.2-0.1L55.3,77.4L55.3,77.4z M54.9,76l-0.2,0.1l0.3,1.1l0.2-0.1L54.9,76
					L54.9,76z"/>
				<polygon class="st9" points="56,76.6 55.2,77.1 55,77.3 54.1,77.7 54.2,78 55.1,77.5 55.3,77.4 56.1,76.9 56,76.6 				"/>
				<polygon class="st9" points="47.3,80.9 45,82.2 45.1,82.4 47.4,81.1 47.3,80.9 				"/>
				<polygon class="st9" points="47.5,81.6 45.2,82.9 45.3,83.2 47.6,81.8 47.5,81.6 				"/>
				<polygon class="st9" points="47.7,82.3 45.4,83.6 45.5,83.9 47.7,82.6 47.7,82.3 				"/>
				<polygon class="st9" points="63.4,71 62.7,73 64.1,73.7 64.1,73.5 62.9,72.8 63.5,71.1 63.4,71 				"/>
				<path class="st9" d="M71.7,68.5c-0.1,0.1-0.3,0.1-0.5,0c-0.3-0.1-0.5-0.6-0.3-1.1c0.1-0.2,0.2-0.4,0.4-0.5
					c0.1-0.1,0.3-0.1,0.5,0c0.3,0.1,0.5,0.6,0.3,1.1C72,68.2,71.9,68.4,71.7,68.5L71.7,68.5z M71.3,66.7c-0.2,0.1-0.4,0.4-0.5,0.7
					c-0.2,0.6,0,1.2,0.4,1.4c0.2,0.1,0.4,0.1,0.6,0c0.2-0.1,0.4-0.3,0.5-0.6L72.1,68l0.1-0.2l0.1,0.1c0.1-0.5-0.1-1.1-0.4-1.3
					C71.7,66.6,71.5,66.6,71.3,66.7L71.3,66.7z"/>
				<polygon class="st9" points="72.2,67.8 72.1,68 72.2,68.1 72.9,68.4 73,68.2 72.3,67.9 72.2,67.8 				"/>
				<path class="st10" d="M34,56.8c-0.4,0.2-0.8,0.3-1.2,0.1c-0.8-0.4-1.1-1.7-0.7-2.8c0.2-0.6,0.6-1,1-1.2c0.4-0.2,0.8-0.3,1.2-0.1
					c0.7,0.4,1,1.4,0.8,2.4c0.2,0.1,0.3,0.1,0.5,0.2c0.3,0.2,0.5,0.2,0.9,0.4c0.2,0.1,0.2,0.4,0.2,0.6c0,0.1-0.1,0.2-0.2,0.3
					c-0.1,0.1-0.2,0.1-0.3,0c-0.3-0.2-0.5-0.3-0.8-0.5c-0.2-0.1-0.3-0.2-0.5-0.3C34.6,56.3,34.3,56.6,34,56.8L34,56.8z M34.6,51
					c-0.9,0.5-1.9,1.1-2.8,1.6c-0.6,0.4-1,1.3-0.8,2.1c0.3,1.2,0.6,2.4,0.9,3.6c0.2,0.8,0.9,1.1,1.5,0.8c0.9-0.5,1.9-1.1,2.8-1.6
					c0.6-0.4,1-1.3,0.8-2.1c-0.3-1.2-0.6-2.4-0.9-3.6C35.9,51,35.2,50.7,34.6,51L34.6,51z"/>
				<path class="st11" d="M35.1,55.2c0,0.1-0.1,0.3-0.1,0.4c0,0.1-0.1,0.2-0.2,0.4c0.2,0.1,0.3,0.2,0.5,0.3c0.1-0.3,0.2-0.5,0.3-0.8
					C35.4,55.3,35.3,55.3,35.1,55.2L35.1,55.2z"/>
				<path class="st12" d="M35.6,55.4c-0.1,0.3-0.2,0.5-0.3,0.8c0.3,0.2,0.5,0.3,0.8,0.5c0.1,0,0.2,0,0.3,0c0.1,0,0.2-0.1,0.2-0.3
					c0.1-0.2,0-0.5-0.2-0.6C36.1,55.7,35.9,55.6,35.6,55.4L35.6,55.4z"/>
				<path class="st13" d="M33.9,56.4c-0.3,0.2-0.7,0.2-1,0c-0.6-0.3-0.9-1.3-0.6-2.3c0.2-0.5,0.4-0.8,0.8-1c0.3-0.2,0.7-0.2,1,0
					c0.6,0.3,0.9,1.3,0.6,2.3C34.5,55.9,34.2,56.2,33.9,56.4L33.9,56.4z M33,52.8c-0.4,0.2-0.7,0.7-1,1.2c-0.4,1.1-0.1,2.4,0.7,2.8
					c0.4,0.2,0.8,0.2,1.2-0.1c0.3-0.2,0.6-0.5,0.8-0.9c0.1-0.1,0.1-0.2,0.2-0.4c0-0.1,0.1-0.2,0.1-0.4c0.2-1-0.1-2.1-0.8-2.4
					C33.9,52.5,33.4,52.6,33,52.8L33,52.8z"/>
				<path class="st14" d="M32.9,54.8c-0.1,0.1-0.3,0.1-0.4,0c-0.1-0.2-0.1-0.6,0.1-0.9c0.1-0.1,0.2-0.2,0.3-0.3
					c0.1-0.1,0.3-0.1,0.4,0c0.1,0.2,0.1,0.6-0.1,0.9C33.1,54.6,33,54.7,32.9,54.8L32.9,54.8z M33.1,53.2c-0.3,0.2-0.6,0.5-0.8,1
					c-0.3,0.9-0.1,1.9,0.6,2.3c0.3,0.2,0.7,0.1,1,0c0.3-0.2,0.6-0.5,0.8-1c0.3-0.9,0.1-1.9-0.6-2.3C33.8,53,33.4,53,33.1,53.2
					L33.1,53.2z"/>
				<path class="st15" d="M33,53.6c-0.1,0.1-0.2,0.1-0.3,0.3c-0.2,0.3-0.3,0.7-0.1,0.9c0.1,0.1,0.2,0.1,0.4,0
					c0.1-0.1,0.2-0.1,0.3-0.3c0.2-0.3,0.3-0.7,0.1-0.9C33.2,53.5,33.1,53.5,33,53.6L33,53.6z"/>
				<path class="st16" d="M67.6,36.8c-0.2-1-0.4-1.6-0.7-2.6c0.7-0.6,1.1-1,1.8-1.6c0.3,1.3,0.5,1.9,0.8,3.2c0.1,0.2,0,0.6-0.2,0.9
					c-0.1,0.1-0.2,0.2-0.3,0.3c-0.2,0.1-0.4,0.1-0.5,0c-0.2-0.2-0.1-0.7,0.1-1c0.1-0.1,0.2-0.2,0.3-0.3c0.1-0.1,0.2-0.1,0.3-0.1
					c-0.2-0.7-0.3-1.2-0.5-2c-0.6,0.5-0.9,0.8-1.4,1.3c0.2,0.9,0.3,1.4,0.6,2.3l0,0c0.1,0.2,0,0.6-0.2,0.8c-0.1,0.1-0.2,0.2-0.3,0.3
					c-0.2,0.1-0.4,0.1-0.5,0c-0.2-0.2-0.1-0.7,0.1-1c0.1-0.1,0.2-0.2,0.3-0.3C67.4,36.8,67.5,36.8,67.6,36.8L67.6,36.8z M68.6,31.4
					c-0.9,0.5-1.9,1.1-2.8,1.6c-0.6,0.4-1,1.3-0.8,2.1c0.3,1.2,0.6,2.4,0.9,3.6c0.2,0.8,0.9,1.1,1.5,0.8c0.9-0.5,1.9-1.1,2.8-1.6
					c0.6-0.4,1-1.3,0.8-2.1c-0.3-1.2-0.6-2.4-0.9-3.6C69.9,31.4,69.2,31,68.6,31.4L68.6,31.4z"/>
				<path class="st13" d="M68.8,32.6c-0.7,0.6-1.1,1-1.8,1.6c0.3,1.1,0.4,1.7,0.7,2.6c0.1,0,0.2,0,0.2,0.1c0,0.1,0.1,0.1,0.1,0.2
					l0,0c-0.2-0.9-0.3-1.4-0.6-2.3c0.6-0.5,0.9-0.8,1.4-1.3c0.2,0.8,0.3,1.3,0.5,2c0.1,0,0.2,0,0.2,0.1c0,0,0,0.1,0.1,0.1
					C69.2,34.5,69.1,33.9,68.8,32.6L68.8,32.6z"/>
				<path class="st13" d="M67.3,36.9c-0.1,0.1-0.2,0.1-0.3,0.3c-0.2,0.3-0.3,0.8-0.1,1c0.1,0.1,0.3,0.1,0.5,0
					c0.1-0.1,0.2-0.1,0.3-0.3c0.2-0.3,0.2-0.6,0.2-0.8c0-0.1,0-0.1-0.1-0.2c-0.1-0.1-0.1-0.1-0.2-0.1C67.5,36.8,67.4,36.8,67.3,36.9
					L67.3,36.9z"/>
				<path class="st13" d="M69,35.6c-0.1,0.1-0.2,0.1-0.3,0.3c-0.2,0.3-0.3,0.8-0.1,1c0.1,0.1,0.3,0.1,0.5,0c0.1-0.1,0.2-0.1,0.3-0.3
					c0.2-0.3,0.3-0.7,0.2-0.9c0,0,0-0.1-0.1-0.1c-0.1-0.1-0.1-0.1-0.2-0.1C69.2,35.5,69.1,35.6,69,35.6L69,35.6z"/>
				<path class="st16" d="M57.3,44.6c-1.1,0.7-2.4,0-2.7-1.4c-0.4-1.4,0.3-3.2,1.4-3.8c1.1-0.7,2.4,0,2.7,1.4
					C59.1,42.2,58.5,44,57.3,44.6L57.3,44.6z M57.3,37.9c-0.9,0.5-1.9,1.1-2.8,1.6c-0.6,0.4-1,1.3-0.8,2.1c0.3,1.2,0.6,2.4,0.9,3.6
					c0.2,0.8,0.9,1.1,1.5,0.8c0.9-0.5,1.9-1.1,2.8-1.6c0.6-0.4,1-1.3,0.8-2.1c-0.3-1.2-0.6-2.4-0.9-3.6
					C58.6,37.9,57.9,37.6,57.3,37.9L57.3,37.9z"/>
				<path class="st13" d="M56.3,41.6c-0.4-0.4-0.6-0.8-1-1.3c0,0,0-0.1,0.1-0.1C55.8,40.7,56,41.1,56.3,41.6
					c0.1-0.1,0.1-0.1,0.1-0.1c0,0,0.1-0.1,0.1-0.1c0.2-0.1,0.3-0.1,0.5,0c0.3-0.5,0.6-0.8,1-1.4c0,0.1,0.1,0.1,0.1,0.1
					c-0.4,0.6-0.7,0.9-1,1.4c0,0,0,0,0,0c0.1,0.3,0.1,0.7-0.2,0.9c0,0-0.1,0.1-0.1,0.1c-0.1,0.1-0.2,0.1-0.3,0
					c-0.2,0.7-0.4,1.2-0.7,2c-0.1,0-0.1-0.1-0.2-0.1c0.3-0.8,0.5-1.3,0.7-2c0,0-0.1-0.1-0.1-0.2C56.1,42.1,56.2,41.8,56.3,41.6
					L56.3,41.6z M56,39.3c-1.1,0.7-1.8,2.4-1.4,3.8c0.4,1.4,1.6,2.1,2.7,1.4c1.1-0.7,1.8-2.4,1.4-3.8C58.4,39.3,57.1,38.7,56,39.3
					L56,39.3z"/>
				<path class="st17" d="M57.1,41.6c-0.1,0.1-0.1,0.2-0.2,0.2c0.1,0.1,0,0.3-0.1,0.5c0,0,0,0,0,0c0,0-0.1,0-0.1,0
					c0,0.1-0.1,0.2-0.1,0.3c0.1,0,0.2,0,0.3,0c0,0,0.1,0,0.1-0.1C57.1,42.3,57.2,41.9,57.1,41.6C57.1,41.6,57.1,41.6,57.1,41.6
					L57.1,41.6z M56.3,41.6c-0.1,0.2-0.2,0.5-0.1,0.8c0,0.1,0.1,0.1,0.1,0.2c0-0.1,0.1-0.2,0.1-0.3c0,0,0,0,0,0
					c-0.1-0.1,0-0.3,0-0.4C56.4,41.7,56.3,41.7,56.3,41.6L56.3,41.6z M56.5,41.4C56.5,41.4,56.4,41.4,56.5,41.4
					c-0.1,0.1-0.1,0.1-0.1,0.1c0.1,0.1,0.1,0.1,0.2,0.2c0,0,0,0,0,0c0,0,0,0,0,0c0.1,0,0.1,0,0.2,0c0.1-0.1,0.1-0.2,0.2-0.2
					C56.8,41.3,56.7,41.3,56.5,41.4L56.5,41.4z"/>
				<path class="st16" d="M55.3,40.2C55.3,40.2,55.3,40.2,55.3,40.2c0.4,0.6,0.6,1,1,1.4c0.1,0.1,0.1,0.1,0.2,0.2c0,0,0-0.1,0.1-0.1
					c-0.1-0.1-0.1-0.1-0.2-0.2C56,41.1,55.8,40.7,55.3,40.2L55.3,40.2z"/>
				<path class="st18" d="M56.5,42.2c0,0.1-0.1,0.2-0.1,0.3c-0.2,0.7-0.4,1.2-0.7,2c0.1,0,0.1,0.1,0.2,0.1c0.3-0.8,0.5-1.3,0.7-2
					c0-0.1,0.1-0.2,0.1-0.3C56.6,42.3,56.5,42.3,56.5,42.2L56.5,42.2z"/>
				<path class="st18" d="M58,40.1c-0.4,0.6-0.7,0.9-1,1.4c-0.1,0.1-0.1,0.2-0.2,0.2c0,0,0.1,0.1,0.1,0.1c0,0,0,0,0,0
					c0.1-0.1,0.1-0.2,0.2-0.2c0.3-0.5,0.6-0.8,1-1.4C58,40.1,58,40.1,58,40.1L58,40.1z"/>
				<path class="st19" d="M56.6,41.7C56.6,41.7,56.6,41.7,56.6,41.7C56.5,41.7,56.5,41.7,56.6,41.7c-0.1,0.1-0.1,0.1-0.1,0.1
					c-0.1,0.1-0.1,0.3,0,0.4c0,0,0,0,0,0c0,0.1,0.1,0.1,0.2,0.1c0,0,0.1,0,0.1,0c0,0,0,0,0,0c0.1-0.1,0.2-0.3,0.1-0.5c0,0,0,0,0,0
					c0,0-0.1-0.1-0.1-0.1C56.7,41.6,56.7,41.6,56.6,41.7L56.6,41.7z"/>
				<path class="st20" d="M47.3,48.1c-0.1,0-0.1,0-0.2-0.1l-0.2-0.8c0-0.1,0-0.2,0.1-0.2l0.1-0.1c0.1,0,0.1,0,0.2,0.1l0.2,0.8
					C47.5,47.9,47.5,48,47.3,48.1L47.3,48.1L47.3,48.1z M44.1,50.9c-0.2,0.1-0.4,0-0.4-0.2c-0.2-0.8-0.3-1.2-0.5-2
					c-0.1-0.2,0-0.5,0.2-0.6c0.9-0.5,1.9-1.1,2.8-1.6c0.2-0.1,0.4,0,0.4,0.2c0.2,0.8,0.3,1.2,0.5,2c0.1,0.2,0,0.5-0.2,0.6
					C46,49.8,45.1,50.3,44.1,50.9L44.1,50.9z M45.9,44.5c-0.9,0.5-1.9,1.1-2.8,1.6c-0.6,0.4-1,1.3-0.8,2.1c0.3,1.2,0.6,2.4,0.9,3.6
					c0.2,0.8,0.9,1.1,1.5,0.8c0.9-0.5,1.9-1.1,2.8-1.6c0.6-0.4,1-1.3,0.8-2.1c-0.3-1.2-0.6-2.4-0.9-3.6
					C47.2,44.5,46.6,44.1,45.9,44.5L45.9,44.5z"/>
				<path class="st13" d="M44.2,50.4c-0.1,0.1-0.2,0-0.2-0.1c-0.2-0.7-0.2-1-0.4-1.6c0-0.1,0-0.3,0.1-0.3c1-0.6,1.5-0.9,2.5-1.5
					c0.1-0.1,0.2,0,0.2,0.1c0.2,0.7,0.2,1,0.4,1.6c0,0.1,0,0.3-0.1,0.3C45.7,49.5,45.2,49.8,44.2,50.4L44.2,50.4z M46.3,46.4
					c-0.9,0.5-1.9,1.1-2.8,1.6c-0.2,0.1-0.3,0.4-0.2,0.6c0.2,0.8,0.3,1.2,0.5,2c0.1,0.2,0.2,0.3,0.4,0.2c0.9-0.5,1.9-1.1,2.8-1.6
					c0.2-0.1,0.3-0.4,0.2-0.6c-0.2-0.8-0.3-1.2-0.5-2C46.6,46.4,46.4,46.3,46.3,46.4L46.3,46.4z"/>
				<path class="st20" d="M44.3,50.2c-0.1,0-0.1,0-0.2-0.1l-0.4-1.5c0-0.1,0-0.2,0.1-0.2l0.3-0.2c0.1,0,0.1,0,0.2,0.1l0.4,1.5
					c0,0.1,0,0.2-0.1,0.2L44.3,50.2L44.3,50.2z M45,49.8c-0.1,0-0.1,0-0.2-0.1l-0.4-1.5c0-0.1,0-0.2,0.1-0.2l0.3-0.2
					c0.1,0,0.1,0,0.2,0.1l0.4,1.5c0,0.1,0,0.2-0.1,0.2L45,49.8L45,49.8z M45.6,49.5C45.5,49.5,45.5,49.5,45.6,49.5
					c-0.2-0.7-0.3-1.1-0.5-1.7c0,0,0-0.1,0-0.1c0.2-0.1,0.3-0.2,0.5-0.3c0,0,0.1,0,0.1,0c0.2,0.7,0.3,1,0.4,1.7c0,0,0,0.1,0,0.1
					C45.9,49.3,45.8,49.3,45.6,49.5L45.6,49.5z M46.2,46.9c-1,0.6-1.5,0.9-2.5,1.5c-0.1,0.1-0.1,0.2-0.1,0.3c0.2,0.7,0.2,1,0.4,1.6
					c0,0.1,0.1,0.2,0.2,0.1c1-0.6,1.5-0.9,2.5-1.5c0.1-0.1,0.1-0.2,0.1-0.3c-0.2-0.7-0.2-1-0.4-1.6C46.4,46.9,46.3,46.8,46.2,46.9
					L46.2,46.9z"/>
				<path class="st13" d="M47.1,46.9L47.1,46.9c-0.2,0.1-0.2,0.2-0.2,0.3l0.2,0.8c0,0.1,0.1,0.1,0.2,0.1l0.1-0.1
					c0.1,0,0.1-0.1,0.1-0.2L47.3,47C47.3,46.9,47.2,46.9,47.1,46.9L47.1,46.9z"/>
				<path class="st13" d="M44.1,48.2l-0.3,0.2c-0.1,0-0.1,0.1-0.1,0.2l0.4,1.5c0,0.1,0.1,0.1,0.2,0.1l0.3-0.2c0.1,0,0.1-0.1,0.1-0.2
					l-0.4-1.5C44.3,48.2,44.2,48.1,44.1,48.2L44.1,48.2z"/>
				<path class="st13" d="M44.8,47.8L44.5,48c-0.1,0-0.1,0.1-0.1,0.2l0.4,1.5c0,0.1,0.1,0.1,0.2,0.1l0.3-0.2c0.1,0,0.1-0.1,0.1-0.2
					L45,47.9C45,47.8,44.9,47.7,44.8,47.8L44.8,47.8z"/>
				<path class="st13" d="M45.6,47.3c-0.2,0.1-0.3,0.2-0.5,0.3c0,0,0,0.1,0,0.1c0.2,0.7,0.3,1,0.4,1.7c0,0,0,0,0.1,0
					c0.2-0.1,0.3-0.2,0.5-0.3c0,0,0-0.1,0-0.1C45.9,48.4,45.8,48.1,45.6,47.3C45.7,47.3,45.6,47.3,45.6,47.3L45.6,47.3z"/>
				<path class="st13" d="M58.3,55.5c-0.2,0.1-0.4,0-0.5-0.3c-0.1-0.5-0.2-0.8-0.3-1.3c-0.1-0.3,0.1-0.6,0.3-0.7
					c0.1-0.1,0.2-0.1,0.3,0c0.5,0.3,0.8,0.4,1.3,0.7c0.3,0.2,0.3,0.8-0.1,1C58.9,55.1,58.7,55.3,58.3,55.5L58.3,55.5z M59.8,54.1
					c0-0.1,0-0.3,0-0.4c0.3-0.7,0.4-1.1,0.7-1.9c0.1-0.1,0.1-0.3,0.2-0.3c0.2-0.1,0.4,0,0.5,0.3c0.1,0.5,0.2,0.8,0.3,1.3
					c0.1,0.3-0.1,0.6-0.3,0.7c-0.4,0.2-0.6,0.3-1,0.6C60.1,54.5,59.8,54.3,59.8,54.1L59.8,54.1z M56.9,51.4
					c-0.1-0.3,0.1-0.6,0.3-0.7c0.4-0.2,0.6-0.3,1-0.6c0.2-0.1,0.5,0,0.5,0.3c0,0.1,0,0.3,0,0.4c-0.3,0.7-0.4,1.1-0.7,1.9
					c-0.1,0.1-0.1,0.2-0.2,0.3c-0.2,0.1-0.4,0-0.5-0.3C57.1,52.2,57,51.9,56.9,51.4L56.9,51.4z M60.7,51.3c-0.1,0.1-0.2,0.1-0.3,0
					c-0.5-0.3-0.8-0.4-1.3-0.7c-0.3-0.2-0.3-0.8,0.1-1c0.4-0.2,0.6-0.3,1-0.6c0.2-0.1,0.4,0,0.5,0.3c0.1,0.5,0.2,0.8,0.3,1.3
					C61,50.8,60.9,51.1,60.7,51.3L60.7,51.3z M59.8,48.2c-0.9,0.5-1.9,1.1-2.8,1.6c-0.6,0.4-1,1.3-0.8,2.1c0.3,1.2,0.6,2.4,0.9,3.6
					c0.2,0.8,0.9,1.1,1.5,0.8c0.9-0.5,1.9-1.1,2.8-1.6c0.6-0.4,1-1.3,0.8-2.1c-0.3-1.2-0.6-2.4-0.9-3.6
					C61.1,48.2,60.4,47.8,59.8,48.2L59.8,48.2z"/>
				<path class="st21" d="M58.1,50.1c-0.4,0.2-0.6,0.3-1,0.6c-0.2,0.1-0.3,0.4-0.3,0.7c0.1,0.5,0.2,0.8,0.3,1.3
					c0.1,0.3,0.3,0.4,0.5,0.3c0.1-0.1,0.2-0.2,0.2-0.3c0.3-0.7,0.4-1.1,0.7-1.9c0.1-0.2,0.1-0.3,0-0.4C58.6,50.1,58.4,50,58.1,50.1
					L58.1,50.1z"/>
				<path class="st21" d="M60.7,51.5c-0.1,0.1-0.2,0.2-0.2,0.3c-0.3,0.7-0.4,1.1-0.7,1.9c-0.1,0.2-0.1,0.3,0,0.4
					c0.1,0.3,0.3,0.4,0.5,0.3c0.4-0.2,0.6-0.3,1-0.6c0.2-0.1,0.3-0.5,0.3-0.7c-0.1-0.5-0.2-0.8-0.3-1.3
					C61.2,51.5,60.9,51.4,60.7,51.5L60.7,51.5z"/>
				<path class="st22" d="M57.8,53.2c-0.2,0.1-0.3,0.4-0.3,0.7c0.1,0.5,0.2,0.8,0.3,1.3c0.1,0.3,0.3,0.4,0.5,0.3
					c0.4-0.2,0.6-0.3,1-0.6c0.4-0.2,0.4-0.8,0.1-1c-0.5-0.3-0.8-0.4-1.3-0.7C58,53.1,57.8,53.2,57.8,53.2L57.8,53.2z"/>
				<path class="st22" d="M60.1,49c-0.4,0.2-0.6,0.3-1,0.6c-0.4,0.2-0.4,0.8-0.1,1c0.5,0.3,0.8,0.4,1.3,0.7c0.1,0.1,0.2,0,0.3,0
					c0.2-0.1,0.3-0.4,0.3-0.7c-0.1-0.5-0.2-0.8-0.3-1.3C60.6,49,60.3,48.9,60.1,49L60.1,49z"/>
				<path class="st14" d="M50.4,57.4c-0.7,0.4-1,0.6-1.7,1c0.3,1,0.5,2.1,0.8,3.1c-0.3,0.2-0.5,0.3-0.8,0.4
					c-0.6,0.3-0.9,0.5-1.5,0.9c-0.6,0.4-1.3,0-1.5-0.8c0.2,0.8,0.9,1.1,1.5,0.8c0.9-0.5,1.9-1.1,2.8-1.6c0.6-0.4,1-1.3,0.8-2.1
					C50.7,58.6,50.6,58,50.4,57.4L50.4,57.4z"/>
				<path class="st13" d="M48.4,60.5c-0.9,0.5-1.7,1-2.6,1.5c0.2,0.8,0.9,1.1,1.5,0.8c0.6-0.3,0.9-0.5,1.5-0.9
					C48.6,61.5,48.5,61,48.4,60.5L48.4,60.5z M45.7,61.5c0,0.2,0.1,0.3,0.1,0.5C45.7,61.8,45.7,61.7,45.7,61.5L45.7,61.5z"/>
				<path class="st10" d="M46.9,60.5c0,0-1.5-1.2-1.7-2.1c-0.2-0.7,0.1-1.6,0.7-1.9c0.6-0.3,1.2,0,1.3,0.7
					C47.5,58.2,46.9,60.5,46.9,60.5L46.9,60.5z M47.2,55.5c-0.5,0.3-1,0.6-1.5,0.9c-0.6,0.4-1,1.3-0.8,2.1c0.3,1.2,0.5,1.8,0.8,3
					c0-0.1,0-0.2-0.1-0.3c0.9-0.5,1.7-1,2.6-1.5C47.9,58.3,47.5,56.9,47.2,55.5L47.2,55.5z"/>
				<path class="st10" d="M48.5,54.8c-0.2,0.1-0.4,0.2-0.6,0.3c0.3,1.1,0.6,2.2,0.8,3.3c0.7-0.4,1-0.6,1.7-1
					c-0.2-0.8-0.3-1.1-0.5-1.9l0,0c0-0.1-0.1-0.3-0.1-0.4C49.5,54.6,49,54.5,48.5,54.8L48.5,54.8z"/>
				<path class="st12" d="M48.2,59.7c-0.9,0.5-1.7,1-2.6,1.5c0,0.1,0,0.2,0.1,0.3c0,0,0,0,0,0c0,0.2,0.1,0.3,0.1,0.5c0,0,0,0,0,0
					l0,0c0.9-0.5,1.7-1,2.6-1.5C48.3,60.3,48.3,60,48.2,59.7L48.2,59.7z"/>
				<path class="st23" d="M46.4,58.5c-0.3,0.2-0.7,0-0.8-0.4c-0.1-0.4,0.1-0.9,0.4-1.1c0.3-0.2,0.7,0,0.8,0.4
					C46.9,57.9,46.7,58.3,46.4,58.5L46.4,58.5z M45.9,56.5c-0.6,0.3-0.9,1.2-0.7,1.9c0.2,1,1.7,2.1,1.7,2.1s0.6-2.3,0.3-3.3
					C47,56.5,46.4,56.2,45.9,56.5L45.9,56.5z"/>
				<path class="st9" d="M46,57c-0.3,0.2-0.5,0.7-0.4,1.1c0.1,0.4,0.4,0.6,0.8,0.4c0.3-0.2,0.5-0.7,0.4-1.1C46.7,57,46.3,56.8,46,57
					L46,57z"/>
				<path class="st24" d="M47.9,55.1c-0.3,0.2-0.5,0.3-0.8,0.4c0.4,1.4,0.7,2.8,1.1,4.2c0.1,0.3,0.1,0.5,0.2,0.8
					c0.1,0.5,0.2,0.9,0.4,1.4c0.3-0.2,0.5-0.3,0.8-0.4c-0.3-1-0.5-2.1-0.8-3.1C48.5,57.3,48.2,56.2,47.9,55.1L47.9,55.1z"/>
				<path class="st25" d="M37.2,68.4c-1.3,0.7-2.7-0.2-3-1.7c-0.4-1.5,0.3-3.6,1.5-4.3c0,0,0.1,0,0.1,0c1.2-0.6,2.7,0,3.1,1.6
					C39.3,65.6,38.5,67.6,37.2,68.4C37.3,68.4,37.2,68.4,37.2,68.4L37.2,68.4z M37.1,61.3c-0.9,0.5-1.9,1.1-2.8,1.6
					c-0.6,0.4-1,1.3-0.8,2.1c0.3,1.2,0.6,2.4,0.9,3.6c0.2,0.8,0.9,1.1,1.5,0.8c0.9-0.5,1.9-1.1,2.8-1.6c0.6-0.4,1-1.3,0.8-2.1
					c-0.3-1.2-0.6-2.4-0.9-3.6C38.4,61.3,37.8,60.9,37.1,61.3L37.1,61.3z"/>
				<path class="st26" d="M37.2,68.1c-1.2,0.7-2.5,0-2.9-1.5c-0.4-1.5,0.3-3.4,1.5-4.1c1.2-0.7,2.5,0,2.9,1.5
					C39.1,65.6,38.4,67.4,37.2,68.1L37.2,68.1z M35.7,62.4c-1.3,0.7-1.9,2.9-1.5,4.3c0.4,1.5,1.8,2.4,3,1.7c0,0,0.1,0,0.1-0.1
					c1.2-0.8,2-2.8,1.6-4.4C38.5,62.4,37,61.7,35.7,62.4C35.8,62.3,35.7,62.3,35.7,62.4L35.7,62.4z"/>
				<path class="st14" d="M35.2,63.4c0.2-0.3,0.5-0.5,0.7-0.7c0.4-0.2,0.8-0.3,1.2-0.2l0,0c0.6,0.1,1.1,0.5,1.3,1.2
					c0.1,0.1,0.1,0.3,0.1,0.4c0.2,0.9,0.1,1.8-0.4,2.6l0,0c-0.2,0.3-0.4,0.6-0.6,0.8c-0.1,0.1-0.3,0.2-0.4,0.3
					c-0.3,0.2-0.6,0.2-0.9,0.2c0,0,0,0,0,0c-0.6,0-1.1-0.3-1.5-0.8l0,0c-0.1-0.2-0.3-0.5-0.3-0.8c-0.1-0.2-0.1-0.5-0.1-0.8
					C34.4,64.9,34.7,64,35.2,63.4C35.2,63.4,35.2,63.4,35.2,63.4L35.2,63.4z M35.8,62.5c-1.2,0.7-1.9,2.6-1.5,4.1
					c0.4,1.5,1.7,2.2,2.9,1.5c1.2-0.7,1.9-2.6,1.5-4.1C38.4,62.5,37,61.8,35.8,62.5L35.8,62.5z"/>
				<path class="st27" d="M37,63.7c-0.1,0.1-0.2,0.2-0.1,0.4c0.1,0.1,0.2,0.2,0.2,0.1c0,0,0.1-0.1,0.1-0.1c0,0,0,0,0.1,0
					c0.1-0.1,0.3,0.1,0.3,0.1s0,0,0,0c0,0-0.1,0.1-0.1,0.3c0.1,0.2,0.4,0.3,0.6,0.6c0.2,0.3,0.1,0.3,0.2,0.3c0.1,0,0.3-0.1,0.3-0.1
					c0.1,0-0.1,0.5-0.2,0.8c-0.1,0.2-0.2,0.4-0.2,0.8l0,0c0.4-0.8,0.6-1.8,0.4-2.6c0-0.2-0.1-0.3-0.1-0.4c0,0.1,0.1,0.1,0.1,0.2l0,0
					c-0.1,0.1-0.1,0.2-0.1,0.3c0,0.1,0.1,0,0.2,0c0,0,0,0,0,0c0,0.2,0.1,0.4,0.1,0.6c0,0.1-0.1,0.1-0.2,0.3c0,0.1-0.1,0.1-0.1,0.1
					c-0.1,0.1-0.2-0.1-0.3-0.4c-0.2-0.3-0.4-0.5-0.4-0.5s0-0.1,0.1-0.3c0.1-0.2,0-0.3,0-0.3s0,0,0,0c-0.1,0-0.2,0.1-0.4,0
					C37.2,63.6,37,63.7,37,63.7L37,63.7z M35.9,62.8c-0.3,0.2-0.5,0.4-0.7,0.7c0,0.1,0,0.1,0,0.2c0,0,0.2,0,0.2,0.2
					c0,0.2-0.1,0.4-0.1,0.4c-0.1,0.1-0.2,0.1-0.3,0.2c0,0-0.1,0.2,0.1,0.1c0,0,0,0,0,0c0.1-0.1,0.2-0.2,0.2-0.2c0,0,0,0,0.1,0
					c0.1,0,0,0.3,0,0.3s-0.1,0.4-0.2,0.4c0,0,0,0,0,0c-0.1,0,0.1-0.3,0.1-0.3c-0.1,0-0.1,0-0.2,0c0,0.1,0,0.2-0.1,0.3
					c0,0-0.1,0.2-0.2,0.5c-0.1,0.3,0.1,0.3,0.1,0.4c0,0.2,0,0.3,0,0.4c0,0,0,0,0,0c-0.1,0-0.2-0.5-0.2-0.5s0,0.1-0.1,0.1
					c0,0,0,0-0.1,0c0,0,0,0,0-0.1c0,0,0-0.1,0-0.1c0,0.3,0,0.5,0.1,0.8c0.1,0.3,0.2,0.6,0.3,0.8l0,0c0-0.1-0.1-0.2-0.1-0.2
					s-0.1-0.1,0-0.2c0,0,0,0,0,0c0,0,0,0,0,0c0.1,0,0-0.2,0.1-0.4c0.1-0.1,0.1-0.2,0.2-0.2c0,0,0.1,0,0.1,0s0.2,0,0.3,0.1
					c0.2,0.1,0.1,0.4,0.1,0.4s0,0.1,0.1,0.2c0.1,0.1,0,0.2,0.1,0.2c0,0,0.1,0,0.1,0.1c0,0.1,0.2,0.2,0.2,0.3c0.1,0.2,0,0.4,0,0.4
					s0.1,0,0.2,0.2c0.3,0,0.6-0.1,0.9-0.2c0.1-0.1,0.3-0.2,0.4-0.3c-0.1,0.1-0.2,0.1-0.2,0.2c-0.1,0-0.2-0.1-0.1-0.4
					c0.1-0.4-0.1-0.4-0.2-0.9c-0.1-0.3-0.2-0.3-0.3-0.3c-0.1,0-0.1,0.1-0.2,0.1c0,0,0,0,0,0c-0.2,0.1-0.4-0.1-0.5-0.3
					c-0.1-0.2-0.2-0.8,0.1-1.1c0.3-0.3,0.2-0.6,0.2-0.6s0,0-0.1-0.1c-0.1-0.1,0-0.2,0-0.4c0-0.1,0-0.1,0.1-0.2c0.1,0,0.1,0,0.2,0
					c0,0,0,0,0,0c0,0,0-0.2-0.1-0.3c-0.1-0.1,0.3-0.5,0.3-0.5s-0.1-0.2,0-0.3c0,0,0,0,0,0c0.1,0,0.1,0.2,0.1,0.2s0.1,0,0.2,0
					c0,0,0,0,0,0c0.1-0.1,0.1-0.2,0.1-0.2l0,0C36.7,62.5,36.3,62.6,35.9,62.8L35.9,62.8z"/>
				<path class="st10" d="M36.6,62.5C36.6,62.5,36.6,62.6,36.6,62.5c-0.1,0.1,0,0.3,0,0.3s-0.4,0.4-0.3,0.5c0.1,0.1,0.1,0.3,0.1,0.3
					c0,0,0,0,0,0c0,0-0.1,0-0.2,0c0,0-0.1,0.1-0.1,0.2c0,0.3-0.1,0.3,0,0.4c0.1,0.1,0.1,0.1,0.1,0.1s0,0.3-0.2,0.6
					c-0.3,0.3-0.1,0.8-0.1,1.1c0.1,0.2,0.2,0.4,0.5,0.3c0,0,0,0,0,0c0.1,0,0.2-0.1,0.2-0.1c0.1-0.1,0.2-0.1,0.3,0.3
					c0.1,0.5,0.3,0.5,0.2,0.9c-0.1,0.4,0,0.4,0.1,0.4c0.1-0.1,0.2-0.1,0.2-0.2c0.2-0.2,0.4-0.5,0.6-0.8l0,0l0,0
					c0-0.4,0.1-0.5,0.2-0.8c0.1-0.2,0.2-0.8,0.2-0.8c-0.1,0-0.2,0.1-0.3,0.1c-0.1,0,0,0-0.2-0.3c-0.2-0.3-0.5-0.4-0.6-0.6
					c-0.1-0.2,0.1-0.3,0.1-0.3c0,0,0,0,0,0s-0.2-0.1-0.3-0.1c0,0,0,0-0.1,0c-0.1,0.1-0.1,0.1-0.1,0.1c0,0-0.1,0-0.2-0.1
					c-0.1-0.1,0-0.3,0.1-0.4c0.1-0.1,0.2-0.1,0.3,0c0.2,0.1,0.3,0,0.4,0c0,0,0,0,0,0s0.1,0,0,0.3c-0.1,0.2-0.1,0.3-0.1,0.3
					s0.1,0.2,0.4,0.5c0.2,0.3,0.2,0.5,0.3,0.4c0,0,0.1-0.1,0.1-0.1c0.1-0.2,0.1-0.2,0.2-0.3c0-0.2,0-0.4-0.1-0.6c0,0,0,0,0,0
					c-0.1,0-0.1,0-0.2,0c-0.1-0.1,0-0.2,0.1-0.3l0,0c0-0.1,0-0.1-0.1-0.2c-0.3-0.7-0.8-1.1-1.3-1.2l0,0l0,0c0,0,0,0.1-0.1,0.2
					c0,0,0,0,0,0c-0.1,0.1-0.2,0-0.2,0S36.7,62.5,36.6,62.5L36.6,62.5z"/>
				<path class="st28" d="M35.2,63.4c-0.5,0.6-0.8,1.5-0.7,2.3c0,0,0,0.1,0,0.1c0,0,0,0,0,0.1c0,0,0,0,0.1,0c0,0,0.1-0.1,0.1-0.1
					s0.1,0.6,0.2,0.5c0,0,0,0,0,0c0.1-0.1,0.1-0.3,0-0.4c0-0.2-0.2-0.1-0.1-0.4c0.1-0.3,0.2-0.5,0.2-0.5c0-0.1,0-0.2,0.1-0.3
					c0.1,0,0.1,0,0.2,0c0,0-0.1,0.3-0.1,0.3c0,0,0,0,0,0c0.1,0,0.2-0.4,0.2-0.4s0.2-0.3,0-0.3c0,0-0.1,0-0.1,0
					c-0.1,0-0.1,0.1-0.2,0.2c0,0,0,0,0,0c-0.1,0.1-0.1-0.1-0.1-0.1c0.1-0.1,0.2-0.1,0.3-0.2c0,0,0.2-0.2,0.1-0.4
					c0-0.2-0.2-0.2-0.2-0.2C35.2,63.6,35.2,63.5,35.2,63.4C35.2,63.4,35.2,63.4,35.2,63.4L35.2,63.4z"/>
				<path class="st28" d="M35.1,66.2c0,0-0.1,0.1-0.2,0.2c-0.1,0.2,0,0.4-0.1,0.4c0,0,0,0,0,0c0,0,0,0,0,0c-0.1,0,0,0.2,0,0.2
					s0.1,0.1,0.1,0.2l0,0l0,0c0.4,0.6,0.9,0.9,1.5,0.8c0,0,0,0,0,0c0-0.2-0.2-0.2-0.2-0.2s0.1-0.2,0-0.4c-0.1-0.2-0.2-0.3-0.2-0.3
					c0-0.1-0.1-0.1-0.1-0.1c0-0.1,0-0.1-0.1-0.2c-0.1-0.1-0.1-0.2-0.1-0.2s0.1-0.3-0.1-0.4C35.3,66.2,35.1,66.1,35.1,66.2
					C35.1,66.1,35.1,66.2,35.1,66.2L35.1,66.2z"/>
				<path class="st10" d="M69.7,48.2c-0.3,0.2-0.7,0-0.8-0.4c-0.2-0.9-0.3-1.4-0.6-2.3c-0.1-0.4,0.1-0.9,0.4-1.1
					c0.9-0.5,1.8-1,2.7-1.5c0.3-0.2,0.7,0,0.8,0.4c0.2,0.9,0.3,1.4,0.6,2.3c0.1,0.4-0.1,0.9-0.4,1.1c-0.7,0.4-1,0.6-1.7,1
					c-0.3,0.6-0.4,1-0.7,1.6c0-0.4,0-0.6,0.1-1c0-0.1,0-0.1,0-0.2c0-0.4,0-0.6,0.1-1C69.9,47.5,69.9,47.7,69.7,48.2
					C69.7,48.2,69.7,48.2,69.7,48.2L69.7,48.2z M71.2,41.7c-0.9,0.5-1.9,1.1-2.8,1.6c-0.6,0.4-1,1.3-0.8,2.1
					c0.3,1.2,0.6,2.4,0.9,3.6c0.2,0.8,0.9,1.1,1.5,0.8c0.9-0.5,1.9-1.1,2.8-1.6c0.6-0.4,1-1.3,0.8-2.1c-0.3-1.2-0.6-2.4-0.9-3.6
					C72.5,41.7,71.8,41.3,71.2,41.7L71.2,41.7z"/>
				<path class="st13" d="M71.4,42.8c-0.9,0.5-1.8,1-2.7,1.5c-0.3,0.2-0.5,0.7-0.4,1.1c0.2,0.9,0.3,1.4,0.6,2.3
					c0.1,0.4,0.5,0.6,0.8,0.4c0,0,0,0,0.1,0c0.1-0.5,0.2-0.7,0.3-1.1c0,0.4,0,0.6-0.1,1c0,0.1,0,0.1,0,0.2c0,0.4,0,0.6-0.1,1
					c0.3-0.6,0.4-1,0.7-1.6c0.7-0.4,1-0.6,1.7-1c0.3-0.2,0.5-0.7,0.4-1.1c-0.2-0.9-0.3-1.4-0.6-2.3C72.1,42.8,71.7,42.6,71.4,42.8
					L71.4,42.8z"/>
				<path class="st20" d="M59.8,60c-0.1,0-0.1,0.1-0.2,0.1c-0.6,0.4-1,1.3-0.8,2.1c0.3,1.2,0.6,2.4,0.9,3.6c0.2,0.8,0.9,1.1,1.5,0.8
					c0.9-0.5,1.9-1.1,2.8-1.6c0.6-0.4,1-1.3,0.8-2.1c0.2,0.8-0.1,1.7-0.8,2.1c-1.1,0.6-1.6,0.9-2.6,1.5C60.8,64.3,60.3,62.2,59.8,60
					L59.8,60z"/>
				<path class="st29" d="M62.4,58.5c-0.2,0.1-0.3,0.2-0.5,0.3c0.2,0.9,0.3,1.3,0.5,2.2c-0.2,0-0.4-0.1-0.6-0.1
					c-0.2,0.3-0.3,0.5-0.4,0.8c-0.2-0.9-0.3-1.3-0.5-2.2c-0.3,0.2-0.7,0.4-1.1,0.6c0.5,2.1,1.1,4.3,1.6,6.4c1.1-0.6,1.6-0.9,2.6-1.5
					c0.6-0.4,1-1.3,0.8-2.1c-0.3-1.2-0.6-2.4-0.9-3.6C63.7,58.5,63,58.2,62.4,58.5L62.4,58.5z"/>
				<path class="st23" d="M61.9,58.8c-0.4,0.2-0.6,0.4-1.1,0.6c0.2,0.9,0.3,1.3,0.5,2.2c0.2-0.3,0.3-0.5,0.4-0.8
					c0.2,0,0.4,0.1,0.6,0.1C62.3,60.1,62.2,59.7,61.9,58.8L61.9,58.8z"/>
				<path class="st30" d="M73.8,58.7c-1.1,0.7-2.4,0-2.7-1.4c-0.4-1.4,0.3-3.2,1.4-3.8c1.1-0.7,2.4,0,2.7,1.4
					C75.6,56.3,74.9,58,73.8,58.7L73.8,58.7z M73.7,52c-0.6,0.4-1.2,0.7-1.9,1.1c-0.3,0.2-0.6,0.4-0.9,0.5c-0.6,0.4-1,1.3-0.8,2.1
					c0.3,1.2,0.6,2.4,0.9,3.6c0.2,0.8,0.9,1.1,1.5,0.8c0.9-0.5,1.9-1.1,2.8-1.6c0.6-0.4,1-1.3,0.8-2.1c-0.3-1.2-0.6-2.4-0.9-3.6
					C75,52,74.4,51.6,73.7,52L73.7,52z"/>
				<path class="st31" d="M73.7,58.3c-1,0.6-2.1,0-2.4-1.3s0.3-2.8,1.2-3.4c1-0.6,2.1,0,2.4,1.3C75.3,56.2,74.7,57.8,73.7,58.3
					L73.7,58.3z M72.5,53.4c-1.1,0.7-1.8,2.4-1.4,3.8c0.4,1.4,1.6,2.1,2.7,1.4c1.1-0.7,1.8-2.4,1.4-3.8
					C74.8,53.4,73.6,52.7,72.5,53.4L72.5,53.4z"/>
				<path class="st32" d="M73.6,57.9c-0.8,0.5-1.6,0-1.9-1c-0.3-1,0.2-2.2,1-2.7c0.8-0.5,1.6,0,1.9,1C74.8,56.2,74.4,57.4,73.6,57.9
					L73.6,57.9z M72.6,53.7c-1,0.6-1.6,2.1-1.2,3.4s1.4,1.8,2.4,1.3c1-0.6,1.6-2.1,1.2-3.4C74.6,53.7,73.5,53.1,72.6,53.7L72.6,53.7
					z"/>
				<path class="st33" d="M73.5,57.3c-0.6,0.3-1.2,0-1.3-0.7c-0.2-0.7,0.1-1.6,0.7-1.9c0.6-0.3,1.2,0,1.3,0.7
					C74.3,56.1,74,57,73.5,57.3L73.5,57.3z M72.7,54.2c-0.8,0.5-1.2,1.6-1,2.7c0.3,1,1.1,1.5,1.9,1c0.8-0.5,1.2-1.6,1-2.7
					C74.3,54.2,73.5,53.7,72.7,54.2L72.7,54.2z"/>
				<path class="st34" d="M72.6,56c-0.1,0.1-0.2,0.1-0.3,0c-0.1-0.1,0-0.5,0.1-0.7c0.1-0.1,0.2-0.2,0.3-0.2c0.1-0.1,0.2-0.1,0.3,0
					c0.1,0.1,0,0.5-0.1,0.7C72.8,55.9,72.7,55.9,72.6,56L72.6,56z M72.8,54.7c-0.6,0.3-0.9,1.2-0.7,1.9c0.2,0.7,0.8,1,1.3,0.7
					c0.6-0.3,0.9-1.2,0.7-1.9C74,54.7,73.4,54.4,72.8,54.7L72.8,54.7z"/>
				<path class="st35" d="M72.7,55c-0.1,0-0.2,0.1-0.3,0.2c-0.2,0.3-0.3,0.6-0.1,0.7c0.1,0.1,0.2,0.1,0.3,0c0.1,0,0.2-0.1,0.3-0.2
					c0.2-0.3,0.3-0.6,0.1-0.7C73,54.9,72.9,54.9,72.7,55L72.7,55z"/>
				<path class="st20" d="M49.2,71.9c-0.1,0.1-0.2,0-0.2-0.1c-0.3-1.1-0.4-1.7-0.7-2.8c0,0,0-0.1,0-0.1c0-0.1,0-0.2,0-0.3
					c0-0.1,0.1-0.3,0.2-0.4c0.5-0.3,0.8-0.4,1.3-0.7c0.1-0.1,0.2,0,0.3,0.1c0,0,0,0,0,0.1c0.1,0.1,0.2,0.1,0.3,0.1
					c0.6-0.3,0.9-0.5,1.4-0.8c0.1-0.1,0.3,0,0.3,0.2c0,0.1,0,0.1,0,0.2c0.2,0.9,0.4,1.4,0.6,2.4c0,0.1,0,0.3-0.1,0.3
					C51.5,70.6,50.3,71.2,49.2,71.9L49.2,71.9z M51.1,65.1c-0.9,0.5-1.9,1.1-2.8,1.6c-0.6,0.4-1,1.3-0.8,2.1
					c0.3,1.2,0.6,2.4,0.9,3.6c0.2,0.8,0.9,1.1,1.5,0.8c0.9-0.5,1.9-1.1,2.8-1.6c0.6-0.4,1-1.3,0.8-2.1c-0.3-1.2-0.6-2.4-0.9-3.6
					C52.3,65.1,51.7,64.7,51.1,65.1L51.1,65.1z"/>
				<path class="st36" d="M49.7,67.5c-0.5,0.3-0.8,0.4-1.3,0.7c-0.1,0.1-0.2,0.2-0.2,0.4c0,0.1,0,0.2,0,0.3c0,0,0,0.1,0,0.1
					c0.3,1.1,0.4,1.7,0.7,2.8c0,0.1,0.1,0.2,0.2,0.1c1.1-0.6,2.2-1.3,3.4-1.9c0.1-0.1,0.2-0.2,0.1-0.3c0,0.1,0,0.3-0.1,0.3
					c-1.1,0.6-2.2,1.3-3.4,1.9c-0.1,0.1-0.2,0-0.2-0.1c-0.2-0.9-0.4-1.4-0.6-2.4c0-0.1,0-0.3,0.1-0.3c1.1-0.6,2.2-1.3,3.4-1.9
					c0.1-0.1,0.2,0,0.2,0.1c0-0.1,0-0.1,0-0.2c0-0.2-0.2-0.2-0.3-0.2c-0.6,0.3-0.9,0.5-1.4,0.8c-0.1,0.1-0.2,0-0.3-0.1
					c0,0,0,0,0-0.1C49.9,67.5,49.8,67.4,49.7,67.5L49.7,67.5z"/>
				<path class="st37" d="M51.9,67.1c-1.1,0.6-2.2,1.3-3.4,1.9c-0.1,0.1-0.2,0.2-0.1,0.3c0.2,0.9,0.4,1.4,0.6,2.4
					c0,0.1,0.1,0.2,0.2,0.1c1.1-0.6,2.2-1.3,3.4-1.9c0.1-0.1,0.2-0.2,0.1-0.3c-0.2-0.9-0.4-1.4-0.6-2.4C52.1,67.1,52,67.1,51.9,67.1
					L51.9,67.1z"/>
				<path class="st13" d="M37.8,75.9c-0.1-0.5-0.2-0.8-0.3-1.3c-0.2-0.7,0.1-1.4,0.6-1.7c0.6-0.4,0.9-0.5,1.6-0.9
					c0.5-0.3,1.1,0,1.2,0.6c0.1,0.6,0.2,0.9,0.4,1.4c0.2,0.7-0.1,1.4-0.6,1.7c-0.2,0.1-0.3,0.2-0.6,0.3c0.1,0.3,0.1,0.4,0.2,0.7
					c0.2,0.7-0.1,1.4-0.6,1.7c-0.4,0.2-0.6,0.4-1,0.6c-0.5,0.3-1.1,0-1.2-0.6c-0.1-0.3-0.1-0.5-0.2-0.8C36.9,77,37.2,76.2,37.8,75.9
					L37.8,75.9L37.8,75.9z M39.7,71.6c-0.9,0.5-1.9,1.1-2.8,1.6c-0.6,0.4-1,1.3-0.8,2.1c0.3,1.2,0.6,2.4,0.9,3.6
					c0.2,0.8,0.9,1.1,1.5,0.8c0.9-0.5,1.9-1.1,2.8-1.6c0.6-0.4,1-1.3,0.8-2.1c-0.3-1.2-0.6-2.4-0.9-3.6C41,71.6,40.3,71.3,39.7,71.6
					L39.7,71.6z"/>
				<path class="st14" d="M39.9,74.7c-0.1-0.1-0.1-0.2-0.2-0.2c0-0.1,0.1-0.1,0.1-0.1c0.1,0.1,0.2,0.1,0.2,0.2
					C39.9,74.6,39.9,74.7,39.9,74.7L39.9,74.7z M40,74.1c-0.2,0.1-0.3,0.2-0.5,0.3c0,0.2,0,0.3,0.1,0.5c0.2-0.1,0.3-0.2,0.5-0.3
					C40.1,74.5,40.1,74.3,40,74.1L40,74.1z M39.8,74.1c-0.1-0.1-0.1-0.2-0.2-0.2c0-0.1,0.1-0.1,0.1-0.1c0.1,0.1,0.2,0.1,0.2,0.2
					C39.8,74,39.8,74,39.8,74.1L39.8,74.1z M39.9,73.5c-0.2,0.1-0.3,0.2-0.5,0.3c0,0.2,0,0.3,0.1,0.5c0.2-0.1,0.3-0.2,0.5-0.3
					C40,73.8,39.9,73.7,39.9,73.5L39.9,73.5z M38.6,73.9c-0.1,0-0.1,0.1-0.2,0.1c0.1,0.5,0.2,0.8,0.3,1.4c0,0,0,0,0,0
					c0,0,0.1,0,0.1-0.1C38.8,74.7,38.7,74.5,38.6,73.9L38.6,73.9z M39.1,74.4c-0.1-0.1-0.2-0.1-0.3-0.2c0-0.1,0-0.1,0.1-0.2
					c0.1,0,0.2,0.1,0.3,0.1C39.2,74.3,39.1,74.3,39.1,74.4L39.1,74.4z M39,73.7c-0.1-0.1-0.2-0.1-0.3-0.1c0-0.1,0-0.1,0.1-0.2
					c0.1,0,0.2,0.1,0.3,0.1C39.1,73.6,39,73.6,39,73.7L39,73.7z M39.2,74c0,0-0.1-0.1-0.1-0.1c0.1-0.3,0.1-0.6,0.1-0.9
					c0.1,0,0.1,0,0.1-0.1c0,0.1,0,0.2,0,0.3c0.3-0.2,0.4-0.2,0.7-0.4c0,0.1,0,0.1,0,0.2c-0.3,0.2-0.4,0.3-0.7,0.4c0,0.1,0,0.2,0,0.3
					c0.3-0.2,0.4-0.3,0.7-0.4c0.1,0.2,0.1,0.4,0.1,0.6c0.1,0,0.1-0.1,0.2-0.1c0,0.1,0,0.1,0,0.2c-0.1,0-0.1,0.1-0.2,0.1
					c0,0.2,0.1,0.3,0.1,0.5c0.1,0,0.1-0.1,0.1-0.1c0,0.1,0,0.1,0,0.2c-0.1,0-0.1,0.1-0.2,0.1c0.1,0.2,0,0.4-0.2,0.5
					c-0.1,0.1-0.2,0.1-0.3,0.2c0-0.1,0-0.1-0.1-0.2c0.1,0,0.2-0.1,0.3-0.1c0.1,0,0.1-0.1,0.1-0.3c-0.3,0.2-0.4,0.2-0.6,0.4
					c0-0.1,0-0.1,0-0.1c0-0.2-0.1-0.3-0.1-0.5c-0.1,0-0.1,0.1-0.2,0.1c0-0.1,0-0.1,0-0.2c0.1,0,0.1-0.1,0.2-0.1
					c0-0.2-0.1-0.4-0.1-0.6C39.2,73.8,39.2,73.9,39.2,74L39.2,74z M39.6,72c-0.6,0.4-0.9,0.5-1.6,0.9c-0.5,0.3-0.8,1.1-0.6,1.7
					c0.1,0.5,0.2,0.8,0.3,1.3c0.3-0.2,0.5-0.3,0.8-0.5c-0.1-0.5-0.2-0.9-0.4-1.5c0.2-0.1,0.3-0.1,0.4-0.2c0.2,0.6,0.2,1,0.4,1.6
					c0,0,0.1,0,0.1,0c0-0.2,0-0.4,0-0.6c0,0,0.1,0,0.2,0c0,0.2,0,0.4,0,0.6c0.3,0.1,0.6,0.3,0.7,0.7c0,0.1,0,0.1,0,0.1
					c0.2-0.1,0.3-0.2,0.6-0.3c0.5-0.3,0.8-1.1,0.6-1.7c-0.1-0.6-0.2-0.9-0.4-1.4C40.7,72,40.2,71.7,39.6,72L39.6,72z"/>
				<path class="st9" d="M39.8,74.3c0,0.1-0.1,0.1-0.1,0.1c0.1,0.1,0.2,0.1,0.2,0.2c0-0.1,0.1-0.1,0.1-0.1
					C39.9,74.5,39.8,74.4,39.8,74.3L39.8,74.3z M39.1,74.7c0,0.2,0,0.4,0,0.6c0.1,0,0.1,0,0.2,0c0-0.2,0-0.4,0-0.6
					C39.2,74.7,39.2,74.7,39.1,74.7L39.1,74.7z M39.6,73.7c0,0.1-0.1,0.1-0.1,0.1c0.1,0.1,0.1,0.1,0.2,0.2c0-0.1,0.1-0.1,0.1-0.2
					C39.8,73.8,39.7,73.8,39.6,73.7L39.6,73.7z M38.8,74c0,0.1,0,0.1-0.1,0.2c0.1,0,0.2,0.1,0.3,0.2c0-0.1,0-0.1,0.1-0.2
					C39.1,74.1,38.9,74.1,38.8,74L38.8,74z M38.6,73.7c-0.2,0.1-0.3,0.1-0.4,0.2c0.2,0.6,0.2,1,0.4,1.5c0,0,0.1,0,0.1-0.1
					c-0.1-0.5-0.2-0.8-0.3-1.4c0.1,0,0.1-0.1,0.2-0.1c0.1,0.5,0.2,0.8,0.3,1.4c0,0,0.1,0,0.1,0C38.9,74.7,38.8,74.3,38.6,73.7
					L38.6,73.7z M38.8,73.4c0,0.1,0,0.1-0.1,0.2c0.1,0,0.2,0.1,0.3,0.1c0-0.1,0-0.1,0.1-0.2C39,73.5,38.9,73.4,38.8,73.4L38.8,73.4z
					 M39.6,74.9c0-0.2-0.1-0.3-0.1-0.5c0.2-0.1,0.3-0.2,0.5-0.3c0,0.2,0.1,0.3,0.1,0.5C39.9,74.7,39.8,74.8,39.6,74.9L39.6,74.9z
					 M39.5,74.3c0-0.2,0-0.3-0.1-0.5c0.2-0.1,0.3-0.2,0.5-0.3c0,0.2,0.1,0.3,0.1,0.5C39.8,74.1,39.7,74.2,39.5,74.3L39.5,74.3z
					 M39.2,73c0,0.3-0.1,0.6-0.1,0.9c0,0,0.1,0.1,0.1,0.1c0-0.1,0-0.2,0.1-0.2c0,0.2,0.1,0.4,0.1,0.6c-0.1,0-0.1,0.1-0.2,0.1
					c0,0.1,0,0.1,0,0.2c0.1,0,0.1-0.1,0.2-0.1c0,0.2,0.1,0.3,0.1,0.5c0,0.1,0,0.1,0,0.1c0.3-0.1,0.4-0.2,0.6-0.4
					c0,0.1,0,0.2-0.1,0.3c-0.1,0.1-0.2,0.1-0.3,0.1c0,0.1,0.1,0.1,0.1,0.2c0.1,0,0.1-0.1,0.3-0.2c0.2-0.1,0.2-0.3,0.2-0.5
					c0.1,0,0.1-0.1,0.2-0.1c0-0.1,0-0.1,0-0.2c-0.1,0-0.1,0.1-0.1,0.1c0-0.1-0.1-0.3-0.1-0.5c0.1,0,0.1-0.1,0.2-0.1
					c0-0.1,0-0.1,0-0.2c-0.1,0-0.1,0.1-0.2,0.1c0-0.2-0.1-0.4-0.1-0.6c-0.3,0.2-0.4,0.3-0.7,0.4c0-0.1,0-0.2,0-0.3
					c0.3-0.2,0.4-0.3,0.7-0.4c0-0.1,0-0.1,0-0.2c-0.3,0.2-0.4,0.2-0.7,0.4c0-0.1,0-0.2,0-0.3C39.3,73,39.3,73,39.2,73L39.2,73z"/>
				<path class="st38" d="M38.8,75.3C38.7,75.4,38.7,75.4,38.8,75.3c-0.1,0.1-0.1,0.1-0.2,0.1c-0.3,0.2-0.5,0.3-0.8,0.5
					c0,0,0,0.1,0,0.1c0.2,0.7,0.7,0.9,1.2,0.7c0.1,0,0.1-0.1,0.2-0.1c0,0,0,0,0.1,0c0,0,0,0,0.1,0c0.2-0.1,0.4-0.2,0.7-0.4
					c0-0.1,0-0.1,0-0.1c-0.1-0.4-0.4-0.7-0.7-0.7c-0.1,0-0.1,0-0.2,0c0,0-0.1,0-0.1,0c0,0-0.1,0-0.1,0
					C38.9,75.3,38.8,75.3,38.8,75.3L38.8,75.3z"/>
				<path class="st23" d="M38.7,77.5c0,0-0.1,0-0.1,0.1c0,0.1,0,0.1,0,0.2c0,0,0.1,0,0.1-0.1C38.8,77.6,38.8,77.6,38.7,77.5
					C38.8,77.5,38.8,77.5,38.7,77.5L38.7,77.5z M37.9,77.8c0,0.1,0,0.1,0,0.2c0.1,0,0.1,0,0.1-0.1C38,77.8,38,77.8,37.9,77.8
					L37.9,77.8z M38.6,77.2C38.6,77.2,38.5,77.2,38.6,77.2c-0.1,0.1-0.1,0.1-0.1,0.2c0,0,0.1,0,0.1-0.1
					C38.7,77.3,38.7,77.2,38.6,77.2C38.7,77.2,38.6,77.1,38.6,77.2L38.6,77.2z M37.7,78.5c0-0.4,0.1-0.6,0.1-1c0,0,0,0,0.1,0
					c0.2,0.3,0.3,0.4,0.5,0.7c-0.1,0-0.1,0.1-0.2,0.1c0,0,0-0.1-0.1-0.1c-0.1,0.1-0.2,0.1-0.3,0.2c0,0.1,0,0.1,0,0.1
					C37.8,78.4,37.8,78.4,37.7,78.5L37.7,78.5z M38.5,78c-0.1-0.3-0.1-0.5-0.2-0.9c0.1-0.1,0.2-0.1,0.3-0.2c0.1-0.1,0.2,0,0.3,0.1
					c0,0.1,0,0.1,0,0.2c0.1,0,0.1,0.1,0.1,0.2c0,0.1,0,0.3-0.1,0.4C38.7,77.9,38.6,77.9,38.5,78L38.5,78z M37.8,75.9L37.8,75.9
					c-0.6,0.3-0.8,1.1-0.7,1.7c0.1,0.3,0.1,0.5,0.2,0.8c0.2,0.7,0.7,0.9,1.2,0.6c0.4-0.2,0.6-0.4,1-0.6c0.5-0.3,0.8-1.1,0.6-1.7
					c-0.1-0.3-0.1-0.4-0.2-0.7c-0.3,0.2-0.5,0.3-0.7,0.4c0.1,0,0.2,0,0.2,0c0,0.1-0.1,0.1-0.1,0.2c0,0-0.1,0-0.1,0
					c-0.1,0.1-0.1,0.2-0.1,0.3c0,0.1,0.1,0.2,0.2,0.1c0,0,0.1-0.1,0.1-0.1c0.1,0,0.1,0.1,0.2,0.1c0,0.1-0.1,0.2-0.2,0.3
					c-0.2,0.1-0.4,0-0.4-0.2c-0.1-0.2,0-0.5,0.2-0.6c-0.1,0-0.1,0.1-0.2,0.1c-0.5,0.3-1.1,0-1.2-0.7C37.8,76,37.8,76,37.8,75.9
					L37.8,75.9z"/>
				<path class="st9" d="M37.9,78c0-0.1,0-0.1,0-0.2c0,0.1,0.1,0.1,0.1,0.2C38,77.9,38,78,37.9,78L37.9,78z M37.9,77.4
					C37.8,77.4,37.8,77.4,37.9,77.4c-0.1,0.5-0.1,0.7-0.2,1.1c0.1,0,0.1-0.1,0.2-0.1c0-0.1,0-0.1,0-0.1c0.1-0.1,0.2-0.1,0.3-0.2
					c0,0,0,0.1,0.1,0.1c0.1,0,0.1-0.1,0.2-0.1C38.2,77.8,38.1,77.6,37.9,77.4L37.9,77.4z"/>
				<path class="st9" d="M38.6,77.7c0-0.1,0-0.1,0-0.2c0,0,0.1,0,0.1-0.1c0,0,0.1,0,0.1,0c0,0,0,0.1,0,0.1
					C38.7,77.7,38.7,77.7,38.6,77.7L38.6,77.7z M38.6,77.4c0-0.1,0-0.1,0-0.2c0,0,0.1,0,0.1-0.1c0,0,0.1,0,0.1,0
					C38.7,77.2,38.7,77.3,38.6,77.4C38.6,77.3,38.6,77.3,38.6,77.4L38.6,77.4z M38.6,76.9c-0.1,0.1-0.2,0.1-0.3,0.2
					c0.1,0.3,0.1,0.5,0.2,0.9c0.1-0.1,0.2-0.1,0.3-0.2c0.1-0.1,0.2-0.2,0.1-0.4c0-0.1-0.1-0.1-0.1-0.2c0-0.1,0-0.1,0-0.2
					C38.8,77,38.7,76.9,38.6,76.9L38.6,76.9z"/>
				<path class="st9" d="M39.2,76.6C39.2,76.6,39.2,76.6,39.2,76.6C39,76.7,39,77,39,77.2c0.1,0.2,0.3,0.3,0.4,0.2
					c0.1-0.1,0.2-0.2,0.2-0.3c-0.1,0-0.1-0.1-0.2-0.1c0,0.1-0.1,0.1-0.1,0.1c-0.1,0.1-0.2,0-0.2-0.1c0-0.1,0-0.2,0.1-0.3
					c0,0,0.1,0,0.1,0c0-0.1,0.1-0.1,0.1-0.2C39.4,76.5,39.4,76.5,39.2,76.6C39.3,76.6,39.3,76.6,39.2,76.6L39.2,76.6z"/>
				<path class="st14" d="M54.8,28.1c-0.1,1.2-0.2,1.9-0.3,3c0,0,0,0,0,0c0.1,0.3,0.1,0.7-0.2,0.9c-0.3,1.1-0.5,1.8-0.9,3.1
					c0.1-1.2,0.2-2,0.3-3.1c0,0,0-0.1-0.1-0.1c-0.1-0.3-0.1-0.7,0.2-0.9c0,0,0.1-0.1,0.1-0.1c0,0,0,0,0,0
					C54.2,30,54.4,29.3,54.8,28.1L54.8,28.1z M54.7,27.5c-0.9,0.5-1.9,1.1-2.8,1.6c-0.6,0.4-1,1.3-0.8,2.1c0.3,1.2,0.6,2.4,0.9,3.6
					c0.2,0.8,0.9,1.1,1.5,0.8c0.9-0.5,1.9-1.1,2.8-1.6c0.6-0.4,1-1.3,0.8-2.1c-0.3-1.2-0.6-2.4-0.9-3.6C56,27.5,55.3,27.2,54.7,27.5
					L54.7,27.5z"/>
				<path class="st16" d="M54.8,28.1c-0.3,1.2-0.6,1.8-0.9,2.8c0.2-0.1,0.4,0,0.6,0.2C54.6,30.1,54.7,29.4,54.8,28.1L54.8,28.1z"/>
				<path class="st13" d="M53.7,32.1c-0.1,1.1-0.2,1.8-0.3,3.1c0.4-1.2,0.6-1.9,0.9-3.1c0,0,0,0,0,0c0,0-0.1,0.1-0.1,0.1
					C54,32.3,53.8,32.2,53.7,32.1L53.7,32.1z"/>
				<path class="st13" d="M54.1,31.9c-0.1,0.1-0.2,0-0.3-0.1c-0.1-0.1,0-0.4,0.1-0.5c0,0,0,0,0,0c0.1-0.1,0.2,0,0.3,0.1
					C54.4,31.5,54.3,31.7,54.1,31.9C54.2,31.9,54.2,31.9,54.1,31.9L54.1,31.9z M53.9,31C53.9,31,53.9,31,53.9,31
					c-0.3,0.3-0.4,0.7-0.3,1c0,0,0,0.1,0.1,0.1c0.1,0.2,0.3,0.2,0.5,0.1c0,0,0.1,0,0.1-0.1c0,0,0,0,0,0c0.2-0.2,0.3-0.6,0.2-0.9
					c0,0,0,0,0,0C54.4,30.9,54.2,30.8,53.9,31C53.9,31,53.9,31,53.9,31L53.9,31z"/>
				<path class="st16" d="M54,31.3C54,31.3,54,31.3,54,31.3c-0.2,0.1-0.2,0.4-0.1,0.5c0.1,0.1,0.2,0.2,0.3,0.1c0,0,0,0,0.1,0
					c0.1-0.1,0.2-0.3,0.1-0.5C54.2,31.2,54.1,31.2,54,31.3L54,31.3z"/>
				<path class="st20" d="M42.1,40.9c-0.1,0.1-0.3,0-0.3-0.2c0-0.3,0-0.5-0.1-0.8c0-0.1-0.1-0.2-0.1-0.2c-0.2-0.1-0.3-0.2-0.5-0.3
					c-0.2-0.1-0.2-0.4,0-0.5c0.2-0.2,0.3-0.3,0.5-0.4c0.1,0,0.1-0.1,0.1-0.2c0-0.3,0.1-0.5,0.1-0.8c0-0.1,0.1-0.2,0.1-0.3
					c0.1,0,0.2,0,0.2,0c0.2,0.2,0.2,0.3,0.4,0.5c0,0.1,0.1,0.1,0.2,0.1c0.2-0.1,0.4-0.1,0.6-0.2c0.2-0.1,0.3,0.2,0.2,0.4
					c-0.1,0.3-0.2,0.4-0.3,0.7c0,0.1,0,0.2,0,0.3c0.1,0.3,0.2,0.4,0.3,0.7c0.1,0.2,0,0.4-0.1,0.4c0,0-0.1,0-0.1,0
					c-0.2,0-0.4,0-0.6,0c0,0-0.1,0-0.1,0c0,0-0.1,0-0.1,0.1C42.4,40.4,42.4,40.5,42.1,40.9C42.2,40.8,42.1,40.8,42.1,40.9L42.1,40.9
					z M43.3,37c-0.1,0-0.1,0-0.2-0.1c0-0.2,0-0.3,0-0.4c0-0.1,0-0.1-0.1-0.1c-0.1-0.1-0.2-0.1-0.3-0.1c-0.1,0-0.1-0.2,0-0.3
					c0.1-0.1,0.2-0.1,0.3-0.2c0,0,0.1-0.1,0.1-0.1c0-0.2,0-0.3,0.1-0.4c0-0.1,0-0.1,0.1-0.1c0,0,0.1,0,0.1,0
					c0.1,0.1,0.1,0.2,0.2,0.3c0,0,0.1,0,0.1,0c0.1-0.1,0.2-0.1,0.3-0.1c0.1,0,0.2,0.1,0.1,0.2c-0.1,0.2-0.1,0.2-0.2,0.4
					c0,0,0,0.1,0,0.1c0.1,0.1,0.1,0.2,0.2,0.4c0,0.1,0,0.2-0.1,0.2c0,0,0,0-0.1,0c-0.1,0-0.2,0-0.3,0c0,0,0,0-0.1,0c0,0,0,0,0,0
					C43.5,36.8,43.5,36.9,43.3,37C43.3,37,43.3,37,43.3,37L43.3,37z M43.3,34.1c-0.9,0.5-1.9,1.1-2.8,1.6c-0.6,0.4-1,1.3-0.8,2.1
					c0.3,1.2,0.6,2.4,0.9,3.6c0.2,0.8,0.9,1.1,1.5,0.8c0.9-0.5,1.9-1.1,2.8-1.6c0.6-0.4,1-1.3,0.8-2.1c-0.3-1.2-0.6-2.4-0.9-3.6
					C44.6,34.1,44,33.7,43.3,34.1L43.3,34.1z"/>
				<path class="st24" d="M43.3,35c0,0-0.1,0.1-0.1,0.1c0,0.2,0,0.3-0.1,0.4c0,0.1,0,0.1-0.1,0.1c-0.1,0.1-0.2,0.1-0.3,0.2
					c-0.1,0.1-0.1,0.2,0,0.3c0.1,0.1,0.2,0.1,0.3,0.1c0,0,0.1,0.1,0.1,0.1c0,0.2,0,0.3,0,0.4c0,0.1,0.1,0.1,0.2,0.1c0,0,0,0,0,0
					c0.1-0.1,0.1-0.2,0.2-0.3c0,0,0,0,0,0c0,0,0,0,0.1,0c0.1,0,0.2,0,0.3,0c0,0,0,0,0.1,0c0.1,0,0.1-0.1,0.1-0.2
					c-0.1-0.1-0.1-0.2-0.2-0.4c0,0,0-0.1,0-0.1c0.1-0.2,0.1-0.2,0.2-0.4c0-0.1,0-0.2-0.1-0.2c-0.1,0-0.2,0.1-0.3,0.1
					c0,0-0.1,0-0.1,0c-0.1-0.1-0.1-0.2-0.2-0.3C43.3,35,43.3,35,43.3,35L43.3,35z"/>
				<path class="st24" d="M42,37.2c-0.1,0-0.1,0.1-0.1,0.3c0,0.3-0.1,0.5-0.1,0.8c0,0.1-0.1,0.2-0.1,0.2c-0.2,0.2-0.3,0.3-0.5,0.4
					c-0.2,0.1-0.2,0.4,0,0.5c0.2,0.1,0.3,0.2,0.5,0.3c0.1,0,0.1,0.1,0.1,0.2c0,0.3,0,0.5,0.1,0.8c0,0.2,0.2,0.3,0.3,0.2
					c0,0,0.1,0,0.1-0.1c0.2-0.2,0.3-0.4,0.4-0.6c0,0,0.1-0.1,0.1-0.1c0,0,0.1,0,0.1,0c0.2,0,0.4,0,0.6,0c0,0,0.1,0,0.1,0
					c0.1-0.1,0.2-0.3,0.1-0.4c-0.1-0.3-0.2-0.4-0.3-0.7c0-0.1,0-0.2,0-0.3c0.1-0.3,0.2-0.4,0.3-0.7c0.1-0.2,0-0.4-0.2-0.4
					c-0.2,0.1-0.4,0.1-0.6,0.2c-0.1,0-0.1,0-0.2-0.1c-0.2-0.2-0.2-0.3-0.4-0.5C42.1,37.2,42.1,37.2,42,37.2L42,37.2z"/>
				<path class="st30" d="M30.5,45.2c0.1,0,0.1-0.1,0.1-0.2c0-0.2,0-0.3,0-0.5c0.2-0.1,0.2-0.1,0.4-0.2c0.1,0.1,0.2,0.2,0.3,0.4
					c0,0.1,0.1,0.1,0.1,0c0,0,0,0,0,0c0.1-0.1,0.2-0.2,0.3-0.4c0.1,0.1,0.2,0.1,0.3,0.2c0,0.2-0.1,0.3-0.1,0.5c0,0.1,0,0.2,0.1,0.2
					c0.2,0,0.2,0.1,0.4,0.1c0,0.2,0,0.3,0,0.5c-0.1,0.1-0.2,0.2-0.4,0.3c-0.1,0.1-0.1,0.2-0.1,0.2c0.1,0.2,0.1,0.3,0.2,0.5
					c-0.1,0.2-0.2,0.2-0.3,0.4c-0.1-0.1-0.2-0.1-0.4-0.2c0,0-0.1,0-0.1,0c0,0-0.1,0.1-0.1,0.1c-0.1,0.2-0.1,0.3-0.2,0.5
					c-0.2,0-0.2,0-0.4,0c0-0.2-0.1-0.3-0.1-0.5c0-0.1-0.1-0.1-0.2-0.1c-0.2,0.1-0.2,0.1-0.4,0.1C30,47.1,30,47,29.9,46.9
					c0.1-0.2,0.2-0.3,0.2-0.5c0-0.1,0-0.2,0-0.2C30,46,30,46,29.9,45.8c0.1-0.2,0.1-0.3,0.1-0.5C30.2,45.3,30.3,45.3,30.5,45.2
					C30.4,45.2,30.4,45.2,30.5,45.2L30.5,45.2z M31.5,44.5c-0.1-0.1-0.2-0.1-0.4-0.2c0-0.1,0-0.2,0-0.4c0-0.1-0.1-0.3-0.2-0.3
					c-0.1,0-0.2-0.1-0.3-0.1c0-0.2,0-0.3,0-0.5c0.1-0.1,0.2-0.1,0.2-0.2s0.2-0.2,0.1-0.4c0-0.1,0-0.2-0.1-0.4
					c0.1-0.1,0.2-0.2,0.3-0.4c0.1,0.1,0.1,0.1,0.2,0.2c0.1,0,0.1,0,0.2,0c0,0,0.1,0,0.1-0.1c0.1-0.1,0.1-0.2,0.2-0.3
					c0.1,0.1,0.2,0.1,0.4,0.2c0,0.1,0,0.2,0,0.4c0,0.1,0.1,0.3,0.2,0.3c0.1,0,0.2,0.1,0.3,0.1c0,0.2,0,0.3,0,0.5
					c-0.1,0.1-0.2,0.1-0.3,0.2c-0.1,0.1-0.2,0.2-0.1,0.4c0,0.1,0,0.2,0.1,0.4c-0.1,0.1-0.2,0.2-0.3,0.4c-0.1-0.1-0.1-0.1-0.2-0.2
					c-0.1,0-0.1,0-0.2,0c0,0-0.1,0-0.1,0.1C31.6,44.3,31.5,44.4,31.5,44.5L31.5,44.5z M32,40.6c-0.9,0.5-1.9,1.1-2.8,1.6
					c-0.6,0.4-1,1.3-0.8,2.1c0.3,1.2,0.6,2.4,0.9,3.6c0.2,0.8,0.9,1.1,1.5,0.8c0.9-0.5,1.9-1.1,2.8-1.6c0.6-0.4,1-1.3,0.8-2.1
					c-0.3-1.2-0.6-2.4-0.9-3.6C33.3,40.6,32.6,40.3,32,40.6L32,40.6z"/>
				<path class="st39" d="M31.3,46.6c-0.3,0.2-0.6,0-0.6-0.3c-0.1-0.3,0.1-0.7,0.3-0.9c0.3-0.2,0.6,0,0.6,0.3
					C31.7,46,31.6,46.4,31.3,46.6L31.3,46.6z M31,44.3c-0.2,0.1-0.2,0.1-0.4,0.2c0,0.2,0,0.3,0,0.5c0,0.1,0,0.1-0.1,0.2c0,0,0,0,0,0
					c-0.2,0-0.2,0-0.4,0.1c-0.1,0.2-0.1,0.3-0.1,0.5C30,46,30,46,30.2,46.2c0.1,0.1,0.1,0.2,0,0.2c-0.1,0.2-0.1,0.3-0.2,0.5
					c0.1,0.2,0.1,0.3,0.2,0.4c0.2-0.1,0.2-0.1,0.4-0.1c0.1,0,0.1,0,0.2,0.1c0,0.2,0.1,0.3,0.1,0.5c0.2,0,0.2,0,0.4,0
					c0.1-0.2,0.1-0.3,0.2-0.5c0,0,0-0.1,0.1-0.1c0,0,0.1,0,0.1,0c0.1,0.1,0.2,0.1,0.4,0.2c0.1-0.2,0.2-0.2,0.3-0.4
					c-0.1-0.2-0.1-0.3-0.2-0.5c0-0.1,0-0.2,0.1-0.2c0.1-0.1,0.2-0.2,0.4-0.3c0-0.2,0-0.3,0-0.5c-0.2,0-0.2-0.1-0.4-0.1
					c-0.1,0-0.1-0.1-0.1-0.2c0-0.2,0.1-0.3,0.1-0.5c-0.1-0.1-0.2-0.1-0.3-0.2c-0.1,0.1-0.2,0.2-0.3,0.4c0,0,0,0,0,0
					c-0.1,0-0.1,0-0.1,0C31.1,44.5,31.1,44.4,31,44.3L31,44.3z"/>
				<path class="st39" d="M31.9,43.5c-0.2,0.1-0.5,0-0.5-0.3c-0.1-0.3,0.1-0.6,0.3-0.8c0.2-0.1,0.5,0,0.5,0.3
					C32.2,43.1,32.1,43.4,31.9,43.5L31.9,43.5z M31.3,41.7c-0.1,0.1-0.2,0.2-0.3,0.4c0,0.1,0,0.2,0.1,0.4c0,0.1,0,0.3-0.1,0.4
					s-0.2,0.1-0.2,0.2c0,0.2,0,0.3,0,0.5c0.1,0,0.2,0,0.3,0.1c0.1,0,0.2,0.2,0.2,0.3c0,0.2,0,0.2,0,0.4c0.1,0.1,0.2,0.1,0.4,0.2
					c0.1-0.1,0.1-0.2,0.2-0.3c0,0,0.1-0.1,0.1-0.1c0.1,0,0.1,0,0.2,0c0.1,0.1,0.1,0.1,0.2,0.2c0.1-0.1,0.2-0.2,0.3-0.4
					c0-0.1,0-0.2-0.1-0.4c0-0.1,0-0.3,0.1-0.4c0.1-0.1,0.2-0.1,0.3-0.2c0-0.2,0-0.3,0-0.5c-0.1,0-0.2,0-0.3-0.1
					c-0.1,0-0.2-0.2-0.2-0.3c0-0.2,0-0.2,0-0.4c-0.1-0.1-0.2-0.1-0.4-0.2c-0.1,0.1-0.1,0.2-0.2,0.3c0,0-0.1,0.1-0.1,0.1
					c-0.1,0-0.1,0-0.2,0C31.5,41.8,31.4,41.8,31.3,41.7L31.3,41.7z"/>
				<path class="st30" d="M31,45.4c-0.3,0.2-0.4,0.6-0.3,0.9c0.1,0.3,0.4,0.5,0.6,0.3c0.3-0.2,0.4-0.6,0.3-0.9
					C31.6,45.4,31.3,45.2,31,45.4L31,45.4z"/>
				<path class="st30" d="M31.6,42.5c-0.2,0.1-0.3,0.5-0.3,0.8c0.1,0.3,0.3,0.4,0.5,0.3c0.2-0.1,0.4-0.5,0.3-0.8
					C32.1,42.5,31.9,42.4,31.6,42.5L31.6,42.5z"/>
				<path class="st13" d="M66.1,27.7c-1.1,0.7-2.4,0-2.7-1.4c-0.4-1.4,0.3-3.2,1.4-3.8c1.1-0.7,2.4,0,2.7,1.4
					C67.9,25.3,67.2,27,66.1,27.7L66.1,27.7z M66,21c-0.9,0.5-1.9,1.1-2.8,1.6c-0.6,0.4-1,1.3-0.8,2.1c0.3,1.2,0.6,2.4,0.9,3.6
					c0.2,0.8,0.9,1.1,1.5,0.8c0.9-0.5,1.9-1.1,2.8-1.6c0.6-0.4,1-1.3,0.8-2.1c-0.3-1.2-0.6-2.4-0.9-3.6C67.3,21,66.6,20.6,66,21
					L66,21z"/>
				<path class="st16" d="M65.5,26.1L65.5,26.1C65.5,26.1,65.5,26.1,65.5,26.1C65.5,26.1,65.5,26.1,65.5,26.1L65.5,26.1z M66.1,22.6
					c0.2,1.3,0.4,2.5,0.6,3.8c-0.4-0.1-0.7-0.1-1.1-0.2c0,0.4,0,0.5-0.1,0.9c-0.2-0.3-0.3-0.5-0.4-0.9c-0.5,0.1-0.7,0.1-1.2,0.1
					C64.7,25.1,65.4,23.8,66.1,22.6L66.1,22.6z M64.8,22.4c-1.1,0.7-1.8,2.4-1.4,3.8c0.4,1.4,1.6,2.1,2.7,1.4
					c1.1-0.7,1.8-2.4,1.4-3.8C67.1,22.4,65.9,21.7,64.8,22.4L64.8,22.4z"/>
				<path class="st13" d="M66.1,22.6c-0.7,1.3-1.4,2.5-2.1,3.8c0.5-0.1,0.7-0.1,1.2-0.1c0.3-0.9,0.4-1.3,0.7-2.2
					c-0.1,0.9-0.2,1.3-0.3,2.2c0,0,0,0,0,0c0,0,0,0,0.1,0c0,0,0,0,0,0c0.4,0.1,0.6,0.1,1.1,0.2C66.5,25.1,66.3,23.8,66.1,22.6
					L66.1,22.6z"/>
				<path class="st5" d="M65.8,24c-0.3,0.9-0.4,1.3-0.7,2.2c0.2,0.3,0.3,0.5,0.4,0.9c0-0.4,0-0.5,0.1-0.9c0,0,0,0,0,0
					c0,0-0.1,0-0.1,0c0,0,0,0,0,0v0C65.6,25.3,65.7,24.8,65.8,24L65.8,24z"/>
				<path class="st40" d="M82.6,61.4L70.5,12.6c-0.5-1.8-2-2.6-3.4-1.8l-16.6,9.6l-9,5.2L25,35.1c-1.4,0.8-2.2,3-1.8,4.8l12.1,48.8
					c0.5,1.8,2,2.6,3.4,1.8l42.1-24.3C82.3,65.4,83.1,63.2,82.6,61.4z M80.7,65.9L38.7,90.2c-1.3,0.8-2.7,0-3.1-1.6L23.4,39.8
					c-0.4-1.7,0.3-3.6,1.6-4.4l17-9.8l1.5,0.1c0.9,0.1,1.8-0.1,2.7-0.6l0.6-0.3c0.9-0.5,1.6-1.3,2.3-2.2l1.1-1.6l17-9.8
					c1.3-0.8,2.7,0,3.1,1.6l12.1,48.8C82.8,63.2,82.1,65.2,80.7,65.9z"/>
				<path class="st30" d="M25.2,36.9C25.1,37,25,37.2,25,37.4c0.1,0.2,0.2,0.3,0.4,0.2c0.2-0.1,0.3-0.3,0.2-0.6
					C25.6,36.9,25.4,36.8,25.2,36.9L25.2,36.9z"/>
				<path class="st30" d="M26.2,36.3c-0.2,0.1-0.3,0.3-0.2,0.6c0.1,0.2,0.2,0.3,0.4,0.2c0.2-0.1,0.3-0.3,0.2-0.6
					C26.5,36.3,26.3,36.2,26.2,36.3L26.2,36.3z"/>
				<path class="st30" d="M27.1,35.8c-0.2,0.1-0.3,0.3-0.2,0.6c0.1,0.2,0.2,0.3,0.4,0.2c0.2-0.1,0.3-0.3,0.2-0.6
					C27.4,35.8,27.3,35.7,27.1,35.8L27.1,35.8z"/>
				<path class="st30" d="M28,35.3c-0.2,0.1-0.3,0.3-0.2,0.6c0.1,0.2,0.2,0.3,0.4,0.2c0.2-0.1,0.3-0.3,0.2-0.6
					C28.4,35.3,28.2,35.2,28,35.3L28,35.3z"/>
				<path class="st30" d="M66.5,12.1c-0.4,0.2-1.2,0.7-1.6,0.9c-0.1,0-0.1,0.1-0.1,0.2c0.1,0.3,0.1,0.5,0.2,0.8
					c0,0.1,0.1,0.1,0.2,0.1c0.4-0.2,1.2-0.7,1.6-0.9c0.1,0,0.1-0.1,0.1-0.2c0-0.1,0-0.1,0-0.2l0,0c0,0-0.1,0-0.1,0l-0.1-0.3
					c0,0,0-0.1,0-0.1l0,0c0-0.1,0-0.1,0-0.2C66.6,12.1,66.6,12.1,66.5,12.1L66.5,12.1z"/>
				<path class="st30" d="M66.8,12.3l-0.1,0.1l0,0c0,0-0.1,0.1,0,0.1l0.1,0.3c0,0,0.1,0.1,0.1,0l0,0l0.1-0.1c0,0,0-0.1,0-0.1
					L66.8,12.3C66.9,12.3,66.9,12.3,66.8,12.3L66.8,12.3z"/>
			</g>
			<g>
				<g>
					<path class="st1" d="M50,96.6v-0.2l-0.2,0l-2.1-1.2c-0.2-0.1-0.6-0.1-0.8,0l-2.1,1.2l-0.2,0v0.2v0v0h0c0,0.1,0.1,0.2,0.2,0.2
						l2.1,1.2c0.2,0.1,0.6,0.1,0.8,0l2.1-1.2C50,96.8,50,96.7,50,96.6z"/>
					<path class="st1" d="M63.5,104.4v-0.2l-0.2,0l-2.1-1.2c-0.2-0.1-0.6-0.1-0.8,0l-2.1,1.2l-0.2,0v0.2v0v0h0
						c0,0.1,0.1,0.2,0.2,0.2l2.1,1.2c0.2,0.1,0.6,0.1,0.8,0l2.1-1.2C63.4,104.6,63.5,104.5,63.5,104.4z"/>
					<path class="st1" d="M66.8,102.5v-0.2l-0.2,0l-2.1-1.2c-0.2-0.1-0.6-0.1-0.8,0l-2.1,1.2l-0.2,0v0.2v0v0l0,0
						c0,0.1,0.1,0.2,0.2,0.2l2.1,1.2c0.2,0.1,0.6,0.1,0.8,0l2.1-1.2C66.7,102.6,66.8,102.5,66.8,102.5z"/>
					<path class="st1" d="M70.1,100.5v-0.2l-0.2,0l-2.1-1.2c-0.2-0.1-0.6-0.1-0.8,0l-2.1,1.2l-0.2,0v0.2v0v0h0
						c0,0.1,0.1,0.2,0.2,0.2L67,102c0.2,0.1,0.6,0.1,0.8,0l2.1-1.2C70,100.7,70.1,100.6,70.1,100.5z"/>
					<path class="st1" d="M73.4,98.6v-0.2l-0.2,0l-2.1-1.2c-0.2-0.1-0.6-0.1-0.8,0l-2.1,1.2l-0.2,0v0.2v0v0h0c0,0.1,0.1,0.2,0.2,0.2
						l2.1,1.2c0.2,0.1,0.6,0.1,0.8,0l2.1-1.2C73.4,98.8,73.4,98.7,73.4,98.6z"/>
					<path class="st1" d="M53.3,94.7v-0.2l-0.2,0l-2.1-1.2c-0.2-0.1-0.6-0.1-0.8,0l-2.1,1.2l-0.2,0v0.2v0v0h0c0,0.1,0.1,0.2,0.2,0.2
						l2.1,1.2c0.2,0.1,0.6,0.1,0.8,0l2.1-1.2C53.3,94.9,53.3,94.8,53.3,94.7z"/>
					<path class="st1" d="M58.6,95.5v-0.2l-0.2,0l-2.1-1.2c-0.2-0.1-0.6-0.1-0.8,0l-2.1,1.2l-0.2,0v0.2v0v0h0c0,0.1,0.1,0.2,0.2,0.2
						l2.1,1.2c0.2,0.1,0.6,0.1,0.8,0l2.1-1.2C58.5,95.7,58.6,95.6,58.6,95.5z"/>
					<path class="st1" d="M61.9,93.6v-0.2l-0.2,0l-2.1-1.2c-0.2-0.1-0.6-0.1-0.8,0l-2.1,1.2l-0.2,0v0.2v0v0h0c0,0.1,0.1,0.2,0.2,0.2
						l2.1,1.2c0.2,0.1,0.6,0.1,0.8,0l2.1-1.2C61.8,93.8,61.9,93.7,61.9,93.6z"/>
					<path class="st1" d="M63.6,96.5v-0.2l-0.2,0l-2.1-1.2c-0.2-0.1-0.6-0.1-0.8,0l-2.1,1.2l-0.2,0v0.2v0v0l0,0
						c0,0.1,0.1,0.2,0.2,0.2l2.1,1.2c0.2,0.1,0.6,0.1,0.8,0l2.1-1.2C63.5,96.7,63.6,96.6,63.6,96.5z"/>
					<path class="st1" d="M67,98.5v-0.2l-0.2,0L64.7,97c-0.2-0.1-0.6-0.1-0.8,0l-2.1,1.2l-0.2,0v0.2v0v0h0c0,0.1,0.1,0.2,0.2,0.2
						l2.1,1.2c0.2,0.1,0.6,0.1,0.8,0l2.1-1.2C66.9,98.6,67,98.6,67,98.5z"/>
					<path class="st1" d="M70.3,96.6v-0.2l-0.2,0L68,95.1c-0.2-0.1-0.6-0.1-0.8,0l-2.1,1.2l-0.2,0v0.2v0v0h0c0,0.1,0.1,0.2,0.2,0.2
						l2.1,1.2c0.2,0.1,0.6,0.1,0.8,0l2.1-1.2C70.2,96.7,70.3,96.6,70.3,96.6z"/>
					<path class="st1" d="M73.6,94.6v-0.2l-0.2,0l-2.1-1.2c-0.2-0.1-0.6-0.1-0.8,0l-2.1,1.2l-0.2,0v0.2v0v0l0,0
						c0,0.1,0.1,0.2,0.2,0.2l2.1,1.2c0.2,0.1,0.6,0.1,0.8,0l2.1-1.2C73.5,94.8,73.6,94.7,73.6,94.6z"/>
					<path class="st1" d="M76.9,92.7v-0.2l-0.2,0l-2.1-1.2c-0.2-0.1-0.6-0.1-0.8,0l-2.1,1.2l-0.2,0v0.2v0v0h0c0,0.1,0.1,0.2,0.2,0.2
						l2.1,1.2c0.2,0.1,0.6,0.1,0.8,0l2.1-1.2C76.9,92.9,76.9,92.8,76.9,92.7z"/>
					<path class="st1" d="M80.2,90.8v-0.2l-0.2,0l-2.1-1.2c-0.2-0.1-0.6-0.1-0.8,0l-2.1,1.2l-0.2,0v0.2v0v0h0c0,0.1,0.1,0.2,0.2,0.2
						l2.1,1.2c0.2,0.1,0.6,0.1,0.8,0l2.1-1.2C80.2,90.9,80.2,90.9,80.2,90.8z"/>
					<path class="st1" d="M83.5,88.9v-0.2l-0.2,0l-2.1-1.2c-0.2-0.1-0.6-0.1-0.8,0l-2.1,1.2l-0.2,0v0.2v0v0h0c0,0.1,0.1,0.2,0.2,0.2
						l2.1,1.2c0.2,0.1,0.6,0.1,0.8,0l2.1-1.2C83.5,89,83.5,88.9,83.5,88.9z"/>
					<path class="st1" d="M86.9,86.9v-0.2l-0.2,0l-2.1-1.2c-0.2-0.1-0.6-0.1-0.8,0l-2.1,1.2l-0.2,0v0.2v0v0l0,0
						c0,0.1,0.1,0.2,0.2,0.2l2.1,1.2c0.2,0.1,0.6,0.1,0.8,0l2.1-1.2C86.8,87.1,86.9,87,86.9,86.9z"/>
					<path class="st1" d="M90.2,85v-0.2l-0.2,0l-2.1-1.2c-0.2-0.1-0.6-0.1-0.8,0L85,84.8l-0.2,0V85v0v0h0c0,0.1,0.1,0.2,0.2,0.2
						l2.1,1.2c0.2,0.1,0.6,0.1,0.8,0l2.1-1.2C90.1,85.2,90.2,85.1,90.2,85z"/>
					<path class="st1" d="M93.5,83.1v-0.2l-0.2,0l-2.1-1.2c-0.2-0.1-0.6-0.1-0.8,0l-2.1,1.2l-0.2,0v0.2v0v0h0c0,0.1,0.1,0.2,0.2,0.2
						l2.1,1.2c0.2,0.1,0.6,0.1,0.8,0l2.1-1.2C93.4,83.2,93.5,83.2,93.5,83.1z"/>
					<path class="st1" d="M97,84.9v-0.2l-0.2,0l-2.1-1.2c-0.2-0.1-0.6-0.1-0.8,0l-2.1,1.2l-0.2,0v0.2v0v0h0c0,0.1,0.1,0.2,0.2,0.2
						l2.1,1.2c0.2,0.1,0.6,0.1,0.8,0l2.1-1.2C97,85,97,85,97,84.9z"/>
					<path class="st1" d="M100.4,83v-0.2l-0.2,0l-2.1-1.2c-0.2-0.1-0.6-0.1-0.8,0l-2.1,1.2l-0.2,0V83v0v0h0c0,0.1,0.1,0.2,0.2,0.2
						l2.1,1.2c0.2,0.1,0.6,0.1,0.8,0l2.1-1.2C100.3,83.1,100.4,83,100.4,83z"/>
					<path class="st1" d="M107.1,79.1v-0.2l-0.2,0l-2.1-1.2c-0.2-0.1-0.6-0.1-0.8,0l-2.1,1.2l-0.2,0v0.2v0v0h0
						c0,0.1,0.1,0.2,0.2,0.2l2.1,1.2c0.2,0.1,0.6,0.1,0.8,0l2.1-1.2C107,79.2,107.1,79.1,107.1,79.1z"/>
					<path class="st1" d="M103.5,76.9l-2.1-1.2c-0.2-0.1-0.6-0.1-0.8,0l-0.3,0.2h0l-1.8,1l-0.2,0V77l-0.1,0.1l-0.2,0v0.2v0v0h0
						c0,0.1,0.1,0.2,0.2,0.2l2.1,1.2c0.2,0.1,0.6,0.1,0.8,0l2.4-1.4c0.1-0.1,0.2-0.1,0.2-0.2v-0.2L103.5,76.9z"/>
					<path class="st1" d="M96.8,81.2v-0.2l-0.2,0l-2.1-1.2c-0.2-0.1-0.6-0.1-0.8,0l-2.1,1.2l-0.2,0v0.2v0v0h0c0,0.1,0.1,0.2,0.2,0.2
						l2.1,1.2c0.2,0.1,0.6,0.1,0.8,0l2.1-1.2C96.8,81.3,96.8,81.2,96.8,81.2z"/>
					<path class="st1" d="M100.1,79.2V79l-0.2,0l-2.1-1.2c-0.2-0.1-0.6-0.1-0.8,0L95,79l-0.2,0v0.2v0v0h0c0,0.1,0.1,0.2,0.2,0.2
						l2.1,1.2c0.2,0.1,0.6,0.1,0.8,0l2.1-1.2C100.1,79.4,100.1,79.3,100.1,79.2z"/>
					<path class="st1" d="M66.9,94.6v-0.2l-0.2,0l-2.1-1.2c-0.2-0.1-0.6-0.1-0.8,0l-2.1,1.2l-0.2,0v0.2v0v0h0c0,0.1,0.1,0.2,0.2,0.2
						l2.1,1.2c0.2,0.1,0.6,0.1,0.8,0l2.1-1.2C66.9,94.8,66.9,94.7,66.9,94.6z"/>
					<path class="st1" d="M70.2,92.7v-0.2l-0.2,0l-2.1-1.2c-0.2-0.1-0.6-0.1-0.8,0l-2.1,1.2l-0.2,0v0.2v0v0h0c0,0.1,0.1,0.2,0.2,0.2
						l2.1,1.2c0.2,0.1,0.6,0.1,0.8,0l2.1-1.2C70.2,92.8,70.2,92.8,70.2,92.7z"/>
					<path class="st1" d="M73.5,90.8v-0.2l-0.2,0l-2.1-1.2c-0.2-0.1-0.6-0.1-0.8,0l-2.1,1.2l-0.2,0v0.2v0v0h0c0,0.1,0.1,0.2,0.2,0.2
						l2.1,1.2c0.2,0.1,0.6,0.1,0.8,0l2.1-1.2C73.5,90.9,73.5,90.8,73.5,90.8z"/>
					<path class="st1" d="M76.8,88.8v-0.2l-0.2,0l-2.1-1.2c-0.2-0.1-0.6-0.1-0.8,0l-2.1,1.2l-0.2,0v0.2v0v0h0c0,0.1,0.1,0.2,0.2,0.2
						l2.1,1.2c0.2,0.1,0.6,0.1,0.8,0l2.1-1.2C76.8,89,76.8,88.9,76.8,88.8z"/>
					<path class="st1" d="M80.2,86.9v-0.2l-0.2,0l-2.1-1.2c-0.2-0.1-0.6-0.1-0.8,0L75,86.7l-0.2,0v0.2v0v0h0c0,0.1,0.1,0.2,0.2,0.2
						l2.1,1.2c0.2,0.1,0.6,0.1,0.8,0l2.1-1.2C80.1,87.1,80.2,87,80.2,86.9z"/>
					<path class="st1" d="M83.5,85v-0.2l-0.2,0l-2.1-1.2c-0.2-0.1-0.6-0.1-0.8,0l-2.1,1.2l-0.2,0V85v0v0h0c0,0.1,0.1,0.2,0.2,0.2
						l2.1,1.2c0.2,0.1,0.6,0.1,0.8,0l2.1-1.2C83.4,85.1,83.5,85.1,83.5,85z"/>
					<path class="st1" d="M86.8,83.1v-0.2l-0.2,0l-2.1-1.2c-0.2-0.1-0.6-0.1-0.8,0l-2.1,1.2l-0.2,0v0.2v0v0h0c0,0.1,0.1,0.2,0.2,0.2
						l2.1,1.2c0.2,0.1,0.6,0.1,0.8,0l2.1-1.2C86.7,83.2,86.8,83.1,86.8,83.1z"/>
					<path class="st1" d="M90.1,81.1v-0.2l-0.2,0l-2.1-1.2c-0.2-0.1-0.6-0.1-0.8,0L85,80.9l-0.2,0v0.2v0v0h0c0,0.1,0.1,0.2,0.2,0.2
						l2.1,1.2c0.2,0.1,0.6,0.1,0.8,0l2.1-1.2C90.1,81.3,90.1,81.2,90.1,81.1z"/>
					<path class="st1" d="M93.4,79.2V79l-0.2,0l-2.1-1.2c-0.2-0.1-0.6-0.1-0.8,0L88.3,79l-0.2,0v0.2v0v0h0c0,0.1,0.1,0.2,0.2,0.2
						l2.1,1.2c0.2,0.1,0.6,0.1,0.8,0l2.1-1.2C93.4,79.4,93.4,79.3,93.4,79.2z"/>
					<path class="st1" d="M65.2,91.7v-0.2l-0.2,0l-2.1-1.2c-0.2-0.1-0.6-0.1-0.8,0L60,91.5l-0.2,0v0.2v0v0h0c0,0.1,0.1,0.2,0.2,0.2
						l2.1,1.2c0.2,0.1,0.6,0.1,0.8,0l2.1-1.2C65.1,91.9,65.2,91.8,65.2,91.7z"/>
					<path class="st1" d="M68.5,89.8v-0.2l-0.2,0l-2.1-1.2c-0.2-0.1-0.6-0.1-0.8,0l-2.1,1.2l-0.2,0v0.2v0v0h0c0,0.1,0.1,0.2,0.2,0.2
						l2.1,1.2c0.2,0.1,0.6,0.1,0.8,0l2.1-1.2C68.4,89.9,68.5,89.8,68.5,89.8z"/>
					<path class="st1" d="M71.8,87.8v-0.2l-0.2,0l-2.1-1.2c-0.2-0.1-0.6-0.1-0.8,0l-2.1,1.2l-0.2,0v0.2v0v0h0c0,0.1,0.1,0.2,0.2,0.2
						l2.1,1.2c0.2,0.1,0.6,0.1,0.8,0l2.1-1.2C71.8,88,71.8,87.9,71.8,87.8z"/>
					<path class="st1" d="M75.1,85.9v-0.2l-0.2,0l-2.1-1.2c-0.2-0.1-0.6-0.1-0.8,0L70,85.7l-0.2,0v0.2v0v0h0c0,0.1,0.1,0.2,0.2,0.2
						l2.1,1.2c0.2,0.1,0.6,0.1,0.8,0l2.1-1.2C75.1,86.1,75.1,86,75.1,85.9z"/>
					<path class="st1" d="M78.4,84v-0.2l-0.2,0l-2.1-1.2c-0.2-0.1-0.6-0.1-0.8,0l-2.1,1.2l-0.2,0V84v0v0h0c0,0.1,0.1,0.2,0.2,0.2
						l2.1,1.2c0.2,0.1,0.6,0.1,0.8,0l2.1-1.2C78.4,84.2,78.4,84.1,78.4,84z"/>
					<path class="st1" d="M81.8,82.1v-0.2l-0.2,0l-2.1-1.2c-0.2-0.1-0.6-0.1-0.8,0l-2.1,1.2l-0.2,0v0.2v0v0h0c0,0.1,0.1,0.2,0.2,0.2
						l2.1,1.2c0.2,0.1,0.6,0.1,0.8,0l2.1-1.2C81.7,82.2,81.8,82.1,81.8,82.1z"/>
					<path class="st1" d="M85.1,80.1v-0.2l-0.2,0l-2.1-1.2c-0.2-0.1-0.6-0.1-0.8,0l-2.1,1.2l-0.2,0v0.2v0v0h0c0,0.1,0.1,0.2,0.2,0.2
						l2.1,1.2c0.2,0.1,0.6,0.1,0.8,0l2.1-1.2C85,80.3,85.1,80.2,85.1,80.1z"/>
					<path class="st1" d="M88.4,78.2V78l-0.2,0l-2.1-1.2c-0.2-0.1-0.6-0.1-0.8,0L83.2,78L83,78v0.2v0v0h0c0,0.1,0.1,0.2,0.2,0.2
						l2.1,1.2c0.2,0.1,0.6,0.1,0.8,0l2.1-1.2C88.3,78.4,88.4,78.3,88.4,78.2z"/>
					<path class="st1" d="M91.7,76.3V76l-0.2,0l-2.1-1.2c-0.2-0.1-0.6-0.1-0.8,0L86.5,76l-0.2,0v0.2v0v0l0,0c0,0.1,0.1,0.2,0.2,0.2
						l2.1,1.2c0.2,0.1,0.6,0.1,0.8,0l2.1-1.2C91.6,76.4,91.7,76.4,91.7,76.3z"/>
					<path class="st1" d="M56.7,92.8v-0.2l-0.2,0l-2.1-1.2c-0.2-0.1-0.6-0.1-0.8,0l-2.1,1.2l-0.2,0v0.2v0v0h0c0,0.1,0.1,0.2,0.2,0.2
						l2.1,1.2c0.2,0.1,0.6,0.1,0.8,0l2.1-1.2C56.6,92.9,56.7,92.9,56.7,92.8z"/>
					<path class="st1" d="M60,90.9v-0.2l-0.2,0l-2.1-1.2c-0.2-0.1-0.6-0.1-0.8,0l-2.1,1.2l-0.2,0v0.2v0v0h0c0,0.1,0.1,0.2,0.2,0.2
						l2.1,1.2c0.2,0.1,0.6,0.1,0.8,0l2.1-1.2C59.9,91,60,90.9,60,90.9z"/>
					<path class="st1" d="M63.3,88.9v-0.2l-0.2,0L61,87.5c-0.2-0.1-0.6-0.1-0.8,0l-2.1,1.2l-0.2,0v0.2v0v0h0c0,0.1,0.1,0.2,0.2,0.2
						l2.1,1.2c0.2,0.1,0.6,0.1,0.8,0l2.1-1.2C63.2,89.1,63.3,89,63.3,88.9z"/>
					<path class="st1" d="M66.6,87v-0.2l-0.2,0l-2.1-1.2c-0.2-0.1-0.6-0.1-0.8,0l-2.1,1.2l-0.2,0V87v0v0l0,0c0,0.1,0.1,0.2,0.2,0.2
						l2.1,1.2c0.2,0.1,0.6,0.1,0.8,0l2.1-1.2C66.5,87.2,66.6,87.1,66.6,87z"/>
					<path class="st1" d="M69.9,85.1v-0.2l-0.2,0l-2.1-1.2c-0.2-0.1-0.6-0.1-0.8,0l-2.1,1.2l-0.2,0v0.2v0v0h0c0,0.1,0.1,0.2,0.2,0.2
						l2.1,1.2c0.2,0.1,0.6,0.1,0.8,0l2.1-1.2C69.9,85.2,69.9,85.2,69.9,85.1z"/>
					<path class="st1" d="M73.2,83.2v-0.2l-0.2,0l-2.1-1.2c-0.2-0.1-0.6-0.1-0.8,0l-2.1,1.2l-0.2,0v0.2v0v0h0c0,0.1,0.1,0.2,0.2,0.2
						l2.1,1.2c0.2,0.1,0.6,0.1,0.8,0l2.1-1.2C73.2,83.3,73.2,83.2,73.2,83.2z"/>
					<path class="st1" d="M76.5,81.2V81l-0.2,0l-2.1-1.2c-0.2-0.1-0.6-0.1-0.8,0L71.4,81l-0.2,0v0.2v0v0h0c0,0.1,0.1,0.2,0.2,0.2
						l2.1,1.2c0.2,0.1,0.6,0.1,0.8,0l2.1-1.2C76.5,81.4,76.5,81.3,76.5,81.2z"/>
					<path class="st1" d="M79.9,79.3v-0.2l-0.2,0l-2.1-1.2c-0.2-0.1-0.6-0.1-0.8,0l-2.1,1.2l-0.2,0v0.2v0v0h0c0,0.1,0.1,0.2,0.2,0.2
						l2.1,1.2c0.2,0.1,0.6,0.1,0.8,0l2.1-1.2C79.8,79.5,79.9,79.4,79.9,79.3z"/>
					<path class="st1" d="M83.2,77.4v-0.2l-0.2,0l-2.1-1.2c-0.2-0.1-0.6-0.1-0.8,0L78,77.1l-0.2,0v0.2v0v0h0c0,0.1,0.1,0.2,0.2,0.2
						l2.1,1.2c0.2,0.1,0.6,0.1,0.8,0l2.1-1.2C83.1,77.5,83.2,77.5,83.2,77.4z"/>
					<path class="st1" d="M86.5,75.4v-0.2l-0.2,0L84.2,74c-0.2-0.1-0.6-0.1-0.8,0l-2.1,1.2l-0.2,0v0.2v0v0l0,0
						c0,0.1,0.1,0.2,0.2,0.2l2.1,1.2c0.2,0.1,0.6,0.1,0.8,0l2.1-1.2C86.4,75.6,86.5,75.5,86.5,75.4z"/>
					<path class="st1" d="M89.8,73.5v-0.2l-0.2,0l-2.1-1.2c-0.2-0.1-0.6-0.1-0.8,0l-2.1,1.2l-0.2,0v0.2v0v0h0c0,0.1,0.1,0.2,0.2,0.2
						l2.1,1.2c0.2,0.1,0.6,0.1,0.8,0l2.1-1.2C89.8,73.7,89.8,73.6,89.8,73.5z"/>
					<path class="st1" d="M93.6,71l-0.2,0l-2.1-1.2c-0.2-0.1-0.6-0.1-0.8,0L88,71.3l-0.2,0l0,0.2c0,0,0,0,0,0l0,0l0,0
						c0,0.1,0.1,0.1,0.2,0.2l2.1,1.2c0.2,0.1,0.6,0.1,0.8,0l2.6-1.5c0.1-0.1,0.2-0.2,0.2-0.2l0,0V71z"/>
					<path class="st1" d="M93.7,86.8v-0.2l-0.2,0l-2.1-1.2c-0.2-0.1-0.4-0.1-0.6-0.1c-0.1,0-0.1,0-0.2,0.1l-2.1,1.2l-0.2,0v0.1
						l-14.7,8.6l0,0l-2.1,1.2l-0.2,0v0.2v0v0h0c0,0,0,0,0,0c0,0,0,0,0,0c0,0,0,0,0,0c0,0,0,0,0,0c0,0,0,0,0,0c0,0,0,0,0,0
						c0,0,0,0,0.1,0l0,0l2.1,1.2c0.1,0,0.1,0.1,0.2,0.1c0.1,0,0.1,0,0.2,0c0.1,0,0.3,0,0.4-0.1l2.1-1.2l0,0l17-9.9
						C93.7,87,93.7,86.9,93.7,86.8z"/>
					<path class="st1" d="M50.5,92.5C50.5,92.5,50.5,92.5,50.5,92.5v-0.2l-0.1,0c0,0,0,0,0,0l-0.6-0.3c-0.2-0.1-0.6-0.1-0.8,0
						l-2,1.1l-0.3,0.1l0,0.3c0,0.1,0.1,0.2,0.2,0.2l0.6,0.3c0.2,0.1,0.6,0.1,0.8,0l2.1-1.2C50.5,92.6,50.5,92.6,50.5,92.5L50.5,92.5
						L50.5,92.5z"/>
					<path class="st1" d="M53.8,90.6C53.8,90.6,53.8,90.6,53.8,90.6v-0.2l-0.1,0c0,0,0,0,0,0L53.1,90c-0.2-0.1-0.6-0.1-0.8,0l-2,1.1
						l-0.3,0.1l0,0.3c0,0.1,0.1,0.2,0.2,0.2l0.6,0.3c0.2,0.1,0.6,0.1,0.8,0l2.1-1.2C53.8,90.7,53.8,90.6,53.8,90.6L53.8,90.6
						L53.8,90.6z"/>
					<path class="st1" d="M57.1,88.6C57.1,88.6,57.1,88.6,57.1,88.6v-0.2l-0.1,0c0,0,0,0,0,0l-0.6-0.3c-0.2-0.1-0.6-0.1-0.8,0
						l-2,1.1l-0.3,0.1l0,0.3c0,0.1,0.1,0.2,0.2,0.2l0.6,0.3c0.2,0.1,0.6,0.1,0.8,0l2.1-1.2C57.1,88.8,57.1,88.7,57.1,88.6L57.1,88.6
						L57.1,88.6z"/>
					<path class="st1" d="M60.5,86.7C60.5,86.7,60.5,86.7,60.5,86.7v-0.2l-0.1,0c0,0,0,0,0,0l-0.6-0.3c-0.2-0.1-0.6-0.1-0.8,0
						l-2,1.1l-0.3,0.1l0,0.3c0,0.1,0.1,0.2,0.2,0.2l0.6,0.3c0.2,0.1,0.6,0.1,0.8,0l2.1-1.2C60.4,86.9,60.5,86.8,60.5,86.7L60.5,86.7
						L60.5,86.7z"/>
					<path class="st1" d="M63.8,84.8C63.8,84.8,63.8,84.8,63.8,84.8v-0.2l-0.1,0c0,0,0,0,0,0L63,84.2c-0.2-0.1-0.6-0.1-0.8,0l-2,1.1
						L60,85.4l0,0.3c0,0.1,0.1,0.2,0.2,0.2l0.6,0.3c0.2,0.1,0.6,0.1,0.8,0l2.1-1.2C63.7,84.9,63.8,84.9,63.8,84.8L63.8,84.8
						L63.8,84.8z"/>
					<path class="st1" d="M67.1,82.9C67.1,82.9,67.1,82.9,67.1,82.9v-0.2l-0.1,0c0,0,0,0,0,0l-0.6-0.3c-0.2-0.1-0.6-0.1-0.8,0
						l-2,1.1l-0.3,0.1l0,0.3c0,0.1,0.1,0.2,0.2,0.2l0.6,0.3c0.2,0.1,0.6,0.1,0.8,0l2.1-1.2C67,83,67.1,82.9,67.1,82.9L67.1,82.9
						L67.1,82.9z"/>
					<path class="st1" d="M70.4,80.9C70.4,80.9,70.4,80.9,70.4,80.9v-0.2l-0.1,0c0,0,0,0,0,0l-0.6-0.3c-0.2-0.1-0.6-0.1-0.8,0
						l-2,1.1l-0.3,0.1l0,0.3c0,0.1,0.1,0.2,0.2,0.2l0.6,0.3c0.2,0.1,0.6,0.1,0.8,0l2.1-1.2C70.4,81.1,70.4,81,70.4,80.9L70.4,80.9
						L70.4,80.9z"/>
					<path class="st1" d="M73.7,79C73.7,79,73.7,79,73.7,79v-0.2l-0.1,0c0,0,0,0,0,0L73,78.4c-0.2-0.1-0.6-0.1-0.8,0l-2,1.1
						l-0.3,0.1l0,0.3c0,0.1,0.1,0.2,0.2,0.2l0.6,0.3c0.2,0.1,0.6,0.1,0.8,0l2.1-1.2C73.7,79.2,73.7,79.1,73.7,79L73.7,79L73.7,79z"
						/>
					<path class="st1" d="M77,77.1C77,77.1,77,77.1,77,77.1v-0.2l-0.1,0c0,0,0,0,0,0l-0.6-0.3c-0.2-0.1-0.6-0.1-0.8,0l-2,1.1
						l-0.3,0.1l0,0.3c0,0.1,0.1,0.2,0.2,0.2l0.6,0.3c0.2,0.1,0.6,0.1,0.8,0l2.1-1.2C77,77.2,77,77.2,77,77.1L77,77.1L77,77.1z"/>
					<path class="st1" d="M80.3,75.2C80.3,75.2,80.3,75.1,80.3,75.2v-0.2l-0.1,0c0,0,0,0,0,0l-0.6-0.3c-0.2-0.1-0.6-0.1-0.8,0
						l-2,1.1l-0.3,0.1l0,0.3c0,0.1,0.1,0.2,0.2,0.2l0.6,0.3c0.2,0.1,0.6,0.1,0.8,0l2.1-1.2C80.3,75.3,80.3,75.2,80.3,75.2L80.3,75.2
						L80.3,75.2z"/>
					<path class="st1" d="M83.7,73.2C83.7,73.2,83.7,73.2,83.7,73.2V73l-0.1,0c0,0,0,0,0,0l-0.6-0.3c-0.2-0.1-0.6-0.1-0.8,0l-2,1.1
						l-0.3,0.1l0,0.3c0,0.1,0.1,0.2,0.2,0.2l0.6,0.3c0.2,0.1,0.6,0.1,0.8,0l2.1-1.2C83.6,73.4,83.7,73.3,83.7,73.2L83.7,73.2
						L83.7,73.2z"/>
					<path class="st1" d="M87,71.3C87,71.3,87,71.3,87,71.3v-0.2l-0.1,0c0,0,0,0,0,0l-0.6-0.3c-0.2-0.1-0.6-0.1-0.8,0l-2,1.1
						L83.2,72l0,0.3c0,0.1,0.1,0.2,0.2,0.2l0.6,0.3c0.2,0.1,0.6,0.1,0.8,0l2.1-1.2C86.9,71.5,87,71.4,87,71.3L87,71.3L87,71.3z"/>
					<path class="st1" d="M90.3,69.4C90.3,69.4,90.3,69.4,90.3,69.4v-0.2l-0.1,0c0,0,0,0,0,0l-0.6-0.3c-0.2-0.1-0.6-0.1-0.8,0
						l-2,1.1L86.5,70l0,0.3c0,0.1,0.1,0.2,0.2,0.2l0.6,0.3c0.2,0.1,0.6,0.1,0.8,0l2.1-1.2C90.2,69.5,90.3,69.5,90.3,69.4L90.3,69.4
						L90.3,69.4z"/>
					<path class="st1" d="M55.3,97.2l-0.2,0c0,0,0,0,0,0L53,96c-0.2-0.1-0.6-0.1-0.8,0l-3.9,2.3l-0.2,0v0.2c0,0,0,0,0,0v0l0,0
						c0,0.1,0.1,0.2,0.2,0.2l2.1,1.2c0.2,0.1,0.6,0.1,0.8,0l4-2.3c0.1-0.1,0.2-0.1,0.2-0.2h0V97.2z"/>
					<path class="st1" d="M60.3,98.2l-0.1,0c0,0,0,0,0,0L58,97c-0.2-0.1-0.6-0.1-0.8,0l-5.5,3.2l-0.3,0.1v0.2l0,0
						c0,0.1,0.1,0.2,0.2,0.2l2.1,1.2c0.2,0.1,0.6,0.1,0.8,0l5.6-3.3c0.1-0.1,0.2-0.1,0.2-0.2l0,0V98.2z"/>
					<path class="st1" d="M63.7,100.2l-0.1,0c0,0,0,0,0,0L61.4,99c-0.2-0.1-0.6-0.1-0.8,0l-5.5,3.2l-0.3,0.1v0.2l0,0
						c0,0.1,0.1,0.2,0.2,0.2l2.1,1.2c0.2,0.1,0.6,0.1,0.8,0l5.6-3.3c0.1-0.1,0.2-0.1,0.2-0.2l0,0V100.2z"/>
					<path class="st1" d="M97,73l-0.2,0c0,0,0,0,0,0l-2.1-1.2c-0.2-0.1-0.6-0.1-0.8,0l-4,2.3l-0.2,0v0.2c0,0,0,0,0,0v0l0,0
						c0,0.1,0.1,0.2,0.2,0.2l2.1,1.2c0.2,0.1,0.6,0.1,0.8,0l4.1-2.4c0.1-0.1,0.2-0.1,0.2-0.2l0,0V73z"/>
					<path class="st1" d="M100.2,75l-2.1-1.2c-0.2-0.1-0.6-0.1-0.8,0L91.6,77c-0.2,0.1-0.2,0.3,0,0.4l2.1,1.2c0.2,0.1,0.6,0.1,0.8,0
						l5.7-3.3C100.4,75.3,100.4,75.1,100.2,75L100.2,75z"/>
					<path class="st1" d="M102.1,80.1C102.1,80.1,102.1,80.1,102.1,80.1v-0.2l-0.1,0c0,0,0,0,0,0l-0.6-0.3c-0.2-0.1-0.6-0.1-0.8,0
						l-2,1.1l-0.3,0.1l0,0.3c0,0.1,0.1,0.2,0.2,0.2l0.6,0.3c0.2,0.1,0.6,0.1,0.8,0l2.1-1.2C102.1,80.3,102.1,80.2,102.1,80.1
						L102.1,80.1L102.1,80.1z"/>
					<path class="st1" d="M103.7,81C103.7,81,103.7,81,103.7,81v-0.2l-0.1,0c0,0,0,0,0,0l-0.6-0.3c-0.2-0.1-0.6-0.1-0.8,0l-2,1.1
						l-0.3,0.1l0,0.3c0,0.1,0.1,0.2,0.2,0.2l0.6,0.3c0.2,0.1,0.6,0.1,0.8,0l2.1-1.2C103.6,81.2,103.7,81.1,103.7,81L103.7,81
						L103.7,81z"/>
					<path class="st1" d="M66.8,98.3L64.7,97c-0.2-0.1-0.6-0.1-0.8,0l-2.1,1.2c-0.2,0.1-0.2,0.3,0,0.4l2.1,1.2
						c0.2,0.1,0.6,0.1,0.8,0l2.1-1.2C67,98.6,67,98.4,66.8,98.3L66.8,98.3z"/>
				</g>
				<path class="st1" d="M47.2,94.4L47.2,94.4l0-0.3l-0.2,0c0,0,0,0,0,0l-0.6-0.3c-0.2-0.1-0.6-0.1-0.8,0l-2.4,1.4l-0.3,0.1v0.3l0,0
					c0,0.1,0.1,0.1,0.2,0.2l0.6,0.3c0.2,0.1,0.6,0.1,0.8,0l2.6-1.5C47.2,94.6,47.2,94.5,47.2,94.4z"/>
				<g>
					<path class="st41" d="M49.9,96.2l-2.1-1.2c-0.2-0.1-0.6-0.1-0.8,0l-2.1,1.2c-0.2,0.1-0.2,0.3,0,0.4l2.1,1.2
						c0.2,0.1,0.6,0.1,0.8,0l2.1-1.2C50.1,96.5,50.1,96.3,49.9,96.2L49.9,96.2z"/>
					<path class="st41" d="M53.2,94.3L51.1,93c-0.2-0.1-0.6-0.1-0.8,0l-2.1,1.2c-0.2,0.1-0.2,0.3,0,0.4l2.1,1.2
						c0.2,0.1,0.6,0.1,0.8,0l2.1-1.2C53.4,94.6,53.4,94.4,53.2,94.3L53.2,94.3z"/>
					<path class="st41" d="M56.5,92.3l-2.1-1.2c-0.2-0.1-0.6-0.1-0.8,0l-2.1,1.2c-0.2,0.1-0.2,0.3,0,0.4l2.1,1.2
						c0.2,0.1,0.6,0.1,0.8,0l2.1-1.2C56.7,92.6,56.7,92.4,56.5,92.3L56.5,92.3z"/>
					<path class="st41" d="M59.8,90.4l-2.1-1.2c-0.2-0.1-0.6-0.1-0.8,0l-2.1,1.2c-0.2,0.1-0.2,0.3,0,0.4l2.1,1.2
						c0.2,0.1,0.6,0.1,0.8,0l2.1-1.2C60,90.7,60,90.5,59.8,90.4L59.8,90.4z"/>
					<path class="st41" d="M63.1,88.5L61,87.2c-0.2-0.1-0.6-0.1-0.8,0l-2.1,1.2c-0.2,0.1-0.2,0.3,0,0.4l2.1,1.2
						c0.2,0.1,0.6,0.1,0.8,0l2.1-1.2C63.3,88.8,63.3,88.6,63.1,88.5L63.1,88.5z"/>
					<path class="st41" d="M66.4,86.5l-2.1-1.2c-0.2-0.1-0.6-0.1-0.8,0l-2.1,1.2c-0.2,0.1-0.2,0.3,0,0.4l2.1,1.2
						c0.2,0.1,0.6,0.1,0.8,0l2.1-1.2C66.7,86.9,66.7,86.7,66.4,86.5L66.4,86.5z"/>
					<path class="st41" d="M69.8,84.6l-2.1-1.2c-0.2-0.1-0.6-0.1-0.8,0l-2.1,1.2c-0.2,0.1-0.2,0.3,0,0.4l2.1,1.2
						c0.2,0.1,0.6,0.1,0.8,0l2.1-1.2C70,84.9,70,84.7,69.8,84.6L69.8,84.6z"/>
					<path class="st41" d="M73.1,82.7l-2.1-1.2c-0.2-0.1-0.6-0.1-0.8,0l-2.1,1.2c-0.2,0.1-0.2,0.3,0,0.4l2.1,1.2
						c0.2,0.1,0.6,0.1,0.8,0l2.1-1.2C73.3,83,73.3,82.8,73.1,82.7L73.1,82.7z"/>
					<path class="st41" d="M76.4,80.8l-2.1-1.2c-0.2-0.1-0.6-0.1-0.8,0l-2.1,1.2c-0.2,0.1-0.2,0.3,0,0.4l2.1,1.2
						c0.2,0.1,0.6,0.1,0.8,0l2.1-1.2C76.6,81.1,76.6,80.9,76.4,80.8L76.4,80.8z"/>
					<path class="st41" d="M79.7,78.8l-2.1-1.2c-0.2-0.1-0.6-0.1-0.8,0l-2.1,1.2c-0.2,0.1-0.2,0.3,0,0.4l2.1,1.2
						c0.2,0.1,0.6,0.1,0.8,0l2.1-1.2C79.9,79.2,79.9,79,79.7,78.8L79.7,78.8z"/>
					<path class="st41" d="M83,76.9l-2.1-1.2c-0.2-0.1-0.6-0.1-0.8,0L78,76.9c-0.2,0.1-0.2,0.3,0,0.4l2.1,1.2c0.2,0.1,0.6,0.1,0.8,0
						l2.1-1.2C83.2,77.2,83.2,77,83,76.9L83,76.9z"/>
					<path class="st41" d="M61.7,93.2l-2.1-1.2c-0.2-0.1-0.6-0.1-0.8,0l-2.1,1.2c-0.2,0.1-0.2,0.3,0,0.4l2.1,1.2
						c0.2,0.1,0.6,0.1,0.8,0l2.1-1.2C61.9,93.5,61.9,93.3,61.7,93.2L61.7,93.2z"/>
					<path class="st41" d="M65,91.2L62.9,90c-0.2-0.1-0.6-0.1-0.8,0L60,91.2c-0.2,0.1-0.2,0.3,0,0.4l2.1,1.2c0.2,0.1,0.6,0.1,0.8,0
						l2.1-1.2C65.2,91.6,65.2,91.4,65,91.2L65,91.2z"/>
					<path class="st41" d="M68.3,89.3l-2.1-1.2c-0.2-0.1-0.6-0.1-0.8,0l-2.1,1.2c-0.2,0.1-0.2,0.3,0,0.4l2.1,1.2
						c0.2,0.1,0.6,0.1,0.8,0l2.1-1.2C68.5,89.6,68.5,89.4,68.3,89.3L68.3,89.3z"/>
					<path class="st41" d="M71.6,87.4l-2.1-1.2c-0.2-0.1-0.6-0.1-0.8,0l-2.1,1.2c-0.2,0.1-0.2,0.3,0,0.4l2.1,1.2
						c0.2,0.1,0.6,0.1,0.8,0l2.1-1.2C71.9,87.7,71.9,87.5,71.6,87.4L71.6,87.4z"/>
					<path class="st41" d="M75,85.5l-2.1-1.2c-0.2-0.1-0.6-0.1-0.8,0l-2.1,1.2c-0.2,0.1-0.2,0.3,0,0.4l2.1,1.2
						c0.2,0.1,0.6,0.1,0.8,0l2.1-1.2C75.2,85.8,75.2,85.6,75,85.5L75,85.5z"/>
					<path class="st41" d="M78.3,83.5l-2.1-1.2c-0.2-0.1-0.6-0.1-0.8,0l-2.1,1.2c-0.2,0.1-0.2,0.3,0,0.4l2.1,1.2
						c0.2,0.1,0.6,0.1,0.8,0l2.1-1.2C78.5,83.9,78.5,83.7,78.3,83.5L78.3,83.5z"/>
					<path class="st41" d="M81.6,81.6l-2.1-1.2c-0.2-0.1-0.6-0.1-0.8,0l-2.1,1.2c-0.2,0.1-0.2,0.3,0,0.4l2.1,1.2
						c0.2,0.1,0.6,0.1,0.8,0l2.1-1.2C81.8,81.9,81.8,81.7,81.6,81.6L81.6,81.6z"/>
					<path class="st41" d="M84.9,79.7l-2.1-1.2c-0.2-0.1-0.6-0.1-0.8,0l-2.1,1.2c-0.2,0.1-0.2,0.3,0,0.4l2.1,1.2
						c0.2,0.1,0.6,0.1,0.8,0l2.1-1.2C85.1,80,85.1,79.8,84.9,79.7L84.9,79.7z"/>
					<path class="st41" d="M88.2,77.8l-2.1-1.2c-0.2-0.1-0.6-0.1-0.8,0l-2.1,1.2c-0.2,0.1-0.2,0.3,0,0.4l2.1,1.2
						c0.2,0.1,0.6,0.1,0.8,0l2.1-1.2C88.4,78.1,88.4,77.9,88.2,77.8L88.2,77.8z"/>
					<path class="st41" d="M91.5,75.8l-2.1-1.2c-0.2-0.1-0.6-0.1-0.8,0l-2.1,1.2c-0.2,0.1-0.2,0.3,0,0.4l2.1,1.2
						c0.2,0.1,0.6,0.1,0.8,0l2.1-1.2C91.8,76.1,91.7,75.9,91.5,75.8L91.5,75.8z"/>
					<path class="st41" d="M86.3,75l-2.1-1.2c-0.2-0.1-0.6-0.1-0.8,0L81.3,75c-0.2,0.1-0.2,0.3,0,0.4l2.1,1.2c0.2,0.1,0.6,0.1,0.8,0
						l2.1-1.2C86.5,75.3,86.5,75.1,86.3,75L86.3,75z"/>
					<path class="st41" d="M89.6,73.1l-2.1-1.2c-0.2-0.1-0.6-0.1-0.8,0l-2.1,1.2c-0.2,0.1-0.2,0.3,0,0.4l2.1,1.2
						c0.2,0.1,0.6,0.1,0.8,0l2.1-1.2C89.9,73.4,89.9,73.2,89.6,73.1L89.6,73.1z"/>
					<path class="st41" d="M63.3,103.9l-2.1-1.2c-0.2-0.1-0.6-0.1-0.8,0l-2.1,1.2c-0.2,0.1-0.2,0.3,0,0.4l2.1,1.2
						c0.2,0.1,0.6,0.1,0.8,0l2.1-1.2C63.5,104.3,63.5,104.1,63.3,103.9L63.3,103.9z"/>
					<path class="st41" d="M66.6,102l-2.1-1.2c-0.2-0.1-0.6-0.1-0.8,0l-2.1,1.2c-0.2,0.1-0.2,0.3,0,0.4l2.1,1.2
						c0.2,0.1,0.6,0.1,0.8,0l2.1-1.2C66.8,102.3,66.8,102.1,66.6,102L66.6,102z"/>
					<path class="st41" d="M69.9,100.1l-2.1-1.2c-0.2-0.1-0.6-0.1-0.8,0l-2.1,1.2c-0.2,0.1-0.2,0.3,0,0.4l2.1,1.2
						c0.2,0.1,0.6,0.1,0.8,0l2.1-1.2C70.1,100.4,70.1,100.2,69.9,100.1L69.9,100.1z"/>
					<path class="st41" d="M73.2,98.2l-2.1-1.2c-0.2-0.1-0.6-0.1-0.8,0l-2.1,1.2c-0.2,0.1-0.2,0.3,0,0.4l2.1,1.2
						c0.2,0.1,0.6,0.1,0.8,0l2.1-1.2C73.5,98.5,73.5,98.3,73.2,98.2L73.2,98.2z"/>
					<path class="st41" d="M58.4,95.1l-2.1-1.2c-0.2-0.1-0.6-0.1-0.8,0l-2.1,1.2c-0.2,0.1-0.2,0.3,0,0.4l2.1,1.2
						c0.2,0.1,0.6,0.1,0.8,0l2.1-1.2C58.6,95.4,58.6,95.2,58.4,95.1L58.4,95.1z"/>
					<path class="st41" d="M93.5,70.8l-2.1-1.2c-0.2-0.1-0.6-0.1-0.8,0l-2.6,1.5c-0.2,0.1-0.2,0.3,0,0.4l2.1,1.2
						c0.2,0.1,0.6,0.1,0.8,0l2.6-1.5C93.7,71.2,93.7,71,93.5,70.8L93.5,70.8z"/>
					<path class="st41" d="M93.6,86.3l-2.1-1.2c-0.2-0.1-0.6-0.1-0.8,0L71.5,96.2c-0.2,0.1-0.2,0.3,0,0.4l2.1,1.2
						c0.2,0.1,0.6,0.1,0.8,0l19.1-11.1C93.8,86.7,93.8,86.5,93.6,86.3L93.6,86.3z"/>
					<path class="st41" d="M50.4,92l-0.6-0.3c-0.2-0.1-0.6-0.1-0.8,0l-2.1,1.2c-0.2,0.1-0.2,0.3,0,0.4l0.6,0.3
						c0.2,0.1,0.6,0.1,0.8,0l2.1-1.2C50.6,92.3,50.6,92.1,50.4,92L50.4,92z"/>
					<path class="st41" d="M53.7,90.1l-0.6-0.3c-0.2-0.1-0.6-0.1-0.8,0L50.2,91c-0.2,0.1-0.2,0.3,0,0.4l0.6,0.3
						c0.2,0.1,0.6,0.1,0.8,0l2.1-1.2C53.9,90.4,53.9,90.2,53.7,90.1L53.7,90.1z"/>
					<path class="st41" d="M57,88.2l-0.6-0.3c-0.2-0.1-0.6-0.1-0.8,0l-2.1,1.2c-0.2,0.1-0.2,0.3,0,0.4l0.6,0.3
						c0.2,0.1,0.6,0.1,0.8,0l2.1-1.2C57.2,88.5,57.2,88.3,57,88.2L57,88.2z"/>
					<path class="st41" d="M60.3,86.2l-0.6-0.3c-0.2-0.1-0.6-0.1-0.8,0l-2.1,1.2c-0.2,0.1-0.2,0.3,0,0.4l0.6,0.3
						c0.2,0.1,0.6,0.1,0.8,0l2.1-1.2C60.5,86.6,60.5,86.4,60.3,86.2L60.3,86.2z"/>
					<path class="st41" d="M63.6,84.3L63,84c-0.2-0.1-0.6-0.1-0.8,0l-2.1,1.2c-0.2,0.1-0.2,0.3,0,0.4l0.6,0.3c0.2,0.1,0.6,0.1,0.8,0
						l2.1-1.2C63.8,84.6,63.8,84.4,63.6,84.3L63.6,84.3z"/>
					<path class="st41" d="M66.9,82.4l-0.6-0.3c-0.2-0.1-0.6-0.1-0.8,0l-2.1,1.2c-0.2,0.1-0.2,0.3,0,0.4l0.6,0.3
						c0.2,0.1,0.6,0.1,0.8,0l2.1-1.2C67.1,82.7,67.1,82.5,66.9,82.4L66.9,82.4z"/>
					<path class="st41" d="M70.2,80.5l-0.6-0.3c-0.2-0.1-0.6-0.1-0.8,0l-2.1,1.2c-0.2,0.1-0.2,0.3,0,0.4l0.6,0.3
						c0.2,0.1,0.6,0.1,0.8,0l2.1-1.2C70.5,80.8,70.5,80.6,70.2,80.5L70.2,80.5z"/>
					<path class="st41" d="M73.6,78.5L73,78.2c-0.2-0.1-0.6-0.1-0.8,0l-2.1,1.2c-0.2,0.1-0.2,0.3,0,0.4l0.6,0.3
						c0.2,0.1,0.6,0.1,0.8,0l2.1-1.2C73.8,78.9,73.8,78.7,73.6,78.5L73.6,78.5z"/>
					<path class="st41" d="M76.9,76.6l-0.6-0.3c-0.2-0.1-0.6-0.1-0.8,0l-2.1,1.2c-0.2,0.1-0.2,0.3,0,0.4l0.6,0.3
						c0.2,0.1,0.6,0.1,0.8,0l2.1-1.2C77.1,76.9,77.1,76.7,76.9,76.6L76.9,76.6z"/>
					<path class="st41" d="M80.2,74.7l-0.6-0.3c-0.2-0.1-0.6-0.1-0.8,0l-2.1,1.2c-0.2,0.1-0.2,0.3,0,0.4l0.6,0.3
						c0.2,0.1,0.6,0.1,0.8,0l2.1-1.2C80.4,75,80.4,74.8,80.2,74.7L80.2,74.7z"/>
					<path class="st41" d="M83.5,72.8l-0.6-0.3c-0.2-0.1-0.6-0.1-0.8,0L80,73.7c-0.2,0.1-0.2,0.3,0,0.4l0.6,0.3
						c0.2,0.1,0.6,0.1,0.8,0l2.1-1.2C83.7,73.1,83.7,72.9,83.5,72.8L83.5,72.8z"/>
					<path class="st41" d="M86.8,70.8l-0.6-0.3c-0.2-0.1-0.6-0.1-0.8,0l-2.1,1.2c-0.2,0.1-0.2,0.3,0,0.4l0.6,0.3
						c0.2,0.1,0.6,0.1,0.8,0l2.1-1.2C87,71.2,87,71,86.8,70.8L86.8,70.8z"/>
					<path class="st41" d="M90.1,68.9l-0.6-0.3c-0.2-0.1-0.6-0.1-0.8,0l-2.1,1.2c-0.2,0.1-0.2,0.3,0,0.4l0.6,0.3
						c0.2,0.1,0.6,0.1,0.8,0l2.1-1.2C90.3,69.2,90.3,69,90.1,68.9L90.1,68.9z"/>
					<path class="st41" d="M47,94l-0.6-0.3c-0.2-0.1-0.6-0.1-0.8,0l-2.6,1.5c-0.2,0.1-0.2,0.3,0,0.4l0.6,0.3c0.2,0.1,0.6,0.1,0.8,0
						l2.6-1.5C47.3,94.3,47.3,94.1,47,94L47,94z"/>
					<path class="st41" d="M55.1,97L53,95.8c-0.2-0.1-0.6-0.1-0.8,0l-4,2.3c-0.2,0.1-0.2,0.3,0,0.4l2.1,1.2c0.2,0.1,0.6,0.1,0.8,0
						l4-2.3C55.3,97.4,55.3,97.2,55.1,97L55.1,97z"/>
					<path class="st41" d="M60.1,98L58,96.8c-0.2-0.1-0.6-0.1-0.8,0l-5.6,3.3c-0.2,0.1-0.2,0.3,0,0.4l2.1,1.2c0.2,0.1,0.6,0.1,0.8,0
						l5.6-3.3C60.3,98.3,60.3,98.1,60.1,98L60.1,98z"/>
					<path class="st41" d="M63.5,100l-2.1-1.2c-0.2-0.1-0.6-0.1-0.8,0l-5.6,3.3c-0.2,0.1-0.2,0.3,0,0.4l2.1,1.2
						c0.2,0.1,0.6,0.1,0.8,0l5.6-3.3C63.7,100.3,63.7,100.1,63.5,100L63.5,100z"/>
					<path class="st41" d="M96.8,72.8l-2.1-1.2c-0.2-0.1-0.6-0.1-0.8,0l-4.1,2.4c-0.2,0.1-0.2,0.3,0,0.4l2.1,1.2
						c0.2,0.1,0.6,0.1,0.8,0l4.1-2.4C97,73.1,97,72.9,96.8,72.8L96.8,72.8z"/>
					<path class="st41" d="M100.2,74.7l-2.1-1.2c-0.2-0.1-0.6-0.1-0.8,0l-5.7,3.3c-0.2,0.1-0.2,0.3,0,0.4l2.1,1.2
						c0.2,0.1,0.6,0.1,0.8,0l5.7-3.3C100.4,75,100.4,74.8,100.2,74.7L100.2,74.7z"/>
					<path class="st41" d="M102,79.7l-0.6-0.3c-0.2-0.1-0.6-0.1-0.8,0l-2.1,1.2c-0.2,0.1-0.2,0.3,0,0.4l0.6,0.3
						c0.2,0.1,0.6,0.1,0.8,0l2.1-1.2C102.2,80,102.2,79.8,102,79.7L102,79.7z"/>
					<path class="st41" d="M103.5,80.6l-0.6-0.3c-0.2-0.1-0.6-0.1-0.8,0l-2.1,1.2c-0.2,0.1-0.2,0.3,0,0.4l0.6,0.3
						c0.2,0.1,0.6,0.1,0.8,0l2.1-1.2C103.7,80.9,103.7,80.7,103.5,80.6L103.5,80.6z"/>
					<path class="st41" d="M89.9,80.7l-2.1-1.2c-0.2-0.1-0.6-0.1-0.8,0l-2.1,1.2c-0.2,0.1-0.2,0.3,0,0.4l2.1,1.2
						c0.2,0.1,0.6,0.1,0.8,0l2.1-1.2C90.2,81,90.2,80.8,89.9,80.7L89.9,80.7z"/>
					<path class="st41" d="M93.3,78.7l-2.1-1.2c-0.2-0.1-0.6-0.1-0.8,0l-2.1,1.2c-0.2,0.1-0.2,0.3,0,0.4l2.1,1.2
						c0.2,0.1,0.6,0.1,0.8,0l2.1-1.2C93.5,79.1,93.5,78.9,93.3,78.7L93.3,78.7z"/>
					<path class="st41" d="M93.3,82.6l-2.1-1.2c-0.2-0.1-0.6-0.1-0.8,0l-2.1,1.2c-0.2,0.1-0.2,0.3,0,0.4l2.1,1.2
						c0.2,0.1,0.6,0.1,0.8,0l2.1-1.2C93.5,82.9,93.5,82.7,93.3,82.6L93.3,82.6z"/>
					<path class="st41" d="M96.6,80.7l-2.1-1.2c-0.2-0.1-0.6-0.1-0.8,0l-2.1,1.2c-0.2,0.1-0.2,0.3,0,0.4l2.1,1.2
						c0.2,0.1,0.6,0.1,0.8,0l2.1-1.2C96.9,81,96.9,80.8,96.6,80.7L96.6,80.7z"/>
					<path class="st41" d="M100,78.8l-2.1-1.2c-0.2-0.1-0.6-0.1-0.8,0l-2.1,1.2c-0.2,0.1-0.2,0.3,0,0.4l2.1,1.2
						c0.2,0.1,0.6,0.1,0.8,0l2.1-1.2C100.2,79.1,100.2,78.9,100,78.8L100,78.8z"/>
					<path class="st41" d="M103.6,76.7l-2.1-1.2c-0.2-0.1-0.6-0.1-0.8,0l-2.4,1.4c-0.2,0.1-0.2,0.3,0,0.4l2.1,1.2
						c0.2,0.1,0.6,0.1,0.8,0l2.4-1.4C103.8,77,103.8,76.8,103.6,76.7L103.6,76.7z"/>
					<path class="st41" d="M83.3,84.5l-2.1-1.2c-0.2-0.1-0.6-0.1-0.8,0l-2.1,1.2c-0.2,0.1-0.2,0.3,0,0.4l2.1,1.2
						c0.2,0.1,0.6,0.1,0.8,0l2.1-1.2C83.5,84.8,83.5,84.6,83.3,84.5L83.3,84.5z"/>
					<path class="st41" d="M86.6,82.6l-2.1-1.2c-0.2-0.1-0.6-0.1-0.8,0l-2.1,1.2c-0.2,0.1-0.2,0.3,0,0.4l2.1,1.2
						c0.2,0.1,0.6,0.1,0.8,0l2.1-1.2C86.8,82.9,86.8,82.7,86.6,82.6L86.6,82.6z"/>
					<path class="st41" d="M86.7,86.5l-2.1-1.2c-0.2-0.1-0.6-0.1-0.8,0l-2.1,1.2c-0.2,0.1-0.2,0.3,0,0.4l2.1,1.2
						c0.2,0.1,0.6,0.1,0.8,0l2.1-1.2C86.9,86.8,86.9,86.6,86.7,86.5L86.7,86.5z"/>
					<path class="st41" d="M90,84.5l-2.1-1.2c-0.2-0.1-0.6-0.1-0.8,0L85,84.5c-0.2,0.1-0.2,0.3,0,0.4l2.1,1.2c0.2,0.1,0.6,0.1,0.8,0
						L90,85C90.2,84.9,90.2,84.7,90,84.5L90,84.5z"/>
					<path class="st41" d="M76.7,88.4l-2.1-1.2c-0.2-0.1-0.6-0.1-0.8,0l-2.1,1.2c-0.2,0.1-0.2,0.3,0,0.4l2.1,1.2
						c0.2,0.1,0.6,0.1,0.8,0l2.1-1.2C76.9,88.7,76.9,88.5,76.7,88.4L76.7,88.4z"/>
					<path class="st41" d="M80,86.4l-2.1-1.2c-0.2-0.1-0.6-0.1-0.8,0L75,86.4c-0.2,0.1-0.2,0.3,0,0.4l2.1,1.2c0.2,0.1,0.6,0.1,0.8,0
						l2.1-1.2C80.2,86.8,80.2,86.6,80,86.4L80,86.4z"/>
					<path class="st41" d="M80.1,90.3l-2.1-1.2c-0.2-0.1-0.6-0.1-0.8,0l-2.1,1.2c-0.2,0.1-0.2,0.3,0,0.4l2.1,1.2
						c0.2,0.1,0.6,0.1,0.8,0l2.1-1.2C80.3,90.6,80.3,90.4,80.1,90.3L80.1,90.3z"/>
					<path class="st41" d="M83.4,88.4l-2.1-1.2c-0.2-0.1-0.6-0.1-0.8,0l-2.1,1.2c-0.2,0.1-0.2,0.3,0,0.4l2.1,1.2
						c0.2,0.1,0.6,0.1,0.8,0l2.1-1.2C83.6,88.7,83.6,88.5,83.4,88.4L83.4,88.4z"/>
					<path class="st41" d="M70.1,92.2L67.9,91c-0.2-0.1-0.6-0.1-0.8,0L65,92.2c-0.2,0.1-0.2,0.3,0,0.4l2.1,1.2
						c0.2,0.1,0.6,0.1,0.8,0l2.1-1.2C70.3,92.5,70.3,92.3,70.1,92.2L70.1,92.2z"/>
					<path class="st41" d="M73.4,90.3l-2.1-1.2c-0.2-0.1-0.6-0.1-0.8,0l-2.1,1.2c-0.2,0.1-0.2,0.3,0,0.4l2.1,1.2
						c0.2,0.1,0.6,0.1,0.8,0l2.1-1.2C73.6,90.6,73.6,90.4,73.4,90.3L73.4,90.3z"/>
					<path class="st41" d="M73.4,94.2l-2.1-1.2c-0.2-0.1-0.6-0.1-0.8,0l-2.1,1.2c-0.2,0.1-0.2,0.3,0,0.4l2.1,1.2
						c0.2,0.1,0.6,0.1,0.8,0l2.1-1.2C73.7,94.5,73.7,94.3,73.4,94.2L73.4,94.2z"/>
					<path class="st41" d="M76.8,92.3L74.6,91c-0.2-0.1-0.6-0.1-0.8,0l-2.1,1.2c-0.2,0.1-0.2,0.3,0,0.4l2.1,1.2
						c0.2,0.1,0.6,0.1,0.8,0l2.1-1.2C77,92.6,77,92.4,76.8,92.3L76.8,92.3z"/>
					<path class="st41" d="M63.4,96.1l-2.1-1.2c-0.2-0.1-0.6-0.1-0.8,0l-2.1,1.2c-0.2,0.1-0.2,0.3,0,0.4l2.1,1.2
						c0.2,0.1,0.6,0.1,0.8,0l2.1-1.2C63.6,96.4,63.6,96.2,63.4,96.1L63.4,96.1z"/>
					<path class="st41" d="M66.7,94.2l-2.1-1.2c-0.2-0.1-0.6-0.1-0.8,0l-2.1,1.2c-0.2,0.1-0.2,0.3,0,0.4l2.1,1.2
						c0.2,0.1,0.6,0.1,0.8,0l2.1-1.2C67,94.5,67,94.3,66.7,94.2L66.7,94.2z"/>
					<path class="st41" d="M66.8,98l-2.1-1.2c-0.2-0.1-0.6-0.1-0.8,0L61.8,98c-0.2,0.1-0.2,0.3,0,0.4l2.1,1.2c0.2,0.1,0.6,0.1,0.8,0
						l2.1-1.2C67,98.4,67,98.2,66.8,98L66.8,98z"/>
					<path class="st41" d="M70.1,96.1L68,94.9c-0.2-0.1-0.6-0.1-0.8,0l-2.1,1.2c-0.2,0.1-0.2,0.3,0,0.4l2.1,1.2
						c0.2,0.1,0.6,0.1,0.8,0l2.1-1.2C70.3,96.4,70.3,96.2,70.1,96.1L70.1,96.1z"/>
					<path class="st41" d="M96.9,84.4l-2.1-1.2c-0.2-0.1-0.6-0.1-0.8,0l-2.1,1.2c-0.2,0.1-0.2,0.3,0,0.4l2.1,1.2
						c0.2,0.1,0.6,0.1,0.8,0l2.1-1.2C97.1,84.7,97.1,84.5,96.9,84.4L96.9,84.4z"/>
					<path class="st41" d="M100.2,82.5l-2.1-1.2c-0.2-0.1-0.6-0.1-0.8,0l-2.1,1.2c-0.2,0.1-0.2,0.3,0,0.4l2.1,1.2
						c0.2,0.1,0.6,0.1,0.8,0l2.1-1.2C100.4,82.8,100.4,82.6,100.2,82.5L100.2,82.5z"/>
					<path class="st41" d="M106.9,78.6l-2.1-1.2c-0.2-0.1-0.6-0.1-0.8,0l-2.1,1.2c-0.2,0.1-0.2,0.3,0,0.4l2.1,1.2
						c0.2,0.1,0.6,0.1,0.8,0l2.1-1.2C107.1,78.9,107.1,78.7,106.9,78.6L106.9,78.6z"/>
				</g>
			</g>
		</g>
	</g>
</g>
</svg>
